<svg width="481" height="246" viewBox="0 0 481 246" fill="none" xmlns="http://www.w3.org/2000/svg">
<path d="M459.65 136.002L458.143 148.007L454.403 177.825H379.278C379.865 171.142 380.667 161.522 381.524 151.138C381.608 150.101 381.697 149.057 381.781 148.007C383.93 121.904 386.281 92.3651 386.281 92.3651L396.157 94.2061L415.319 97.7712L423.128 99.2232L444.037 103.119C454.462 105.057 461.633 120.16 459.65 136.002V136.002Z" fill="#F2F2F2"/>
<path d="M402.825 44.061L412.063 60.2367L394.307 72.8275L386.732 52.9445L402.825 44.061Z" fill="#FFB6B6"/>
<path d="M391.063 59.3639C403.703 59.3639 413.95 49.1114 413.95 36.4643C413.95 23.8173 403.703 13.5648 391.063 13.5648C378.423 13.5648 368.177 23.8173 368.177 36.4643C368.177 49.1114 378.423 59.3639 391.063 59.3639Z" fill="#FFB6B6"/>
<path d="M389.42 41.5837C387.603 38.8164 388.316 37.369 386.795 36.352C386.795 36.3519 386.182 35.9427 381.801 35.7094C380.82 28.6448 379.595 27.7881 379.595 27.7881C378.184 26.8007 376.089 27.1215 374.786 27.7254C372.03 29.0027 372.35 31.7616 370.494 32.2895C367.931 33.0189 363.267 28.9074 362.807 24.2006C362.433 20.3611 364.905 16.6321 365.885 16.8294C366.858 17.025 369.185 14.0516 370.442 14.0975C371.301 14.1288 374.808 12.6037 375.751 12.7229C376.781 12.8531 380.178 14.6269 380.32 14.2216C381.304 11.4056 381.014 10.6242 381.849 9.81859C383.328 8.39104 385.748 9.38515 389.544 9.91885C397.353 11.0169 398.717 8.44032 402.719 10.1868C404.741 11.069 406.433 13.4482 409.734 18.1707C414.35 24.7751 416.658 28.0772 416.673 31.9287C416.688 35.8566 414.787 35.6072 413.952 41.4221C413.023 47.895 414.998 50.8548 412.84 52.9577C411.173 54.583 407.783 54.9688 406.003 53.5424C402.954 51.1002 406.944 45.2072 403.57 40.9018C401.499 38.259 397.334 37.0831 395.426 38.3894C393.268 39.8666 394.457 44.2022 392.94 44.6133C391.641 44.9654 389.737 42.0659 389.42 41.5837L389.42 41.5837Z" fill="#2F2E41"/>
<path d="M442.733 131.775C442.095 142.696 439.559 146.144 438.671 159.041C438.477 161.873 438.361 165.16 438.361 169.08C438.361 170.079 438.366 171.045 438.366 171.989C438.366 173.999 438.328 175.898 438.094 177.825C437.917 179.362 437.612 180.912 437.107 182.544H387.814C387.809 182.533 387.809 182.522 387.803 182.511C387.515 181.256 387.331 180.057 387.193 178.907C387.148 178.541 387.109 178.18 387.076 177.825C387.032 177.408 386.993 176.997 386.954 176.592C386.804 174.976 386.655 173.449 386.299 171.989C385.822 169.974 384.956 168.075 383.18 166.243C382.454 165.493 381.727 164.91 381.017 164.399C380.878 164.305 380.745 164.211 380.606 164.116C378.641 162.767 376.783 161.795 375.173 159.041C375.146 159.003 375.123 158.958 375.101 158.919C374.824 158.436 374.102 157.17 373.581 155.483C373.031 153.728 372.698 151.524 373.298 149.27C374.724 143.928 380.007 143.395 384.324 137.999C384.79 137.416 385.251 136.772 385.689 136.055C387.642 132.879 388.169 130.081 388.791 126.755C388.89 126.217 388.979 125.684 389.051 125.168C389.107 124.779 389.157 124.396 389.196 124.018C389.54 120.848 389.373 118.116 388.969 115.673C387.648 107.672 383.752 102.72 386.504 95.5408C387.37 93.2869 388.597 91.5933 389.834 90.1442C392.453 87.0737 395.145 85.0805 394.679 81.1165C394.207 77.1188 391.177 76.569 390.839 73.0766C390.666 71.3112 391.243 69.4512 392.326 67.6245V67.619C395.788 61.7391 404.434 56.3257 409.927 56.4978C410.943 56.5258 411.842 56.7532 412.591 57.1919C415.304 58.7908 414.172 62.2832 418.329 67.1804C421.419 70.817 424.915 72.2717 426.242 72.96C431.496 75.7031 435.769 83.7925 438.671 94.1362C438.693 94.214 438.716 94.2916 438.738 94.3751C440.531 100.854 441.796 108.211 442.423 115.673C442.689 118.832 442.844 122.008 442.878 125.151C442.906 127.66 442.85 129.837 442.733 131.775Z" fill="#15BAC0"/>
<path d="M405.822 169.191L404.817 171.989L404.185 173.744L402.719 177.824L401.021 182.544H390.106L391.938 177.824L392.787 175.626L394.196 171.989L396.56 165.882L405.822 169.191Z" fill="#FFB6B6"/>
<path d="M438.844 93.1811C438.816 93.5422 438.777 93.9418 438.738 94.375C438.306 98.7835 437.284 106.673 435.792 115.673C435.004 120.42 434.083 125.478 433.045 130.503C430.815 141.346 428.04 152.024 424.905 159.041C424.344 160.307 423.767 161.451 423.179 162.462C422.729 163.233 422.257 163.994 421.764 164.743C420.166 167.203 418.373 169.535 416.514 171.712C416.442 171.806 416.359 171.895 416.276 171.989C415.976 172.344 415.665 172.694 415.355 173.044C413.834 174.76 412.281 176.359 410.777 177.824C408.946 179.612 407.181 181.195 405.599 182.544H387.875L387.803 182.511L385.251 181.378C385.251 181.378 385.978 180.523 387.193 178.907C387.443 178.58 387.709 178.219 387.998 177.824C388.353 177.341 388.736 176.808 389.146 176.231C390.001 175.021 390.972 173.599 392.015 171.989C394.035 168.874 396.338 165.043 398.663 160.607C398.93 160.091 399.201 159.569 399.473 159.041C399.479 159.025 399.49 159.008 399.495 158.991C399.956 158.092 400.411 157.165 400.866 156.221C404.723 148.192 405.827 141.53 406.143 139.37C406.587 136.316 407.203 132.046 407.037 127.349C406.925 124.251 406.476 120.975 405.405 117.722V117.716C405.183 117.034 404.933 116.351 404.651 115.673C404.145 114.457 403.546 113.258 402.836 112.075C399.701 106.867 397.154 106.651 395.128 100.976C394.529 99.2942 393.169 95.4966 393.585 91.4878V91.4824C393.636 90.9881 393.719 90.4885 393.83 89.9886V89.9832C393.857 89.8443 393.896 89.7001 393.936 89.5613C394.251 88.3343 394.773 87.1181 395.567 85.9632C397.115 83.7204 399.229 82.3876 401.121 81.5938L401.127 81.5882C403.313 80.6778 405.2 80.4834 405.566 80.4501C413.673 79.7284 419.96 86.5464 423.395 90.2719C424.722 91.7098 425.937 92.9149 427.047 93.8973C435.686 101.615 438.056 96.6846 438.672 94.1362C438.766 93.742 438.816 93.4034 438.844 93.1811V93.1811Z" fill="#15BAC0"/>
<path d="M438.872 92.8926C438.872 92.9203 438.866 93.0146 438.844 93.1702C438.855 93.0867 438.861 93.0035 438.866 92.9257C438.866 92.9092 438.866 92.8981 438.872 92.8926Z" fill="#15BAC0"/>
<path d="M394.8 190.831H97.3421C94.5784 190.831 92.3257 193.079 92.3257 195.845C92.3257 198.615 94.5784 200.864 97.3421 200.864H394.8C397.564 200.864 399.811 198.615 399.811 195.845C399.811 193.079 397.564 190.831 394.8 190.831Z" fill="#E6E6E6" fill-opacity="0.75"/>
<path d="M328.789 208.1H163.349C160.585 208.1 158.338 210.349 158.338 213.114C158.338 215.879 160.585 218.133 163.349 218.133H328.789C331.552 218.133 333.805 215.879 333.805 213.114C333.805 210.349 331.552 208.1 328.789 208.1Z" fill="#E6E6E6" fill-opacity="0.5"/>
<path d="M130.442 45.1254L149.189 37.2314L157.23 53.7244L137.529 61.7698L130.442 45.1254Z" fill="#FFB6B6"/>
<path opacity="0.1" d="M130.442 45.1254L149.189 37.2314L157.23 53.7244L137.529 61.7698L130.442 45.1254Z" fill="black"/>
<path d="M133.107 38.8405L151.601 60.1608C151.601 60.1608 138.736 100.79 125.87 104.41C113.005 108.031 89.2845 125.731 89.2845 125.731L59.5332 106.422L74.0068 85.1015C74.0068 85.1015 108.985 37.2314 118.232 37.2314C127.479 37.2314 133.107 38.8405 133.107 38.8405V38.8405Z" fill="#15BAC0"/>
<path d="M108.12 177.825H65.0694L62.3475 174.184L51.235 159.32L48.678 155.901C48.678 155.901 39.029 138.201 41.0392 122.11C43.0494 106.02 63.9557 102.399 63.9557 102.399H64.8161L90.4102 124.902L88.8824 145.844L96.9876 159.32L108.12 177.825Z" fill="#2F2E41"/>
<path d="M73.8858 177.825H62.3472V160.728L73.8858 177.825Z" fill="#2F2E41"/>
<path d="M322.759 151.87L321.324 159.32L317.762 177.825H246.202C246.761 173.677 247.525 167.708 248.341 161.263C248.421 160.62 248.506 159.972 248.586 159.32C250.633 143.121 252.872 124.789 252.872 124.789L262.28 125.932L280.533 128.144L287.97 129.045L307.888 131.463C317.818 132.666 324.649 142.039 322.759 151.87H322.759Z" fill="#F2F2F2"/>
<path d="M424.03 177.825H385.217C385.808 177.129 386.141 176.726 386.141 176.726L397.777 174.804L421.75 170.845C421.75 170.845 422.844 173.673 424.03 177.825V177.825Z" fill="#2F2E41"/>
<path d="M259.395 53.1713L276.274 77.0558L246.831 77.9355L243.67 55.4898L259.395 53.1713Z" fill="#A0616A"/>
<path opacity="0.1" d="M259.395 53.1713L276.274 77.0558L246.831 77.9355L243.67 55.4898L259.395 53.1713Z" fill="black"/>
<path d="M176.153 102.658C173.988 96.4069 169.008 92.4578 165.032 93.8376C161.057 95.2173 159.59 101.403 161.758 107.656C162.589 110.166 164.009 112.44 165.899 114.288L175.41 140.659L187.683 135.929L177.004 110.434C177.345 107.811 177.054 105.145 176.153 102.658Z" fill="#A0616A"/>
<path d="M290.41 90.4879L290.387 114.829L288.123 123.82L283.467 142.312L280.078 159.32L277.553 171.992L276.653 176.517C275.973 176.972 275.298 177.406 274.622 177.825H215.815C212.474 175.817 210.605 174.257 210.605 174.257C210.605 174.257 211.53 173.388 212.587 171.992C214.372 169.635 216.531 165.773 215.208 162.084C214.931 161.312 214.859 160.37 214.943 159.32C215.482 152.393 222.743 140.679 222.743 140.679L221.239 123.293L220.58 115.674L225.229 78.5242L240.382 69.7105L242.998 69.4573L268.821 68.0614L279.494 68.6768L279.981 68.8096L290.41 90.4879V90.4879Z" fill="#CCCCCC"/>
<path d="M291.556 177.825H278.691L278.124 171.992L278.112 171.875L281.754 171.626L291.231 170.978L291.395 174.47L291.524 177.149L291.556 177.825Z" fill="#FFB6B6"/>
<path d="M294.723 96.3731L300.128 128.1L295.717 159.32L295.03 164.18L293.816 172.76L293.442 175.399L293.454 175.685L293.546 177.825H278.269L277.706 171.992L277.658 171.469L276.508 159.521L276.488 159.32L274.047 133.985L278.832 115.674L279.185 114.326V114.322L281.267 82.9695L279.655 68.7211L279.639 68.5883C279.671 68.6085 279.699 68.6286 279.731 68.6487C279.816 68.701 279.9 68.7533 279.981 68.8096C289.372 74.7713 294.969 85.2303 294.723 96.3731Z" fill="#CCCCCC"/>
<path d="M230.702 84.6038L224.827 78.5237C224.827 78.5237 212.25 84.1967 211.623 87.3441C210.996 90.4914 188.791 136.717 188.791 136.717L179.13 110.9L166.555 119.301C166.555 119.301 176.645 159.383 186.082 161.265C195.518 163.147 227.146 113.824 227.146 113.824L230.702 84.6038H230.702Z" fill="#CCCCCC"/>
<path d="M469.253 159.041H11.7419C5.26621 159.041 0 164.316 0 170.795C0 177.275 5.26621 182.544 11.7419 182.544H469.253C475.728 182.544 481 177.275 481 170.795C481 164.316 475.728 159.041 469.253 159.041Z" fill="#E6E6E6"/>
<path d="M287.732 123.225L286.843 164.757C286.757 168.778 283.475 171.992 279.455 171.992H203.099C199.175 171.992 195.935 168.923 195.721 165.002L193.452 123.471C193.22 119.235 196.59 115.674 200.829 115.674H280.345C284.488 115.674 287.821 119.081 287.732 123.225Z" fill="#3F3D56"/>
<path d="M164.466 55.1507C174.556 55.1507 182.735 46.967 182.735 36.8719C182.735 26.7767 174.556 18.593 164.466 18.593C154.377 18.593 146.198 26.7767 146.198 36.8719C146.198 46.967 154.377 55.1507 164.466 55.1507Z" fill="#FFB6B6"/>
<path d="M133.911 84.6992L135.921 106.422L149.591 161.533L137.781 165.674L117.829 105.617L115.074 81.4811L133.911 84.6992Z" fill="#FFB6B6"/>
<path d="M128.473 123.225L127.584 164.757C127.498 168.778 124.216 171.992 120.197 171.992H43.8399C39.9159 171.992 36.6763 168.923 36.4621 165.002L34.1929 123.471C33.9615 119.235 37.3315 115.674 41.5707 115.674H121.086C125.229 115.674 128.562 119.081 128.473 123.225Z" fill="#3F3D56"/>
<path d="M151.767 172.273C159.736 172.273 166.195 169.414 166.195 165.887C166.195 162.361 159.736 159.502 151.767 159.502C143.799 159.502 137.34 162.361 137.34 165.887C137.34 169.414 143.799 172.273 151.767 172.273Z" fill="#FFB6B6"/>
<path d="M105.567 88.0203L113.809 44.07C113.809 44.07 136.725 40.8518 137.529 48.495C138.333 56.1381 136.955 93.4911 136.955 93.4911L105.567 88.0203V88.0203Z" fill="#15BAC0"/>
<path d="M157.092 39.746C157.092 39.746 168.393 35.7104 173.16 33.5391C177.927 31.3678 187.397 46.5126 187.608 38.5141C187.818 30.5156 184.546 27.1614 184.546 27.1614C184.546 27.1614 183.729 9.66362 166.11 11.8513C166.11 11.8513 169.985 3.09692 157.264 1.74322C144.543 0.389522 124.753 31.126 126.525 35.7194C128.297 40.3128 130.422 44.1104 125.394 49.0217C120.365 53.9331 110.949 81.6515 118.113 89.1104C125.277 96.5692 125.747 99.8059 120.839 104.446C115.93 109.087 104.328 119.176 116.873 120.928C129.418 122.68 115.725 121.371 125.077 113.14C134.43 104.909 148.077 105.245 142.981 92.0395C137.886 78.8334 146.739 59.9093 145.631 57.0384C144.523 54.1675 148.113 35.9373 148.113 35.9373C148.113 35.9373 156.467 34.7092 157.092 39.746V39.746Z" fill="#2F2E41"/>
<path d="M250.37 61.8163C261.353 61.8163 270.256 52.9078 270.256 41.9185C270.256 30.9292 261.353 22.0206 250.37 22.0206C239.386 22.0206 230.483 30.9292 230.483 41.9185C230.483 52.9078 239.386 61.8163 250.37 61.8163Z" fill="#A0616A"/>
<path d="M251.957 15.1672C251.382 15.5033 250.611 14.9948 250.426 14.3542C250.242 13.7135 250.457 13.0334 250.67 12.4017L251.743 9.22191C252.504 6.9667 253.311 4.63268 254.96 2.91618C257.447 0.325388 261.4 -0.333696 264.959 0.143787C269.529 0.756972 274.039 3.23306 276.164 7.32759C278.289 11.4221 277.384 17.1355 273.544 19.69C279.017 25.9659 280.924 32.9601 280.623 41.2834C280.322 49.6067 271.257 57.2668 265.345 63.1302C264.025 62.3295 262.824 58.5769 263.55 57.2137C264.276 55.8504 263.236 54.2711 264.135 53.0154C265.034 51.7597 265.787 53.7591 264.878 52.5106C264.304 51.7227 266.543 49.9102 265.69 49.4386C261.566 47.1578 260.195 42.0147 257.605 38.0763C254.481 33.3257 249.134 30.1086 243.475 29.5749C240.358 29.2809 237.066 29.8134 234.511 31.624C231.956 33.4346 230.302 36.6702 230.895 39.7461C229.36 38.1873 228.597 35.9029 228.885 33.7341C229.173 31.5653 230.506 29.5597 232.394 28.456C231.246 24.6575 232.23 20.2882 234.894 17.3487C237.559 14.4093 248.368 14.91 252.258 15.6836L251.957 15.1672Z" fill="#2F2E41"/>
<path d="M252.561 29.6902C257.713 30.2467 261.433 34.7122 264.575 38.8361C266.385 41.213 268.282 43.8379 268.236 46.8262C268.19 49.8473 266.172 52.4387 265.207 55.3018C263.63 59.9817 265.167 65.5498 268.921 68.7564C265.211 69.4607 261.201 66.6778 260.561 62.9548C259.815 58.6207 263.099 54.4377 262.71 50.0571C262.368 46.1978 259.328 43.2276 256.744 40.342C254.16 37.4565 251.733 33.6273 252.922 29.94L252.561 29.6902Z" fill="#2F2E41"/>
<path d="M329.586 161.556C324.483 164.461 321.844 169.45 323.692 172.699C325.54 175.948 331.174 176.227 336.279 173.321C338.334 172.188 340.088 170.58 341.394 168.629L362.862 156.05L356.747 146.096L336.233 159.554C333.889 159.681 331.61 160.367 329.586 161.556Z" fill="#FFB6B6"/>
<path d="M402.272 69.3141C401.631 69.0597 396.002 66.9268 390.863 69.7428C384.959 72.9777 384.048 80.3622 383.728 82.9523C382.989 88.9353 385.165 90.2764 385.625 96.3334C386.484 107.666 388.751 94.7378 385.131 99.9104C383.878 101.701 371.082 129.447 364.026 134.882C350.301 145.452 341.585 152.895 341.585 152.895L351.535 163.71C351.535 163.71 367.258 159.518 381.154 150.49C395.409 141.229 402.536 136.598 408.05 127.54C408.525 126.76 419.887 107.454 413.785 86.1068C412.393 81.2375 409.843 72.316 402.272 69.3141Z" fill="#15BAC0"/>
<path d="M453.65 123.225L452.76 164.757C452.674 168.778 449.392 171.992 445.373 171.992H369.016C365.092 171.992 361.853 168.923 361.638 165.002L359.369 123.471C359.138 119.235 362.508 115.674 366.747 115.674H446.262C450.405 115.674 453.738 119.081 453.65 123.225Z" fill="#3F3D56"/>
</svg>
