<svg width="330" height="398" viewBox="0 0 330 398" fill="none" xmlns="http://www.w3.org/2000/svg">
<g clip-path="url(#clip0_46_1752)">
<path d="M2.35908 190.358C3.57161 192.385 5.2134 194.122 7.16879 195.445C9.12419 196.768 11.3456 197.646 13.6767 198.017C16.0077 198.388 18.3915 198.243 20.6604 197.591C22.9292 196.94 25.0279 195.799 26.8084 194.248L76.5771 222.823L74.7223 193.034L27.7455 170.465C24.9444 167.644 21.2067 165.948 17.2406 165.701C13.2744 165.454 9.35548 166.671 6.22628 169.123C3.09708 171.575 0.975052 175.091 0.262302 179.005C-0.450448 182.919 0.295602 186.958 2.35908 190.358Z" fill="#FFB8B8"/>
<path d="M146.444 304.831C131.681 325.516 132.209 360.124 136.328 398H206.128L209.163 390.911L213.21 398H278.963C278.963 398 273.905 301.793 264.801 298.755C255.697 295.717 146.444 304.831 146.444 304.831Z" fill="#2F2E41"/>
<path d="M206.129 88.7116C225.683 88.7116 241.534 72.8425 241.534 53.2669C241.534 33.6913 225.683 17.8221 206.129 17.8221C186.574 17.8221 170.723 33.6913 170.723 53.2669C170.723 72.8425 186.574 88.7116 206.129 88.7116Z" fill="#FFB8B8"/>
<path d="M231.719 97.9077L238.643 111.193L286.532 132.565L273.944 254.52L268.646 267.149L271.508 278.117L264.607 286.211C271.534 292.486 272.414 299.055 268.646 305.85L246.593 310.907C246.593 310.907 123.971 321.823 134.305 302.805C145.597 282.026 148.472 220.66 123.545 187.867C102.383 160.026 118.63 123.9 118.63 123.9L168.828 108.882L187.291 97.9077L231.719 97.9077Z" fill="#3F3D56"/>
<path d="M221.847 1.34592C222.014 0.993505 222.281 0.69892 222.616 0.499995C222.951 0.301071 223.338 0.206887 223.726 0.229546C207.517 -0.741122 190.443 1.15021 176.882 10.0925C173.597 12.259 170.5 14.843 166.924 16.4146C166.756 16.4905 166.609 16.6088 166.5 16.758C166.39 16.9072 166.321 17.0822 166.299 17.2661C166.277 17.45 166.303 17.6364 166.374 17.8074C166.445 17.9783 166.559 18.1279 166.705 18.2416L167.098 18.5499C167.253 18.6715 167.372 18.8333 167.441 19.0177C167.511 19.2021 167.528 19.4021 167.492 19.5958C167.456 19.7896 167.367 19.9697 167.236 20.1166C167.105 20.2635 166.936 20.3716 166.748 20.429C166.551 20.4889 166.376 20.6038 166.243 20.76C166.11 20.9162 166.024 21.1073 165.995 21.3108C165.967 21.5143 165.997 21.7216 166.082 21.9085C166.168 22.0953 166.305 22.2538 166.477 22.3653L169.486 24.3123C169.638 24.4086 169.763 24.5415 169.85 24.6988C169.937 24.8561 169.983 25.0326 169.984 25.2124C169.985 25.3921 169.94 25.5692 169.855 25.7274C169.77 25.8856 169.647 26.0198 169.496 26.1178C169.241 26.2754 168.974 26.4112 168.696 26.524C168.523 26.5889 168.37 26.6973 168.251 26.8387C168.133 26.9802 168.052 27.1498 168.018 27.3314C167.984 27.5129 167.997 27.7002 168.056 27.8752C168.115 28.0502 168.218 28.207 168.356 28.3305C169.659 29.4918 170.658 30.9546 171.267 32.5913C172.27 35.202 172.45 38.0453 172.619 40.8372C173.656 36.8088 178.048 34.4374 182.196 34.1965C186.345 33.9555 190.39 35.3258 194.428 36.3108C203.221 38.45 212.354 38.8017 221.285 37.3451C218.252 43.4382 220.811 50.7061 223.385 57.0071L231.718 53.4313C243.163 46.9638 235.191 74.3224 230.913 78.0782C239.649 81.1104 262.515 47.4566 255.159 34.6909C251.333 28.0504 254.049 19.4857 246.526 13.1877C242.839 9.30198 235.477 11.029 231.718 7.79955C230.239 6.52848 232.494 3.1279 230.461 2.3868C229.786 2.14064 221.959 1.09783 221.847 1.34592Z" fill="#2F2E41"/>
<path d="M161.875 112.313C155.378 141.189 138.715 208.608 121.809 222.708C120.737 223.721 119.451 224.481 118.047 224.931C58.6235 239.424 39.583 202.456 39.583 202.456C39.583 202.456 55.5078 194.687 55.9117 179.502L88.0265 189.477L116.022 126.407L120.141 122.56L120.165 122.537L161.875 112.313Z" fill="#3F3D56"/>
<path d="M288.576 378.961C290.277 377.323 291.599 375.332 292.449 373.128C293.299 370.923 293.656 368.559 293.494 366.202C293.332 363.844 292.656 361.551 291.514 359.484C290.371 357.416 288.789 355.625 286.88 354.235L303.539 299.273L274.956 307.762L263.519 358.654C261.4 362.019 260.588 366.046 261.236 369.971C261.885 373.895 263.949 377.446 267.037 379.949C270.126 382.452 274.024 383.734 277.994 383.552C281.964 383.37 285.729 381.736 288.576 378.961Z" fill="#FFB8B8"/>
<path d="M273.329 129.49L286.532 132.565C286.532 132.565 341.106 238.862 327.955 259.117C314.804 279.371 298.693 346.427 298.693 346.427C298.693 346.427 274.865 341.685 265.761 329.532L282.433 250.002L265.236 183.164L273.329 129.49Z" fill="#3F3D56"/>
<path d="M22.8369 287.339L23.311 116.14C23.3246 112.675 24.7105 109.356 27.1647 106.913C29.619 104.47 32.9412 103.101 36.4025 103.106L165.554 103.465C169.015 103.478 172.33 104.866 174.771 107.323C177.211 109.78 178.579 113.106 178.573 116.571L178.099 287.77C178.085 291.235 176.7 294.553 174.245 296.996C171.791 299.44 168.469 300.809 165.008 300.803L35.856 300.445C32.3947 300.431 29.0802 299.044 26.6395 296.587C24.1988 294.13 22.8312 290.804 22.8369 287.339Z" fill="#E6E6E6"/>
<path d="M32.8868 235.657L33.1916 125.595C33.2042 122.35 34.5021 119.242 36.8006 116.954C39.0991 114.665 42.2105 113.383 45.4521 113.389L156.447 113.697C159.689 113.709 162.793 115.009 165.079 117.31C167.365 119.611 168.646 122.725 168.64 125.971L168.218 278.314C168.206 281.56 166.908 284.667 164.609 286.956C162.31 289.244 159.199 290.526 155.957 290.521L87.1983 290.33C72.7591 290.273 58.9318 284.486 48.7499 274.236C38.568 263.986 32.8631 250.112 32.8868 235.657Z" fill="white"/>
<path d="M143.729 161.734H57.1811C55.8039 161.734 54.4831 161.187 53.5092 160.212C52.5354 159.237 51.9883 157.915 51.9883 156.536C51.9883 155.157 52.5354 153.835 53.5092 152.86C54.4831 151.885 55.8039 151.337 57.1811 151.337H143.729C145.106 151.337 146.427 151.885 147.401 152.86C148.374 153.835 148.922 155.157 148.922 156.536C148.922 157.915 148.374 159.237 147.401 160.212C146.427 161.187 145.106 161.734 143.729 161.734Z" fill="#15BAC0"/>
<path d="M76.2216 137.763H57.1811C55.8039 137.763 54.4831 137.216 53.5092 136.241C52.5354 135.266 51.9883 133.944 51.9883 132.565C51.9883 131.186 52.5354 129.864 53.5092 128.889C54.4831 127.914 55.8039 127.366 57.1811 127.366H76.2216C77.5988 127.366 78.9196 127.914 79.8935 128.889C80.8673 129.864 81.4144 131.186 81.4144 132.565C81.4144 133.944 80.8673 135.266 79.8935 136.241C78.9196 137.216 77.5988 137.763 76.2216 137.763Z" fill="#15BAC0"/>
<path d="M143.729 185.705H57.1811C55.8039 185.705 54.4831 185.158 53.5092 184.183C52.5354 183.208 51.9883 181.886 51.9883 180.507C51.9883 179.128 52.5354 177.806 53.5092 176.831C54.4831 175.856 55.8039 175.308 57.1811 175.308H143.729C145.106 175.308 146.427 175.856 147.401 176.831C148.374 177.806 148.922 179.128 148.922 180.507C148.922 181.886 148.374 183.208 147.401 184.183C146.427 185.158 145.106 185.705 143.729 185.705Z" fill="#15BAC0"/>
<path d="M143.729 209.677H57.1811C55.8039 209.677 54.4831 209.129 53.5092 208.154C52.5354 207.179 51.9883 205.857 51.9883 204.478C51.9883 203.099 52.5354 201.777 53.5092 200.802C54.4831 199.827 55.8039 199.28 57.1811 199.28H143.729C145.106 199.28 146.427 199.827 147.401 200.802C148.374 201.777 148.922 203.099 148.922 204.478C148.922 205.857 148.374 207.179 147.401 208.154C146.427 209.129 145.106 209.677 143.729 209.677Z" fill="#15BAC0"/>
<path d="M136.726 272.839C148.137 272.839 157.388 263.578 157.388 252.154C157.388 240.73 148.137 231.469 136.726 231.469C125.314 231.469 116.063 240.73 116.063 252.154C116.063 263.578 125.314 272.839 136.726 272.839Z" fill="#15BAC0"/>
<path d="M133.907 262.92C133.55 262.92 133.198 262.837 132.879 262.677C132.56 262.517 132.283 262.285 132.069 261.999L126.432 254.475C126.25 254.233 126.118 253.958 126.043 253.665C125.967 253.372 125.951 253.068 125.993 252.768C126.036 252.469 126.137 252.181 126.291 251.92C126.444 251.66 126.648 251.433 126.89 251.251C127.131 251.07 127.406 250.938 127.699 250.863C127.992 250.788 128.296 250.772 128.595 250.815C128.894 250.858 129.182 250.959 129.441 251.113C129.701 251.268 129.928 251.472 130.109 251.714L133.797 256.636L143.269 242.413C143.436 242.16 143.651 241.944 143.902 241.774C144.153 241.605 144.435 241.488 144.731 241.428C145.027 241.368 145.333 241.367 145.63 241.426C145.926 241.484 146.209 241.601 146.46 241.769C146.712 241.937 146.928 242.153 147.096 242.404C147.264 242.656 147.381 242.939 147.44 243.236C147.499 243.533 147.498 243.838 147.439 244.135C147.38 244.432 147.262 244.714 147.094 244.966L135.82 261.895C135.616 262.201 135.341 262.454 135.02 262.632C134.698 262.81 134.338 262.909 133.971 262.919C133.95 262.92 133.928 262.92 133.907 262.92Z" fill="white"/>
<path d="M92.6657 63.2508C98.0829 63.2508 102.474 58.8545 102.474 53.4313C102.474 48.0082 98.0829 43.6118 92.6657 43.6118C87.2484 43.6118 82.8569 48.0082 82.8569 53.4313C82.8569 58.8545 87.2484 63.2508 92.6657 63.2508Z" fill="#15BAC0" fill-opacity="0.54"/>
<path d="M56.8927 345.705C62.3099 345.705 66.7014 341.309 66.7014 335.886C66.7014 330.463 62.3099 326.066 56.8927 326.066C51.4755 326.066 47.084 330.463 47.084 335.886C47.084 341.309 51.4755 345.705 56.8927 345.705Z" fill="#15BAC0" fill-opacity="0.54"/>
<path d="M282.493 101.373C287.91 101.373 292.302 96.9771 292.302 91.554C292.302 86.1308 287.91 81.7345 282.493 81.7345C277.076 81.7345 272.685 86.1308 272.685 91.554C272.685 96.9771 277.076 101.373 282.493 101.373Z" fill="#15BAC0" fill-opacity="0.54"/>
</g>
<defs>
<clipPath id="clip0_46_1752">
<rect width="330" height="398" fill="white"/>
</clipPath>
</defs>
</svg>
