<svg width="100" height="100" viewBox="0 0 100 100" fill="none" xmlns="http://www.w3.org/2000/svg">
<path d="M50 0.000244141C22.4298 0.000244141 0 22.43 0 50.0002C0 77.5704 22.4298 99.9999 50 99.9999C77.5702 99.9999 100 77.5701 100 50.0002C100 22.4304 77.5699 0.000244141 50 0.000244141ZM50 95.016C25.1777 95.016 4.98359 74.8222 4.98359 50.0002C4.98359 25.1783 25.1777 4.98383 50 4.98383C74.8223 4.98383 95.0164 25.178 95.0164 49.9999C95.0164 74.8218 74.8219 95.016 50 95.016Z" fill="white"/>
<path d="M47.5082 47.5085H27.625V52.4921H52.4918V14.5796H47.5082V47.5085Z" fill="white"/>
</svg>
