<svg width="485" height="313" viewBox="0 0 485 313" fill="none" xmlns="http://www.w3.org/2000/svg">
<g clip-path="url(#clip0_37_676)">
<circle cx="241.5" cy="294.5" r="171.5" fill="#575A89" fill-opacity="0.38"/>
<path d="M351.395 119.157H341.761C341.452 119.158 341.154 119.043 340.925 118.836C340.696 118.628 340.553 118.342 340.524 118.034L338.595 98.2632H354.561L352.632 118.034C352.603 118.342 352.46 118.628 352.231 118.836C352.002 119.043 351.704 119.158 351.395 119.157Z" fill="#E6E6E6"/>
<path d="M354.535 100.751H338.621C338.291 100.75 337.975 100.619 337.742 100.386C337.509 100.153 337.378 99.8367 337.377 99.5069V96.5221C337.378 96.1924 337.509 95.8763 337.742 95.6431C337.975 95.41 338.291 95.2788 338.621 95.2784H354.535C354.865 95.2788 355.181 95.41 355.414 95.6431C355.647 95.8763 355.778 96.1924 355.778 96.5221V99.5069C355.778 99.8367 355.647 100.153 355.414 100.386C355.181 100.619 354.865 100.75 354.535 100.751Z" fill="#CCCCCC"/>
<path d="M238.682 97.9178H200.517V86.3286C212.577 77.9333 223.262 78.6631 237.319 87.0103L238.682 97.9178Z" fill="#15BAC0"/>
<path d="M191.679 303.768L183.324 303.767L182.074 271.53L191.68 271.53L191.679 303.768Z" fill="#FFB8B8"/>
<path d="M193.809 311.869L166.869 311.868V311.527C166.869 310.149 167.14 308.785 167.667 307.513C168.194 306.24 168.966 305.084 169.94 304.11C170.914 303.136 172.07 302.363 173.342 301.836C174.614 301.309 175.978 301.038 177.355 301.038H177.355L193.81 301.039L193.809 311.869Z" fill="#2F2E41"/>
<path d="M238.74 303.768L247.095 303.767L248.345 271.53L238.739 271.53L238.74 303.768Z" fill="#FFB8B8"/>
<path d="M236.609 301.039L253.063 301.038H253.064C254.441 301.038 255.805 301.309 257.077 301.836C258.349 302.363 259.505 303.136 260.479 304.11C261.453 305.084 262.225 306.24 262.752 307.513C263.279 308.785 263.55 310.149 263.55 311.527V311.868L236.609 311.869L236.609 301.039Z" fill="#2F2E41"/>
<path d="M238.96 299.636C238.263 299.633 237.587 299.395 237.043 298.958C236.499 298.522 236.119 297.914 235.965 297.234L215.256 206.88C215.211 206.65 215.086 206.444 214.903 206.298C214.721 206.151 214.492 206.074 214.258 206.08H214.253C214.018 206.075 213.79 206.154 213.607 206.303C213.425 206.451 213.301 206.659 213.258 206.89L194.241 296.635C194.092 297.322 193.714 297.937 193.168 298.379C192.623 298.821 191.943 299.064 191.24 299.066H182.181C181.763 299.066 181.35 298.981 180.966 298.815C180.582 298.65 180.236 298.407 179.949 298.103C179.663 297.799 179.441 297.439 179.299 297.046C179.156 296.653 179.095 296.235 179.12 295.818L185.867 182.069L188.582 181.266L188.633 181.266L241.968 181.733L253.327 295.356C253.367 295.761 253.325 296.171 253.205 296.56C253.085 296.949 252.889 297.31 252.627 297.622C252.366 297.935 252.046 298.192 251.684 298.379C251.322 298.566 250.927 298.679 250.521 298.712L239.205 299.626C239.123 299.632 239.041 299.636 238.96 299.636Z" fill="#2F2E41"/>
<path d="M216.935 77.1472C226.179 77.1472 233.674 69.6508 233.674 60.4035C233.674 51.1562 226.179 43.6598 216.935 43.6598C207.69 43.6598 200.196 51.1562 200.196 60.4035C200.196 69.6508 207.69 77.1472 216.935 77.1472Z" fill="#FFB8B8"/>
<path d="M206.681 194.54C203.744 194.577 200.819 194.165 198.006 193.319C195.505 192.565 193.184 191.306 191.187 189.621C189.19 187.936 187.559 185.859 186.395 183.52C186.026 182.816 185.944 181.996 186.166 181.233C188.012 174.93 196.933 142.17 191.242 116.127C190.438 112.509 190.371 108.766 191.045 105.122C191.719 101.478 193.12 98.0067 195.164 94.9157C197.16 91.8489 199.754 89.2157 202.789 87.1733C205.825 85.1308 209.241 83.7209 212.833 83.0276L212.834 83.0269C213.778 82.8425 214.727 82.6913 215.655 82.5768C219.626 82.0879 223.655 82.483 227.456 83.7338C231.257 84.9846 234.734 87.0602 237.639 89.8121C240.63 92.618 242.964 96.0508 244.474 99.8646C245.984 103.678 246.633 107.779 246.373 111.873L241.998 182.092C241.968 182.619 241.802 183.128 241.515 183.571C241.229 184.014 240.832 184.374 240.364 184.617C235.326 187.258 220.191 194.54 206.681 194.54Z" fill="#3F3D56"/>
<path d="M235.844 48.0786C234.106 43.7075 230.921 40.0652 226.821 37.7595C222.722 35.4539 217.956 34.6245 213.319 35.4098L218.596 39.6758C212.039 39.8967 205.137 39.4271 200.455 44.0248C201.945 43.9834 203.899 47.1725 205.389 47.1311C202.603 47.1862 200.076 49.1448 198.845 51.6463C197.705 54.2162 197.438 57.089 198.086 59.8249C198.636 62.5581 202.834 68.961 203.965 71.5096C203.77 64.8491 216.879 48.9622 223.28 50.6202C220.028 51.8272 217.206 53.9705 215.17 56.7797C219.524 54.5813 224.45 53.7752 229.278 54.4707C230.38 54.7235 231.517 54.7872 232.641 54.659C233.33 54.5227 233.972 54.2121 234.506 53.7568C235.041 53.3015 235.45 52.7167 235.694 52.0583C235.938 51.3999 236.009 50.6899 235.901 49.996C235.793 49.3022 235.509 48.6477 235.075 48.0951L235.844 48.0786Z" fill="#2F2E41"/>
<path d="M205.528 190.324C205.105 190.323 204.687 190.235 204.299 190.065L172.54 176.198C171.866 175.909 171.318 175.386 170.998 174.725C170.679 174.064 170.608 173.31 170.8 172.601L191.825 93.1542C192.216 91.6759 192.898 90.2904 193.83 89.0789C194.763 87.8674 195.928 86.8542 197.257 86.0986C198.586 85.3429 200.052 84.86 201.57 84.6782C203.088 84.4963 204.627 84.6191 206.096 85.0394L214.503 87.4394L208.585 187.434C208.555 187.928 208.406 188.406 208.151 188.83C207.897 189.254 207.544 189.61 207.123 189.868C206.643 190.165 206.091 190.323 205.528 190.324Z" fill="#15BAC0"/>
<path d="M264.307 172.6L262.909 167.33L260.885 159.668L259.911 155.993L257.887 148.351L243.282 93.1526C242.892 91.6737 242.211 90.2875 241.279 89.0754C240.346 87.8633 239.181 86.8497 237.852 86.094C236.523 85.3384 235.056 84.8559 233.538 84.6749C232.02 84.494 230.48 84.6181 229.011 85.0401L220.608 87.4398L224.772 157.773L225.201 165.115L225.474 169.744V169.75L225.91 177.052L226.523 187.434C226.573 188.214 226.917 188.945 227.485 189.482C228.052 190.018 228.802 190.319 229.583 190.325C230.005 190.322 230.423 190.234 230.81 190.066L262.569 176.2C263.244 175.91 263.791 175.387 264.111 174.725C264.43 174.064 264.5 173.309 264.307 172.6Z" fill="#15BAC0"/>
<path d="M259.911 155.993L225.202 165.115L224.771 157.773L257.887 148.351L259.911 155.993Z" fill="#CCCCCC"/>
<path d="M262.909 167.33L225.91 177.052L225.474 169.751V169.744L260.886 159.668L262.909 167.33Z" fill="#CCCCCC"/>
<path d="M209.908 159.354L209.478 166.56L175.437 156.416L177.433 148.876L209.908 159.354Z" fill="#CCCCCC"/>
<path d="M209.199 171.305L174.462 160.091L172.465 167.651L208.776 178.47L209.199 171.305Z" fill="#CCCCCC"/>
<path d="M175.068 178.841C176.103 178.57 177.067 178.076 177.891 177.393C178.715 176.709 179.379 175.854 179.837 174.886C180.295 173.918 180.535 172.862 180.54 171.791C180.545 170.72 180.316 169.662 179.868 168.689L196.199 117.407L184.619 114.981L169.646 165.259C168.063 166.121 166.851 167.533 166.239 169.228C165.627 170.924 165.658 172.785 166.327 174.459C166.995 176.133 168.254 177.503 169.865 178.311C171.476 179.119 173.327 179.307 175.068 178.841Z" fill="#FFB8B8"/>
<path d="M196.652 92.1954C199.977 92.5347 201.847 96.2745 201.021 100.931L197.053 123.277C196.756 124.952 195.378 126.278 194.232 125.992L180.813 122.636C179.78 122.378 179.4 120.91 179.985 119.442L188.041 99.2268C189.791 94.8366 193.428 91.8664 196.652 92.1954Z" fill="#3F3D56"/>
<path d="M216.873 29.0643C222.538 29.0649 227.981 31.2711 232.048 35.2157C236.116 39.1603 238.489 44.5335 238.665 50.1976H242.771C243.132 50.1976 243.479 50.3413 243.735 50.597C243.99 50.8527 244.134 51.1994 244.134 51.561V57.0148C244.134 57.3764 243.99 57.7232 243.735 57.9789C243.479 58.2346 243.132 58.3782 242.771 58.3782H196.428C196.066 58.3782 195.72 58.2346 195.464 57.9789C195.208 57.7232 195.065 57.3764 195.065 57.0148V50.8793C195.065 48.0145 195.629 45.1778 196.725 42.531C197.821 39.8843 199.427 37.4795 201.452 35.4537C203.477 33.428 205.882 31.8212 208.528 30.7249C211.173 29.6286 214.009 29.0643 216.873 29.0643Z" fill="#15BAC0"/>
<path d="M219.479 163.912H209.845C209.536 163.913 209.238 163.798 209.009 163.59C208.78 163.383 208.637 163.097 208.608 162.789L206.679 143.018H222.645L220.716 162.789C220.687 163.097 220.544 163.382 220.315 163.59C220.086 163.798 219.788 163.913 219.479 163.912Z" fill="#E6E6E6"/>
<path d="M222.619 145.505H206.705C206.375 145.505 206.059 145.374 205.826 145.14C205.593 144.907 205.462 144.591 205.461 144.261V141.277C205.462 140.947 205.593 140.631 205.826 140.398C206.059 140.164 206.375 140.033 206.705 140.033H222.619C222.949 140.033 223.265 140.164 223.498 140.398C223.731 140.631 223.862 140.947 223.862 141.277V144.261C223.862 144.591 223.731 144.907 223.498 145.14C223.265 145.374 222.949 145.505 222.619 145.505Z" fill="#CCCCCC"/>
<path d="M214.869 153.309C215.243 153.352 215.614 153.425 215.977 153.526L241.633 131.517L240.134 123.442L252.021 119.585L256.065 133.623C256.392 134.757 256.342 135.966 255.923 137.07C255.504 138.173 254.738 139.11 253.742 139.742L221.248 160.309C221.271 161.762 220.852 163.188 220.045 164.396C219.238 165.605 218.083 166.539 216.732 167.075C215.382 167.611 213.901 167.722 212.485 167.395C211.07 167.068 209.787 166.318 208.808 165.244C207.83 164.17 207.201 162.823 207.006 161.383C206.811 159.943 207.059 158.478 207.717 157.182C208.375 155.887 209.411 154.822 210.689 154.13C211.966 153.438 213.424 153.152 214.869 153.309V153.309Z" fill="#FFB8B8"/>
<path d="M241.701 94.0411C245.252 93.0465 248.801 95.7508 249.991 100.358L255.697 122.466C256.125 124.123 255.294 125.885 253.996 126.071L238.794 128.259C237.624 128.427 236.594 127.227 236.551 125.647L235.96 103.891C235.832 99.166 238.257 95.0054 241.701 94.0411Z" fill="#3F3D56"/>
<path d="M430.718 208.063C429.818 207.484 429.056 206.714 428.485 205.808C427.914 204.903 427.549 203.883 427.415 202.82C427.281 201.758 427.382 200.679 427.71 199.66C428.037 198.641 428.585 197.706 429.313 196.922L423.811 118.825L439.659 120.363L440.094 196.842C441.331 198.153 442.044 199.873 442.098 201.674C442.152 203.476 441.544 205.235 440.388 206.618C439.233 208.001 437.61 208.912 435.828 209.179C434.046 209.445 432.227 209.048 430.718 208.063L430.718 208.063Z" fill="#A0616A"/>
<path d="M427.399 145.067C427.028 144.8 426.721 144.453 426.502 144.052C426.283 143.65 426.157 143.205 426.132 142.748L424.971 121.7C424.856 119.614 425.517 117.56 426.827 115.933C428.136 114.307 430.001 113.222 432.063 112.89C434.124 112.557 436.235 113 437.99 114.132C439.744 115.265 441.017 117.007 441.564 119.023L446.664 137.841C446.876 138.627 446.768 139.464 446.364 140.169C445.959 140.875 445.292 141.391 444.507 141.605L429.997 145.54C429.556 145.661 429.094 145.681 428.644 145.599C428.195 145.517 427.769 145.335 427.399 145.067Z" fill="#3F3D56"/>
<path d="M400.389 304.075H392.034L388.059 271.838H400.39L400.389 304.075Z" fill="#A0616A"/>
<path d="M386.066 301.687H402.18V311.835H375.92C375.92 310.503 376.183 309.183 376.692 307.952C377.202 306.72 377.95 305.602 378.892 304.659C379.834 303.717 380.952 302.969 382.183 302.459C383.414 301.949 384.734 301.687 386.066 301.687Z" fill="#2F2E41"/>
<path d="M431.739 304.075H423.384L419.409 271.838H431.74L431.739 304.075Z" fill="#A0616A"/>
<path d="M417.416 301.687H433.529V311.835H407.27C407.27 310.503 407.532 309.183 408.042 307.952C408.552 306.72 409.3 305.602 410.242 304.659C411.184 303.717 412.302 302.969 413.533 302.459C414.764 301.949 416.083 301.687 417.416 301.687Z" fill="#2F2E41"/>
<path d="M399.995 287.835L390.797 287.396C390.013 287.359 389.274 287.023 388.73 286.457C388.187 285.891 387.881 285.138 387.876 284.354C385.451 246.914 382.092 206.769 387.234 191.26C387.231 190.818 387.323 190.381 387.505 189.978C387.686 189.575 387.953 189.217 388.286 188.926C388.619 188.636 389.011 188.421 389.435 188.296C389.858 188.171 390.304 188.139 390.741 188.203L427.539 193.546C428.266 193.648 428.932 194.008 429.414 194.562C429.897 195.116 430.163 195.825 430.165 196.559C434.863 214.922 435.076 248.221 434.898 282.82C434.901 283.224 434.824 283.626 434.671 284.001C434.518 284.376 434.293 284.717 434.008 285.004C433.723 285.291 433.384 285.519 433.01 285.675C432.636 285.831 432.236 285.911 431.831 285.911H421.915C421.183 285.914 420.475 285.654 419.919 285.178C419.363 284.703 418.996 284.043 418.885 283.32L412.767 244.416C412.678 243.847 412.386 243.329 411.944 242.958C411.503 242.588 410.943 242.39 410.367 242.4C409.791 242.411 409.238 242.63 408.811 243.016C408.384 243.403 408.111 243.931 408.043 244.503L403.186 285.135C403.094 285.879 402.735 286.565 402.174 287.062C401.613 287.56 400.89 287.836 400.14 287.839C400.092 287.839 400.043 287.837 399.995 287.835Z" fill="#2F2E41"/>
<path d="M406.47 196.563C398.36 192.056 392.023 190.872 388.968 190.567C388.562 190.527 388.168 190.406 387.811 190.21C387.453 190.014 387.139 189.747 386.887 189.426C386.63 189.103 386.441 188.731 386.332 188.332C386.223 187.933 386.196 187.517 386.253 187.107L395.07 121.628C395.577 117.797 397.057 114.16 399.366 111.063C401.676 107.965 404.74 105.511 408.266 103.932C411.68 102.363 415.438 101.693 419.183 101.987C422.928 102.28 426.536 103.528 429.663 105.61C429.965 105.811 430.262 106.016 430.553 106.226C434.154 108.865 436.893 112.512 438.426 116.706C439.958 120.901 440.215 125.455 439.165 129.795C433.758 151.92 431.9 188.193 431.583 195.239C431.558 195.84 431.356 196.42 431.002 196.906C430.648 197.392 430.158 197.762 429.594 197.97C426.268 199.179 422.757 199.804 419.218 199.818C414.76 199.845 410.369 198.724 406.47 196.563Z" fill="#3F3D56"/>
<path d="M413.845 95.0415C423.089 95.0415 430.584 87.5451 430.584 78.2978C430.584 69.0505 423.089 61.5541 413.845 61.5541C404.6 61.5541 397.106 69.0505 397.106 78.2978C397.106 87.5451 404.6 95.0415 413.845 95.0415Z" fill="#A0616A"/>
<path d="M425.69 91.5447C422.567 94.872 416.768 93.0858 416.361 88.5403C416.329 88.1874 416.332 87.8322 416.368 87.4797C416.578 85.4662 417.741 83.6382 417.462 81.5122C417.399 80.9831 417.202 80.4789 416.89 80.0473C414.402 76.7141 408.56 81.5381 406.212 78.5207C404.772 76.6705 406.464 73.7574 405.359 71.6895C403.901 68.9602 399.581 70.3066 396.872 68.8119C393.858 67.1488 394.038 62.5229 396.022 59.7091C398.442 56.2776 402.684 54.4466 406.874 54.1827C411.064 53.9188 415.225 55.0517 419.136 56.5765C423.581 58.309 427.988 60.7033 430.723 64.6123C434.048 69.366 434.369 75.757 432.705 81.3156C431.693 84.6969 428.24 88.8276 425.69 91.5447Z" fill="#2F2E41"/>
<path d="M438.946 107.823C438.653 106.446 436.138 104.565 432.54 103.031C426.756 100.687 420.5 99.7438 414.283 100.277C408.065 100.81 402.061 102.805 396.76 106.098C396.39 106.118 396.037 106.259 395.755 106.499C395.473 106.74 395.278 107.066 395.199 107.428L383.095 160.977L381.521 167.951L380.479 172.566L378.904 179.52L378.066 183.235C378.012 183.472 378.01 183.719 378.059 183.957C378.108 184.196 378.208 184.421 378.351 184.618C378.495 184.815 378.678 184.978 378.89 185.099C379.102 185.219 379.337 185.292 379.579 185.314L431.845 189.827C431.892 189.827 431.947 189.834 431.994 189.834C432.426 189.831 432.84 189.665 433.153 189.369C433.467 189.073 433.657 188.669 433.685 188.239L434.182 180.665L434.714 172.566L434.945 169.055L435.47 160.977L438.953 107.912V107.864L438.946 107.823Z" fill="#15BAC0"/>
<path d="M353.187 111.194C353.271 111.562 353.325 111.936 353.35 112.312L382.626 129.206L389.742 125.109L397.329 135.043L382.105 145.896L348.706 119.539C347.343 120.043 345.86 120.121 344.453 119.761C343.045 119.401 341.781 118.622 340.827 117.526C339.874 116.43 339.276 115.069 339.115 113.625C338.953 112.181 339.234 110.723 339.922 109.443C340.609 108.163 341.67 107.122 342.963 106.46C344.255 105.798 345.719 105.545 347.159 105.735C348.599 105.925 349.947 106.549 351.024 107.524C352.101 108.499 352.855 109.779 353.187 111.194H353.187Z" fill="#A0616A"/>
<path d="M383.672 127.77C383.623 127.315 383.677 126.855 383.83 126.424C383.982 125.993 384.23 125.602 384.554 125.279L399.454 110.371C400.93 108.894 402.901 108.016 404.986 107.907C407.071 107.797 409.123 108.464 410.746 109.778C412.369 111.092 413.448 112.96 413.775 115.023C414.102 117.086 413.654 119.197 412.517 120.949L401.906 137.305C401.463 137.986 400.767 138.464 399.972 138.634C399.176 138.803 398.346 138.65 397.664 138.208L385.053 130.022C384.669 129.773 384.346 129.442 384.107 129.053C383.868 128.663 383.719 128.224 383.672 127.77Z" fill="#3F3D56"/>
<path d="M435.47 160.977L434.945 169.055L381.521 167.951L383.095 160.977H435.47Z" fill="#CCCCCC"/>
<path d="M434.714 172.566L434.181 180.665L378.904 179.519L380.479 172.566H434.714Z" fill="#CCCCCC"/>
<path d="M414.172 45.7664C408.507 45.767 403.065 47.9731 398.997 51.9177C394.93 55.8623 392.557 61.2355 392.381 66.8996H388.275C387.913 66.8996 387.566 67.0433 387.311 67.299C387.055 67.5547 386.912 67.9015 386.912 68.2631V73.7168C386.912 74.0784 387.055 74.4252 387.311 74.6809C387.566 74.9366 387.913 75.0802 388.275 75.0802H434.618C434.979 75.0802 435.326 74.9366 435.582 74.6809C435.837 74.4252 435.981 74.0784 435.981 73.7168V67.5813C435.981 64.7165 435.417 61.8798 434.321 59.2331C433.225 56.5863 431.619 54.1815 429.593 52.1558C427.568 50.1301 425.164 48.5232 422.518 47.4269C419.872 46.3306 417.036 45.7663 414.172 45.7664Z" fill="#15BAC0"/>
<path d="M73.5593 262.932C69.2461 264.449 64.615 264.828 60.1124 264.035C55.6097 263.242 51.3872 261.302 47.8517 258.402C38.8475 250.842 36.0244 238.388 33.7273 226.856L26.9331 192.745L41.1575 202.543C51.3868 209.588 61.8466 216.86 68.9294 227.065C76.0122 237.27 79.1038 251.201 73.413 262.244" fill="#15BAC0" fill-opacity="0.38"/>
<path d="M72.3433 304.229C73.783 293.74 75.2633 283.115 74.2535 272.513C73.3566 263.097 70.4848 253.9 64.6381 246.359C61.5346 242.364 57.7583 238.941 53.479 236.244C52.3631 235.539 51.336 237.308 52.4471 238.01C59.8516 242.691 65.5787 249.603 68.8027 257.75C72.3636 266.81 72.9354 276.686 72.3218 286.31C71.9507 292.13 71.1643 297.911 70.3717 303.686C70.3093 303.947 70.3482 304.222 70.4808 304.456C70.6133 304.689 70.8295 304.864 71.0857 304.944C71.3471 305.014 71.6257 304.979 71.8612 304.845C72.0966 304.711 72.2698 304.49 72.3433 304.229Z" fill="#15BAC0" fill-opacity="0.54"/>
<path d="M58.4766 285.667C56.6267 288.48 54.0839 290.768 51.0932 292.312C48.1025 293.856 44.7647 294.604 41.4013 294.483C32.7575 294.072 25.5513 288.038 19.0644 282.309L-0.122559 265.363L12.576 264.755C21.7081 264.318 31.0758 263.91 39.7738 266.727C48.4718 269.544 56.4935 276.324 58.084 285.329" fill="#15BAC0" fill-opacity="0.38"/>
<path d="M76.4121 310.26C69.4826 297.995 61.445 284.364 47.0832 280.007C43.0899 278.8 38.9026 278.367 34.747 278.733C33.4372 278.846 33.7643 280.865 35.0717 280.753C42.0375 280.174 48.9898 282.014 54.7583 285.962C60.3092 289.742 64.6312 294.996 68.2893 300.568C70.53 303.982 72.537 307.539 74.5445 311.092C75.186 312.228 77.0612 311.408 76.4121 310.26Z" fill="#15BAC0" fill-opacity="0.54"/>
<path d="M506.043 313H20.8024C20.6216 313 20.4483 312.928 20.3205 312.8C20.1927 312.673 20.1208 312.499 20.1208 312.318C20.1208 312.138 20.1927 311.964 20.3205 311.836C20.4483 311.708 20.6216 311.637 20.8024 311.637H506.043C506.224 311.637 506.397 311.708 506.525 311.836C506.653 311.964 506.725 312.138 506.725 312.318C506.725 312.499 506.653 312.673 506.525 312.8C506.397 312.928 506.224 313 506.043 313Z" fill="#2F2E41"/>
</g>
<defs>
<clipPath id="clip0_37_676">
<rect width="485" height="313" fill="white"/>
</clipPath>
</defs>
</svg>
