<svg width="712" height="515" viewBox="0 0 712 515" fill="none" xmlns="http://www.w3.org/2000/svg">
<path d="M713 283.546C713 284.046 712.594 284.452 712.093 284.452H0V282.64H712.093C712.594 282.64 713 283.045 713 283.546Z" fill="#15BAC0" fill-opacity="0.2"/>
<path d="M234.14 63.5522C249.002 63.5522 261.05 51.5243 261.05 36.6871C261.05 21.85 249.002 9.82205 234.14 9.82205C219.277 9.82205 207.229 21.85 207.229 36.6871C207.229 51.5243 219.277 63.5522 234.14 63.5522Z" fill="#FFB6B6"/>
<path d="M248.4 69.2208L212.978 79.3242L207.918 90.6904L196.533 144.996V230.874C196.533 230.874 182.617 261.184 190.207 287.705C198.321 316.054 226.894 282.594 248.4 286.412C269.906 290.231 304.062 294.02 304.062 294.02L283.822 201.827L278.761 89.4275L248.4 69.2208H248.4Z" fill="#E6E6E6"/>
<path d="M241.715 45.4848L236.244 42.7538C236.244 42.7538 234.876 30.4645 232.141 27.7335C229.405 25.0025 229.405 23.637 229.405 23.637L233.509 18.1751C233.509 18.1751 212.992 29.099 208.888 22.2716C204.785 15.4441 210.256 12.7132 210.256 12.7132L203.417 7.25125C203.417 7.25125 211.624 12.7132 212.992 8.61673C214.359 4.52028 222.566 1.74093 222.566 1.74093C222.566 1.74093 240.488 5.78899 239.05 1.74093C237.612 -2.30714 243.083 1.78932 244.451 3.1548C245.819 4.52028 258.129 18.1751 259.497 16.8096C260.865 15.4441 267.704 19.5406 266.336 20.9061C264.968 22.2716 264.968 23.637 266.336 25.0025C267.704 26.368 275.91 41.3883 269.071 46.8503C262.232 52.3122 252.658 59.1396 254.026 64.6015C255.393 70.0635 254.026 46.8503 241.715 45.4848L241.715 45.4848Z" fill="#2F2E41"/>
<path d="M109.059 113.124C102.152 107.18 99.6251 98.804 103.415 94.4164C107.205 90.0288 115.875 91.2913 122.784 97.2384C125.576 99.5762 127.767 102.548 129.173 105.904L158.12 131.458L145.818 144.763L118.588 118.159C115.054 117.264 111.787 115.538 109.059 113.124L109.059 113.124Z" fill="#FFB6B6"/>
<path d="M208.222 91.1248L227.289 89.3943L244.011 169.009C247.197 184.179 237.236 198.99 221.965 201.788L208.222 204.307L120.629 127.315L133.427 106.018L198.022 146.469L208.222 91.1248V91.1248Z" fill="#E6E6E6"/>
<path d="M165.653 445.181C165.653 445.181 150.53 473.219 151.61 472.141C152.69 471.062 171.054 477.533 171.054 477.533L181.857 449.494L165.653 445.181Z" fill="#FFB6B6"/>
<path d="M143.331 248.915C143.331 248.915 135.59 279.808 136.371 278.497C137.152 277.186 156.546 278.943 156.546 278.943L160.1 249.112L143.331 248.915H143.331Z" fill="#FFB6B6"/>
<path d="M277.998 243.72C243.821 248.513 212.951 244.334 187.798 224.646C187.798 224.646 169.434 286.115 202.921 292.586C236.409 299.056 273.677 287.935 277.998 277.151C282.319 266.367 277.998 243.72 277.998 243.72Z" fill="#2F2E41"/>
<path d="M214.264 263.132L176.996 350.82L159.712 452.19L182.397 457.582L222.974 364.3L277.998 274.994L214.264 263.132Z" fill="#2F2E41"/>
<path d="M209.403 238.126C209.403 238.126 200.761 171.265 184.557 166.951C176.658 164.848 169.272 165.052 163.777 165.813C158.237 166.58 153.822 170.805 152.853 176.303L138.128 259.896H158.951L165.653 237.25L183.477 268.322L209.403 238.126V238.126Z" fill="#2F2E41"/>
<path d="M156.471 270.478L135.883 268.322L132.706 280.184C132.706 280.184 99.2185 310.379 116.502 312.536C133.786 314.693 149.99 302.831 149.99 302.831L173.766 289.215C173.766 289.215 164.573 264.749 158.091 264.749C151.61 264.749 156.471 270.478 156.471 270.478Z" fill="#2F2E41"/>
<path d="M167.273 472.68L146.685 470.523L143.508 482.386C143.508 482.386 110.021 512.581 127.305 514.738C144.588 516.895 160.792 505.032 160.792 505.032L184.568 491.416C184.568 491.416 182.937 465.872 176.455 465.872C169.974 465.872 167.273 472.68 167.273 472.68Z" fill="#2F2E41"/>
<path d="M271.519 309.426C269.036 317.925 262.631 323.536 257.213 321.958C251.795 320.38 249.417 312.212 251.901 303.71C252.847 300.3 254.597 297.166 257.005 294.57L267.978 258.69L284.734 264.19L272.137 298.977C272.77 302.459 272.558 306.042 271.519 309.426Z" fill="#FFB6B6"/>
<path d="M283.117 89.5837L274.38 87.1237V87.1237C266.141 103.488 262.598 121.809 264.144 140.058L268.456 190.981L254.228 280.487L282.115 287.689L304.091 175.364L283.117 89.5837V89.5837Z" fill="#E6E6E6"/>
<path d="M113.022 229.524C112.64 228.355 109.74 228.869 109.461 227.824C109.184 226.782 111.967 225.909 114.101 222.973C114.486 222.444 116.911 219.108 115.981 217.705C114.218 215.045 101.951 221.669 99.006 217.952C98.3597 217.136 98.0938 215.736 96.1687 213.129C95.4029 212.093 94.9115 211.592 94.3245 211.607C93.4915 211.628 93.1934 212.668 91.8842 214.553C89.9207 217.379 89.2122 217.024 87.9187 219.34C86.9585 221.059 86.8448 222.157 86.1523 222.222C85.1725 222.313 84.7676 220.173 83.5704 220.09C82.3486 220.005 81.126 222.12 80.52 223.772C79.3827 226.873 80.0869 229.243 80.2431 231.605C80.4127 234.171 80.0143 237.928 77.2208 242.751L50.8721 284.66C56.5307 276.116 72.5935 252.819 79.0651 244.273C80.9334 241.806 82.941 239.329 86.0311 238.863C89.0062 238.415 92.6261 239.884 97.6787 239.799C98.2688 239.789 99.911 239.74 100.31 238.871C100.641 238.153 99.8207 237.528 100.119 236.853C100.519 235.947 102.319 236.336 104.772 235.734C106.502 235.31 107.678 234.609 108.688 234.006C108.993 233.824 113.532 231.08 113.022 229.524H113.022L113.022 229.524Z" fill="#15BAC0" fill-opacity="0.3"/>
<path d="M44.0101 239.309C43.325 239.159 42.7413 240.728 42.147 240.563C41.5548 240.398 41.9283 238.783 41.1008 236.89C40.9516 236.549 40.0113 234.398 39.053 234.449C37.2367 234.545 36.9539 242.467 34.2768 242.837C33.6893 242.919 32.924 242.645 31.0872 242.836C30.3564 242.912 29.9686 243.009 29.8064 243.3C29.5764 243.715 30.0019 244.161 30.5506 245.346C31.3736 247.124 30.9947 247.368 31.7599 248.67C32.328 249.637 32.8352 250.009 32.6672 250.367C32.4296 250.874 31.2605 250.455 30.8743 251.017C30.4801 251.592 31.167 252.801 31.8045 253.574C33.0007 255.026 34.369 255.365 35.5752 255.97C36.886 256.627 38.6182 257.907 40.1831 260.667L53.1847 285.669C50.6171 280.431 43.7978 265.839 41.4638 260.202C40.79 258.575 40.1514 256.877 40.8139 255.228C41.4518 253.641 43.2186 252.291 44.6344 249.791C44.7998 249.499 45.2497 248.68 44.9377 248.234C44.6798 247.865 44.1362 248.086 43.8902 247.745C43.5604 247.288 44.2708 246.518 44.6829 245.143C44.9734 244.173 44.968 243.395 44.9633 242.725C44.9618 242.524 44.922 239.508 44.0101 239.308V239.308L44.0101 239.309Z" fill="#15BAC0" fill-opacity="0.3"/>
<path d="M56.981 245.409L57.3896 241.642L57.6403 241.405C58.8 240.311 59.5254 239.152 59.7976 237.959C59.8409 237.77 59.8744 237.578 59.9087 237.382C60.0444 236.608 60.2129 235.645 60.9588 234.645C61.3762 234.088 62.4804 232.829 63.6192 233.268C63.9266 233.383 64.1341 233.582 64.2782 233.793C64.3144 233.757 64.3514 233.72 64.3911 233.681C64.883 233.203 65.2271 233.029 65.5586 232.86C65.8133 232.731 66.0764 232.597 66.5215 232.242C66.7168 232.086 66.8731 231.946 67.0049 231.828C67.4045 231.472 67.9156 231.055 68.6157 231.22C69.3579 231.422 69.6124 232.129 69.7812 232.597C70.0827 233.432 70.1755 234.006 70.237 234.386C70.2591 234.525 70.2847 234.682 70.3042 234.733C70.4666 235.141 72.5058 235.247 73.273 235.291C74.9977 235.385 76.4901 235.466 76.849 236.645C77.1065 237.488 76.5698 238.408 75.2078 239.451C74.7835 239.776 74.3593 240 73.9898 240.167C74.2171 240.382 74.3982 240.674 74.4093 241.071C74.4342 242.012 73.4678 242.734 71.537 243.22C71.0573 243.342 70.4119 243.504 69.5674 243.463C69.1696 243.444 68.8212 243.383 68.5242 243.326C68.4799 243.495 68.3987 243.671 68.2523 243.837C67.8226 244.328 67.1286 244.453 66.1865 244.176C65.1466 243.887 64.3248 243.494 63.5998 243.148C62.9664 242.847 62.4203 242.589 61.9621 242.519C61.1099 242.4 60.3152 242.925 59.3641 243.624L56.981 245.409H56.981L56.981 245.409Z" fill="#15BAC0" fill-opacity="0.3"/>
<path d="M63.7824 223.954L60.029 224.515L59.7361 224.333C58.3818 223.491 57.0747 223.084 55.8496 223.124C55.6549 223.13 55.4605 223.147 55.2625 223.163C54.4776 223.228 53.502 223.31 52.3439 222.843C51.6981 222.582 50.1979 221.835 50.3353 220.623C50.3687 220.297 50.5089 220.047 50.6767 219.854C50.632 219.828 50.5873 219.802 50.5388 219.774C49.9517 219.42 49.695 219.132 49.4478 218.854C49.2576 218.641 49.0617 218.421 48.6045 218.081C48.404 217.932 48.2284 217.817 48.0808 217.719C47.6343 217.424 47.1005 217.036 47.083 216.318C47.091 215.55 47.7112 215.125 48.1218 214.843C48.8539 214.341 49.3865 214.105 49.7397 213.949C49.8688 213.893 50.014 213.828 50.0584 213.797C50.4133 213.536 49.9985 211.54 49.8467 210.788C49.4997 209.099 49.1995 207.637 50.2508 206.992C51.0027 206.529 52.0301 206.814 53.3867 207.865C53.8089 208.192 54.1336 208.545 54.3895 208.859C54.5397 208.585 54.7765 208.336 55.1587 208.225C56.0638 207.962 57.0083 208.712 57.9695 210.453C58.2097 210.886 58.5302 211.468 58.7048 212.294C58.7866 212.683 58.816 213.035 58.8363 213.336C59.0113 213.336 59.2021 213.37 59.4008 213.469C59.9856 213.759 60.2826 214.398 60.2533 215.377C60.2368 216.455 60.064 217.348 59.9128 218.136C59.7816 218.824 59.6705 219.417 59.7186 219.877C59.8195 220.73 60.53 221.365 61.4487 222.106L63.7825 223.954H63.7824L63.7824 223.954Z" fill="#15BAC0" fill-opacity="0.3"/>
<path d="M64.2886 212.702L64.6972 208.935L64.9479 208.698C66.1076 207.604 66.833 206.445 67.1052 205.252C67.1485 205.062 67.182 204.871 67.2163 204.675C67.352 203.901 67.5205 202.938 68.2664 201.938C68.6838 201.381 69.788 200.122 70.9269 200.561C71.2342 200.676 71.4417 200.875 71.5858 201.086C71.622 201.05 71.6591 201.013 71.6987 200.973C72.1906 200.496 72.5347 200.321 72.8662 200.153C73.121 200.024 73.384 199.89 73.8291 199.535C74.0244 199.379 74.1807 199.239 74.3125 199.121C74.7121 198.765 75.2232 198.348 75.9233 198.513C76.6655 198.715 76.92 199.422 77.0888 199.89C77.3903 200.725 77.4831 201.298 77.5446 201.679C77.5667 201.818 77.5924 201.975 77.6118 202.026C77.7742 202.434 79.8134 202.54 80.5806 202.584C82.3053 202.678 83.7977 202.758 84.1566 203.937C84.4141 204.781 83.8774 205.701 82.5154 206.744C82.0911 207.069 81.667 207.293 81.2974 207.46C81.5247 207.675 81.7058 207.967 81.7169 208.364C81.7418 209.305 80.7754 210.026 78.8447 210.513C78.3649 210.635 77.7195 210.797 76.875 210.756C76.4773 210.737 76.1289 210.676 75.8318 210.619C75.7875 210.788 75.7063 210.964 75.5599 211.13C75.1302 211.621 74.4362 211.746 73.4942 211.469C72.4542 211.18 71.6325 210.787 70.9074 210.441C70.2741 210.14 69.728 209.882 69.2698 209.812C68.4175 209.693 67.6228 210.218 66.6717 210.917L64.2886 212.702H64.2886L64.2886 212.702Z" fill="#15BAC0" fill-opacity="0.3"/>
<path d="M52.1178 284.874L51.4542 284.22L51.4661 283.289L51.4542 284.22L50.5318 284.122C50.5362 284.036 50.5301 283.833 50.5234 283.517C50.4879 281.784 50.3777 276.511 51.1133 268.407C51.627 262.751 52.4853 257.009 53.6644 251.339C54.8456 245.66 56.0714 241.434 57.056 238.038C57.799 235.476 58.549 233.047 59.2811 230.68C61.2349 224.357 63.0797 218.384 64.2221 211.571C64.4779 210.05 65.0088 206.885 63.9218 203.148C63.2911 200.981 62.2112 198.941 60.711 197.087L62.163 195.916C63.8184 197.965 65.0125 200.224 65.713 202.63C66.9183 206.773 66.3398 210.223 66.0618 211.88C64.8991 218.813 63.0359 224.844 61.0629 231.228C60.3345 233.586 59.587 236.005 58.8472 238.556C57.8715 241.921 56.6567 246.11 55.4909 251.716C54.3251 257.318 53.4778 262.99 52.9698 268.575C52.244 276.576 52.353 281.771 52.3887 283.478C52.4072 284.389 52.4111 284.58 52.1178 284.874L52.1178 284.874Z" fill="#15BAC0" fill-opacity="0.3"/>
<path d="M56.7279 199.231C56.6533 199.214 56.5781 199.196 56.5029 199.173C54.9716 198.745 53.7432 197.499 52.8509 195.471C52.4333 194.517 52.3347 193.514 52.1382 191.512C52.1073 191.204 51.971 189.642 52.1386 187.573C52.2476 186.22 52.3932 185.677 52.7618 185.251C53.1712 184.776 53.7227 184.504 54.3055 184.367C54.3213 184.188 54.38 184.013 54.4964 183.847C54.9758 183.158 55.7784 183.441 56.2138 183.589C56.4332 183.667 56.7066 183.767 57.0141 183.819C57.4974 183.902 57.786 183.818 58.2228 183.691C58.6408 183.57 59.1605 183.419 59.8789 183.432C61.2963 183.452 62.3456 184.088 62.6916 184.297C64.5139 185.39 65.1431 187.134 65.8712 189.153C66.0158 189.558 66.496 191.021 66.6078 192.905C66.6885 194.264 66.5101 194.82 66.3055 195.218C65.8877 196.036 65.2479 196.415 63.66 197.213C62.0011 198.049 61.1688 198.467 60.4863 198.682C58.8983 199.18 57.9011 199.492 56.7279 199.231V199.231Z" fill="#15BAC0" fill-opacity="0.3"/>
<path d="M482.577 41.5656C482.577 41.5656 492.879 47.597 489.501 53.5616C486.122 59.5263 481.412 67.6508 484.607 70.2096C487.803 72.7683 493.078 84.0499 493.078 84.0499C493.078 84.0499 515.596 80.9101 513.482 98.3723C511.368 115.834 500.79 118.215 509.857 125.897C518.924 133.579 500.433 142.767 500.433 142.767C500.433 142.767 487.668 138.796 484.756 126.584C481.844 114.372 487.352 135.921 485.505 137.466C483.657 139.012 476.484 149.196 471.408 135.655C466.332 122.114 471.359 116.864 464.652 108.872C457.945 100.88 453.385 87.9536 453.584 85.694C453.784 83.4344 445.912 62.8152 458.029 54.7739C470.145 46.7325 482.577 41.5656 482.577 41.5656V41.5656Z" fill="#2F2E41"/>
<path d="M584.052 231.031C590.033 235.973 597.435 236.897 600.585 233.097C603.735 229.296 601.439 222.21 595.455 217.268C593.092 215.261 590.281 213.848 587.259 213.147L561.651 192.528L552.215 204.731L578.461 223.762C579.717 226.596 581.633 229.088 584.052 231.031Z" fill="#FFB6B6"/>
<path d="M507.303 118.579C507.303 118.579 487.207 105.163 480.627 111.741C474.046 118.32 475.617 134.753 475.617 134.753L528.317 196.067L570.106 222.584L581.311 205.068L546.179 173.772L507.303 118.579V118.579Z" fill="#3F3D56"/>
<path d="M477.846 89.5164L485.138 115.39H445.118L458.296 83.5099L477.846 89.5164Z" fill="#FFB6B6"/>
<path opacity="0.1" d="M477.846 89.5164L485.138 115.39H445.118L458.296 83.5099L477.846 89.5164Z" fill="black"/>
<path d="M390.571 280.547C390.054 288.281 393.633 294.816 398.563 295.143C403.493 295.471 407.907 289.467 408.423 281.731C408.672 278.643 408.176 275.541 406.977 272.684L408.752 239.888L393.318 239.385L393.207 271.769C391.639 274.443 390.735 277.453 390.571 280.547Z" fill="#FFB6B6"/>
<path d="M437.044 152.629C437.044 152.629 436.191 128.509 426.996 127.028C417.802 125.547 405.37 136.431 405.37 136.431L386.379 214.967L389.276 264.315L410.062 263.143L414.941 216.389L437.044 152.628V152.629Z" fill="#3F3D56"/>
<path d="M526.187 440.867C526.187 440.867 541.31 468.906 540.23 467.827C539.15 466.749 520.786 473.219 520.786 473.219L509.983 445.181L526.187 440.867Z" fill="#FFB6B6"/>
<path d="M548.508 244.601C548.508 244.601 556.249 275.494 555.469 274.183C554.688 272.873 535.293 274.629 535.293 274.629L531.739 244.799L548.508 244.601Z" fill="#FFB6B6"/>
<path d="M488.379 106.762H450.621L409.521 134.801L397.639 232.936L404.12 252.348L416.003 274.994C416.003 274.994 404.12 225.387 433.287 244.799C462.453 264.21 464.613 267.445 464.613 267.445L503.502 248.034L518.085 167.693L507.283 123.478L488.379 106.762Z" fill="#3F3D56"/>
<path d="M413.842 239.407C448.019 244.2 478.889 240.021 504.042 220.332C504.042 220.332 522.406 281.802 488.919 288.272C455.431 294.743 418.163 283.621 413.842 272.837C409.521 262.053 413.842 239.407 413.842 239.407Z" fill="#2F2E41"/>
<path d="M477.576 258.818L514.844 346.506L532.128 447.877L509.443 453.269L468.866 359.986L413.842 270.681L477.576 258.818Z" fill="#2F2E41"/>
<path d="M482.437 233.812C482.437 233.812 491.078 166.951 507.282 162.637C515.181 160.535 522.567 160.738 528.063 161.499C533.602 162.267 538.018 166.491 538.986 171.99L553.711 255.583H532.889L526.186 232.936L508.362 264.008L482.437 233.812V233.812Z" fill="#2F2E41"/>
<path d="M535.369 266.165L555.957 264.008L559.134 275.87C559.134 275.87 592.621 306.066 575.337 308.223C558.054 310.379 541.85 298.517 541.85 298.517L518.074 284.901C518.074 284.901 527.267 260.436 533.748 260.436C540.23 260.436 535.369 266.165 535.369 266.165Z" fill="#2F2E41"/>
<path d="M524.566 468.366L545.154 466.209L548.331 478.072C548.331 478.072 581.819 508.267 564.535 510.424C547.251 512.581 531.047 500.719 531.047 500.719L507.271 487.103C507.271 487.103 508.902 461.559 515.384 461.559C521.865 461.559 524.566 468.366 524.566 468.366Z" fill="#2F2E41"/>
<path d="M468.338 95.1388C481.649 95.1388 492.439 84.3668 492.439 71.0789C492.439 57.7909 481.649 47.0189 468.338 47.0189C455.028 47.0189 444.237 57.7909 444.237 71.0789C444.237 84.3668 455.028 95.1388 468.338 95.1388Z" fill="#FFB6B6"/>
<path d="M477.576 44.2119C477.576 44.2119 481.593 55.4399 475.166 57.8459C468.74 60.2519 459.903 63.4599 460.706 67.4699C461.509 71.4799 458.296 83.5099 458.296 83.5099C458.296 83.5099 477.576 95.5398 464.723 107.57C451.869 119.6 442.229 114.643 444.237 126.344C446.245 138.046 426.161 133.234 426.161 133.234C426.161 133.234 418.931 122.006 424.555 110.778C430.178 99.5498 420.538 119.6 418.128 119.6C415.718 119.6 403.667 122.808 408.488 109.174C413.308 95.5398 420.538 94.7378 420.538 84.3119C420.538 73.8859 425.358 61.0539 426.965 59.4499C428.572 57.8459 435.802 36.9939 450.262 38.5979C464.723 40.2019 477.576 44.2119 477.576 44.2119Z" fill="#2F2E41"/>
<path d="M266.929 440.867C266.929 440.867 251.806 468.906 252.886 467.827C253.967 466.749 272.331 473.219 272.331 473.219L283.133 445.181L266.929 440.867Z" fill="#A0616A"/>
<path d="M379.274 239.407C345.097 244.2 314.227 240.021 289.074 220.332C289.074 220.332 270.71 281.802 304.198 288.272C337.685 294.743 374.953 283.621 379.274 272.837C383.595 262.053 379.274 239.407 379.274 239.407Z" fill="#2F2E41"/>
<path d="M315.54 258.818L278.272 346.506L260.988 447.877L283.673 453.269L324.25 359.986L379.274 270.681L315.54 258.818Z" fill="#2F2E41"/>
<path d="M268.55 468.366L247.962 466.209L244.785 478.072C244.785 478.072 211.298 508.267 228.581 510.424C245.865 512.581 262.069 500.719 262.069 500.719L285.845 487.103C285.845 487.103 284.214 461.559 277.732 461.559C271.251 461.559 268.55 468.366 268.55 468.366Z" fill="#2F2E41"/>
<path d="M301.078 426.115C301.078 426.115 295.357 457.444 296.051 456.085C296.745 454.727 316.213 455.226 316.213 455.226L317.824 425.228L301.078 426.115Z" fill="#A0616A"/>
<path d="M291.059 237.975L282.707 332.864L297.593 434.613L320.837 432.755L330.608 331.526L355.35 229.63L291.059 237.975Z" fill="#2F2E41"/>
<path d="M311.117 451.774L290.867 456.063L291.511 468.326C291.511 468.326 268.988 507.362 286.095 504.09C303.202 500.819 314.95 484.544 314.95 484.544L333.358 464.27C333.358 464.27 323.913 440.475 317.748 442.471C311.583 444.467 311.117 451.774 311.117 451.774Z" fill="#2F2E41"/>
<path d="M310.538 41.5656C310.538 41.5656 300.236 47.597 303.615 53.5616C306.994 59.5263 311.704 67.6508 308.508 70.2096C305.313 72.7683 300.037 84.0499 300.037 84.0499C300.037 84.0499 277.519 80.9101 279.633 98.3723C281.747 115.834 292.326 118.215 283.259 125.897C274.192 133.579 292.682 142.767 292.682 142.767C292.682 142.767 305.447 138.796 308.36 126.584C311.272 114.372 305.763 135.921 307.611 137.466C309.458 139.012 316.632 149.196 321.707 135.655C326.783 122.114 321.757 116.864 328.464 108.872C335.171 100.88 339.731 87.9536 339.531 85.694C339.331 83.4344 347.203 62.8152 335.087 54.7739C322.971 46.7325 310.538 41.5656 310.538 41.5656V41.5656Z" fill="#2F2E41"/>
<path d="M315.27 89.5164L307.979 115.39H347.998L334.82 83.5099L315.27 89.5164Z" fill="#A0616A"/>
<path opacity="0.1" d="M315.27 89.5164L307.979 115.39H347.998L334.82 83.5099L315.27 89.5164Z" fill="black"/>
<path d="M402.546 280.547C403.062 288.281 399.484 294.816 394.554 295.143C389.624 295.471 385.21 289.467 384.694 281.731C384.445 278.643 384.941 275.541 386.14 272.684L384.365 239.888L399.799 239.385L399.91 271.769C401.478 274.443 402.382 277.453 402.546 280.547H402.546Z" fill="#A0616A"/>
<path d="M356.072 152.629C356.072 152.629 356.926 128.509 366.12 127.028C375.315 125.547 387.746 136.431 387.746 136.431L406.737 214.967L403.84 264.315L383.054 263.143L378.176 216.389L356.072 152.628V152.629Z" fill="#15BAC0"/>
<path d="M304.738 106.762H342.495L383.595 134.801L395.478 232.936L388.996 252.348L377.114 274.994C377.114 274.994 388.996 225.387 359.83 244.799C359.538 244.993 359.249 245.185 358.963 245.376C340.188 257.895 315.415 256.61 298.035 242.222L284.213 230.779L291.775 193.035L285.834 123.478L304.738 106.762V106.762Z" fill="#15BAC0"/>
<path d="M210.259 229.625C204.203 234.476 196.788 235.288 193.696 231.44C190.605 227.592 193.008 220.542 199.067 215.691C201.46 213.72 204.292 212.349 207.325 211.695L233.243 191.466L242.493 203.811L215.96 222.442C214.661 225.256 212.707 227.72 210.259 229.625V229.625Z" fill="#A0616A"/>
<path d="M288.711 118.351C288.711 118.351 309.009 105.241 315.489 111.919C321.968 118.597 320.147 135.003 320.147 135.003L266.519 195.511L224.332 221.391L213.395 203.707L248.999 172.947L288.711 118.351Z" fill="#15BAC0"/>
<path d="M324.779 95.1388C338.089 95.1388 348.879 84.3668 348.879 71.0789C348.879 57.7909 338.089 47.0189 324.779 47.0189C311.468 47.0189 300.678 57.7909 300.678 71.0789C300.678 84.3668 311.468 95.1388 324.779 95.1388Z" fill="#A0616A"/>
<path d="M312.78 54.9517C312.78 54.9517 309.23 43.1363 315.147 43.1363C321.065 43.1363 344.736 44.3179 347.103 46.6809C349.47 49.044 377.48 72.7602 360.91 91.6647C344.341 110.569 360.91 119.703 360.91 119.703C360.91 119.703 373.141 148.293 361.305 150.656C349.47 153.019 300.922 139.507 312.78 117.573C325.648 93.7699 331.636 56.2007 312.78 54.9517L312.78 54.9517Z" fill="#2F2E41"/>
<path d="M707.152 230.602C706.77 229.433 703.87 229.948 703.591 228.902C703.314 227.861 706.097 226.987 708.231 224.052C708.616 223.522 711.041 220.186 710.111 218.783C708.348 216.124 696.08 222.748 693.136 219.03C692.49 218.215 692.224 216.814 690.299 214.208C689.533 213.171 689.041 212.67 688.454 212.685C687.621 212.706 687.323 213.747 686.014 215.631C684.051 218.457 683.342 218.102 682.049 220.418C681.088 222.137 680.975 223.235 680.282 223.3C679.302 223.392 678.898 221.252 677.7 221.169C676.478 221.084 675.256 223.199 674.65 224.851C673.513 227.951 674.217 230.321 674.373 232.683C674.543 235.25 674.144 239.007 671.351 243.829L645.002 285.738C650.661 277.195 666.723 253.897 673.195 245.352C675.063 242.885 677.071 240.408 680.161 239.942C683.136 239.493 686.756 240.962 691.809 240.877C692.399 240.867 694.041 240.818 694.44 239.949C694.771 239.231 693.951 238.606 694.249 237.931C694.649 237.025 696.449 237.414 698.902 236.812C700.632 236.388 701.807 235.687 702.818 235.085C703.123 234.903 707.662 232.158 707.152 230.602V230.602Z" fill="#15BAC0" fill-opacity="0.3"/>
<path d="M638.14 240.387C637.455 240.237 636.872 241.806 636.277 241.641C635.685 241.477 636.059 239.861 635.231 237.969C635.082 237.627 634.142 235.476 633.183 235.527C631.367 235.624 631.084 243.546 628.407 243.916C627.82 243.997 627.054 243.723 625.218 243.915C624.487 243.991 624.099 244.087 623.937 244.379C623.707 244.793 624.132 245.239 624.681 246.424C625.504 248.202 625.125 248.447 625.89 249.749C626.458 250.715 626.966 251.088 626.798 251.446C626.56 251.952 625.391 251.533 625.005 252.096C624.611 252.67 625.297 253.879 625.935 254.653C627.131 256.105 628.499 256.443 629.706 257.048C631.016 257.706 632.749 258.985 634.313 261.745L647.315 286.748C644.747 281.51 637.928 266.917 635.594 261.281C634.92 259.654 634.282 257.955 634.944 256.307C635.582 254.72 637.349 253.37 638.765 250.87C638.93 250.578 639.38 249.759 639.068 249.312C638.81 248.943 638.267 249.165 638.021 248.824C637.691 248.366 638.401 247.597 638.813 246.221C639.104 245.251 639.098 244.473 639.094 243.804C639.092 243.602 639.052 240.586 638.14 240.387V240.387V240.387Z" fill="#15BAC0" fill-opacity="0.3"/>
<path d="M651.111 246.487L651.52 242.721L651.771 242.484C652.93 241.39 653.656 240.231 653.928 239.038C653.971 238.848 654.005 238.656 654.039 238.461C654.175 237.686 654.343 236.723 655.089 235.723C655.507 235.166 656.611 233.907 657.75 234.347C658.057 234.462 658.264 234.661 658.409 234.872C658.445 234.835 658.482 234.799 658.521 234.759C659.013 234.282 659.358 234.107 659.689 233.939C659.944 233.809 660.207 233.676 660.652 233.32C660.847 233.165 661.003 233.024 661.135 232.906C661.535 232.55 662.046 232.133 662.746 232.298C663.488 232.501 663.743 233.208 663.912 233.675C664.213 234.51 664.306 235.084 664.367 235.465C664.389 235.604 664.415 235.76 664.434 235.811C664.597 236.22 666.636 236.326 667.403 236.37C669.128 236.463 670.62 236.544 670.979 237.723C671.237 238.566 670.7 239.486 669.338 240.53C668.914 240.854 668.49 241.078 668.12 241.246C668.347 241.46 668.529 241.752 668.54 242.15C668.565 243.09 667.598 243.812 665.667 244.299C665.188 244.421 664.542 244.583 663.698 244.542C663.3 244.522 662.952 244.461 662.655 244.404C662.61 244.573 662.529 244.749 662.383 244.916C661.953 245.407 661.259 245.532 660.317 245.255C659.277 244.966 658.455 244.572 657.73 244.226C657.097 243.925 656.551 243.668 656.093 243.597C655.24 243.478 654.446 244.003 653.495 244.703L651.111 246.487H651.111V246.487Z" fill="#15BAC0" fill-opacity="0.3"/>
<path d="M657.913 225.033L654.16 225.593L653.867 225.411C652.513 224.569 651.206 224.163 649.981 224.202C649.786 224.209 649.591 224.225 649.393 224.241C648.608 224.307 647.633 224.388 646.475 223.922C645.829 223.66 644.329 222.913 644.466 221.702C644.5 221.376 644.64 221.125 644.808 220.932C644.763 220.907 644.718 220.88 644.67 220.852C644.083 220.498 643.826 220.21 643.579 219.933C643.388 219.719 643.193 219.499 642.735 219.16C642.535 219.011 642.359 218.895 642.212 218.798C641.765 218.502 641.231 218.115 641.214 217.397C641.222 216.628 641.842 216.203 642.253 215.922C642.985 215.419 643.517 215.184 643.871 215.028C644 214.971 644.145 214.907 644.189 214.875C644.544 214.615 644.129 212.619 643.977 211.866C643.631 210.177 643.33 208.716 644.382 208.07C645.134 207.607 646.161 207.892 647.518 208.943C647.94 209.27 648.264 209.623 648.52 209.937C648.671 209.664 648.907 209.415 649.29 209.303C650.195 209.041 651.139 209.791 652.1 211.532C652.341 211.964 652.661 212.546 652.836 213.372C652.917 213.761 652.947 214.113 652.967 214.414C653.142 214.414 653.333 214.448 653.532 214.547C654.116 214.838 654.413 215.476 654.384 216.456C654.368 217.534 654.195 218.427 654.044 219.215C653.912 219.903 653.801 220.495 653.849 220.956C653.95 221.809 654.661 222.443 655.58 223.184L657.913 225.033H657.913V225.033Z" fill="#15BAC0" fill-opacity="0.3"/>
<path d="M658.419 213.78L658.828 210.013L659.078 209.777C660.238 208.683 660.963 207.524 661.236 206.33C661.279 206.141 661.312 205.949 661.347 205.754C661.482 204.979 661.651 204.016 662.397 203.016C662.814 202.459 663.918 201.2 665.057 201.64C665.365 201.755 665.572 201.954 665.716 202.165C665.752 202.128 665.789 202.092 665.829 202.052C666.321 201.575 666.665 201.4 666.997 201.232C667.251 201.102 667.514 200.969 667.959 200.613C668.155 200.457 668.311 200.317 668.443 200.199C668.842 199.843 669.354 199.426 670.054 199.591C670.796 199.794 671.05 200.5 671.219 200.968C671.521 201.803 671.613 202.377 671.675 202.758C671.697 202.897 671.723 203.053 671.742 203.104C671.905 203.513 673.944 203.618 674.711 203.663C676.436 203.756 677.928 203.837 678.287 205.016C678.544 205.859 678.008 206.779 676.646 207.823C676.222 208.147 675.797 208.371 675.428 208.539C675.655 208.753 675.836 209.045 675.847 209.442C675.872 210.383 674.906 211.105 672.975 211.591C672.495 211.714 671.85 211.876 671.005 211.835C670.608 211.815 670.259 211.754 669.962 211.697C669.918 211.866 669.837 212.042 669.69 212.209C669.261 212.7 668.567 212.825 667.625 212.548C666.585 212.259 665.763 211.865 665.038 211.519C664.404 211.218 663.858 210.96 663.4 210.89C662.548 210.771 661.753 211.296 660.802 211.996L658.419 213.78H658.419V213.78Z" fill="#15BAC0" fill-opacity="0.3"/>
<path d="M646.248 285.953L645.584 285.298L645.596 284.368L645.584 285.298L644.662 285.201C644.666 285.114 644.66 284.912 644.653 284.595C644.618 282.863 644.508 277.589 645.243 269.486C645.757 263.829 646.615 258.088 647.794 252.417C648.975 246.738 650.201 242.513 651.186 239.116C651.929 236.555 652.679 234.125 653.411 231.758C655.365 225.435 657.21 219.463 658.352 212.65C658.608 211.129 659.139 207.963 658.052 204.227C657.421 202.059 656.341 200.02 654.841 198.166L656.293 196.995C657.948 199.044 659.142 201.303 659.843 203.709C661.048 207.852 660.47 211.301 660.192 212.959C659.029 219.892 657.166 225.922 655.193 232.306C654.464 234.664 653.717 237.083 652.977 239.634C652.001 242.999 650.787 247.188 649.621 252.794C648.455 258.397 647.608 264.068 647.1 269.653C646.374 277.654 646.483 282.85 646.519 284.556C646.537 285.468 646.541 285.659 646.248 285.953V285.953Z" fill="#15BAC0" fill-opacity="0.3"/>
<path d="M650.858 200.309C650.783 200.293 650.708 200.274 650.633 200.252C649.101 199.823 647.873 198.577 646.981 196.55C646.563 195.596 646.465 194.592 646.268 192.591C646.237 192.282 646.101 190.721 646.268 188.651C646.377 187.299 646.523 186.756 646.892 186.329C647.301 185.854 647.853 185.582 648.435 185.445C648.451 185.266 648.51 185.091 648.626 184.925C649.106 184.237 649.908 184.52 650.344 184.667C650.563 184.746 650.836 184.846 651.144 184.897C651.627 184.981 651.916 184.896 652.353 184.77C652.771 184.649 653.29 184.498 654.009 184.511C655.426 184.53 656.476 185.166 656.822 185.375C658.644 186.469 659.273 188.212 660.001 190.232C660.146 190.636 660.626 192.099 660.738 193.983C660.818 195.343 660.64 195.899 660.435 196.297C660.018 197.115 659.378 197.494 657.79 198.291C656.131 199.127 655.299 199.545 654.616 199.76C653.028 200.258 652.031 200.571 650.858 200.309V200.309Z" fill="#15BAC0" fill-opacity="0.3"/>
<path d="M180.572 220.742L179.353 182.358C179.333 181.735 179.579 181.129 180.026 180.694C180.474 180.259 181.089 180.031 181.713 180.069L212.223 181.896C212.839 181.932 213.418 182.226 213.81 182.703C214.202 183.178 214.379 183.802 214.297 184.412L209.135 222.562C208.979 223.717 207.945 224.56 206.781 224.483L182.651 222.89C182.406 222.874 182.173 222.82 181.957 222.732C181.16 222.411 180.601 221.646 180.572 220.742Z" fill="#15BAC0"/>
<path d="M179.391 178.768C179.818 178.723 180.39 178.668 181.076 178.61C180.893 178.269 180.818 177.866 180.896 177.452L181.441 174.576C181.582 173.83 182.184 173.258 182.938 173.158C187.431 172.558 202.883 170.931 212.612 175.338C213.221 175.613 213.613 176.219 213.632 176.886L213.721 179.953C213.732 180.332 213.622 180.684 213.428 180.975C214.237 181.192 215.043 181.422 215.843 181.672C216.344 181.829 216.703 182.271 216.763 182.792L216.914 184.098C217.01 184.927 216.329 185.64 215.495 185.584L179.02 183.124C178.189 183.069 177.611 182.278 177.811 181.472L178.231 179.775C178.367 179.229 178.83 178.827 179.391 178.768V178.768Z" fill="#3F3D56"/>
<path d="M88.7522 111.823L87.5333 73.4392C87.5136 72.8162 87.7589 72.2096 88.2065 71.775C88.6544 71.3402 89.269 71.1122 89.8927 71.1495L120.403 72.9763C121.019 73.0129 121.598 73.3071 121.99 73.7833C122.382 74.2592 122.56 74.8823 122.477 75.4929L117.316 113.643C117.159 114.797 116.125 115.641 114.961 115.564L90.8312 113.971C90.5864 113.955 90.3533 113.9 90.1374 113.813C89.3404 113.491 88.7809 112.727 88.7522 111.823V111.823Z" fill="#15BAC0"/>
<path d="M87.5712 69.8485C87.9981 69.8036 88.5699 69.7484 89.2563 69.6909C89.0728 69.3497 88.9977 68.9463 89.0761 68.5323L89.621 65.6572C89.7624 64.911 90.3646 64.3389 91.1186 64.2383C95.611 63.6386 111.063 62.0116 120.792 66.4182C121.401 66.694 121.793 67.2994 121.812 67.9664L121.901 71.0337C121.912 71.4129 121.802 71.7644 121.608 72.0559C122.417 72.273 123.223 72.5026 124.023 72.7529C124.524 72.9098 124.883 73.3514 124.943 73.8723L125.094 75.1788C125.19 76.0079 124.509 76.7206 123.675 76.6644L87.1997 74.2052C86.3697 74.1492 85.7916 73.3584 85.9913 72.5522L86.4116 70.8561C86.547 70.3096 87.0105 69.9074 87.5712 69.8485V69.8485Z" fill="#3F3D56"/>
<path d="M567.297 230.448L566.078 192.064C566.058 191.441 566.304 190.835 566.751 190.4C567.199 189.965 567.814 189.737 568.438 189.774L598.948 191.601C599.564 191.638 600.143 191.932 600.535 192.408C600.927 192.884 601.104 193.507 601.022 194.118L595.86 232.268C595.704 233.422 594.67 234.266 593.506 234.189L569.376 232.596C569.131 232.58 568.898 232.525 568.682 232.438C567.885 232.116 567.326 231.352 567.297 230.448Z" fill="#15BAC0"/>
<path d="M566.116 188.473C566.542 188.429 567.114 188.373 567.801 188.316C567.617 187.975 567.542 187.571 567.621 187.157L568.165 184.282C568.307 183.536 568.909 182.964 569.663 182.863C574.155 182.264 589.607 180.636 599.337 185.043C599.946 185.319 600.337 185.924 600.357 186.591L600.446 189.659C600.457 190.038 600.346 190.389 600.153 190.681C600.962 190.898 601.768 191.128 602.568 191.378C603.069 191.535 603.427 191.976 603.488 192.497L603.639 193.804C603.735 194.633 603.054 195.346 602.22 195.289L565.744 192.83C564.914 192.774 564.336 191.983 564.536 191.177L564.956 189.481C565.091 188.935 565.555 188.532 566.116 188.473V188.473Z" fill="#3F3D56"/>
</svg>
