<svg width="666" height="571" viewBox="0 0 666 571" fill="none" xmlns="http://www.w3.org/2000/svg">
<path d="M278.517 186.039C275.33 182.986 272.071 165.962 268.002 164.234C271.044 170.945 268.835 172.722 268.819 180.087C268.858 184.269 268.368 188.439 267.363 192.499H198.442V138.796C198.442 133.97 199.394 129.192 201.243 124.734C203.093 120.276 205.804 116.225 209.221 112.813C212.639 109.401 216.696 106.694 221.161 104.848C225.626 103.001 230.412 102.051 235.244 102.051C237.089 102.087 238.922 102.355 240.699 102.848C246.623 104.445 252.023 107.569 256.356 111.907C260.688 116.245 263.803 121.645 265.386 127.564C270.64 146.738 278.996 178.656 278.517 186.039Z" fill="#2F2E41"/>
<path d="M202.485 252.104L202.519 210.245L177.875 212.444L186.572 238.845L182.502 305.202C180.528 305.645 178.725 306.651 177.314 308.099C175.902 309.546 174.943 311.373 174.554 313.355C174.164 315.337 174.36 317.39 175.119 319.263C175.877 321.136 177.165 322.748 178.826 323.902C180.486 325.057 182.447 325.704 184.469 325.765C186.492 325.827 188.488 325.299 190.215 324.247C191.943 323.194 193.326 321.663 194.196 319.84C195.067 318.016 195.388 315.979 195.119 313.977L202.485 252.104Z" fill="#FFB6B6"/>
<path d="M250.985 551.229L260.941 551.227L265.678 512.885H250.982L250.985 551.229Z" fill="#FFB6B6"/>
<path d="M247.613 546.324L263.352 545.386V552.119L278.316 562.437C279.055 562.947 279.612 563.679 279.904 564.527C280.197 565.374 280.211 566.293 279.944 567.15C279.677 568.006 279.142 568.754 278.419 569.286C277.695 569.817 276.821 570.104 275.922 570.104H257.185L253.955 563.444L252.694 570.104H245.629L247.613 546.324Z" fill="#2F2E41"/>
<path d="M193.416 551.229L203.373 551.227L208.109 512.885H193.415L193.416 551.229Z" fill="#FFB6B6"/>
<path d="M207.582 546.324L191.843 545.386V552.119L176.879 562.437C176.14 562.947 175.584 563.679 175.291 564.527C174.998 565.374 174.984 566.293 175.251 567.15C175.519 568.006 176.053 568.754 176.777 569.286C177.5 569.817 178.375 570.104 179.273 570.104H198.011L201.24 563.444L202.502 570.104H209.566L207.582 546.324Z" fill="#2F2E41"/>
<path d="M242.119 165.042L221.493 165.445L206.934 180.789L195.262 182.499C189.982 183.272 185.128 185.831 181.511 189.748C177.894 193.666 175.733 198.704 175.39 204.021L177.412 215.111H189.544L196.563 256.257C193.834 263.2 193.648 268.681 199.25 270.834L216.64 303.541L268.001 280.525C270.606 276.054 271.441 271.563 268.778 267.196L272.45 204.209H284.796C284.796 192.428 280.805 182.497 269.079 181.186C264.423 180.683 259.744 180.416 255.06 180.386L242.119 165.042Z" fill="#E6E6E6"/>
<path d="M268.002 280.525C268.002 280.525 217.854 289.408 199.251 270.834C199.251 270.834 197.362 274.035 194.516 279.345C193.697 280.871 192.117 281.906 191.162 283.755C190.295 285.436 188.063 287.502 187.118 289.409C186.358 290.942 187.577 292.947 186.786 294.603C177.259 314.555 166.128 342.698 168.515 361.282C170.054 373.267 173.232 401.153 176.579 431.104C176.841 433.445 174.723 436.451 174.985 438.809C175.233 441.034 177.862 442.61 178.11 444.839C178.275 446.32 176.439 447.829 176.603 449.308C176.783 450.93 178.963 452.52 179.143 454.136C183.728 495.492 187.927 534.103 187.927 534.103H211.383L215.809 445.919L212.192 413.775L220.685 348.765L232.413 410.544L233.922 445.314L246.316 535.718H268.002V448.202L269.619 443.655L268.002 437.824L269.619 431.541L268.002 424.699V280.525Z" fill="#2F2E41"/>
<path d="M248.45 153.1C245.255 157.337 240.71 160.362 235.563 161.676C230.417 162.99 224.975 162.514 220.135 160.328C215.295 158.142 211.345 154.375 208.936 149.648C206.526 144.921 205.801 139.515 206.879 134.322C207.958 129.128 210.776 124.456 214.869 121.075C218.962 117.694 224.086 115.806 229.398 115.721C234.709 115.636 239.892 117.36 244.091 120.608C248.29 123.857 251.256 128.436 252.501 133.593C252.568 133.873 252.625 134.151 252.68 134.44C253.337 137.672 253.3 141.006 252.571 144.223C251.842 147.439 250.437 150.465 248.45 153.1Z" fill="#FFB6B6"/>
<path d="M243.574 139.781C243.078 137.295 241.824 135.024 239.983 133.28C240.165 135.661 239.834 138.054 239.012 140.298C232.863 140.841 226.687 139.62 221.21 136.777C217.085 133.982 211.836 134.225 205.721 136.777C205.72 133.807 206.306 130.866 207.444 128.123C208.582 125.379 210.25 122.886 212.353 120.787C214.456 118.687 216.953 117.021 219.701 115.885C222.449 114.749 225.394 114.164 228.368 114.164H232.412C238.418 114.166 244.178 116.548 248.425 120.789C252.672 125.029 255.059 130.78 255.06 136.777C251.327 138.113 247.484 139.119 243.574 139.781Z" fill="#2F2E41"/>
<path d="M66.6449 427.98C102.578 427.98 131.708 398.896 131.708 363.019C131.708 327.142 102.578 298.058 66.6449 298.058C30.7117 298.058 1.58203 327.142 1.58203 363.019C1.58203 398.896 30.7117 427.98 66.6449 427.98Z" fill="#2F2E41"/>
<path d="M327.261 129.923C363.194 129.923 392.324 100.838 392.324 64.9613C392.324 29.0842 363.194 0 327.261 0C291.328 0 262.198 29.0842 262.198 64.9613C262.198 100.838 291.328 129.923 327.261 129.923Z" fill="#2F2E41"/>
<path d="M577.937 488.17C613.87 488.17 643 459.086 643 423.209C643 387.332 613.87 358.248 577.937 358.248C542.004 358.248 512.874 387.332 512.874 423.209C512.874 459.086 542.004 488.17 577.937 488.17Z" fill="#2F2E41"/>
<path d="M444.629 72.0456V219.35C444.63 222.41 443.421 225.346 441.266 227.521C439.11 229.696 436.182 230.934 433.118 230.966C433.075 230.97 433.033 230.972 432.99 230.971H415.819C402.08 230.971 388.904 225.522 379.189 215.822C369.473 206.122 364.016 192.966 364.016 179.248V72.0456C364.016 68.9635 365.242 66.0077 367.425 63.8284C369.607 61.649 372.568 60.4247 375.655 60.4247H382.613C379.389 69.813 423.137 73.7657 425.539 60.4247H432.99C436.077 60.4247 439.038 61.6491 441.221 63.8284C443.403 66.0078 444.629 68.9636 444.629 72.0456Z" fill="#15BAC0"/>
<path d="M393.672 49.4097C393.672 49.006 393.833 48.6189 394.119 48.3334C394.405 48.0479 394.793 47.8873 395.197 47.8868H405.57C405.973 47.8879 406.36 48.0489 406.645 48.3344C406.93 48.6199 407.09 49.0066 407.09 49.4097C407.09 49.8129 406.93 50.1996 406.645 50.4851C406.36 50.7706 405.973 50.9315 405.57 50.9327H395.197C394.793 50.9322 394.405 50.7716 394.119 50.4861C393.833 50.2006 393.672 49.8135 393.672 49.4097Z" fill="#3F3D56"/>
<path d="M436.553 249.655H370.96C365.871 249.65 360.992 247.629 357.393 244.036C353.795 240.443 351.77 235.572 351.764 230.491V127.519C351.404 127.261 351.111 126.92 350.909 126.526C350.707 126.132 350.602 125.696 350.602 125.253V114.897C350.602 114.454 350.707 114.018 350.909 113.624C351.111 113.23 351.404 112.89 351.764 112.632V109.852C351.404 109.594 351.111 109.254 350.909 108.86C350.707 108.466 350.602 108.03 350.602 107.587V97.2305C350.602 96.7879 350.707 96.3515 350.909 95.9576C351.111 95.5636 351.404 95.2235 351.764 94.9654V89.9419C351.32 89.7034 350.948 89.3488 350.69 88.9158C350.431 88.4829 350.295 87.988 350.297 87.4839V77.1279C350.295 76.6238 350.431 76.1288 350.69 75.6958C350.948 75.2627 351.32 74.9079 351.764 74.6693V60.9043C351.77 55.8232 353.795 50.952 357.393 47.3591C360.992 43.7663 365.871 41.7454 370.96 41.7397H436.553C441.642 41.7454 446.521 43.7664 450.12 47.3592C453.718 50.9521 455.742 55.8234 455.748 60.9044V90.9091C456.094 91.125 456.379 91.425 456.577 91.7811C456.774 92.1372 456.878 92.5375 456.878 92.9447V112.692C456.878 113.099 456.774 113.499 456.577 113.855C456.379 114.212 456.094 114.512 455.748 114.728V230.491C455.742 235.572 453.718 240.443 450.12 244.036C446.521 247.629 441.642 249.65 436.553 249.655ZM370.96 44.2872C366.547 44.2921 362.317 46.0444 359.196 49.1597C356.076 52.2749 354.321 56.4987 354.316 60.9044V76.8363L353.089 76.8835C353.025 76.8858 352.965 76.9124 352.92 76.9579C352.875 77.0034 352.849 77.0642 352.848 77.128V87.4839C352.85 87.5476 352.875 87.6083 352.92 87.6538C352.965 87.6992 353.025 87.7259 353.089 87.7284L354.316 87.775V96.7541L353.345 96.9929C353.292 97.0058 353.244 97.0362 353.209 97.0791C353.174 97.1221 353.155 97.1753 353.154 97.2305V107.587C353.155 107.642 353.174 107.696 353.209 107.739C353.244 107.782 353.292 107.812 353.345 107.825L354.316 108.064V114.421L353.345 114.659C353.292 114.672 353.244 114.703 353.209 114.746C353.174 114.789 353.155 114.842 353.154 114.897V125.253C353.155 125.308 353.174 125.362 353.209 125.405C353.244 125.448 353.292 125.478 353.345 125.491L354.316 125.73V230.491C354.321 234.896 356.076 239.12 359.196 242.235C362.317 245.351 366.547 247.103 370.96 247.108H436.553C440.966 247.103 445.196 245.35 448.316 242.235C451.436 239.12 453.192 234.896 453.197 230.491V112.547H454.327V93.0902H453.197V60.9043C453.192 56.4987 451.436 52.275 448.316 49.1598C445.196 46.0445 440.966 44.2922 436.553 44.2871L370.96 44.2872Z" fill="#3F3D56"/>
<path d="M411.366 50.9327C412.209 50.9327 412.892 50.2508 412.892 49.4097C412.892 48.5686 412.209 47.8868 411.366 47.8868C410.524 47.8868 409.841 48.5686 409.841 49.4097C409.841 50.2508 410.524 50.9327 411.366 50.9327Z" fill="#3F3D56"/>
<path d="M233.552 344.426H62.8735C60.4497 344.42 58.127 343.456 56.413 341.745C54.6989 340.034 53.7331 337.715 53.7266 335.294V252.26C53.7328 249.84 54.6983 247.521 56.4121 245.809C58.1259 244.098 60.4485 243.134 62.8723 243.127H233.55C235.974 243.133 238.297 244.097 240.011 245.809C241.725 247.52 242.691 249.839 242.697 252.259V335.293C242.691 337.713 241.726 340.032 240.012 341.744C238.298 343.455 235.975 344.419 233.552 344.426Z" fill="white"/>
<path d="M233.552 344.426H62.8735C60.4497 344.42 58.127 343.456 56.413 341.745C54.6989 340.034 53.7331 337.715 53.7266 335.294V252.26C53.7328 249.84 54.6983 247.521 56.4121 245.809C58.1259 244.098 60.4485 243.134 62.8723 243.127H233.55C235.974 243.133 238.297 244.097 240.011 245.809C241.725 247.52 242.691 249.839 242.697 252.259V335.293C242.691 337.713 241.726 340.032 240.012 341.744C238.298 343.455 235.975 344.419 233.552 344.426ZM62.8735 245.675C61.1257 245.68 59.4509 246.376 58.2151 247.61C56.9793 248.844 56.2829 250.516 56.278 252.261V335.293C56.2831 337.038 56.9798 338.711 58.2158 339.944C59.4519 341.178 61.1269 341.874 62.8748 341.878H233.549C235.297 341.874 236.972 341.178 238.208 339.944C239.444 338.71 240.141 337.037 240.146 335.292V252.26C240.141 250.515 239.444 248.843 238.208 247.609C236.972 246.375 235.297 245.68 233.549 245.675L62.8735 245.675Z" fill="#3F3D56"/>
<path d="M157.36 332.155C123.698 332.155 88.5987 331.834 75.5026 331.625C73.7796 331.59 72.1387 330.883 70.9303 329.656C69.7219 328.43 69.0418 326.78 69.0352 325.059V256.325C69.0358 255.709 69.2809 255.118 69.7167 254.682C70.1525 254.246 70.7437 254 71.3608 253.997H225.057C225.674 253.998 226.266 254.243 226.702 254.678C227.139 255.113 227.386 255.703 227.388 256.319V302.954C227.359 310.566 224.343 317.864 218.988 323.282C213.632 328.7 206.362 331.806 198.739 331.934C186.533 332.093 172.08 332.155 157.36 332.155Z" fill="#15BAC0"/>
<path d="M215.933 298.669H77.0564C75.8935 298.666 74.7599 298.305 73.8094 297.636C72.859 296.967 72.1379 296.022 71.7441 294.93L56.0253 250.901C55.7224 250.052 55.628 249.142 55.75 248.249C55.8721 247.356 56.207 246.505 56.7267 245.768C57.2463 245.031 57.9356 244.429 58.7365 244.013C59.5374 243.597 60.4267 243.379 61.3295 243.377L234.923 243.136C235.748 243.135 236.563 243.315 237.311 243.663C238.059 244.011 238.722 244.518 239.252 245.149C239.782 245.781 240.168 246.52 240.38 247.316C240.593 248.113 240.629 248.945 240.484 249.757L240.618 249.813L240.12 250.974L240.115 250.986L221.113 295.256C220.68 296.269 219.958 297.133 219.037 297.74C218.116 298.347 217.036 298.67 215.933 298.669ZM234.931 245.683L61.3344 245.925C60.8399 245.926 60.3527 246.045 59.9139 246.273C59.4752 246.501 59.0976 246.83 58.8129 247.234C58.5281 247.638 58.3446 248.104 58.2778 248.593C58.2109 249.083 58.2626 249.581 58.4285 250.046L74.1467 294.073C74.3627 294.671 74.7581 295.189 75.2789 295.556C75.7998 295.922 76.421 296.12 77.0582 296.122H215.933C216.537 296.122 217.128 295.945 217.632 295.613C218.136 295.281 218.53 294.808 218.767 294.253L237.77 249.982L238.705 250.382L237.77 249.982C237.972 249.513 238.053 249.002 238.008 248.493C237.962 247.985 237.791 247.496 237.51 247.07C237.228 246.644 236.845 246.294 236.395 246.052C235.945 245.81 235.442 245.683 234.931 245.683Z" fill="#3F3D56"/>
<path d="M147.953 308.253C153.958 308.253 158.827 303.392 158.827 297.396C158.827 291.399 153.958 286.538 147.953 286.538C141.947 286.538 137.078 291.399 137.078 297.396C137.078 303.392 141.947 308.253 147.953 308.253Z" fill="white"/>
<path d="M404.743 213.996C410.748 213.996 415.617 209.134 415.617 203.138C415.617 197.142 410.748 192.281 404.743 192.281C398.737 192.281 393.868 197.142 393.868 203.138C393.868 209.134 398.737 213.996 404.743 213.996Z" fill="white"/>
<path d="M550.037 410.624L520.988 381.991C519.574 380.586 517.896 379.473 516.051 378.717C514.206 377.961 512.229 377.575 510.234 377.583H510.132C508.122 377.589 506.133 377.993 504.281 378.771C502.428 379.55 500.748 380.687 499.339 382.118C492.844 388.681 489.15 397.502 489.033 406.728C488.917 415.954 492.387 424.866 498.714 431.59C499.02 431.922 499.339 432.24 499.658 432.558C501.425 434.312 503.375 435.87 505.475 437.208C511.218 440.912 517.915 442.873 524.752 442.85H524.969C529.662 442.834 534.305 441.89 538.63 440.071C542.954 438.251 546.875 435.594 550.165 432.253C553.015 429.365 554.603 425.467 554.579 421.412C554.555 417.358 552.922 413.478 550.037 410.624ZM548.353 430.457C542.96 435.881 535.858 439.284 528.246 440.092C520.633 440.899 512.974 439.062 506.56 434.889C504.725 433.677 503.012 432.291 501.444 430.75C495.185 424.578 491.638 416.176 491.583 407.392C491.528 398.609 494.969 390.164 501.151 383.914C502.326 382.718 503.727 381.768 505.273 381.119C506.82 380.469 508.48 380.133 510.157 380.131H510.234C511.895 380.125 513.541 380.446 515.077 381.075C516.614 381.705 518.011 382.63 519.19 383.799L548.238 412.446C550.643 414.821 552.006 418.051 552.027 421.428C552.049 424.804 550.727 428.052 548.353 430.457Z" fill="#3F3D56"/>
<path d="M454.726 316.647L425.678 288C422.818 285.168 418.951 283.583 414.923 283.593H414.834C412.821 283.601 410.83 284.007 408.975 284.788C407.121 285.568 405.439 286.708 404.028 288.14C398.659 293.585 395.177 300.604 394.093 308.168C393.01 315.733 394.381 323.445 398.007 330.174L398.02 330.187C399.515 332.939 401.373 335.48 403.543 337.74C403.786 338.021 404.066 338.301 404.347 338.581C411.018 345.192 420.042 348.893 429.441 348.873H429.671C434.364 348.853 439.007 347.906 443.332 346.084C447.656 344.263 451.577 341.605 454.867 338.263C456.279 336.834 457.396 335.142 458.153 333.282C458.911 331.423 459.294 329.433 459.281 327.426C459.268 325.418 458.859 323.433 458.077 321.584C457.296 319.735 456.157 318.057 454.726 316.647V316.647ZM453.042 336.479C449.989 339.581 446.35 342.048 442.337 343.738C438.323 345.428 434.014 346.307 429.658 346.325H429.441C422.899 346.323 416.505 344.389 411.061 340.768C405.617 337.146 401.367 331.998 398.846 325.971C396.325 319.944 395.645 313.308 396.892 306.896C398.138 300.484 401.256 294.584 405.853 289.936C408.231 287.536 411.466 286.175 414.848 286.154C418.23 286.132 421.483 287.451 423.892 289.822L452.94 318.456C455.343 320.835 456.704 324.068 456.723 327.446C456.742 330.825 455.418 334.074 453.042 336.479L453.042 336.479Z" fill="#3F3D56"/>
<path d="M551.893 419.627L519.868 388.046C517.768 385.98 514.933 384.83 511.984 384.848C509.036 384.866 506.215 386.051 504.141 388.143C501.546 390.761 499.494 393.863 498.101 397.273C496.707 400.682 496.001 404.333 496.022 408.016C496.043 411.698 496.79 415.34 498.222 418.734C499.654 422.128 501.741 425.207 504.366 427.795C506.99 430.382 510.099 432.428 513.516 433.816C516.932 435.203 520.589 435.904 524.278 435.879C527.966 435.854 531.613 435.104 535.011 433.67C538.408 432.237 541.49 430.15 544.078 427.527L551.893 419.627Z" fill="#15BAC0"/>
<path d="M456.588 325.644L424.563 294.063C422.463 291.997 419.628 290.847 416.68 290.865C413.731 290.884 410.911 292.069 408.836 294.161C406.242 296.778 404.189 299.88 402.796 303.29C401.403 306.7 400.696 310.35 400.717 314.033C400.738 317.715 401.486 321.358 402.917 324.752C404.349 328.146 406.437 331.224 409.061 333.812C411.685 336.4 414.794 338.446 418.211 339.833C421.628 341.22 425.285 341.921 428.973 341.897C432.661 341.872 436.308 341.121 439.706 339.688C443.104 338.255 446.185 336.167 448.774 333.544L456.588 325.644Z" fill="#15BAC0"/>
<path d="M516.701 439.297L515.936 441.309C512.338 439.946 508.851 438.579 505.475 437.208C445.668 412.841 417.117 384.321 398.019 330.187L398.006 330.174C397.1 327.627 396.22 325.02 395.365 322.353L397.381 321.704C398.055 324.268 399.04 326.741 400.315 329.066C401.361 332.034 402.437 334.925 403.543 337.74C421.493 383.43 447.964 409.542 498.713 431.59C501.265 432.699 503.88 433.798 506.559 434.889C509.67 436.913 513.098 438.403 516.701 439.297Z" fill="#3F3D56"/>
<path d="M425.145 346.554L423.352 348.367L489.611 413.708L491.405 411.895L425.145 346.554Z" fill="#3F3D56"/>
<path d="M284.179 242.413L284.213 200.555L259.569 202.753L268.266 229.154L236.695 276.937C234.721 277.38 232.918 278.386 231.507 279.834C230.096 281.281 229.137 283.107 228.747 285.09C228.357 287.072 228.554 289.125 229.312 290.998C230.071 292.87 231.359 294.482 233.019 295.637C234.679 296.792 236.64 297.439 238.662 297.5C240.685 297.561 242.681 297.034 244.409 295.981C246.136 294.929 247.519 293.398 248.39 291.575C249.26 289.751 249.581 287.714 249.312 285.712L284.179 242.413Z" fill="#FFB6B6"/>
</svg>
