<svg width="432" height="315" viewBox="0 0 432 315" fill="none" xmlns="http://www.w3.org/2000/svg">
<g clip-path="url(#clip0_10_112)">
<path opacity="0.1" d="M424.68 251.684C413.98 273.815 392.242 288.613 369.722 298.373C351.692 306.135 332.633 311.232 313.141 313.506C309.408 313.95 305.663 314.295 301.905 314.54C292.304 315.167 282.672 315.156 273.073 314.507C267.298 314.122 261.544 313.507 255.81 312.662C235.887 309.749 216.462 304.08 198.093 295.817C192.791 293.424 187.597 290.811 182.51 287.979C174.014 283.26 165.874 277.924 158.154 272.014C156.446 270.706 154.759 269.37 153.094 268.005L152.409 267.444C151.1 266.361 149.802 265.255 148.485 264.181C146.296 262.343 143.971 260.672 141.532 259.182C141.367 259.085 141.201 258.989 141.032 258.896C140.581 258.633 140.122 258.387 139.655 258.153C138.692 257.666 137.705 257.23 136.698 256.844C132.045 255.068 127.061 254.422 122.009 254.531C121.171 254.531 120.333 254.587 119.492 254.644C118.315 254.725 117.135 254.846 115.958 254.999L115.523 255.06C111.775 255.591 108.069 256.389 104.433 257.446C98.8169 259.061 93.3018 261.08 87.7504 262.901C85.3937 263.68 83.0329 264.423 80.652 265.09L80.1283 265.235C76.7421 266.19 73.2951 266.913 69.8111 267.399C61.894 268.414 53.8528 267.765 46.1997 265.493L45.9338 265.417L45.4423 265.271L44.7695 265.061C43.6415 264.706 42.5229 264.317 41.4137 263.894L40.741 263.636C39.6667 263.221 38.6152 262.776 37.5866 262.299L36.9138 261.993C35.8395 261.492 34.7881 260.963 33.7594 260.406C33.3888 260.212 33.0222 260.002 32.6596 259.804C31.5639 259.19 30.4896 258.547 29.4368 257.874C28.3195 257.161 27.2264 256.416 26.1575 255.641C25.6634 255.286 25.1746 254.921 24.6911 254.547C21.9043 252.411 19.2947 250.052 16.8878 247.493C16.7548 247.36 16.6299 247.223 16.5051 247.089C15.8645 246.395 15.2361 245.688 14.6277 244.965C14.4021 244.699 14.1765 244.432 13.955 244.158C13.2325 243.275 12.5356 242.372 11.8641 241.449C11.7634 241.315 11.6667 241.178 11.5701 241.045C8.81749 237.229 6.53551 233.094 4.77386 228.73C4.71746 228.596 4.66509 228.459 4.61674 228.326C4.0796 226.94 3.58946 225.53 3.14631 224.098C2.96503 223.501 2.7918 222.887 2.63871 222.29C2.58634 222.112 2.538 221.93 2.49368 221.753C0.269912 212.979 0.0161133 203.857 0.0161133 194.788C0.0161133 193.731 0.0161133 192.674 0.0161133 191.619C0.0805705 176.95 0.30617 162.03 2.46548 147.563C2.46548 147.462 2.49369 147.361 2.5098 147.264C3.23251 142.394 4.21556 137.566 5.45469 132.801C6.75156 127.802 8.40898 122.903 10.4139 118.144C15.3811 106.435 22.6043 95.7792 30.6252 85.9029C40.2938 74.0198 51.3724 63.0533 63.7119 54.0047C65.4845 52.7046 67.2812 51.4421 69.1021 50.2173L69.9441 49.6642C70.2382 49.4663 70.5323 49.2604 70.8263 49.0868C71.4306 48.683 72.0349 48.3035 72.6473 47.9199L73.3321 47.4919L74.6374 46.6843L75.0402 46.4542L75.7372 46.0504L76.4261 45.6466C77.2318 45.1702 78.0469 44.7045 78.8714 44.2496C82.3924 42.2819 85.9966 40.4837 89.6841 38.8552C90.7718 38.3733 91.8662 37.909 92.9674 37.4621C97.9667 35.4214 103.102 33.7336 108.336 32.4109C110.27 31.921 112.216 31.4903 114.174 31.1189C116.483 30.672 118.805 30.3019 121.139 30.0085C124.853 29.5401 128.588 29.2612 132.331 29.1727C158.645 28.5307 185.226 37.1149 205.848 53.5687C214.066 60.126 221.451 67.8905 230.68 72.9175C238.737 77.2944 248.168 79.1074 256.797 75.6632C263.928 72.8166 268.569 71.4033 276.578 71.8354C293.15 72.771 309.488 76.1955 325.045 81.9943C325.674 82.2245 326.302 82.4627 326.927 82.7009C367.499 98.2664 402.382 129.175 420.502 168.895C420.98 169.944 421.446 171.002 421.9 172.068C432.709 197.365 436.609 227.022 424.68 251.684Z" fill="#15BAC0"/>
<path opacity="0.1" d="M80.64 112.003V265.098L80.1162 265.243C76.73 266.198 73.283 266.921 69.7991 267.407C61.8819 268.422 53.8407 267.773 46.1876 265.501L45.9217 265.425L45.4302 265.279L44.7574 265.069C43.6294 264.714 42.5109 264.325 41.4017 263.902L40.7289 263.644C39.6546 263.229 38.6031 262.784 37.5745 262.308L36.9017 262.001C35.8274 261.5 34.776 260.971 33.7474 260.414C33.3767 260.22 33.0101 260.01 32.6476 259.812C31.5518 259.198 30.4775 258.555 29.4247 257.882C28.3074 257.169 27.2144 256.425 26.1454 255.649C25.6513 255.294 25.1625 254.929 24.679 254.555C21.8923 252.419 19.2826 250.06 16.8757 247.501C16.7428 247.368 16.6179 247.231 16.493 247.097C15.8524 246.403 15.224 245.696 14.6157 244.974C14.3901 244.707 14.1645 244.441 13.9429 244.166C13.2204 243.283 12.5235 242.38 11.8521 241.457C11.7513 241.323 11.6547 241.186 11.558 241.053C8.8054 237.238 6.52343 233.102 4.76177 228.738C4.70537 228.605 4.653 228.467 4.60466 228.334C4.06752 226.948 3.57737 225.539 3.13423 224.107C2.95294 223.509 2.77971 222.895 2.62663 222.298C2.57426 222.12 2.52591 221.938 2.4816 221.761C0.257828 212.987 0.00402832 203.865 0.00402832 194.797C0.00402832 193.739 0.00402832 192.682 0.00402832 191.627C0.0684855 176.958 0.294085 162.038 2.4534 147.571C2.4534 147.47 2.4816 147.369 2.49771 147.272C3.22042 142.402 4.20347 137.574 5.4426 132.809H46.5824V112.003H54.7846V95.2906H72.4378V112.003H80.64Z" fill="#15BAC0"/>
<path opacity="0.1" d="M424.68 251.684C413.98 273.815 392.242 288.613 369.722 298.373C351.692 306.135 332.633 311.232 313.141 313.506C309.408 313.95 305.663 314.295 301.905 314.54C292.304 315.167 282.672 315.156 273.073 314.507C267.299 314.122 261.544 313.507 255.81 312.662C235.887 309.749 216.462 304.08 198.093 295.817C192.791 293.424 187.597 290.811 182.51 287.979C174.014 283.26 165.874 277.924 158.154 272.014C156.446 270.706 154.759 269.37 153.094 268.005L152.409 267.444C151.1 266.361 149.802 265.255 148.485 264.181C146.296 262.343 143.971 260.672 141.532 259.182C141.367 259.085 141.201 258.989 141.032 258.896C140.581 258.633 140.122 258.387 139.655 258.153C138.692 257.666 137.705 257.23 136.698 256.844V194.215H211.464V208.157H244.277V106.172H282.898V146.953H302.002V122.808H317.786V97.0147H325.037V81.9943C325.666 82.2245 326.294 82.4627 326.919 82.7009V97.0147H333.977V122.824H349.749V146.97H373.006V238.961H409.972V172.06H421.884C432.709 197.365 436.609 227.022 424.68 251.684Z" fill="#15BAC0"/>
<path opacity="0.1" d="M273.081 121.52H255.818V138.821H273.081V121.52Z" fill="#15BAC0"/>
<path opacity="0.1" d="M273.081 157.383H255.818V174.685H273.081V157.383Z" fill="#15BAC0"/>
<path opacity="0.1" d="M273.081 193.25H255.818V210.552H273.081V193.25Z" fill="#15BAC0"/>
<path opacity="0.1" d="M273.081 229.117H255.818V246.419H273.081V229.117Z" fill="#15BAC0"/>
<path opacity="0.1" d="M273.081 264.98H255.818V282.282H273.081V264.98Z" fill="#15BAC0"/>
<path opacity="0.1" d="M273.081 300.84V314.503C267.307 314.118 261.552 313.503 255.818 312.658V300.84H273.081Z" fill="#15BAC0"/>
<path opacity="0.1" d="M202.814 216.576H142.39V224.413H202.814V216.576Z" fill="#15BAC0"/>
<path opacity="0.1" d="M202.814 240.379H142.39V248.216H202.814V240.379Z" fill="#15BAC0"/>
<path opacity="0.1" d="M202.814 264.181V272.014H158.162C156.454 270.706 154.767 269.37 153.102 268.005L152.417 267.444C151.108 266.361 149.811 265.255 148.493 264.181H202.814Z" fill="#15BAC0"/>
<path opacity="0.1" d="M202.815 287.979V295.817H198.101C192.799 293.424 187.605 290.811 182.519 287.979H202.815Z" fill="#15BAC0"/>
<path opacity="0.1" d="M313.149 168.37H301.913V179.631H313.149V168.37Z" fill="#15BAC0"/>
<path opacity="0.1" d="M69.8232 115.887H58.5875V127.148H69.8232V115.887Z" fill="#15BAC0"/>
<path opacity="0.1" d="M69.8232 142.052H58.5875V153.313H69.8232V142.052Z" fill="#15BAC0"/>
<path opacity="0.1" d="M69.8232 168.212H58.5875V179.473H69.8232V168.212Z" fill="#15BAC0"/>
<path opacity="0.1" d="M69.8232 194.377H58.5875V205.638H69.8232V194.377Z" fill="#15BAC0"/>
<path opacity="0.1" d="M69.8232 220.541H58.5875V231.802H69.8232V220.541Z" fill="#15BAC0"/>
<path opacity="0.1" d="M69.8232 246.702H58.5875V257.963H69.8232V246.702Z" fill="#15BAC0"/>
<path opacity="0.1" d="M356.049 168.37H344.814V179.631H356.049V168.37Z" fill="#15BAC0"/>
<path opacity="0.1" d="M313.149 196.149H301.913V207.41H313.149V196.149Z" fill="#15BAC0"/>
<path opacity="0.1" d="M356.049 196.149H344.814V207.41H356.049V196.149Z" fill="#15BAC0"/>
<path opacity="0.1" d="M313.149 223.933H301.913V235.194H313.149V223.933Z" fill="#15BAC0"/>
<path opacity="0.1" d="M356.049 223.933H344.814V235.194H356.049V223.933Z" fill="#15BAC0"/>
<path opacity="0.1" d="M313.149 251.717H301.913V262.978H313.149V251.717Z" fill="#15BAC0"/>
<path opacity="0.1" d="M356.049 251.717H344.814V262.978H356.049V251.717Z" fill="#15BAC0"/>
<path opacity="0.1" d="M313.149 279.496H301.913V290.757H313.149V279.496Z" fill="#15BAC0"/>
<path opacity="0.1" d="M356.049 279.496H344.814V290.757H356.049V279.496Z" fill="#15BAC0"/>
<path opacity="0.1" d="M301.913 314.54V307.276H313.149V313.506L301.913 314.54Z" fill="#15BAC0"/>
<path opacity="0.1" d="M2.45743 147.276V153.737H45.4302V147.276H2.45743ZM6.28457 153.333H3.1302V147.68H6.28457V153.333ZM10.1117 153.333H6.95734V147.68H10.1117V153.333ZM13.9389 153.333H10.7845V147.68H13.9389V153.333ZM17.766 153.333H14.6116V147.68H17.766V153.333ZM21.5931 153.333H18.4388V147.68H21.5931V153.333ZM25.4203 153.333H22.2659V147.68H25.4203V153.333ZM29.2474 153.333H26.0931V147.68H29.2474V153.333ZM33.0746 153.333H29.9202V147.68H33.0746V153.333ZM36.9017 153.333H33.7474V147.68H36.9017V153.333ZM40.7289 153.333H37.5745V147.68H40.7289V153.333ZM44.7574 153.333H41.4016V147.68H44.7574V153.333Z" fill="#15BAC0"/>
<path opacity="0.1" d="M2.45743 166.036V172.476H45.4302V166.036H2.45743ZM6.28457 172.072H3.1302V166.44H6.28457V172.072ZM10.1117 172.072H6.95734V166.44H10.1117V172.072ZM13.9389 172.072H10.7845V166.44H13.9389V172.072ZM17.766 172.072H14.6116V166.44H17.766V172.072ZM21.5931 172.072H18.4388V166.44H21.5931V172.072ZM25.4203 172.072H22.2659V166.44H25.4203V172.072ZM29.2474 172.072H26.0931V166.44H29.2474V172.072ZM33.0746 172.072H29.9202V166.44H33.0746V172.072ZM36.9017 172.072H33.7474V166.44H36.9017V172.072ZM40.7289 172.072H37.5745V166.44H40.7289V172.072ZM44.7574 172.072H41.4016V166.44H44.7574V172.072Z" fill="#15BAC0"/>
<path opacity="0.1" d="M2.45743 184.791V191.231H45.4302V184.791H2.45743ZM6.28457 190.827H3.1302V185.195H6.28457V190.827ZM10.1117 190.827H6.95734V185.195H10.1117V190.827ZM13.9389 190.827H10.7845V185.195H13.9389V190.827ZM17.766 190.827H14.6116V185.195H17.766V190.827ZM21.5931 190.827H18.4388V185.195H21.5931V190.827ZM25.4203 190.827H22.2659V185.195H25.4203V190.827ZM29.2474 190.827H26.0931V185.195H29.2474V190.827ZM33.0746 190.827H29.9202V185.195H33.0746V190.827ZM36.9017 190.827H33.7474V185.195H36.9017V190.827ZM40.7289 190.827H37.5745V185.195H40.7289V190.827ZM44.7574 190.827H41.4016V185.195H44.7574V190.827Z" fill="#15BAC0"/>
<path opacity="0.1" d="M2.45743 203.53V209.991H45.4302V203.53H2.45743ZM6.28457 209.587H3.1302V203.934H6.28457V209.587ZM10.1117 209.587H6.95734V203.934H10.1117V209.587ZM13.9389 209.587H10.7845V203.934H13.9389V209.587ZM17.766 209.587H14.6116V203.934H17.766V209.587ZM21.5931 209.587H18.4388V203.934H21.5931V209.587ZM25.4203 209.587H22.2659V203.934H25.4203V209.587ZM29.2474 209.587H26.0931V203.934H29.2474V209.587ZM33.0746 209.587H29.9202V203.934H33.0746V209.587ZM36.9017 209.587H33.7474V203.934H36.9017V209.587ZM40.7289 209.587H37.5745V203.934H40.7289V209.587ZM44.7574 209.587H41.4016V203.934H44.7574V209.587Z" fill="#15BAC0"/>
<path opacity="0.1" d="M2.6226 222.302C2.77569 222.907 2.94892 223.513 3.13021 224.111V222.705H6.28458V228.358H4.60064C4.64898 228.491 4.70135 228.629 4.75775 228.762H45.4463V222.302H2.6226ZM10.1117 228.358H6.95735V222.705H10.1117V228.358ZM13.9389 228.358H10.7845V222.705H13.9389V228.358ZM17.766 228.358H14.6116V222.705H17.766V228.358ZM21.5932 228.358H18.4388V222.705H21.5932V228.358ZM25.4203 228.358H22.2659V222.705H25.4203V228.358ZM29.2474 228.358H26.0931V222.705H29.2474V228.358ZM33.0746 228.358H29.9202V222.705H33.0746V228.358ZM36.9017 228.358H33.7474V222.705H36.9017V228.358ZM40.7289 228.358H37.5745V222.705H40.7289V228.358ZM44.7575 228.358H41.4017V222.705H44.7575V228.358Z" fill="#15BAC0"/>
<path opacity="0.1" d="M11.554 241.057C11.6506 241.19 11.7473 241.327 11.848 241.461H13.9389V244.17C14.1604 244.441 14.386 244.707 14.6116 244.978V241.465H17.766V247.118H16.489C16.6138 247.251 16.7387 247.388 16.8717 247.521H45.4302V241.061L11.554 241.057ZM21.5932 247.113H18.4388V241.461H21.5932V247.113ZM25.4203 247.113H22.2659V241.461H25.4203V247.113ZM29.2474 247.113H26.0931V241.461H29.2474V247.113ZM33.0746 247.113H29.9202V241.461H33.0746V247.113ZM36.9017 247.113H33.7474V241.461H36.9017V247.113ZM40.7289 247.113H37.5745V241.461H40.7289V247.113ZM44.7575 247.113H41.4017V241.461H44.7575V247.113Z" fill="#15BAC0"/>
<path opacity="0.1" d="M32.6476 259.812C33.0101 260.018 33.3767 260.216 33.7474 260.414V260.216H36.9017V262.001L37.5745 262.308V260.216H40.7289V263.644L41.4016 263.902V260.216H44.7574V265.061L45.4302 265.271V259.812H32.6476Z" fill="#15BAC0"/>
<path opacity="0.1" d="M165.155 91.3497C165.155 91.3497 155.551 90.7683 156.695 97.5113C156.637 97.854 156.688 98.2066 156.841 98.5184C156.995 98.8303 157.243 99.0855 157.549 99.2476C157.549 99.2476 157.549 98.7469 158.532 98.9165C158.877 98.9732 159.227 98.9895 159.576 98.9649C160.047 98.9338 160.495 98.7495 160.853 98.44C160.853 98.44 163.552 97.3215 164.603 92.9002C164.603 92.9002 165.377 91.9352 165.349 91.6889L163.737 92.3834C163.737 92.3834 164.293 93.5543 163.858 94.5274C163.858 94.5274 163.806 92.4278 163.492 92.4763C163.431 92.4763 162.65 92.88 162.65 92.88C162.65 92.88 163.604 94.9231 162.883 96.405C162.883 96.405 163.157 93.8935 162.356 93.0294L161.187 93.7037C161.187 93.7037 162.303 95.8114 161.546 97.5315C161.546 97.5315 161.743 94.8949 160.95 93.8693L159.914 94.6768C159.914 94.6768 160.962 96.7522 160.317 98.1816C160.317 98.1816 160.232 95.1089 159.685 94.8747C159.291 95.2068 158.941 95.5866 158.641 96.0052C158.641 96.0052 159.358 97.5113 158.915 98.3068C158.915 98.3068 158.641 96.2637 158.416 96.2515C158.416 96.2515 157.517 97.6082 157.425 98.5369C157.466 97.6753 157.733 96.8399 158.198 96.1143C157.679 96.2127 157.2 96.4611 156.82 96.8289C156.82 96.8289 156.961 95.872 158.432 95.7872C158.432 95.7872 159.177 94.7616 159.378 94.697C159.378 94.697 157.924 94.5759 157.042 94.9675C157.042 94.9675 157.819 94.0631 159.644 94.4749L160.664 93.6391C160.664 93.6391 158.75 93.3767 157.94 93.6674C157.94 93.6674 158.871 92.8598 160.937 93.4494L162.049 92.7831C161.195 92.5957 160.32 92.5197 159.447 92.557C159.447 92.557 160.47 92.0038 162.376 92.6055L163.181 92.2461C163.181 92.2461 161.973 92.0119 161.638 91.9756C161.304 91.9392 161.268 91.8423 161.268 91.8423C162.025 91.7159 162.801 91.8025 163.512 92.0927C163.512 92.0927 165.184 91.4547 165.155 91.3497Z" fill="#15BAC0"/>
<path opacity="0.1" d="M139.945 124.164C139.945 124.164 136.661 133.225 143.437 134.053C143.748 134.206 144.098 134.257 144.439 134.198C144.78 134.139 145.093 133.974 145.335 133.726C145.335 133.726 144.863 133.568 145.299 132.684C145.451 132.37 145.567 132.039 145.645 131.699C145.747 131.236 145.696 130.753 145.5 130.322C145.5 130.322 145.198 127.411 141.266 125.146C141.266 125.146 140.565 124.124 140.319 124.084L140.521 125.84C140.521 125.84 141.798 125.638 142.607 126.333C142.607 126.333 140.593 125.788 140.541 126.103C140.541 126.163 140.69 127.027 140.69 127.027C140.69 127.027 142.914 126.688 144.126 127.802C144.126 127.802 141.798 126.825 140.746 127.354L141.06 128.638C141.06 128.638 143.393 128.17 144.823 129.381C144.823 129.381 142.358 128.448 141.149 128.917L141.628 130.128C141.628 130.128 143.913 129.724 145.097 130.73C145.097 130.73 142.132 129.922 141.757 130.399C141.964 130.869 142.226 131.312 142.539 131.719C142.539 131.719 144.187 131.461 144.819 132.123C144.819 132.123 142.785 131.804 142.712 132.014C142.712 132.014 143.756 133.265 144.618 133.629C143.808 133.342 143.087 132.848 142.527 132.195C142.473 132.723 142.576 133.255 142.821 133.726C142.821 133.726 141.943 133.322 142.277 131.889C142.277 131.889 141.504 130.883 141.504 130.677C141.504 130.677 140.972 132.038 141.101 132.999C141.101 132.999 140.456 131.994 141.367 130.358L140.859 129.147C140.859 129.147 140.053 130.911 140.11 131.776C140.11 131.776 139.61 130.649 140.754 128.828L140.436 127.572C140.014 128.335 139.693 129.149 139.481 129.995C139.481 129.995 139.24 128.852 140.355 127.193L140.239 126.329C140.239 126.329 139.675 127.411 139.542 127.738C139.409 128.065 139.308 128.053 139.308 128.053C139.401 127.289 139.703 126.566 140.182 125.965C140.182 125.965 140.053 124.164 139.945 124.164Z" fill="#15BAC0"/>
<path opacity="0.1" d="M203.608 116.525C203.608 116.525 200.329 125.602 207.101 126.409C207.412 126.562 207.764 126.613 208.105 126.553C208.447 126.494 208.761 126.327 209.002 126.078C209.002 126.078 208.527 125.921 208.966 125.041C209.12 124.726 209.235 124.394 209.309 124.051C209.412 123.589 209.362 123.106 209.168 122.675C209.168 122.675 208.865 119.763 204.934 117.498C204.934 117.498 204.228 116.481 203.983 116.44L204.188 118.193C204.188 118.193 205.465 117.995 206.275 118.689C206.275 118.689 204.261 118.144 204.204 118.455C204.204 118.52 204.353 119.38 204.353 119.38C204.353 119.38 206.577 119.045 207.794 120.155C207.794 120.155 205.465 119.182 204.41 119.707L204.728 120.995C204.728 120.995 207.061 120.522 208.491 121.738C208.491 121.738 206.021 120.801 204.813 121.269L205.292 122.481C205.292 122.481 207.576 122.077 208.761 123.082C208.761 123.082 205.8 122.275 205.421 122.755C205.634 123.227 205.904 123.671 206.227 124.076C206.227 124.076 207.87 123.813 208.507 124.479C208.507 124.479 206.472 124.16 206.4 124.374C206.4 124.374 207.439 125.622 208.301 125.989C207.492 125.704 206.773 125.209 206.215 124.556C206.161 125.084 206.262 125.615 206.505 126.086C206.505 126.086 205.63 125.683 205.965 124.253C205.965 124.253 205.191 123.244 205.187 123.042C205.187 123.042 204.66 124.407 204.784 125.364C204.784 125.364 204.14 124.362 205.05 122.723L204.543 121.512C204.543 121.512 203.737 123.276 203.793 124.136C203.793 124.136 203.294 123.014 204.438 121.193L204.116 119.933C203.694 120.696 203.373 121.51 203.161 122.356C203.161 122.356 202.923 121.213 204.039 119.553L203.922 118.689C203.922 118.689 203.358 119.771 203.221 120.098C203.084 120.425 202.988 120.413 202.988 120.413C203.083 119.65 203.387 118.927 203.866 118.326C203.866 118.326 203.721 116.529 203.608 116.525Z" fill="#15BAC0"/>
<path opacity="0.1" d="M112.603 190.609C112.603 190.609 109.319 199.674 116.095 200.502C116.406 200.655 116.757 200.705 117.098 200.646C117.439 200.586 117.752 200.42 117.993 200.171C117.993 200.171 117.522 200.013 117.957 199.133C118.111 198.819 118.228 198.486 118.303 198.144C118.407 197.681 118.356 197.197 118.158 196.767C118.158 196.767 117.856 193.856 113.924 191.595C113.924 191.595 113.223 190.573 112.977 190.533L113.179 192.285C113.179 192.285 114.46 192.087 115.266 192.782C115.266 192.782 113.251 192.237 113.199 192.548C113.199 192.612 113.348 193.472 113.348 193.472C113.348 193.472 115.572 193.137 116.784 194.247C116.784 194.247 114.456 193.274 113.404 193.799L113.719 195.087C113.719 195.087 116.051 194.615 117.481 195.83C117.481 195.83 115.016 194.893 113.807 195.362L114.287 196.573C114.287 196.573 116.571 196.169 117.755 197.175C117.755 197.175 114.794 196.367 114.416 196.848C114.622 197.318 114.884 197.761 115.197 198.168C115.197 198.168 116.845 197.906 117.481 198.572C117.481 198.572 115.443 198.253 115.37 198.467C115.37 198.467 116.414 199.715 117.276 200.082C116.466 199.797 115.745 199.304 115.185 198.653C115.132 199.179 115.234 199.71 115.479 200.179C115.479 200.179 114.601 199.775 114.935 198.346C114.935 198.346 114.166 197.336 114.162 197.134C114.162 197.134 113.63 198.499 113.759 199.456C113.759 199.456 113.114 198.455 114.025 196.815L113.517 195.604C113.517 195.604 112.711 197.369 112.772 198.229C112.772 198.229 112.272 197.106 113.416 195.285L113.094 194.029C112.672 194.792 112.351 195.606 112.139 196.452C112.139 196.452 111.898 195.305 113.014 193.65L112.897 192.782C112.897 192.782 112.333 193.864 112.2 194.191C112.067 194.518 111.966 194.506 111.966 194.506C112.059 193.742 112.363 193.019 112.844 192.418C112.844 192.418 112.711 190.609 112.603 190.609Z" fill="#15BAC0"/>
<path opacity="0.1" d="M99.5742 105.175C99.5742 105.175 96.295 114.236 103.067 115.063C103.378 115.216 103.729 115.267 104.071 115.208C104.412 115.149 104.726 114.984 104.969 114.736C104.969 114.736 104.493 114.579 104.932 113.695C105.084 113.379 105.199 113.047 105.275 112.705C105.378 112.245 105.328 111.763 105.134 111.333C105.134 111.333 104.832 108.421 100.896 106.156C100.896 106.156 100.195 105.135 99.9489 105.094L100.154 106.851C100.154 106.851 101.431 106.649 102.237 107.343C102.237 107.343 100.223 106.798 100.17 107.113C100.17 107.174 100.32 108.038 100.32 108.038C100.32 108.038 102.543 107.699 103.76 108.813C103.76 108.813 101.431 107.836 100.376 108.365L100.69 109.649C100.69 109.649 103.023 109.176 104.457 110.392C104.457 110.392 101.987 109.455 100.779 109.927L101.258 111.139C101.258 111.139 103.542 110.735 104.727 111.744C104.727 111.744 101.766 110.937 101.387 111.413C101.593 111.883 101.856 112.327 102.169 112.734C102.169 112.734 103.816 112.475 104.453 113.137C104.453 113.137 102.418 112.818 102.346 113.028C102.346 113.028 103.385 114.28 104.247 114.643C103.438 114.355 102.718 113.861 102.157 113.21C102.103 113.738 102.205 114.27 102.451 114.74C102.451 114.74 101.572 114.337 101.911 112.903C101.911 112.903 101.137 111.898 101.133 111.692C101.133 111.692 100.606 113.053 100.73 114.014C100.73 114.014 100.082 113.008 100.996 111.373L100.485 110.162C100.485 110.162 99.679 111.926 99.7394 112.79C99.7394 112.79 99.2399 111.664 100.384 109.843L100.062 108.587C99.6401 109.35 99.3192 110.164 99.1069 111.01C99.1069 111.01 98.8693 109.867 99.9811 108.207L99.8683 107.343C99.8683 107.343 99.3003 108.425 99.1674 108.748C99.0344 109.071 98.9337 109.067 98.9337 109.067C99.0268 108.303 99.331 107.58 99.8119 106.98C99.8119 106.98 99.687 105.175 99.5742 105.175Z" fill="#15BAC0"/>
<path opacity="0.1" d="M123.923 154.516C123.923 154.516 126.457 163.803 132.468 160.573C132.809 160.518 133.125 160.357 133.369 160.112C133.614 159.867 133.775 159.55 133.829 159.208C133.829 159.208 133.354 159.353 133.205 158.38C133.148 158.035 133.051 157.697 132.915 157.375C132.736 156.937 132.417 156.57 132.008 156.333C132.008 156.333 130.087 154.129 125.563 154.548C125.563 154.548 124.402 154.124 124.177 154.233L125.353 155.546C125.353 155.546 126.284 154.645 127.343 154.738C127.343 154.738 125.373 155.465 125.518 155.744C125.55 155.8 126.171 156.414 126.171 156.414C126.171 156.414 127.782 154.851 129.426 155.057C129.426 155.057 126.965 155.606 126.409 156.648L127.404 157.516C127.404 157.516 129.039 155.784 130.908 155.945C130.908 155.945 128.35 156.608 127.633 157.69L128.729 158.413C128.729 158.413 130.34 156.753 131.912 156.902C131.912 156.902 129.035 157.964 128.991 158.562C129.431 158.827 129.902 159.037 130.393 159.188C130.393 159.188 131.601 158.025 132.484 158.19C132.484 158.19 130.635 159.107 130.699 159.321C130.699 159.321 132.27 159.725 133.177 159.531C132.351 159.766 131.479 159.779 130.647 159.571C130.906 160.034 131.295 160.409 131.767 160.649C131.767 160.649 130.816 160.823 130.268 159.462C130.268 159.462 129.059 159.087 128.93 158.917C128.93 158.917 129.285 160.339 129.938 161.049C129.938 161.049 128.834 160.601 128.636 158.736L127.52 158.037C127.52 158.037 127.887 159.939 128.419 160.613C128.419 160.613 127.363 159.983 127.251 157.835L126.268 156.995C126.363 157.867 126.572 158.722 126.888 159.539C126.888 159.539 126.038 158.732 125.994 156.745L125.401 156.103C125.401 156.103 125.563 157.314 125.639 157.658C125.716 158.001 125.639 158.061 125.639 158.061C125.276 157.383 125.109 156.617 125.156 155.849C125.156 155.849 124.016 154.456 123.923 154.516Z" fill="#15BAC0"/>
<path opacity="0.1" d="M192.667 162.81C192.667 162.81 195.201 172.096 201.207 168.866C201.55 168.813 201.867 168.652 202.112 168.407C202.357 168.162 202.519 167.845 202.573 167.501C202.573 167.501 202.093 167.647 201.944 166.694C201.891 166.348 201.795 166.011 201.658 165.689C201.477 165.251 201.157 164.885 200.748 164.647C200.748 164.647 198.826 162.442 194.302 162.866C194.302 162.866 193.142 162.438 192.92 162.547L194.093 163.859C194.093 163.859 195.023 162.959 196.083 163.052C196.083 163.052 194.113 163.779 194.262 164.057C194.29 164.114 194.914 164.728 194.914 164.728C194.914 164.728 196.526 163.165 198.17 163.371C198.17 163.371 195.704 163.92 195.148 164.962L196.147 165.83C196.147 165.83 197.759 164.098 199.648 164.259C199.648 164.259 197.094 164.921 196.377 166.003L197.473 166.726C197.473 166.726 199.084 165.067 200.651 165.216C200.651 165.216 197.775 166.278 197.734 166.876C198.173 167.141 198.643 167.351 199.132 167.501C199.132 167.501 200.341 166.339 201.223 166.504C201.223 166.504 199.378 167.421 199.439 167.635C199.439 167.635 201.01 168.039 201.92 167.845C201.093 168.079 200.22 168.093 199.386 167.885C199.647 168.346 200.036 168.721 200.506 168.963C200.506 168.963 199.555 169.137 199.008 167.776C199.008 167.776 197.799 167.401 197.674 167.231C197.674 167.231 198.025 168.652 198.677 169.363C198.677 169.363 197.573 168.915 197.376 167.049L196.26 166.343C196.26 166.343 196.627 168.244 197.162 168.919C197.162 168.919 196.107 168.289 195.994 166.141L195.007 165.301C195.103 166.173 195.313 167.028 195.632 167.845C195.632 167.845 194.778 167.037 194.733 165.051L194.141 164.409C194.141 164.409 194.302 165.62 194.379 165.963C194.455 166.306 194.379 166.367 194.379 166.367C194.016 165.689 193.848 164.922 193.895 164.154C193.895 164.154 192.759 162.749 192.667 162.81Z" fill="#15BAC0"/>
<path d="M166.876 256.073C166.876 256.073 187.776 249.019 183.449 224.026L156.901 217.117L150.737 237.625L166.876 256.073Z" fill="#CED7E7"/>
<path opacity="0.1" d="M150.737 237.625L166.872 256.073C166.872 256.073 187.772 249.019 183.445 224.026L150.737 237.625Z" fill="black"/>
<path d="M62.9142 52.9791C62.9142 52.9791 65.7342 57.5781 69.5896 55.2806C73.4449 52.9832 69.7467 46.6358 69.7467 46.6358C69.7467 46.6358 62.3623 45.6224 62.9142 52.9791Z" fill="#FED253"/>
<path opacity="0.1" d="M69.5896 55.2807C69.1348 55.5756 68.6247 55.7743 68.0906 55.8645C67.5565 55.9548 67.0096 55.9347 66.4835 55.8056C65.0695 55.4462 63.9818 54.356 63.3977 53.6414C63.2234 53.432 63.0619 53.2122 62.9142 52.9832C62.7168 50.3587 63.5306 48.7961 64.6586 47.8755C66.2096 46.6117 68.3568 46.5592 69.2834 46.5995C69.5694 46.5995 69.7346 46.6399 69.7346 46.6399L69.8111 46.7691C69.9199 46.9751 70.1576 47.4313 70.4114 48.041C71.2735 50.0397 72.3008 53.6615 69.5896 55.2807Z" fill="black"/>
<path d="M168.93 222.851L183.433 224.026L210.424 224.248L189.158 250.493C189.158 250.493 182.41 250.861 181.02 251.813C179.63 252.766 160.116 252.258 160.116 252.258L156.965 238.804L168.93 222.851Z" fill="#FFA2A2"/>
<path opacity="0.05" d="M168.93 222.851L183.433 224.026L210.424 224.248L189.158 250.493C189.158 250.493 182.41 250.861 181.02 251.813C179.63 252.766 160.116 252.258 160.116 252.258L156.965 238.804L168.93 222.851Z" fill="black"/>
<path d="M154.262 152.287L157.634 158.021L158.367 168.018C158.367 168.018 160.716 176.542 162.476 179.041C164.237 181.541 164.97 188.159 164.97 188.159C164.97 188.159 165.703 194.332 166.581 195.653C167.46 196.973 168.636 206.555 168.636 206.555C168.636 206.555 176.411 222.136 183.449 224.046C183.449 224.046 148.542 235.513 166.876 256.094C166.876 256.094 153.823 259.324 150.741 255.653C147.659 251.983 139.594 197.587 139.594 197.587L142.088 151.718L154.262 152.287Z" fill="#CED7E7"/>
<path opacity="0.05" d="M154.262 152.287L157.634 158.021L158.367 168.018C158.367 168.018 160.716 176.542 162.476 179.041C164.237 181.541 164.97 188.159 164.97 188.159C164.97 188.159 165.703 194.332 166.581 195.653C167.46 196.973 168.636 206.555 168.636 206.555C168.636 206.555 176.411 222.136 183.449 224.046C183.449 224.046 148.542 235.513 166.876 256.094C166.876 256.094 153.823 259.324 150.741 255.653C147.659 251.983 139.594 197.587 139.594 197.587L142.088 151.718L154.262 152.287Z" fill="black"/>
<path d="M111.91 96.4091C110.93 101.502 111.221 106.759 112.756 111.712L107.325 127.294C107.325 127.294 65.9639 104.214 69.4848 98.6258C71.479 95.4562 71.7328 87.0698 71.5716 80.4075C71.4548 75.3442 71.0963 71.2822 71.0963 71.2822C71.0963 71.2822 121.856 76.285 115.1 87.8975C113.572 90.5369 112.493 93.4136 111.91 96.4091Z" fill="#FFA2A2"/>
<path opacity="0.1" d="M115.1 87.8975C113.571 90.5369 112.493 93.4136 111.91 96.4091C104.377 98.8244 96.2417 98.5502 88.8877 95.633C81.5338 92.7157 75.4149 87.3357 71.5716 80.4075C71.4548 75.3442 71.0963 71.2822 71.0963 71.2822C71.0963 71.2822 121.844 76.285 115.1 87.8975Z" fill="black"/>
<path d="M135.634 62.9039C135.637 68.2937 134.372 73.6084 131.94 78.4158C129.509 83.2232 125.98 87.3876 121.64 90.5707C117.3 93.7537 112.272 95.8655 106.965 96.7343C101.658 97.6032 96.2209 97.2046 91.0962 95.5709C85.9716 93.9373 81.3038 91.1147 77.4724 87.3326C73.641 83.5505 70.7541 78.9157 69.0464 73.8048C67.3386 68.6939 66.8582 63.2513 67.6442 57.9193C68.4302 52.5873 70.4604 47.5165 73.5698 43.119C74.0532 42.4379 74.5622 41.7731 75.0966 41.1243C78.1419 37.4145 81.9316 34.388 86.2195 32.2413C88.5459 31.0748 90.9996 30.1832 93.5314 29.5845C98.1028 28.499 102.848 28.368 107.472 29.1995C112.096 30.031 116.5 31.8073 120.41 34.4179C124.32 37.0285 127.652 40.4175 130.199 44.3741C132.746 48.3307 134.453 52.7702 135.215 57.4166C135.5 59.2317 135.64 61.0665 135.634 62.9039Z" fill="#FFA2A2"/>
<path d="M149.126 203.744C148.614 206.482 149.255 211.485 150.225 216.576C150.266 216.798 150.31 217.02 150.354 217.242C150.399 217.464 150.463 217.808 150.52 218.086C150.967 220.275 151.454 222.443 151.93 224.413C152.405 226.384 152.832 228.072 153.195 229.461C153.742 231.54 154.117 232.848 154.117 232.848C154.117 232.848 154.165 234.132 154.23 236.175C154.266 237.354 154.306 238.792 154.347 240.379C154.347 240.839 154.375 241.307 154.387 241.792C154.407 242.636 154.427 243.512 154.447 244.408C154.447 244.699 154.447 244.99 154.468 245.284C154.468 246.249 154.504 247.235 154.52 248.216C154.54 249.564 154.556 250.913 154.564 252.221C154.564 252.722 154.564 253.215 154.564 253.699C154.564 254.951 154.564 256.15 154.564 257.252C154.52 260.382 154.395 262.744 154.129 263.426C154.037 263.66 153.952 263.915 153.871 264.181C153.522 265.434 153.269 266.713 153.114 268.005L152.429 267.444C151.12 266.361 149.823 265.255 148.505 264.181C146.316 262.343 143.991 260.672 141.552 259.182C141.387 259.085 141.222 258.988 141.052 258.896C140.601 258.633 140.142 258.387 139.675 258.153C138.712 257.666 137.725 257.23 136.718 256.844C132.065 255.068 127.081 254.422 122.029 254.531C120.015 255.302 118.706 255.855 118.706 255.855L116.144 256.63L115.717 256.76C112.941 257.608 109.037 258.811 107.631 259.312C105.359 260.119 85.6313 264.234 85.6313 264.234C83.8291 264.727 81.988 265.064 80.1283 265.243C76.7421 266.198 73.2951 266.921 69.8111 267.407C61.894 268.422 53.8528 267.773 46.1997 265.501C45.9712 265.515 45.742 265.508 45.5148 265.481C45.6558 265.481 45.7928 265.449 45.9177 265.425L45.4262 265.279L44.7534 265.069C43.6254 264.714 42.5068 264.325 41.3976 263.902L40.7248 263.644C39.6506 263.229 38.5991 262.784 37.5705 262.308L36.8977 262.001C35.8234 261.5 34.7719 260.971 33.7433 260.414C33.3727 260.22 33.0061 260.01 32.6435 259.812C31.5477 259.198 30.4735 258.555 29.4207 257.882C29.2434 256.36 29.1507 255.342 29.1507 255.342L27.5796 247.501L27.499 247.097L26.371 241.445L26.2905 241.041L23.8371 228.742L23.7565 228.338L22.6285 222.685L22.5479 222.281L20.0623 209.991L19.9817 209.587L18.8537 203.934L18.7731 203.53L16.3077 191.215L16.2271 190.811L15.0991 185.179L15.0185 184.775L14.5713 182.554L13.8986 179.191C13.8986 179.191 11.7513 176.114 9.3342 172.476L9.06428 172.072C8.3754 171.051 7.66637 169.989 6.97748 168.947C6.74785 168.604 6.52628 168.265 6.30471 167.929C5.969 167.421 5.64402 166.924 5.32979 166.44L5.11225 166.104L5.06794 166.036C1.59531 160.649 3.91979 158.308 3.91979 158.308C3.91979 158.308 5.37814 156.329 7.25948 153.713C7.35214 153.579 7.44883 153.446 7.54954 153.309C8.35525 152.178 9.24154 150.943 10.1117 149.707L10.7845 148.746C11.0383 148.387 11.2881 148.027 11.5298 147.672C11.6265 147.539 11.7191 147.402 11.8077 147.268C13.6649 144.579 15.1958 142.233 15.51 141.402C16.0015 140.089 19.1357 136.209 22.2579 132.805C24.7193 130.116 27.1687 127.726 28.2685 127.152C30.7622 125.832 31.7895 121.564 31.7895 121.564C31.7895 121.564 37.216 119.658 37.9492 118.189C38.6824 116.719 48.9512 110.113 48.9512 110.113C48.9512 110.113 53.1046 107.432 54.7846 105.817C55.0224 105.606 55.2298 105.362 55.4009 105.094C55.9851 104.044 59.8001 103.18 61.3511 102.869C61.754 102.789 62.0038 102.744 62.0038 102.744C62.6299 101.604 63.4214 100.563 64.3524 99.6553C64.9849 99.0941 65.7745 97.16 66.4392 95.2865C67.1603 93.2434 67.7203 91.277 67.7203 91.277C68.8966 87.3079 71.2413 88.4829 71.2413 88.4829C71.2381 89.0251 71.2894 89.5662 71.3944 90.098C72.3733 94.9433 77.691 96.9622 80.4828 99.2273C83.5647 101.723 88.403 108.195 92.2181 109.516C95.3765 110.61 99.0384 114.736 100.199 116.113L100.287 116.218C100.481 116.444 100.577 116.573 100.577 116.573C100.577 116.573 102.741 116.46 104.058 116.436H104.537C104.805 116.409 105.06 116.306 105.271 116.137C106.58 115.245 108.53 112.629 109.38 112.027C110.403 111.288 111.434 99.3808 111.434 99.3808L111.487 99.3566C115.141 97.6405 119.06 114.817 119.06 114.817C119.06 114.817 125.953 116.876 126.542 118.346C126.654 118.637 127.174 119.154 127.956 119.779C131.514 122.505 135.302 124.917 139.276 126.987C139.364 127.031 139.449 127.076 139.538 127.112C139.618 127.155 139.7 127.194 139.783 127.229C139.932 127.302 140.078 127.366 140.214 127.427C140.432 127.524 140.633 127.605 140.819 127.669L141.06 127.754C141.638 127.946 142.182 128.229 142.672 128.59C142.817 128.695 142.962 128.804 143.103 128.921C143.652 129.378 144.156 129.887 144.61 130.439C144.678 130.52 144.743 130.605 144.807 130.685C145.113 131.069 145.387 131.448 145.613 131.8C145.983 132.342 146.321 132.905 146.624 133.488C146.624 133.488 152.635 143.78 154.544 144.951C156.454 146.122 157.626 158.037 157.626 158.037L151.18 181.985C151.18 181.985 150.878 188.041 150.314 194.219C150 197.684 149.601 201.208 149.126 203.744Z" fill="#CED7E7"/>
<path d="M100.577 117.3C100.577 117.3 96.2547 119.65 92.8787 119.872C92.4368 119.893 91.994 119.867 91.5574 119.796C88.0203 119.259 82.8315 116.343 82.8315 116.343L88.9186 109.653L96.3232 113.331L99.0465 115.871L100.577 117.3Z" fill="#63667E"/>
<path opacity="0.1" d="M135.199 57.4166C135.046 57.6337 134.872 57.8352 134.679 58.0183C132.56 60.0371 128.798 59.2013 125.909 58.7329C123.399 58.3217 120.947 57.6114 118.605 56.6172C116.567 55.745 114.121 54.679 112.288 55.9307C111.583 56.4072 111.1 57.1703 110.367 57.5903C109.634 58.0102 108.699 58.0384 107.833 58.0506C105.013 58.0506 102.193 58.0829 99.4413 57.4449C95.3362 56.4839 91.0901 54.0653 87.1864 55.6602C84.1327 56.9038 82.477 60.235 81.6511 63.4369C81.2483 65.0076 80.9502 66.6671 80.0397 67.9995C79.1293 69.332 77.3688 70.2768 75.8701 69.651C73.6584 68.7263 73.3321 64.9632 70.6652 64.7734C67.7364 64.5675 67.7727 67.5998 68.6268 69.7923C69.8917 73.0225 71.5475 76.2527 71.62 79.6201C68.4723 73.9696 66.985 67.5414 67.3301 61.0791C67.6751 54.6168 69.8384 48.3844 73.5698 43.1028C74.2192 42.6998 74.7274 42.1043 75.0241 41.3989C75.054 41.3035 75.0782 41.2065 75.0967 41.1082C75.3182 39.9817 74.6938 38.7986 74.6575 37.6196C74.5165 34.7407 77.6266 32.7339 80.4788 32.3706C82.3763 32.1283 84.3181 32.314 86.2195 32.2535C87.1773 32.2323 88.1298 32.105 89.0597 31.8739C90.6639 31.3921 92.166 30.6188 93.4911 29.5926C98.0625 28.5071 102.808 28.3761 107.432 29.2076C112.056 30.0391 116.46 31.8154 120.37 34.426C124.28 37.0366 127.612 40.4256 130.159 44.3822C132.706 48.3388 134.413 52.7784 135.175 57.4247L135.199 57.4166Z" fill="black"/>
<path d="M135.888 55.0384C135.687 55.8371 135.269 56.564 134.679 57.138C132.56 59.1569 128.798 58.3171 125.909 57.8487C123.399 57.4464 120.947 56.7414 118.605 55.7491C116.567 54.8809 114.121 53.815 112.288 55.0667C111.583 55.5431 111.1 56.3063 110.367 56.7262C109.634 57.1461 108.699 57.1744 107.833 57.1825C105.013 57.2026 102.193 57.2188 99.4413 56.5808C95.3362 55.6158 91.0901 53.2012 87.1864 54.7921C84.1327 56.0357 82.477 59.3709 81.6511 62.5728C81.2483 64.1435 80.9501 65.803 80.0397 67.1314C79.1292 68.4599 77.3687 69.4128 75.8701 68.7869C73.6584 67.8623 73.3321 64.0991 70.6652 63.9093C67.7364 63.7034 67.7727 66.7357 68.6267 68.9282C70.1254 72.752 72.1638 76.5555 71.4951 80.6094C70.8304 80.6094 69.7306 80.5852 69.0779 80.569C69.5855 79.7009 68.6187 78.6673 67.6559 78.3725C66.693 78.0777 65.5691 78.0818 64.8359 77.3792C64.1027 76.6767 64.0986 75.5905 64.1752 74.6174C64.3423 72.5376 64.8499 70.4995 65.6778 68.585C66.2056 67.3737 66.8864 66.0614 66.4835 64.7936C66.2417 64.2189 65.9506 63.6663 65.6134 63.1422C64.7754 61.5271 64.9728 59.5082 65.6899 57.8406C65.9961 57.13 66.2177 56.4597 66.4715 55.8217C66.792 54.9149 67.2558 54.0656 67.8452 53.3062C68.7677 52.1555 69.6701 50.4233 68.6509 49.3533C68.3931 49.0828 68.9087 48.897 68.7436 48.5457C68.7144 48.4857 68.694 48.4218 68.6831 48.356C68.6358 47.9306 68.7384 47.5021 68.9732 47.1446C69.0208 47.0518 69.0732 46.9615 69.1303 46.8741C69.1766 46.7818 69.2291 46.6928 69.2874 46.6076C70.1795 45.1148 71.3651 43.8194 72.7721 42.8C73.6463 42.1661 74.6696 41.5564 75.0161 40.5308C75.4189 39.3195 74.7099 38.0315 74.6495 36.7515C74.5085 33.8726 77.6185 31.8658 80.4707 31.5024C83.323 31.1391 86.2799 31.7407 89.0597 31.0018C93.0036 29.96 95.7753 26.4714 99.3567 24.5131C101.316 23.4631 103.489 22.8758 105.709 22.7961C107.929 22.7163 110.138 23.1462 112.168 24.0528C116.349 25.9667 119.504 29.8349 123.871 31.2884C125.418 31.8053 127.093 32.0112 128.487 32.8672C130.099 33.8605 131.078 35.5967 131.916 37.3087C133.193 39.905 133.451 42.5134 134.333 45.2631C135.034 47.4434 136.005 50.2941 136.085 52.8055C136.13 53.5555 136.064 54.3081 135.888 55.0384Z" fill="#896363"/>
<g opacity="0.1">
<path d="M69.1746 49.9791C69.2391 49.7207 69.2455 49.4511 69.1932 49.19C69.1409 48.9288 69.0314 48.6825 68.8725 48.469C68.9772 48.7839 68.522 48.9656 68.7718 49.2281C68.9708 49.4377 69.1099 49.6971 69.1746 49.9791Z" fill="black"/>
<path d="M68.8604 47.5443C68.8129 47.6852 68.7845 47.8319 68.7758 47.9804C68.8524 47.8512 68.9571 47.7179 68.8604 47.5443Z" fill="black"/>
<path d="M134.792 56.1528C132.669 58.1716 128.91 57.3358 126.014 56.8634C123.505 56.4586 121.055 55.7495 118.718 54.7517C116.676 53.8795 114.234 52.8136 112.397 54.0653C111.696 54.5417 111.213 55.3049 110.476 55.7248C109.738 56.1447 108.808 56.173 107.942 56.181C105.122 56.181 102.302 56.2174 99.546 55.5754C95.4449 54.6144 91.1988 52.2039 87.2951 53.7907C84.2415 55.0384 82.5857 58.3695 81.7599 61.5714C81.357 63.1421 81.0629 64.8016 80.1485 66.1341C79.234 67.4665 77.4735 68.4114 75.9789 67.7895C73.7672 66.8609 73.4409 63.1017 70.774 62.912C68.6912 62.7626 68.1111 64.2565 68.2521 65.916C68.3729 64.6482 69.0578 63.671 70.774 63.7922C73.4409 63.9819 73.7672 67.7451 75.9789 68.6698C77.4735 69.2956 79.238 68.3548 80.1485 67.0143C81.0589 65.6738 81.357 64.0223 81.7599 62.4557C82.5857 59.2538 84.2415 55.9186 87.2951 54.675C91.1988 53.0841 95.4449 55.4825 99.546 56.4596C102.285 57.1016 105.13 57.0815 107.942 57.0613C108.808 57.0613 109.722 57.037 110.476 56.609C111.229 56.181 111.684 55.426 112.397 54.9455C114.234 53.6978 116.676 54.7638 118.718 55.6319C121.056 56.6292 123.506 57.3396 126.014 57.7477C128.91 58.2161 132.669 59.0599 134.792 57.033C135.944 55.9307 136.291 54.3358 136.214 52.5915C136.15 53.9764 135.747 55.2322 134.792 56.1528Z" fill="black"/>
<path d="M74.7905 36.0206C74.7682 36.2217 74.7601 36.4241 74.7663 36.6263C74.8066 37.4661 75.1248 38.306 75.2256 39.1257C75.3746 38.1203 74.9113 37.0704 74.7905 36.0206Z" fill="black"/>
<path d="M66.6044 64.6683C66.6376 64.7891 66.6632 64.9118 66.6809 65.0358C66.7463 64.6193 66.7201 64.1935 66.6044 63.7881C66.3642 63.2114 66.073 62.6573 65.7342 62.1326C65.4316 61.5354 65.2521 60.8831 65.2065 60.2147C65.1246 61.1795 65.307 62.1484 65.7342 63.0169C66.0738 63.5397 66.365 64.0925 66.6044 64.6683Z" fill="black"/>
<path d="M71.6039 79.5999L69.2471 79.5636C69.3021 79.7063 69.3241 79.8596 69.3116 80.012C69.299 80.1645 69.2522 80.3121 69.1746 80.4438C69.8393 80.4438 70.9432 80.468 71.5918 80.4842C71.7045 79.7931 71.7436 79.092 71.7086 78.3926C71.6994 78.7969 71.6645 79.2002 71.6039 79.5999Z" fill="black"/>
<path d="M67.7485 77.3671C66.7857 77.0763 65.6657 77.0723 64.9487 76.3657C64.5265 75.9029 64.2886 75.3009 64.2799 74.6739C64.2195 75.6026 64.2799 76.6039 64.9487 77.25C65.6657 77.9566 66.7857 77.9606 67.7485 78.2513C68.0618 78.3427 68.3531 78.4972 68.6046 78.7055C68.8561 78.9138 69.0624 79.1715 69.2109 79.4627C69.6178 78.6268 68.6831 77.6457 67.7485 77.3671Z" fill="black"/>
</g>
<path opacity="0.1" d="M141.04 258.896C140.589 258.633 140.13 258.387 139.663 258.153C138.7 257.666 137.713 257.23 136.706 256.844C132.053 255.068 127.069 254.422 122.017 254.531C120.003 255.302 118.694 255.855 118.694 255.855L116.132 256.63L115.705 256.76C115.676 256.477 115.644 256.194 115.616 255.908C115.588 255.621 115.556 255.346 115.523 255.064C114.621 246.5 113.912 237.702 113.912 237.702V230.103V229.218L113.864 206.829L113.461 199.448L113.271 196.181L113.235 195.56L113.163 194.284L113.122 193.525C113.033 193.284 112.958 193.039 112.897 192.79C112.869 192.689 112.84 192.576 112.816 192.459C112.715 192.055 112.607 191.534 112.494 190.969C111.757 187.254 110.834 180.992 110.778 179.72C110.705 178.024 109.239 167.881 109.239 167.881C109.09 162.297 104.405 151.783 103.224 149.8C102.044 147.817 100.726 135.906 101.17 135.264C101.399 134.921 101.548 132.89 101.641 131.016C101.641 130.802 101.661 130.593 101.669 130.387C101.73 128.921 101.758 127.697 101.758 127.697L106.366 126.785L107.603 126.543L107.7 126.522L107.74 126.603C107.873 126.85 108.288 127.637 108.776 128.671C108.832 128.78 108.884 128.897 108.941 129.014C108.965 129.07 108.993 129.127 109.021 129.183C109.924 131.162 110.967 133.766 110.923 135.264C110.85 137.913 113.86 144.309 113.86 144.309C114.15 145.778 120.531 160.403 120.531 160.403C120.531 160.403 125.74 174.737 125.446 177.091C125.152 179.445 127.939 195.027 127.939 195.027L130.8 211.052C132.19 214.21 134.023 221.486 134.023 221.486L134.72 225.613L134.852 226.4L136.71 237.411L137.62 242.805C137.62 242.805 138.003 245.672 138.583 248.862C138.631 249.149 138.688 249.439 138.744 249.73C139.101 251.83 139.609 253.901 140.263 255.928C140.587 256.899 140.847 257.89 141.04 258.896Z" fill="black"/>
<path d="M141.54 259.182C141.375 259.085 141.21 258.988 141.04 258.896C140.589 258.633 140.13 258.387 139.663 258.153C138.7 257.666 137.713 257.23 136.706 256.844C132.053 255.068 127.069 254.422 122.017 254.531C120.003 255.302 118.694 255.855 118.694 255.855L116.132 256.63C116.099 256.348 116.071 256.065 116.039 255.779C116.007 255.492 115.983 255.262 115.958 255.003C115.056 246.459 114.347 237.702 114.347 237.702V230.03V229.146L114.299 206.813L113.896 199.763L113.815 198.301L113.759 197.312L113.686 196.004L113.614 194.675L113.561 193.718V193.509C113.561 193.488 113.561 193.464 113.533 193.44C113.457 193.222 113.364 192.891 113.263 192.471L113.215 192.269C113.195 192.176 113.171 192.075 113.151 191.974C112.393 188.53 111.281 181.105 111.221 179.712C111.148 178.016 109.682 167.873 109.682 167.873C109.533 162.289 104.848 151.774 103.667 149.792C102.487 147.809 101.174 135.898 101.613 135.256C101.866 134.852 102.016 132.401 102.112 130.379C102.112 130.217 102.112 130.06 102.112 129.91C102.165 128.662 102.185 127.689 102.185 127.689L106.471 126.841L107.559 126.627L107.728 126.595L108.131 126.514C108.131 126.514 108.659 127.492 109.291 128.836L109.372 129.006C110.294 131 111.386 133.714 111.354 135.256C111.281 137.905 114.291 144.301 114.291 144.301C114.581 145.77 120.962 160.395 120.962 160.395C120.962 160.395 126.171 174.729 125.877 177.083C125.583 179.437 128.37 195.019 128.37 195.019L131.231 211.044C132.621 214.202 134.454 221.478 134.454 221.478L135.102 225.322L135.235 226.101L136.698 234.79L138.047 242.797C138.047 242.797 138.45 245.652 139.006 248.854C139.058 249.144 139.111 249.435 139.167 249.73C139.524 251.839 140.031 253.92 140.686 255.956C141.043 257.011 141.328 258.089 141.54 259.182Z" fill="#63667E"/>
<path d="M137.906 51.8082C137.906 51.8082 136.367 53.7947 134.977 53.7947C133.587 53.7947 128.177 53.5727 125.357 52.6924C122.537 51.8122 108.711 51.146 108.711 51.146C108.711 51.146 89.1322 51.2187 88.4715 50.5565C87.8108 49.8943 76.2972 46.3653 75.1248 46.5874C74.8791 46.6358 74.2788 46.7408 73.4772 46.8741L72.5586 47.0235C71.1688 47.2455 69.4325 47.5039 67.8452 47.6937C65.8833 47.9239 64.1591 48.041 63.6112 47.8391V46.1473C63.6112 46.1473 65.8833 42.8363 66.0283 41.8875C66.1733 40.9386 68.0829 27.182 73.0703 22.26C75.1307 18.3124 78.465 15.1811 82.5294 13.377C89.2772 10.4335 96.0251 7.93816 96.0251 7.93816L97.2054 7.76858L101.012 7.20329C101.128 7.08783 101.254 6.98247 101.387 6.88835C102.443 6.0808 105.641 4.32439 109.811 8.09967L110.548 9.27869C110.548 9.27869 123.379 12.2908 129.317 22.8011C135.255 33.3113 135.553 43.6035 135.993 48.3075C135.993 48.3075 135.698 49.6318 136.287 50.1446C136.5 50.3331 136.703 50.5326 136.895 50.7422C136.947 50.7947 137 50.8472 137.048 50.9037C137.217 51.0733 137.374 51.251 137.503 51.3963C137.519 51.4077 137.532 51.4213 137.544 51.4367C137.575 51.4749 137.609 51.5113 137.644 51.5457L137.906 51.8082Z" fill="#FED253"/>
<path opacity="0.05" d="M137.906 51.8082C137.906 51.8082 136.367 53.7948 134.977 53.7948C133.587 53.7948 128.177 53.5727 125.357 52.6924C122.537 51.8122 108.711 51.146 108.711 51.146C108.711 51.146 89.1322 51.2187 88.4715 50.5565C87.8108 49.8943 76.2972 46.3653 75.1248 46.5874C74.8791 46.6358 74.2788 46.7408 73.4772 46.8741L73.2677 45.582L73.2153 45.263C73.2153 45.263 95.4369 40.4864 110.25 42.9898C125.063 45.4932 135.993 48.2792 135.993 48.2792C135.993 48.2792 135.698 49.6036 136.287 50.1164C136.5 50.3049 136.703 50.5044 136.895 50.714C136.947 50.7664 137 50.8189 137.048 50.8755C137.217 51.045 137.374 51.2227 137.503 51.3681C137.519 51.3794 137.532 51.393 137.544 51.4084C137.575 51.4466 137.609 51.483 137.644 51.5175L137.906 51.8082Z" fill="black"/>
<path opacity="0.1" d="M135.888 55.0384C133.144 55.2524 128.088 54.5821 125.877 54.2551C125.248 54.1622 124.632 54.0491 124.012 53.9119C121.639 53.395 114.343 51.9455 109.912 52.6157C104.558 53.4233 89.4504 51.9536 89.4504 51.9536C89.4504 51.9536 80.1364 50.0437 76.3938 48.5013C75.0201 47.932 72.7238 47.7543 70.4396 48.0369C69.8571 48.1098 69.2789 48.2136 68.7073 48.3479C65.5892 49.0868 62.9585 50.7705 63.4138 53.6413C63.2395 53.4319 63.0781 53.2122 62.9303 52.9832C62.7329 50.3586 63.5467 48.796 64.6747 47.8754L64.9406 47.7664C66.3186 47.374 67.7209 47.0732 69.1384 46.866C69.3599 46.8297 69.5896 46.7974 69.8232 46.7691C73.8317 46.228 79.6288 46.1069 84.5195 48.574C84.5195 48.574 89.0637 50.7099 92.1456 50.7099C95.2274 50.7099 120.305 50.932 126.175 52.6198C127.343 52.9581 128.535 53.2105 129.74 53.3748C131.88 53.6514 134.055 53.4458 136.105 52.7732C136.147 53.535 136.074 54.2987 135.888 55.0384Z" fill="black"/>
<path opacity="0.1" d="M137.906 51.8082C137.906 51.8082 136.367 53.7948 134.977 53.7948C133.587 53.7948 128.177 53.5727 125.357 52.6924C122.537 51.8122 108.711 51.146 108.711 51.146C108.711 51.146 89.1322 51.2187 88.4715 50.5565C87.8108 49.8943 76.2972 46.3653 75.1248 46.5874C74.8791 46.6358 74.2788 46.7408 73.4772 46.8741L72.5586 47.0235C70.9633 47.0153 69.3753 47.2411 67.8452 47.6937C65.8833 47.9239 64.1591 48.041 63.6112 47.8391V47.504C64.0336 47.2583 64.474 47.045 64.9285 46.866C67.647 46.103 70.4464 45.6666 73.2677 45.5658C76.7846 45.4366 80.8978 45.8485 84.5114 47.6735C84.5114 47.6735 89.0556 49.8095 92.1375 49.8095C95.2194 49.8095 120.297 50.0275 126.167 51.7194C127.336 52.0545 128.527 52.3055 129.732 52.4704C132.376 52.8043 135.06 52.4179 137.503 51.3519C137.519 51.3633 137.532 51.3769 137.544 51.3923C137.575 51.4305 137.609 51.4669 137.644 51.5013L137.906 51.8082Z" fill="black"/>
<path d="M63.4702 53.5727C63.4702 53.5727 58.5553 49.8217 64.9366 47.3223C64.9366 47.3223 76.0836 43.87 84.5195 48.1298C84.5195 48.1298 89.0637 50.2577 92.1456 50.2577C95.2274 50.2577 120.305 50.4798 126.175 52.1716C127.344 52.5072 128.535 52.7582 129.74 52.9226C132.863 53.3021 136.026 52.6996 138.792 51.1985C139.195 50.9764 139.558 50.8634 139.667 50.9926C140.033 51.4367 139.743 54.0088 136.516 54.5216C133.998 54.9254 128.278 54.1622 125.873 53.8109C125.248 53.7181 124.628 53.601 124.012 53.4677C121.639 52.9509 114.343 51.5013 109.891 52.1716C104.541 52.9792 89.4303 51.5094 89.4303 51.5094C89.4303 51.5094 80.1203 49.5996 76.3777 48.0531C72.6352 46.5067 62.0763 47.8391 63.4702 53.5727Z" fill="#FED253"/>
<path opacity="0.1" d="M104.904 14.1603C104.501 13.5789 99.3245 9.42406 97.2135 7.74436L101.02 7.17908C101.136 7.06361 101.262 6.95825 101.395 6.86414C104.163 9.77534 104.904 14.1603 104.904 14.1603Z" fill="black"/>
<path opacity="0.1" d="M88.113 36.4446L86.425 38.944L92.8788 38.7259L93.0238 35.9318L88.113 36.4446Z" fill="black"/>
<path opacity="0.1" d="M127.492 39.4608L128.225 41.7381L132.335 42.4003L130.574 39.6789L127.492 39.4608Z" fill="black"/>
<path opacity="0.1" d="M56.9439 115.911C57.383 116.646 71.8295 135.696 75.6445 135.167C79.4596 134.638 56.9439 115.911 56.9439 115.911Z" fill="black"/>
<path opacity="0.1" d="M105.347 133.322C105.347 133.322 108.868 136.706 108.353 138.026C107.837 139.346 105.347 133.322 105.347 133.322Z" fill="black"/>
<path opacity="0.1" d="M66.9186 156.551C66.9186 156.551 63.8368 171.03 65.4522 171.491C67.0677 171.951 66.9186 156.551 66.9186 156.551Z" fill="black"/>
<path opacity="0.1" d="M106.52 212.781C107.031 214.25 111.285 223.808 112.24 224.32C113.195 224.833 106.52 212.781 106.52 212.781Z" fill="black"/>
<path opacity="0.1" d="M155.95 173.53C155.801 174.043 152.135 177.059 152.941 178.161C153.746 179.263 155.95 173.53 155.95 173.53Z" fill="black"/>
<path opacity="0.1" d="M127.492 200.357C127.42 200.728 126.687 208.432 128.08 209.914C129.474 211.396 127.492 200.357 127.492 200.357Z" fill="black"/>
<path opacity="0.1" d="M165.071 240.379C164.007 240.972 162.907 241.545 161.787 242.095C160.579 242.684 159.37 243.245 158.138 243.774C157.646 243.988 157.155 244.198 156.667 244.4C155.926 244.707 155.193 245.002 154.468 245.284C152.264 246.148 150.141 246.899 148.251 247.533C147.518 247.78 146.817 248.006 146.165 248.216C142.877 249.262 140.694 249.831 140.694 249.831C140.195 249.724 139.685 249.682 139.175 249.706C139.034 249.706 138.889 249.706 138.74 249.706C138.058 249.755 137.379 249.842 136.706 249.964C132.206 250.772 125.849 253.037 122.017 254.519C120.003 255.29 118.694 255.843 118.694 255.843L116.132 256.618L115.705 256.747C112.929 257.595 109.025 258.799 107.619 259.299C105.347 260.107 85.6193 264.221 85.6193 264.221C83.817 264.714 81.9759 265.052 80.1162 265.231C75.5336 265.652 70.9275 265.757 66.3305 265.546C61.7137 265.845 54.2447 264.827 49.8979 264.141L49.205 264.032C47.5251 263.757 46.4575 263.559 46.4575 263.559L47.0215 262.78L58.5875 246.786L58.656 246.69L69.4325 231.794L69.8353 231.253L70.8143 229.901C70.8143 229.901 71.4024 229.093 73.6665 229.041C73.9324 229.041 74.2224 229.041 74.5407 229.041C76.4425 229.194 78.3187 229.577 80.1283 230.183L80.652 230.341C88.4554 232.582 100.517 232.02 100.517 232.02C100.517 232.02 108.022 230.809 113.92 230.082L114.359 230.026C116.286 229.753 118.227 229.584 120.172 229.521C123.766 229.594 131.541 227.684 131.541 227.684C133.213 227.325 133.918 227.022 134.861 226.347C134.985 226.259 135.118 226.162 135.263 226.057C135.666 225.754 136.13 225.382 136.726 224.922C137.813 224.086 139.34 222.952 141.741 221.361C141.951 221.223 142.172 221.086 142.41 220.957C142.648 220.828 142.95 220.654 143.24 220.509C145.565 219.405 148.017 218.591 150.54 218.086C152.633 217.635 154.756 217.342 156.893 217.21H157.211C163.254 216.887 169.426 217.925 173.035 221.328C173.666 221.927 174.216 222.605 174.671 223.347C174.891 223.7 175.088 224.067 175.259 224.446C175.588 225.169 175.833 225.927 175.988 226.707C176.018 226.852 176.042 226.997 176.061 227.143C176.061 227.187 176.061 227.228 176.061 227.272C176.061 227.389 176.085 227.506 176.093 227.623C176.415 232.456 171.412 236.825 165.071 240.379Z" fill="black"/>
<path d="M46.4575 262.691C46.4575 262.691 59.5101 265.114 66.3305 264.674C66.3305 264.674 78.8714 265.336 85.6193 263.353C85.6193 263.353 105.359 259.235 107.619 258.427C109.879 257.62 118.694 254.971 118.694 254.971C118.694 254.971 135.856 247.768 140.694 248.943C140.694 248.943 178.683 239.095 175.968 225.79C173.253 212.486 149.275 215.502 141.725 220.497C134.176 225.491 135.279 226.012 131.533 226.82C131.533 226.82 123.758 228.73 120.164 228.657C116.571 228.584 100.509 231.156 100.509 231.156C100.509 231.156 87.8954 231.746 80.1243 229.319C72.3532 226.893 70.8102 229.025 70.8102 229.025L46.4575 262.691Z" fill="#FFA2A2"/>
<path opacity="0.1" d="M74.7623 228.16C74.7642 228.177 74.7642 228.193 74.7623 228.209C74.7341 228.509 74.6565 228.802 74.5326 229.077C72.9857 232.881 64.2034 243.14 64.2034 243.14C63.803 244.359 63.3198 245.549 62.7571 246.702C61.547 249.166 60.1532 251.534 58.5875 253.788C56.2668 257.16 53.733 260.379 51.0017 263.426H50.9816C50.634 263.684 50.2722 263.923 49.8979 264.141C48.9512 264.706 47.5291 265.405 46.1876 265.489C45.9592 265.503 45.73 265.496 45.5027 265.469C45.6437 265.469 45.7807 265.437 45.9056 265.413L45.4141 265.267L44.7413 265.057C43.6133 264.702 42.4947 264.313 41.3855 263.89L40.7128 263.632C39.6385 263.217 38.587 262.772 37.5584 262.295L36.8856 261.989C35.8113 261.488 34.7599 260.959 33.7312 260.402C33.3606 260.208 32.994 259.998 32.6314 259.8C31.5357 259.186 30.4614 258.543 29.4086 257.87C28.2913 257.157 27.1982 256.412 26.1293 255.637C25.3236 254.139 24.6589 252.811 24.2963 252.096C23.6356 250.768 23.5792 248.866 23.6598 247.489C23.6598 247.348 23.6598 247.215 23.684 247.085C23.7525 246.221 23.8572 245.628 23.8572 245.628C23.2603 244.828 22.7217 243.986 22.2458 243.108C21.9723 242.672 21.8168 242.173 21.7946 241.659C21.8128 241.452 21.7937 241.244 21.7382 241.045C21.428 239.769 20.0945 237.576 18.8618 236.2C17.9433 235.186 17.8869 231.399 17.9755 228.714C18.0279 227.099 18.1286 225.911 18.1286 225.911C17.9481 225.795 17.813 225.619 17.7459 225.415C17.4219 224.531 17.2029 223.612 17.0932 222.677C17.0932 222.544 17.057 222.411 17.0368 222.273C16.779 220.42 16.6622 218.559 16.6622 218.559C13.681 216.382 12.263 212.987 11.6023 209.958L11.5177 209.555C11.1549 207.693 11.0008 205.797 11.0584 203.902C11.0584 203.72 11.0584 203.583 11.0584 203.498C11.0584 203.413 11.0584 203.397 11.0584 203.397C11.0584 203.397 11.4532 194.647 12.5571 191.231C12.6014 191.086 12.6497 190.953 12.6981 190.828C12.7794 190.613 12.8848 190.408 13.0123 190.218C13.4152 189.681 13.7012 188.667 13.9389 187.468C14.104 186.636 14.241 185.712 14.3417 184.791C14.4344 184.024 14.5069 183.261 14.5633 182.554C14.7204 180.665 14.7688 179.191 14.7688 179.191L14.0235 175.508C13.818 174.503 13.6609 173.489 13.5521 172.476C13.5521 172.343 13.5199 172.21 13.5038 172.072C13.3154 170.201 13.2817 168.317 13.4031 166.44C13.4031 166.302 13.4031 166.169 13.4272 166.036C13.7418 161.76 14.857 157.582 16.7146 153.721L16.916 153.317C17.1846 152.779 17.4666 152.25 17.762 151.73C17.9755 151.347 18.2011 150.967 18.4348 150.591C19.0542 149.586 19.7266 148.614 20.449 147.68C20.5538 147.543 20.6626 147.41 20.7713 147.277C22.0284 145.714 23.4254 144.271 24.9449 142.964C29.0138 139.459 32.7483 137.937 36.1403 137.82C50.9735 137.295 59.2925 163.589 60.6381 168.196C60.767 168.64 60.8315 168.882 60.8315 168.882C60.8315 168.882 66.8421 174.911 65.0816 177.556C64.7403 178.138 64.5325 178.789 64.4733 179.461C63.9899 183.019 65.3757 188.877 65.3757 188.877C65.3757 188.877 65.8672 190.492 67.3013 194.361L67.7243 195.491C68.6227 197.914 68.8322 201.98 68.3165 205.622C67.821 209.11 66.6568 212.195 64.7915 212.987C60.9765 214.602 62.0038 216.217 62.882 217.545C63.4039 218.497 63.8394 219.495 64.1832 220.525C64.7351 222.015 65.2468 223.582 65.4401 224.191C65.4965 224.361 65.5247 224.454 65.5247 224.454C66.0591 224.246 66.6142 224.098 67.1805 224.01C67.9016 223.909 68.6147 223.981 68.7516 224.599C68.8242 224.93 69.2391 225.322 69.8232 225.714C71.5555 226.909 74.7623 228.16 74.7623 228.16Z" fill="black"/>
<path d="M73.884 228.16C73.8594 228.468 73.7817 228.768 73.6544 229.049C72.1155 232.856 63.3251 243.14 63.3251 243.14C62.923 244.358 62.4398 245.548 61.8789 246.702C60.9067 248.691 59.8073 250.616 58.5875 252.463C56.0622 256.282 53.2644 259.912 50.2162 263.325L50.1235 263.426C50.1235 263.426 49.769 263.696 49.205 264.044C48.1972 264.688 47.0868 265.155 45.9217 265.425L45.4302 265.279L44.7574 265.069C43.6294 264.714 42.5109 264.325 41.4017 263.902L40.7289 263.644C39.6546 263.229 38.6031 262.784 37.5745 262.307L36.9017 262.001C35.8274 261.5 34.776 260.971 33.7474 260.414C33.3767 260.22 33.0101 260.01 32.6476 259.812C31.5518 259.198 30.4775 258.555 29.4247 257.882C28.3074 257.169 27.2144 256.424 26.1454 255.649C25.6513 255.294 25.1625 254.929 24.679 254.555C24.1352 253.521 23.7001 252.649 23.4302 252.108C22.7695 250.78 22.7131 248.878 22.7937 247.501C22.7937 247.36 22.7937 247.227 22.8178 247.097C22.8863 246.233 22.9911 245.64 22.9911 245.64C22.9911 245.64 22.6648 245.2 22.27 244.602C22.0484 244.271 21.8107 243.887 21.5972 243.508C21.1943 242.797 20.8801 242.078 20.9405 241.671C20.9487 241.601 20.9487 241.53 20.9405 241.461C20.9345 241.324 20.9142 241.189 20.8801 241.057C20.5699 239.781 19.2324 237.588 17.9997 236.212C17.0812 235.198 17.0248 231.411 17.1094 228.726C17.1094 228.588 17.1094 228.455 17.1094 228.322C17.1658 226.929 17.2504 225.923 17.2504 225.923C16.7951 225.726 16.4446 224.26 16.219 222.693L16.1586 222.289C15.9008 220.436 15.784 218.575 15.784 218.575C12.8028 216.398 11.3848 213.003 10.7281 209.974C10.2706 207.853 10.0945 205.681 10.2044 203.514C10.2044 203.449 10.2044 203.413 10.2044 203.413C10.2044 203.413 10.5508 194.619 11.6547 191.199C11.699 191.054 11.7473 190.92 11.7957 190.795C11.8923 190.586 12.0126 190.388 12.1542 190.206C12.7666 189.35 13.1734 187.29 13.4393 185.183L13.4877 184.779C13.822 181.952 13.9147 179.179 13.9147 179.179L13.1654 175.496C12.9613 174.487 12.8042 173.476 12.694 172.464C12.6739 172.331 12.6618 172.193 12.6457 172.06C12.4573 170.188 12.4236 168.304 12.545 166.427C12.545 166.29 12.545 166.157 12.5732 166.024C12.8858 161.748 14.0011 157.57 15.8605 153.709C15.925 153.571 15.9894 153.438 16.0619 153.305C16.5799 152.256 17.1555 151.237 17.7862 150.252C18.0037 149.909 18.2253 149.57 18.4589 149.235C18.8255 148.702 19.2082 148.177 19.6071 147.668L19.9294 147.264C21.1757 145.708 22.5605 144.269 24.0667 142.964C28.4981 139.157 32.5267 137.687 36.1524 137.82C50.4337 138.333 58.4506 163.682 59.7679 168.196C59.8968 168.64 59.9613 168.882 59.9613 168.882C59.9613 168.882 65.9759 174.911 64.2155 177.555C63.8741 178.138 63.6663 178.789 63.6071 179.461C63.1197 183.018 64.5095 188.877 64.5095 188.877C64.5095 188.877 65.001 190.492 66.4352 194.36C66.5641 194.72 66.7051 195.095 66.8381 195.491C67.7364 197.914 67.9459 201.98 67.4303 205.622C66.9347 209.114 65.7745 212.195 63.9053 212.987C60.0942 214.602 61.1175 216.217 61.9997 217.545C62.5216 218.497 62.9571 219.495 63.301 220.525C63.9979 222.427 64.6385 224.454 64.6385 224.454C64.9021 224.352 65.1711 224.264 65.4442 224.191C66.0046 224.007 66.5981 223.945 67.1845 224.01C67.3468 224.022 67.5009 224.086 67.6247 224.192C67.7485 224.298 67.8355 224.44 67.8734 224.599C67.9822 225.084 68.8161 225.685 69.8273 226.255C71.1402 226.971 72.4949 227.607 73.884 228.16Z" fill="#CED7E7"/>
<path opacity="0.1" d="M20.86 189.333C22.2538 189.261 37.216 183.455 40.2978 185.437C43.3797 187.42 62.455 200.284 62.455 200.284C62.455 200.284 50.5022 184.629 40.0883 180.955C29.6745 177.281 20.86 189.333 20.86 189.333Z" fill="black"/>
<path opacity="0.1" d="M42.3685 213.003C42.3685 213.003 57.3306 216.015 59.6027 218.074L42.3685 213.003Z" fill="black"/>
<path opacity="0.1" d="M39.4881 235.428C39.2705 235.65 33.8481 247.848 34.2832 247.848C34.7182 247.848 39.343 240.581 39.343 240.581L39.4881 235.428Z" fill="black"/>
<path opacity="0.1" d="M49.6844 220.792C49.6844 220.792 45.2852 222.338 45.7968 222.483C46.3084 222.629 49.5353 221.454 49.6844 220.792Z" fill="black"/>
<path opacity="0.1" d="M45.2852 239.244C46.0184 240.786 48.363 245.418 48.8787 244.683C49.3943 243.948 45.2852 239.244 45.2852 239.244Z" fill="black"/>
<path opacity="0.1" d="M100.203 116.989L99.5742 117.886C99.5742 117.886 94.5828 114.361 92.5323 112.596C90.4817 110.832 85.6394 118.915 81.8243 121.12C78.0093 123.325 71.5595 123.914 71.5595 123.914C71.5595 123.914 66.5722 118.915 66.7253 117.454C66.8783 115.992 64.3806 115.544 64.2316 114.514C64.0825 113.485 63.2043 110.545 62.032 109.075C61.4116 108.3 61.3229 105.874 61.3793 103.762C61.7822 103.681 62.032 103.637 62.032 103.637C62.6581 102.496 63.4496 101.455 64.3806 100.548C65.702 99.3728 67.7525 92.1694 67.7525 92.1694C68.9249 88.2004 71.2695 89.3753 71.2695 89.3753C71.2695 95.4037 77.4332 97.6083 80.511 100.108C83.5889 102.607 88.4312 109.075 92.2463 110.4C95.3765 111.47 99.0384 115.609 100.203 116.989Z" fill="black"/>
<path d="M100.203 116.105L99.5742 117.006C99.5742 117.006 94.5627 113.489 92.5122 111.712C90.4616 109.935 85.6193 118.031 81.8042 120.236C77.9892 122.44 71.5394 123.034 71.5394 123.034C71.5394 123.034 66.552 118.031 66.7051 116.574C66.8582 115.116 64.3605 114.664 64.2114 113.63C64.0624 112.596 63.1841 109.661 62.0118 108.191C61.3914 107.416 61.3028 104.989 61.3592 102.878L62.0118 102.756C62.638 101.616 63.4295 100.575 64.3605 99.6675C65.6819 98.4885 67.7324 91.2892 67.7324 91.2892C68.9047 87.3201 71.2493 88.4911 71.2493 88.4911C71.2493 94.5194 77.4131 96.7281 80.4909 99.2274C83.5687 101.727 88.4111 108.191 92.2261 109.516C95.3765 110.602 99.0384 114.724 100.203 116.105Z" fill="#CED7E7"/>
<path opacity="0.1" d="M100.577 117.3C100.577 117.3 96.2547 119.65 92.8787 119.872C92.4368 119.893 91.994 119.867 91.5574 119.796C91.5574 119.796 95.2838 117.006 98.7443 116.436L100.577 117.3Z" fill="black"/>
<path opacity="0.1" d="M109.38 129.28C109.38 129.28 103.929 127.152 102.128 130.354C102.189 128.885 102.213 127.665 102.213 127.665L108.155 126.486C108.155 126.486 108.727 127.548 109.396 128.977C109.38 129.167 109.38 129.28 109.38 129.28Z" fill="black"/>
<path d="M91.5574 119.796C91.5574 119.796 98.0877 115.867 101.226 116.198C104.517 116.541 110.895 116.783 110.895 116.783C110.895 116.783 108.695 121.782 108.989 122.812C109.283 123.841 109.356 128.84 109.356 128.84C109.356 128.84 102.757 126.268 101.657 131.045C101.657 131.045 98.0635 125.679 95.6423 124.059C94.0358 122.896 92.6519 121.452 91.5574 119.796Z" fill="#63667E"/>
<path opacity="0.1" d="M128.447 124.358C126.542 124.358 119.794 120.09 118.327 117.3C116.861 114.51 114.806 117.591 112.901 118.625C111.692 119.287 106.902 117.902 104.32 116.897C105.629 116.004 108.53 113.493 109.38 112.891C110.403 112.152 111.434 100.245 111.434 100.245C115.1 98.3351 119.06 115.681 119.06 115.681C119.06 115.681 125.957 117.74 126.542 119.21C126.654 119.501 127.174 120.018 127.956 120.644C128.761 122.679 129.204 124.358 128.447 124.358Z" fill="black"/>
<path d="M128.447 123.474C126.542 123.474 119.794 119.21 118.327 116.42C116.861 113.63 114.806 116.711 112.901 117.74C111.692 118.403 107.853 117.123 105.271 116.125C106.58 115.237 108.53 112.621 109.38 112.015C110.403 111.28 111.434 99.3727 111.434 99.3727C115.1 97.4629 119.06 114.809 119.06 114.809C119.06 114.809 125.957 116.868 126.542 118.338C126.654 118.629 127.174 119.146 127.956 119.771C128.761 121.794 129.204 123.474 128.447 123.474Z" fill="#CED7E7"/>
<path d="M154.508 252.266L218.284 198.968C218.921 198.429 219.732 198.142 220.564 198.16L244.357 198.786C244.357 198.786 246.005 199.997 243.588 202.646L183.425 252.128C182.775 252.661 181.968 252.965 181.129 252.992L155.112 253.857C154.925 253.862 154.741 253.81 154.586 253.706C154.43 253.602 154.311 253.452 154.244 253.277C154.178 253.102 154.168 252.91 154.215 252.729C154.262 252.548 154.364 252.386 154.508 252.266Z" fill="#15BAC0"/>
<path d="M185.359 245.708C185.359 245.708 199.29 265.703 214.767 247.105C230.245 228.508 225.769 218.736 221.076 218.219C216.383 217.703 189.975 238.065 185.359 245.708Z" fill="#FFA2A2"/>
<path opacity="0.1" d="M279.317 22.0743C279.317 22.0743 297.272 -12.8521 318.495 5.16024C318.495 5.16024 323.128 6.85206 322.777 11.7619C322.777 11.7619 320.993 10.7808 319.575 14.5318C319.054 15.8628 318.378 17.1273 317.56 18.299C316.474 19.8819 314.905 21.0691 313.089 21.6827C313.089 21.6827 303.565 28.8335 285.924 23.3179C285.924 23.3179 280.937 24.0367 280.131 23.4149L285.928 19.1672C285.928 19.1672 288.873 23.5481 293.179 24.0488C293.179 24.0488 285.928 19.4861 286.758 18.4969C286.927 18.295 289.932 16.3852 289.932 16.3852C289.932 16.3852 295.085 23.9801 301.764 24.5414C301.764 24.5414 292.406 20.2654 291.064 15.6584L295.766 13.0298C295.766 13.0298 300.818 21.3273 308.403 22.256C308.403 22.256 298.775 17.4471 296.833 12.5251L301.809 10.5789C301.809 10.5789 306.897 18.5736 313.209 19.3044C313.209 19.3044 302.647 12.622 302.977 10.2074C302.977 10.2074 307.654 8.6973 309.088 8.89515C309.088 8.89515 312.871 14.548 316.577 14.6489C316.577 14.6489 309.991 9.43217 310.426 8.62866C310.426 8.62866 317.041 8.28545 320.497 9.88843C320.497 9.88843 315.582 7.14681 310.426 7.59096C310.426 7.59096 312.758 4.84126 315.8 4.2356C315.8 4.2356 312.154 2.73357 308.822 7.69191C308.822 7.69191 303.678 8.16432 303.041 8.73768C303.041 8.73768 305.644 3.37557 308.846 1.09424C308.846 1.09424 304.073 1.93813 301.708 9.20606L296.664 11.0513C296.664 11.0513 299.73 3.78338 302.433 1.5384C302.433 1.5384 297.695 3.15349 295.431 11.6327L290.79 14.1604C290.79 14.1604 292.954 7.69998 295.423 4.54651C295.423 4.54651 291.35 6.99338 289.485 14.9316L286.585 16.9787C286.585 16.9787 288.248 12.2868 288.849 10.9827C289.449 9.67847 289.147 9.40795 289.147 9.40795C287.13 11.7971 285.815 14.7003 285.348 17.7943C285.348 17.7943 279.651 22.3973 279.317 22.0743Z" fill="#15BAC0"/>
<path opacity="0.1" d="M353.576 40.7529C353.576 40.7529 361.689 24.9694 371.277 33.1095C371.277 33.1095 373.372 33.8726 373.211 36.0893C373.211 36.0893 372.405 35.6492 371.765 37.3451C371.533 37.9457 371.23 38.5164 370.862 39.0449C370.372 39.7584 369.666 40.2949 368.848 40.5752C368.848 40.5752 364.542 43.8054 356.569 41.3142C356.569 41.3142 354.317 41.6372 353.954 41.3586L356.573 39.4366C356.573 39.4366 357.903 41.4191 359.852 41.6412C359.852 41.6412 356.581 39.582 356.952 39.1338C357.024 39.0449 358.382 38.1809 358.382 38.1809C358.382 38.1809 360.71 41.6129 363.732 41.8673C363.732 41.8673 359.502 39.9332 358.898 37.8296L361.025 36.6465C361.025 36.6465 363.305 40.3976 366.733 40.8175C366.733 40.8175 362.382 38.6452 361.496 36.4204L363.744 35.5402C363.744 35.5402 366.04 39.154 368.892 39.4851C368.892 39.4851 364.119 36.4648 364.272 35.3746C364.272 35.3746 366.383 34.6923 367.031 34.7811C367.031 34.7811 368.739 37.337 370.415 37.3774C370.415 37.3774 367.438 35.0234 367.636 34.66C367.636 34.66 370.625 34.5065 372.18 35.2293C372.18 35.2293 369.96 33.9897 367.636 34.1916C368.277 33.4606 369.117 32.933 370.053 32.6734C370.053 32.6734 368.405 31.9951 366.898 34.236C366.898 34.236 364.574 34.45 364.288 34.7084C364.288 34.7084 365.464 32.2858 366.91 31.2561C366.91 31.2561 364.751 31.6357 363.688 34.9224L361.432 35.7703C361.432 35.7703 362.813 32.4877 364.038 31.4701C364.038 31.4701 361.895 32.201 360.872 36.0288L358.777 37.1674C358.777 37.1674 359.752 34.2441 360.868 32.8228C360.868 32.8228 359.026 33.9291 358.189 37.5146L356.875 38.4393C356.875 38.4393 357.629 36.3195 357.898 35.73C358.168 35.1405 358.031 35.0193 358.031 35.0193C357.12 36.1027 356.526 37.4178 356.315 38.8188C356.315 38.8188 353.717 40.8983 353.576 40.7529Z" fill="#15BAC0"/>
<path opacity="0.1" d="M265.66 59.1165C265.66 59.1165 273.774 43.333 283.386 51.4731C283.386 51.4731 285.477 52.2362 285.32 54.4569C285.32 54.4569 284.514 54.0128 283.873 55.7086C283.64 56.3086 283.337 56.8792 282.971 57.4085C282.476 58.1254 281.762 58.6623 280.937 58.9388C280.937 58.9388 276.634 62.169 268.662 59.6777C268.662 59.6777 266.41 60.0048 266.047 59.7221L268.666 57.8002C268.666 57.8002 269.995 59.7827 271.941 60.0088C271.941 60.0088 268.67 57.9455 269.04 57.4974C269.117 57.4085 270.474 56.5445 270.474 56.5445C270.474 56.5445 272.803 59.9765 275.82 60.2309C275.82 60.2309 271.594 58.2968 270.986 56.1932L273.113 55.0141C273.113 55.0141 275.397 58.7612 278.826 59.1811C278.826 59.1811 274.475 57.0088 273.588 54.784L275.836 53.9038C275.836 53.9038 278.137 57.5175 280.989 57.8486C280.989 57.8486 276.215 54.8284 276.364 53.7382C276.364 53.7382 278.479 53.0558 279.128 53.1447C279.128 53.1447 280.836 55.7006 282.512 55.745C282.512 55.745 279.535 53.3869 279.732 53.0235C279.732 53.0235 282.717 52.8701 284.276 53.5929C284.276 53.5929 282.053 52.3533 279.728 52.5552C280.369 51.8242 281.209 51.2966 282.145 51.037C282.145 51.037 280.502 50.3586 278.995 52.5996C278.995 52.5996 276.67 52.8136 276.384 53.072C276.384 53.072 277.557 50.6494 279.007 49.6197C279.007 49.6197 276.848 49.9993 275.784 53.286L273.5 54.1339C273.5 54.1339 274.886 50.8512 276.106 49.8378C276.106 49.8378 273.967 50.5646 272.944 54.3923L270.845 55.531C270.845 55.531 271.824 52.6077 272.94 51.1864C272.94 51.1864 271.099 52.2927 270.257 55.8782L268.944 56.8029C268.944 56.8029 269.697 54.6831 269.967 54.0935C270.237 53.504 270.104 53.3829 270.104 53.3829C269.191 54.4651 268.597 55.7808 268.388 57.1824C268.388 57.1824 265.801 59.2618 265.66 59.1165Z" fill="#15BAC0"/>
</g>
<defs>
<clipPath id="clip0_10_112">
<rect width="432" height="315" fill="white"/>
</clipPath>
</defs>
</svg>
