<svg width="584" height="366" viewBox="0 0 584 366" fill="none" xmlns="http://www.w3.org/2000/svg">
<g clip-path="url(#clip0_50_236)">
<path d="M447.091 326.317C483.452 326.317 512.928 320.395 512.928 313.09C512.928 305.785 483.452 299.862 447.091 299.862C410.729 299.862 381.253 305.785 381.253 313.09C381.253 320.395 410.729 326.317 447.091 326.317Z" stroke="#444053" stroke-miterlimit="10"/>
<path d="M198.637 207.722C198.83 208.212 199.049 208.692 199.293 209.16V209.221C199.293 209.221 202.411 220.745 203.871 223.165C204.295 223.865 204.775 224.625 205.248 225.369C205.155 225.917 205.155 226.476 205.248 227.023C205.689 229.591 206.224 233.124 205.981 233.901C205.739 234.678 206.273 236.613 205.43 237.285C204.587 237.958 203.722 239.126 206.306 240.675C206.306 240.675 206.791 241.981 206.356 242.273C206.306 242.306 206.356 242.378 206.477 242.471C205.766 244.577 204.725 247.983 205.375 248.225C205.733 248.363 206.703 247.856 207.766 247.173C207.794 247.311 207.816 247.459 207.843 247.608C208.013 248.743 208.274 249.862 208.626 250.954C209.1 252.006 209.573 253.781 209.32 254.365C209.066 254.949 210.014 256.25 209.794 256.763C209.573 257.275 210.526 258.94 210.526 258.94C210.526 258.94 211.474 262.169 211.436 263.261C211.397 264.352 212.46 271.39 212.46 271.39C212.46 271.39 211.358 275.022 211.909 276.075C212.46 277.128 212.818 280.76 211.909 282.104C211 283.449 209.86 286.42 210.229 287.219C210.598 288.018 209.717 297.895 211.942 301.962C212.227 303.476 212.435 305.002 212.565 306.537C212.565 307.639 214.317 310.566 214.317 310.566C214.317 310.566 213.259 314.975 215.854 315.719C216.033 315.775 216.218 315.81 216.405 315.824C216.484 316.306 216.419 316.8 216.218 317.246C215.774 317.86 215.459 318.557 215.292 319.296V319.296C215.254 319.435 215.272 319.583 215.342 319.709C215.634 320.034 216.444 324.394 216.444 324.394C216.444 324.394 217.612 329.294 224.041 328.098C224.041 328.098 228.388 327.844 228.024 326.317C227.905 325.814 227.747 325.32 227.551 324.84C227.398 324.53 227.261 324.212 227.143 323.887C227.071 323.523 226.157 322.503 226.085 321.815C226.014 321.126 225.43 319.781 225.534 319.345C225.639 318.91 224.548 315.791 224.471 315.096C224.382 314.613 224.243 314.14 224.058 313.685L224.289 313.575C224.289 313.575 224.873 310.307 224.366 309.111C223.859 307.915 221.843 306.355 221.843 306.355C221.843 306.355 222.135 298.33 221.771 297.239C221.408 296.148 221.953 292.014 221.953 292.014C221.953 292.014 223.193 286.166 223.121 284.849C223.08 284.034 223.203 283.218 223.485 282.452C223.485 282.452 224.256 273.848 224.763 272.757C225.27 271.666 225.865 260.996 225.865 260.996L226.206 261.977C226.686 263.449 227.257 264.89 227.914 266.292C228.195 266.733 229.016 268.144 229.721 269.323L230.763 271.087C230.763 271.087 231.236 272.796 230.906 273.843C230.575 274.89 234.305 280.556 234.305 280.556C234.065 281.029 233.94 281.552 233.942 282.082C234.046 282.634 232.807 284.37 232.807 284.37C232.807 284.37 232.333 285.929 232.625 286.475C232.917 287.021 232.151 290.25 232.151 290.25C232.151 290.25 230.906 297.366 230.614 298.203C230.322 299.041 230.763 304.773 230.763 304.773C230.763 304.773 228.471 310.643 229.534 312.594C229.578 313.316 229.584 314.418 229.303 314.865C228.923 315.46 229.033 317.659 229.071 318.265C229.071 318.37 229.071 318.425 229.071 318.425C229.071 318.425 227.826 320.078 229.396 320.751C230.966 321.423 236.305 321.908 236.305 321.908C236.305 321.908 241.379 323.363 243.826 323.76C246.272 324.157 251.39 324.014 251.754 322.526C251.883 322.063 251.928 321.582 251.886 321.104C251.853 320.802 251.743 320.513 251.566 320.266C251.39 320.019 251.153 319.821 250.878 319.693C249.373 319.094 247.835 318.584 246.272 318.166C246.272 318.166 243.859 317.615 243.638 316.568C243.418 315.52 239.985 312.61 239.985 312.61C239.985 312.61 239.947 312.406 239.875 312.131H239.985L239.82 311.966C239.649 311.414 239.374 310.687 239.038 310.825C238.985 310.726 238.953 310.618 238.944 310.506C238.934 310.395 238.947 310.283 238.982 310.177C239.017 310.071 239.074 309.973 239.148 309.889C239.221 309.805 239.312 309.737 239.412 309.689C240.729 308.967 241.534 306.68 241.164 304.211C240.795 301.742 240.729 302.177 241.495 300.761C241.97 299.69 242.16 298.515 242.046 297.349L244.068 289.809C244.385 288.883 244.581 287.92 244.652 286.943C244.686 286.175 244.885 285.423 245.236 284.739C245.236 284.739 246.15 279.509 246.955 278.313C247.759 277.117 246.404 272.9 246.404 272.9C246.404 272.9 245.164 266.369 245.236 263.387C245.308 260.406 242.018 250.066 242.018 250.066C241.596 249.395 241.417 248.599 241.512 247.812C241.578 247.195 241.192 246.192 240.757 245.293L240.619 245.012C240.787 244.796 240.99 244.61 241.22 244.461C242.123 243.91 242.547 242.46 242.553 241.441L230.096 212.07C230.096 211.982 235.864 200.193 235.848 200.105C235.506 198.17 232.245 193.039 232.245 193.039C232.213 192.975 232.166 192.92 232.107 192.879C231.374 192.543 228.895 191.138 228.895 191.138C226.95 188.735 225.126 188.239 223.936 188.255C223.562 188.251 223.19 188.308 222.835 188.426C222.708 188.465 222.584 188.515 222.465 188.575L222.41 189.054C222.309 187.945 222.396 186.827 222.669 185.747C222.697 185.654 222.724 185.555 222.746 185.461C222.928 185.461 223.11 185.461 223.297 185.461C224.464 185.464 225.619 185.238 226.698 184.795C227.777 184.352 228.758 183.701 229.585 182.878C230.413 182.056 231.07 181.078 231.52 180.002C231.969 178.925 232.203 177.771 232.206 176.604C232.206 175.775 232.091 174.949 231.865 174.151L231.82 174.025L232.096 173.903C233.198 173.495 234.581 174.19 235.473 173.451C235.797 173.13 236.029 172.729 236.145 172.288C236.393 171.698 236.558 171.077 236.636 170.442C236.636 170.332 236.636 170.222 236.636 170.111C236.638 170.078 236.638 170.045 236.636 170.012C236.638 169.972 236.638 169.931 236.636 169.891C236.636 169.841 236.636 169.792 236.636 169.742C236.636 169.693 236.636 169.742 236.636 169.742C236.586 169.337 236.421 168.955 236.162 168.64C235.578 167.956 234.603 167.791 233.864 167.29C233.261 166.822 232.76 166.234 232.393 165.564C232.026 164.898 231.543 164.303 230.966 163.806C230.674 163.56 230.319 163.399 229.942 163.34C229.564 163.281 229.177 163.326 228.823 163.47C228.608 163.618 228.369 163.729 228.118 163.801C227.845 163.805 227.576 163.732 227.341 163.591C224.807 162.406 221.832 162.616 219.077 162.969C217.958 163.058 216.859 163.322 215.821 163.751C215.302 163.965 214.836 164.289 214.456 164.701C214.075 165.113 213.789 165.603 213.617 166.138C213.391 166.992 213.562 167.918 213.292 168.761C213.105 169.312 212.741 169.819 212.51 170.376C212.397 170.668 212.327 170.974 212.301 171.285V171.285C212.301 171.285 212.301 171.346 212.301 171.374C212.207 172.625 212.697 173.942 212.934 175.232C213.259 176.99 213.094 178.902 213.849 180.567C213.924 180.771 214.02 180.966 214.135 181.151C213.871 181.702 213.584 182.286 213.309 182.832C212.901 182.716 211.656 182.441 211.612 183.532C211.603 184.419 211.396 185.293 211.006 186.089C210.948 186.135 210.887 186.177 210.824 186.216C210.757 186.247 210.701 186.298 210.664 186.362C210.628 186.426 210.612 186.501 210.62 186.574V186.574L210.477 186.684C210.414 186.688 210.353 186.709 210.301 186.745C210.223 186.613 209.97 186.602 209.166 187.561C208.095 188.675 206.864 189.622 205.513 190.372C205.513 190.372 200.103 194.147 199.811 195.883C199.519 197.619 197.712 205.203 198.637 207.722ZM222.394 189.302C222.394 189.302 222.394 189.264 222.394 189.242L222.46 189.275L222.394 189.302ZM237.093 312.759C236.947 312.821 236.789 312.853 236.63 312.853L237.093 312.759Z" fill="url(#paint0_linear_50_236)"/>
<path d="M224.636 328.114C218.284 329.305 217.127 324.433 217.127 324.433C217.127 324.433 216.333 320.101 216.025 319.775C215.955 319.649 215.937 319.501 215.975 319.362V319.362C216.141 318.628 216.452 317.935 216.89 317.323C217.286 316.854 216.961 314.903 216.961 314.903L224.322 313.029C224.637 313.724 224.879 314.45 225.044 315.195C225.121 315.879 226.201 318.987 226.091 319.417C225.98 319.847 226.564 321.186 226.641 321.875C226.719 322.564 227.617 323.573 227.688 323.931C227.799 324.257 227.932 324.576 228.085 324.884C228.281 325.359 228.438 325.85 228.553 326.351C228.928 327.861 224.636 328.114 224.636 328.114Z" fill="#444053"/>
<path opacity="0.1" d="M224.636 328.114C218.284 329.305 217.127 324.432 217.127 324.432C217.127 324.432 216.333 320.1 216.025 319.775C215.955 319.649 215.937 319.501 215.975 319.362L217.501 323.771C217.501 323.771 218.768 326.411 223.457 326.009C226.129 325.788 227.44 325.292 228.079 324.906C228.276 325.381 228.432 325.872 228.548 326.373C228.928 327.861 224.636 328.114 224.636 328.114Z" fill="black"/>
<path opacity="0.1" d="M219.689 321.252C219.689 321.252 221.281 321.291 221.386 319.99L219.689 321.252Z" fill="black"/>
<path d="M247.302 278.577C246.509 279.768 245.605 284.965 245.605 284.965C245.269 285.653 245.081 286.404 245.054 287.169C244.996 288.141 244.81 289.101 244.503 290.024L242.415 297.498C242.526 298.656 242.336 299.824 241.864 300.888C241.109 302.298 241.181 301.863 241.539 304.321C241.897 306.779 241.109 309.05 239.809 309.772C238.509 310.494 240.388 312.192 240.388 312.192C240.388 312.192 232.085 314.429 230.349 313.057C228.614 311.684 231.253 304.9 231.253 304.9C231.253 304.9 230.823 299.196 231.11 298.363C231.396 297.531 232.625 290.454 232.625 290.454C232.625 290.454 233.385 287.241 233.093 286.701C232.801 286.161 233.275 284.607 233.275 284.607C233.275 284.607 234.504 282.871 234.377 282.33C234.379 281.804 234.503 281.285 234.74 280.815C234.74 280.815 231.06 275.182 231.38 274.135C231.699 273.088 231.236 271.379 231.236 271.379C231.236 271.379 230.774 270.58 230.212 269.626C229.529 268.453 228.702 267.053 228.421 266.612C227.776 265.217 227.215 263.785 226.741 262.324L226.399 261.343C226.399 261.343 225.848 271.958 225.297 273.038C224.746 274.118 224.036 282.683 224.036 282.683C223.755 283.444 223.631 284.254 223.672 285.064C223.744 286.398 222.515 292.229 222.515 292.229C222.515 292.229 221.964 296.346 222.339 297.432C222.713 298.518 222.41 306.493 222.41 306.493C222.41 306.493 224.394 308.047 224.901 309.248C225.408 310.45 224.829 313.691 224.829 313.691C224.829 313.691 219.055 316.579 216.488 315.818C213.92 315.057 214.973 310.692 214.973 310.692C214.973 310.692 213.243 307.804 213.243 306.686C213.114 305.159 212.908 303.639 212.626 302.133C210.422 298.088 211.292 288.272 210.934 287.473C210.576 286.673 211.689 283.719 212.587 282.386C213.485 281.052 213.138 277.425 212.587 276.389C212.036 275.353 213.138 271.732 213.138 271.732C213.138 271.732 212.091 264.727 212.13 263.647C212.168 262.566 211.226 259.348 211.226 259.348C211.226 259.348 210.29 257.694 210.504 257.182C210.719 256.669 209.783 255.374 210.036 254.801C210.29 254.227 209.816 252.453 209.348 251.406C209.005 250.325 208.747 249.219 208.576 248.099C208.356 246.853 208.196 245.756 208.196 245.756L214.152 240.956L229.027 237.054L234.669 235.218L240.118 243.811C240.118 243.811 240.669 244.709 241.181 245.745C241.611 246.638 241.991 247.636 241.925 248.253C241.834 249.035 242.013 249.824 242.432 250.491C242.432 250.491 245.677 260.781 245.605 263.718C245.533 266.656 246.762 273.181 246.762 273.181C246.762 273.181 248.095 277.387 247.302 278.577Z" fill="#3F3D56"/>
<path opacity="0.1" d="M213.882 283.956C213.882 283.956 220.234 281.25 222.107 283.163C223.981 285.075 213.882 283.956 213.882 283.956Z" fill="black"/>
<path opacity="0.1" d="M217.452 285.037C217.452 285.037 211.011 288.68 213.215 289.264C215.419 289.848 217.452 285.037 217.452 285.037Z" fill="black"/>
<path opacity="0.1" d="M236.652 281.901C236.652 281.901 233.897 282.077 234.955 282.623C236.013 283.168 236.652 281.901 236.652 281.901Z" fill="black"/>
<path opacity="0.1" d="M240.084 282.727C240.046 282.909 232.107 285.483 233.66 286.629C235.214 287.776 240.084 282.727 240.084 282.727Z" fill="black"/>
<path opacity="0.1" d="M214.818 304.823C216.008 304.646 222.653 301.576 220.052 303.781C219.357 304.414 218.502 304.845 217.58 305.028C216.658 305.212 215.703 305.141 214.818 304.823Z" fill="black"/>
<path opacity="0.1" d="M218.102 307.242C218.102 307.242 218.681 309.485 220.884 309.193C223.088 308.901 218.102 307.242 218.102 307.242Z" fill="black"/>
<path opacity="0.1" d="M216.262 311.795C216.658 311.685 221.385 309.519 221.496 310.533C221.606 311.547 216.983 313.288 216.625 312.77C216.418 312.484 216.292 312.147 216.262 311.795V311.795Z" fill="black"/>
<path opacity="0.1" d="M231.567 309.193C232.118 309.16 237.556 307.424 238.641 308.978L231.567 309.193Z" fill="black"/>
<path opacity="0.1" d="M236.476 310.207C236.476 310.207 237.412 309.375 238.349 309.811C239.286 310.246 236.476 310.207 236.476 310.207Z" fill="black"/>
<path opacity="0.1" d="M224.493 319.158C224.552 319.465 224.698 319.749 224.916 319.974C225.133 320.199 225.411 320.356 225.716 320.426L224.493 319.158Z" fill="black"/>
<path d="M252.029 322.553C251.671 324.036 246.613 324.179 244.2 323.782C241.787 323.385 236.762 321.941 236.762 321.941C236.762 321.941 231.495 321.434 229.942 320.784C228.388 320.134 229.617 318.475 229.617 318.475C229.617 318.475 229.617 318.42 229.617 318.32C229.578 317.714 229.473 315.526 229.843 314.936C230.278 314.247 230.024 312.01 230.024 312.01C230.024 312.01 237.495 313.454 237.638 312.77C237.782 312.087 238.939 311.117 239.479 310.891C240.018 310.665 240.421 312.699 240.421 312.699C240.421 312.699 243.814 315.587 244.029 316.634C244.244 317.681 246.624 318.221 246.624 318.221C248.17 318.636 249.69 319.142 251.175 319.737C251.447 319.865 251.682 320.061 251.857 320.306C252.032 320.551 252.14 320.837 252.172 321.137C252.211 321.614 252.162 322.094 252.029 322.553V322.553Z" fill="#444053"/>
<path opacity="0.1" d="M252.029 322.553C251.671 324.036 246.613 324.179 244.2 323.782C241.787 323.385 236.762 321.941 236.762 321.941C236.762 321.941 231.495 321.434 229.942 320.784C228.388 320.134 229.617 318.475 229.617 318.475C229.617 318.475 229.617 318.42 229.617 318.32L237.17 319.974C237.17 319.974 240.889 321.561 243.269 321.561C245.352 321.561 250.007 322.415 252.172 321.12C252.213 321.603 252.164 322.088 252.029 322.553V322.553Z" fill="black"/>
<path opacity="0.1" d="M241.815 316.849C241.815 316.849 241.456 319.23 240.013 320.029L241.815 316.849Z" fill="black"/>
<path d="M264.949 229.084C262.8 229.9 257.841 229.988 255.638 229.988C254.966 229.988 254.536 229.988 254.536 229.988L253.12 227.1L254.536 224.692C254.536 224.692 255.836 224.333 257.566 224.019C260.117 223.562 263.626 223.203 265.279 224.234C268.056 225.959 267.758 228.053 264.949 229.084Z" fill="#A1616A"/>
<path d="M232.129 194.522L232.757 193.8C232.757 193.8 235.98 198.903 236.316 200.827C236.652 202.75 237.087 204.966 237.087 204.966C237.087 204.966 237.903 207.468 238.437 208.576C238.892 209.415 239.247 210.305 239.495 211.227C239.539 211.706 239.302 212.765 240.31 213.432C241.319 214.098 241.561 215.934 241.561 215.934C241.561 215.934 245.219 219.494 247.148 219.593C249.076 219.693 254.602 220.652 254.415 221.611C254.227 222.57 256.723 223.154 257.72 223.396C258.717 223.639 251.23 226.532 255.638 230.258C255.638 230.258 252.844 230.809 252.558 231.509C252.271 232.209 249.335 231.123 249.335 231.123C249.335 231.123 248.707 229.63 246.542 229.536C244.376 229.442 243.269 228.478 243.269 228.335C243.269 228.191 241.104 226.984 239.903 226.648C238.702 226.312 237.109 226.169 237.06 225.827C237.01 225.485 229.843 194.538 229.843 194.538L232.129 194.522Z" fill="#15BAC0"/>
<path opacity="0.05" d="M232.129 194.643L232.757 193.921C232.757 193.921 235.98 199.025 236.316 200.954C236.652 202.883 237.087 205.093 237.087 205.093C237.087 205.093 237.903 207.595 238.437 208.703C238.891 209.541 239.246 210.428 239.495 211.348C239.539 211.833 239.302 212.891 240.31 213.553C241.319 214.214 241.561 216.055 241.561 216.055C241.561 216.055 245.219 219.621 247.148 219.715C249.076 219.808 254.602 220.773 254.415 221.737C254.227 222.702 256.723 223.281 257.72 223.518C258.717 223.755 251.23 226.659 255.638 230.368C255.638 230.368 252.844 230.919 252.558 231.619C252.271 232.319 249.335 231.234 249.335 231.234C249.335 231.234 248.707 229.74 246.542 229.646C244.376 229.553 243.269 228.588 243.269 228.439C243.269 228.29 241.104 227.094 239.903 226.758C238.702 226.422 237.109 226.273 237.06 225.937C237.01 225.601 229.843 194.643 229.843 194.643H232.129Z" fill="black"/>
<path d="M305.774 325.485C342.136 325.485 371.611 331.41 371.611 338.713C371.611 346.015 342.136 351.94 305.774 351.94C269.411 351.94 239.936 346.021 239.936 338.713" stroke="#444053" stroke-miterlimit="10"/>
<path d="M292.244 52.8866L282.961 51.3109L271.25 120.358L280.533 121.934L292.244 52.8866Z" fill="#444053"/>
<path d="M303.206 329.999L305.267 344.715L307.03 329.415L303.206 329.999Z" fill="#D0D2D5"/>
<path d="M237.016 321.759V330.886L239.076 338.828H240.547L242.316 330.297L243.197 319.996L237.016 321.759Z" fill="#3F3D56"/>
<path d="M232.823 286.155L237.231 287.037C237.231 287.037 232.234 300.866 235.76 303.809H230.179C230.179 303.809 228.118 293.216 232.823 286.155Z" fill="#D0D2D5"/>
<path opacity="0.1" d="M232.823 286.155L237.231 287.037C237.231 287.037 232.234 300.866 235.76 303.809H230.179C230.179 303.809 228.118 293.216 232.823 286.155Z" fill="black"/>
<path d="M262.315 119.891L248.195 209.348C248.195 209.348 227.314 304.696 235.253 323.529H245.258L275.262 140.493L262.315 119.891Z" fill="#D0D2D5"/>
<path d="M298.126 108.78L308.953 198.694C308.953 198.694 316.837 313.239 308.203 331.763H299.675L284.436 128.891L298.126 108.78Z" fill="#D0D2D5"/>
<path d="M260.999 87.2079C261.725 84.7656 263.238 82.6315 265.301 81.1367C267.364 79.6419 269.862 78.87 272.409 78.9407C281.119 79.1612 294.584 80.7485 301.609 87.9465C312.495 99.1292 294.254 136.795 294.254 136.795C294.254 136.795 277.174 168.282 261.605 128.263C261.583 128.296 255.125 106.867 260.999 87.2079Z" fill="#444053"/>
<path opacity="0.1" d="M260.999 87.2079C261.725 84.7656 263.238 82.6315 265.301 81.1367C267.364 79.6419 269.862 78.87 272.409 78.9407C281.119 79.1612 294.584 80.7485 301.609 87.9465C312.495 99.1292 294.254 136.795 294.254 136.795C294.254 136.795 277.174 168.282 261.605 128.263C261.583 128.296 255.125 106.867 260.999 87.2079Z" fill="black"/>
<path d="M266.987 94.8579C267.511 93.1229 268.59 91.6081 270.058 90.5466C271.526 89.485 273.303 88.9355 275.114 88.9827C281.312 89.1425 290.898 90.2723 295.884 95.398C303.636 103.357 290.65 130.175 290.65 130.175C290.65 130.175 278.529 152.59 267.4 124.113C267.4 124.096 262.8 108.857 266.987 94.8579Z" fill="#444053"/>
<path d="M297.14 324.019C297.234 325.441 297.454 326.935 298.352 328.048C299.84 329.889 302.545 330.032 304.859 330.611C306.636 331.119 308.359 331.799 310.005 332.639L315.013 335.009C313.729 335.083 312.463 335.347 311.256 335.792C310.611 336.029 309.906 336.42 309.812 337.092C309.8 337.373 309.873 337.65 310.021 337.888C310.17 338.126 310.387 338.314 310.644 338.426C311.167 338.642 311.731 338.741 312.297 338.718C315.28 338.802 318.264 338.645 321.222 338.25L321.575 338.2C323.095 338.953 324.609 339.723 326.114 340.509C326.743 340.84 327.497 340.509 328.026 340.047C328.672 339.475 329.242 338.823 329.723 338.106C329.811 338.261 329.899 338.41 329.971 338.558C330.456 339.49 330.913 340.708 330.219 341.502C329.668 342.119 328.627 342.224 328.313 342.973C328.227 343.244 328.231 343.535 328.323 343.804C328.415 344.073 328.591 344.305 328.825 344.467C329.304 344.783 329.856 344.973 330.428 345.018C331.791 345.205 333.173 345.194 334.533 344.985C335.27 344.933 335.968 344.636 336.516 344.142C336.985 343.503 337.233 342.729 337.221 341.937L338.164 331.228C338.249 330.72 338.212 330.198 338.053 329.707C337.679 328.798 336.593 328.417 335.613 328.257H335.508C336.323 328.257 337.161 328.219 338.042 328.219C338.81 328.268 339.581 328.171 340.312 327.932C341.712 327.381 342.466 325.91 343.067 324.554C344.169 322.173 345.436 319.593 345.271 316.948L344.841 316.755C344.802 313.939 343.623 311.31 343.188 308.559C343.666 307.821 343.921 306.959 343.921 306.079C343.864 305.112 343.654 304.159 343.298 303.257C341.552 298.066 339.805 292.857 337.469 287.897C335.958 284.594 334.112 281.454 331.96 278.528C331.398 277.793 330.814 277.058 330.208 276.323C329.767 275.816 328.781 275.099 328.599 274.455C328.417 273.81 328.803 273.181 328.599 272.52C328.547 272.348 328.481 272.18 328.401 272.018C329.69 270.31 329.326 267.841 328.875 265.713L328.324 263.062C328.206 262.331 327.975 261.623 327.641 260.962C327.286 260.396 326.841 259.892 326.324 259.469C323.613 257.022 320.263 255.396 317.217 253.368C313.994 251.224 311.112 248.617 308.225 246.043C307.344 245.26 306.236 244.417 305.096 244.748C303.956 245.078 303.482 246.313 303.443 247.437C303.433 248.217 303.587 248.99 303.895 249.706C304.204 250.422 304.66 251.065 305.234 251.593C307.228 253.417 310.242 253.566 312.616 254.856C313.432 255.33 314.208 255.87 314.936 256.471L321.834 261.888C322.357 262.201 322.741 262.702 322.908 263.288C322.935 263.642 322.878 263.997 322.743 264.324C322.484 265.118 322.043 266.116 321.718 267.124L321.167 266.727C320.025 265.874 318.802 265.135 317.514 264.523C315.807 263.825 314.003 263.392 312.165 263.239C308.093 262.781 304.451 263.41 301.961 266.81C301.445 267.587 300.789 268.262 300.027 268.8C299.463 269.063 298.935 269.398 298.457 269.797C297.179 271.214 297.906 273.562 299.107 274.758C300.124 275.703 301.376 276.356 302.732 276.648C303.48 278.317 304.815 279.652 306.483 280.4C308.151 281.148 310.036 281.257 311.779 280.705C311.864 281.414 311.881 282.13 311.829 282.843C311.802 283.21 311.858 283.578 311.993 283.92C312.127 284.263 312.336 284.571 312.605 284.822C312.895 285.019 313.215 285.168 313.553 285.263C314.772 285.704 315.926 286.306 316.985 287.054C315.741 288.402 314.715 289.936 313.944 291.601C313.47 292.706 313.273 293.91 313.369 295.108C313.465 296.307 313.851 297.464 314.495 298.479L314.528 298.523C314.435 298.867 314.264 299.184 314.027 299.449C313.691 299.711 313.267 299.834 312.843 299.791C312.419 299.747 312.028 299.542 311.751 299.218C311.279 298.659 310.879 298.042 310.561 297.382C310.016 296.492 309.296 295.721 308.443 295.119C307.591 294.516 306.624 294.093 305.603 293.877C304.848 293.684 304.053 293.716 303.316 293.971C302.954 294.101 302.637 294.332 302.401 294.636C302.166 294.941 302.023 295.307 301.989 295.69C301.989 296.522 302.595 297.211 303.19 297.801C305.015 299.695 307.048 301.378 309.25 302.817C309.85 303.188 310.47 303.526 311.107 303.831C310.005 303.599 308.918 303.373 307.845 303.153C306.342 302.778 304.79 302.642 303.245 302.75C302.474 302.811 301.727 303.044 301.059 303.434C300.392 303.823 299.82 304.358 299.388 304.999C298.781 306.153 298.652 307.499 299.03 308.747C299.412 309.984 299.983 311.156 300.721 312.219C301.881 314.168 303.303 315.949 304.947 317.51C303.57 317.923 302.193 318.375 300.848 318.871C299.504 319.367 298.093 319.974 297.476 321.208C297.114 322.098 296.998 323.069 297.14 324.019ZM317.421 305.28H317.47C317.763 305.148 318.013 304.936 318.192 304.668C319.03 303.548 319.623 302.263 319.933 300.899C320.253 300.855 320.567 300.776 320.87 300.662C320.664 300.858 320.5 301.094 320.388 301.355C320.276 301.617 320.219 301.898 320.219 302.183L323.327 303.704C323.551 303.788 323.743 303.941 323.878 304.139C323.963 304.345 323.984 304.572 323.938 304.79C323.85 305.501 323.712 306.212 323.624 306.917C322.693 306.642 321.779 306.421 320.958 306.201C319.79 305.881 318.605 305.583 317.421 305.286V305.28Z" fill="url(#paint1_linear_50_236)"/>
<path d="M317.999 276.003C318.781 276.199 319.594 276.234 320.389 276.106C321.185 275.978 321.946 275.69 322.627 275.259C322.899 275.068 323.203 274.926 323.525 274.84C323.81 274.815 324.098 274.857 324.364 274.964C324.63 275.07 324.867 275.237 325.057 275.452C326.379 276.769 326.533 278.941 325.85 280.677C325.167 282.413 323.795 283.78 322.357 284.965C321.196 285.922 319.968 286.795 318.682 287.577C318.328 286.747 317.813 285.996 317.166 285.366C316.519 284.737 315.753 284.243 314.914 283.912C313.404 283.328 312.302 281.763 311.437 280.396C310.793 279.382 310.22 279.426 310.798 278.379C311.451 277.373 312.221 276.448 313.09 275.623C313.564 275.121 313.978 274.566 314.324 273.97C314.71 273.275 314.622 272.823 315.217 273.374C315.608 273.738 315.768 274.526 316.219 274.951C316.721 275.438 317.331 275.798 317.999 276.003V276.003Z" fill="#FABDBD"/>
<path d="M322.732 265.256C322.86 264.932 322.915 264.584 322.891 264.236C322.726 263.659 322.351 263.166 321.839 262.853L315.101 257.507C314.394 256.914 313.638 256.381 312.842 255.914C310.517 254.641 307.581 254.492 305.63 252.695C305.069 252.17 304.624 251.534 304.322 250.827C304.021 250.12 303.87 249.358 303.878 248.589C303.878 247.487 304.429 246.241 305.471 245.933C306.512 245.624 307.674 246.44 308.534 247.217C311.349 249.752 314.159 252.326 317.305 254.442C320.28 256.449 323.558 258.047 326.208 260.466C326.691 260.878 327.106 261.363 327.437 261.905C327.76 262.561 327.985 263.261 328.103 263.983L328.654 266.595C329.117 268.8 329.492 271.363 328.01 273.055C327.794 273.326 327.521 273.546 327.211 273.699C326.9 273.852 326.56 273.935 326.214 273.942C325.725 273.882 325.254 273.721 324.831 273.468C323.729 272.917 321.734 272.366 321.398 270.988C320.969 269.263 322.208 266.854 322.732 265.256Z" fill="#FABDBD"/>
<path d="M311.983 299.703C311.523 299.15 311.132 298.543 310.82 297.895C310.292 297.018 309.591 296.259 308.759 295.664C307.927 295.069 306.982 294.65 305.983 294.434C305.255 294.25 304.49 294.28 303.779 294.522C303.424 294.653 303.113 294.883 302.883 295.184C302.654 295.486 302.516 295.847 302.484 296.225C302.484 297.041 303.074 297.724 303.652 298.303C305.434 300.175 307.423 301.839 309.58 303.263C311.741 304.68 314.219 305.54 316.792 305.765C317.052 305.797 317.315 305.773 317.564 305.694C317.849 305.561 318.093 305.354 318.269 305.093C319.635 303.34 320.109 301.064 320.473 298.876C320.34 299.664 315.905 297.823 315.404 298.06C314.666 298.407 314.737 299.444 314.203 299.94C313.876 300.199 313.46 300.32 313.044 300.276C312.629 300.231 312.248 300.026 311.983 299.703V299.703Z" fill="#FABDBD"/>
<path d="M344.296 317.02C344.321 317.295 344.267 317.572 344.141 317.819C343.838 318.293 343.155 318.298 342.599 318.216C341.314 317.999 340.045 317.693 338.803 317.301L327.492 314.032C327.312 313.998 327.145 313.916 327.007 313.795C326.887 313.654 326.809 313.482 326.781 313.299C326.388 311.676 326.304 309.993 326.533 308.339C326.547 308.1 326.625 307.87 326.759 307.672C327.014 307.437 327.35 307.311 327.696 307.319C329.467 307.14 331.248 307.059 333.029 307.077C334.184 307.126 335.342 307.1 336.494 307C337.982 306.823 339.695 305.969 341.188 306.101C342.483 306.212 342.428 307.204 342.56 308.306C342.929 311.233 344.268 314.032 344.296 317.02Z" fill="#FABDBD"/>
<path d="M308.181 303.588C306.714 303.214 305.196 303.078 303.686 303.186C302.933 303.245 302.203 303.475 301.551 303.856C300.9 304.238 300.343 304.763 299.923 305.39C299.323 306.531 299.196 307.861 299.57 309.094C299.948 310.311 300.505 311.464 301.223 312.517C302.494 314.716 304.127 316.683 306.055 318.337C307.019 319.103 308.082 319.737 309.008 320.541C310.98 322.267 312.203 324.675 313.377 327.017C314.479 329.222 315.58 331.471 316.054 333.896C316.058 333.989 316.081 334.081 316.122 334.165C316.163 334.25 316.22 334.325 316.291 334.386C316.444 334.46 316.62 334.472 316.781 334.419L322.208 333.416C322.362 333.423 322.514 333.387 322.649 333.314C322.784 333.24 322.897 333.132 322.975 332.999C323.053 332.867 323.094 332.716 323.092 332.562C323.091 332.408 323.049 332.258 322.969 332.127C321.791 327.064 319.588 322.298 316.495 318.122C317.932 319.48 319.673 320.476 321.572 321.026C323.471 321.577 325.474 321.665 327.415 321.285C328.173 321.178 328.889 320.867 329.486 320.387C330.698 319.285 330.643 317.405 330.373 315.802C330.13 314.372 329.795 312.96 329.371 311.574C328.351 308.267 323.955 307.375 320.974 306.57C316.743 305.449 312.479 304.455 308.181 303.588Z" fill="#3F3D56"/>
<path opacity="0.1" d="M312.198 315.306C312.972 315.612 313.674 316.078 314.258 316.672C313.283 315.57 310.495 315.019 309.129 314.506C307.438 313.878 305.592 313.233 304.17 312.114C306.92 312.982 309.603 314.048 312.198 315.306Z" fill="black"/>
<path d="M329.773 338.536C330.241 339.462 330.687 340.658 330.015 341.446C329.497 342.053 328.461 342.157 328.153 342.896C328.068 343.163 328.071 343.451 328.161 343.717C328.252 343.982 328.424 344.212 328.654 344.373C329.119 344.689 329.658 344.879 330.219 344.924C331.55 345.106 332.901 345.095 334.23 344.891C334.949 344.838 335.63 344.545 336.164 344.059C336.627 343.419 336.869 342.645 336.852 341.854L337.772 331.283C337.854 330.78 337.818 330.265 337.668 329.779C337.299 328.88 336.241 328.511 335.282 328.351C334.21 328.169 333.12 328.125 332.037 328.219C331.306 328.229 330.598 328.472 330.015 328.913C329.474 329.53 329.14 330.301 329.062 331.118C328.814 332.375 328.12 334.116 328.269 335.389C328.362 336.442 329.31 337.61 329.773 338.536Z" fill="#15BAC0"/>
<path d="M317.608 335.119C315.542 334.85 313.441 335.086 311.487 335.808C310.859 336.04 310.17 336.431 310.076 337.092C310.064 337.369 310.135 337.642 310.28 337.877C310.426 338.112 310.639 338.298 310.892 338.41C311.404 338.622 311.957 338.722 312.512 338.702C315.425 338.779 318.339 338.624 321.227 338.239C321.978 338.19 322.705 337.961 323.349 337.572C323.667 337.37 323.906 337.065 324.027 336.708C324.149 336.351 324.144 335.964 324.015 335.61C323.668 334.882 322.721 334.656 322.263 334C321.933 333.526 321.85 332.826 321.332 332.578C320.941 332.454 320.516 332.486 320.148 332.667C319.597 332.86 318.274 333.052 317.894 333.51C317.73 334.032 317.633 334.573 317.608 335.119Z" fill="#15BAC0"/>
<path d="M309.806 281.785C313.802 281.785 317.04 278.545 317.04 274.548C317.04 270.552 313.802 267.312 309.806 267.312C305.811 267.312 302.573 270.552 302.573 274.548C302.573 278.545 305.811 281.785 309.806 281.785Z" fill="#FABDBD"/>
<path d="M326.963 271.363C325.8 270.508 324.335 270.216 322.919 269.952C322.441 269.803 321.925 269.828 321.464 270.023C321.16 270.244 320.919 270.54 320.765 270.883C320.328 271.591 320.005 272.363 319.806 273.17C319.709 273.575 319.708 273.997 319.804 274.402C319.9 274.807 320.089 275.183 320.357 275.502C320.787 275.943 321.404 276.163 321.845 276.604C322.13 276.923 322.338 277.304 322.451 277.718C322.564 278.131 322.579 278.565 322.495 278.985C322.317 279.821 321.99 280.618 321.53 281.338C320.468 283.212 319.256 284.996 317.905 286.673C316.5 288.421 314.925 290.102 314.098 292.185C313.638 293.278 313.447 294.465 313.543 295.647C313.639 296.83 314.018 297.971 314.649 298.975C315.988 300.926 318.655 301.973 320.864 301.13C320.663 301.324 320.503 301.557 320.395 301.815C320.287 302.073 320.233 302.35 320.236 302.629L323.266 304.134C323.49 304.216 323.682 304.367 323.817 304.564C323.898 304.767 323.917 304.989 323.872 305.203C323.634 306.425 323.511 307.667 323.503 308.912C323.585 310.152 324.153 311.459 325.277 311.999C326.307 312.495 327.53 312.23 328.654 311.999C331.279 311.467 333.948 311.186 336.626 311.161C337.96 311.161 339.337 311.194 340.566 310.676C341.389 310.313 342.09 309.72 342.586 308.968C343.081 308.216 343.35 307.338 343.359 306.438C343.304 305.481 343.098 304.54 342.747 303.649C341.045 298.523 339.337 293.386 337.056 288.487C335.57 285.226 333.76 282.124 331.651 279.227C331.1 278.494 330.549 277.772 329.938 277.073C329.508 276.571 328.544 275.866 328.368 275.226C328.191 274.587 328.566 273.97 328.368 273.319C328.12 272.534 327.628 271.848 326.963 271.363Z" fill="#15BAC0"/>
<path d="M344.714 317.168C341.541 315.702 338.367 314.236 335.067 313.095C332.638 312.258 329.927 311.602 327.541 312.544C326.825 312.831 326.175 313.244 325.486 313.58C323.178 314.683 320.528 314.87 317.977 315.151C312.3 315.791 306.723 317.117 301.366 319.103C300.082 319.577 298.699 320.205 298.06 321.407C297.699 322.277 297.577 323.229 297.708 324.162C297.801 325.568 298.016 327.045 298.892 328.142C300.347 329.96 302.986 330.098 305.245 330.671C306.983 331.175 308.667 331.847 310.275 332.678C315.553 335.196 320.836 337.715 326.015 340.443C326.621 340.768 327.36 340.443 327.877 339.986C329.438 338.537 330.563 336.682 331.128 334.629C331.689 332.586 331.968 330.475 331.954 328.357C333.982 328.357 335.629 328.268 337.657 328.268C338.402 328.315 339.15 328.22 339.86 327.987C341.221 327.436 341.96 325.987 342.571 324.653C343.662 322.3 344.891 319.748 344.714 317.168Z" fill="#3F3D56"/>
<path opacity="0.1" d="M307.867 324.703C309.294 324.008 310.947 323.992 312.539 324.003C313.51 323.985 314.48 324.059 315.437 324.223C316.899 324.613 318.318 325.146 319.674 325.816C323.053 327.234 326.687 327.947 330.351 327.91" fill="black"/>
<path d="M299.636 275.573C300.727 276.579 302.079 277.258 303.537 277.53C304.969 277.861 306.446 277.987 307.889 278.307C309.663 278.698 311.603 279.635 312.005 281.41C312.098 282.121 312.116 282.839 312.06 283.554C312.034 283.911 312.087 284.27 312.215 284.605C312.344 284.939 312.545 285.241 312.804 285.489C313.088 285.681 313.4 285.828 313.729 285.924C316.619 287.029 319.11 288.978 320.879 291.518C322.647 294.058 323.612 297.071 323.646 300.166C324.554 299.636 325.331 298.91 325.92 298.04C326.51 297.17 326.896 296.178 327.051 295.139C327.051 297.057 328.704 298.997 327.767 300.711C328.789 300.043 329.661 299.17 330.328 298.148C330.995 297.125 331.442 295.975 331.641 294.77C331.841 293.566 331.788 292.333 331.486 291.149C331.184 289.966 330.64 288.859 329.888 287.897C329.161 286.971 328.236 286.199 327.475 285.312C326.396 284.066 325.585 282.61 325.094 281.035C324.603 279.461 324.442 277.802 324.621 276.163C324.781 274.769 325.172 273.358 324.88 271.985C324.456 270.084 322.787 268.761 321.2 267.631C320.085 266.791 318.889 266.064 317.63 265.46C315.963 264.769 314.199 264.34 312.402 264.187C308.429 263.74 304.898 264.358 302.435 267.714C301.936 268.481 301.297 269.147 300.551 269.676C299.998 269.937 299.481 270.269 299.014 270.663C297.752 272.063 298.468 274.377 299.636 275.573Z" fill="#3F3D56"/>
<path d="M225.336 194.88C225.11 194.786 209.408 188.299 211.562 187.01C212.846 186.243 214.427 183.003 215.507 180.462C216.262 178.693 216.774 177.26 216.774 177.26C216.774 177.26 229.38 175.022 224.868 182.771C224.157 183.958 223.62 185.24 223.275 186.58C221.975 191.816 225.209 194.781 225.336 194.88Z" fill="#A1616A"/>
<path opacity="0.1" d="M224.851 182.749C224.14 183.935 223.604 185.218 223.259 186.558C221.66 186.444 220.123 185.896 218.813 184.973C217.502 184.051 216.468 182.788 215.821 181.322C215.694 181.042 215.583 180.755 215.49 180.462C216.245 178.693 216.758 177.26 216.758 177.26C216.758 177.26 229.363 175.022 224.851 182.749Z" fill="black"/>
<path d="M232.685 177.48C232.676 179.496 231.977 181.449 230.704 183.011C229.43 184.574 227.66 185.653 225.688 186.069C223.716 186.485 221.661 186.212 219.866 185.296C218.07 184.38 216.643 182.876 215.821 181.035C215.324 179.916 215.069 178.705 215.072 177.48C215.083 175.363 215.855 173.321 217.247 171.726C218.639 170.131 220.558 169.091 222.653 168.795C224.749 168.498 226.881 168.966 228.66 170.113C230.439 171.259 231.747 173.008 232.344 175.039C232.57 175.833 232.685 176.655 232.685 177.48Z" fill="#A1616A"/>
<path opacity="0.1" d="M241.181 245.74C240.55 246.427 240.11 247.266 239.903 248.176C239.903 248.176 235.572 251.136 235.859 249.278C236.145 247.421 233.6 239.798 233.6 239.798L233.886 250.127C233.886 250.127 220.03 249.477 219.011 248.473C217.992 247.47 212.113 245.503 212.113 245.503C212.113 245.503 210.3 246.958 208.631 248.06C208.411 246.815 208.251 245.718 208.251 245.718L214.207 240.917L229.082 237.015L234.669 235.218L240.118 243.811C240.118 243.811 240.68 244.704 241.181 245.74Z" fill="black"/>
<path d="M241.633 244.924C240.481 245.646 240.046 247.597 240.046 247.597C240.046 247.597 235.716 250.557 236.002 248.699C236.289 246.842 233.765 239.242 233.765 239.242L234.057 249.57C234.057 249.57 220.195 248.92 219.182 247.917C218.168 246.914 212.251 244.957 212.251 244.957C212.251 244.957 207.127 249.074 206.191 248.71C205.254 248.347 207.843 241.347 207.843 241.347L210.51 200.331C210.51 200.331 209.788 188.128 210.874 187.693C211.041 187.627 211.194 187.529 211.325 187.406C212.042 186.767 212.256 185.466 212.317 184.37C212.389 183.074 214.119 183.719 214.119 183.719L213.11 185.02L222.058 190.46L222.135 190.509C222.493 190.325 222.861 190.162 223.237 190.019C224.03 189.716 225.082 189.429 225.771 189.716C226.156 189.913 226.482 190.208 226.719 190.57C227.23 191.336 227.64 192.166 227.936 193.039L231.187 198.523C231.187 198.523 232.84 205.82 232.84 206.107C232.84 206.393 233.347 213.04 233.942 213.762C234.537 214.484 235.099 218.094 234.884 219.18C234.669 220.266 235.242 224.306 235.242 224.306C237.627 226.257 238.85 232.898 238.85 232.898C238.85 232.898 242.608 240.339 242.894 241.204C243.181 242.069 242.79 244.202 241.633 244.924Z" fill="#444053"/>
<path opacity="0.1" d="M222.069 190.719C221.187 192.02 218.653 193.844 218.653 193.844L211.336 187.665C212.053 187.026 212.268 185.72 212.328 184.629C212.4 183.328 214.13 183.978 214.13 183.978L213.92 184.248C213.82 184.378 213.749 184.527 213.71 184.687C213.672 184.846 213.667 185.011 213.697 185.173C213.727 185.334 213.79 185.487 213.882 185.622C213.975 185.757 214.095 185.871 214.234 185.957L222.069 190.719Z" fill="black"/>
<path d="M222.069 190.427C221.187 191.727 218.653 193.557 218.653 193.557L211.336 187.373C212.053 186.734 212.268 185.433 212.328 184.337C212.4 183.041 214.13 183.686 214.13 183.686L213.92 183.956C213.82 184.086 213.749 184.235 213.71 184.395C213.672 184.554 213.667 184.719 213.697 184.88C213.727 185.042 213.79 185.195 213.882 185.33C213.975 185.465 214.095 185.579 214.234 185.665L222.069 190.427Z" fill="#444053"/>
<path opacity="0.1" d="M225.452 191.402C224.504 192.532 223.165 193.816 223.248 193.171C223.331 192.527 222.449 191.11 221.904 190.476C222.761 190.206 223.684 190.232 224.526 190.548C224.903 190.748 225.222 191.043 225.452 191.402V191.402Z" fill="black"/>
<path d="M225.595 190.967C224.647 192.102 223.308 193.381 223.391 192.742C223.474 192.102 222.68 191.055 222.129 190.421C222.923 190.118 223.975 189.831 224.664 190.118C225.043 190.314 225.365 190.607 225.595 190.967V190.967Z" fill="#444053"/>
<path opacity="0.1" d="M211.342 187.732C211.342 187.732 211.436 186.866 210.185 188.36C209.135 189.455 207.928 190.388 206.604 191.127C206.604 191.127 201.265 194.885 200.973 196.638C200.681 198.391 198.951 205.881 199.871 208.383C200.791 210.885 207.766 222.878 207.766 222.878C207.766 222.878 205.937 225.044 206.367 227.596C206.797 230.148 207.331 233.659 207.089 234.43C206.846 235.202 207.381 237.125 206.538 237.798C205.695 238.47 204.857 239.628 207.408 241.171C207.408 241.171 207.887 242.471 207.452 242.758C207.017 243.045 213.854 246.032 216.548 244.445C219.242 242.857 224.107 230.148 224.201 227.304C224.295 224.46 222.708 215.079 221.843 212.864C220.978 210.648 218.377 202.028 217.27 200.105C216.163 198.181 211.342 187.732 211.342 187.732Z" fill="black"/>
<path d="M211.05 187.732C211.05 187.732 211.149 186.866 209.898 188.36C208.842 189.465 207.625 190.405 206.29 191.149C206.29 191.149 200.946 194.908 200.659 196.66C200.373 198.413 198.637 205.903 199.557 208.405C200.477 210.907 207.447 222.9 207.447 222.9C207.447 222.9 205.618 225.066 206.053 227.618C206.488 230.17 207.017 233.681 206.775 234.452C206.532 235.224 207.061 237.147 206.224 237.82C205.386 238.492 204.538 239.65 207.089 241.193C207.089 241.193 207.573 242.494 207.138 242.78C206.703 243.067 213.54 246.054 216.234 244.467C218.928 242.879 223.788 230.17 223.887 227.326C223.986 224.482 222.394 215.102 221.529 212.886C220.664 210.67 218.063 202.05 216.956 200.127C215.849 198.203 211.05 187.732 211.05 187.732Z" fill="#15BAC0"/>
<path opacity="0.1" d="M209.127 195.916C209.127 195.916 213.265 200.491 213.121 203.522C213.121 203.522 213.171 198.611 209.127 195.916Z" fill="black"/>
<path opacity="0.1" d="M223.094 189.368C223.094 189.368 225.777 187.715 229.154 191.92C229.154 191.92 231.606 193.315 232.327 193.656C233.049 193.998 233.87 202.943 233.87 202.943C233.87 202.943 235.457 206.801 235.022 209.006C234.586 211.21 236.278 218.827 236.278 218.827C236.278 218.827 239.065 232.501 238.972 232.882C238.878 233.262 236.129 228.599 236.179 226.268C236.228 223.936 233.87 216.733 233.534 216.303C233.198 215.873 230.884 203.494 230.884 203.494C230.884 203.494 229.011 198.247 227.804 196.517C226.598 194.786 225.11 191.507 224.499 190.928C224.05 190.541 223.549 190.218 223.011 189.969L223.094 189.368Z" fill="black"/>
<path d="M223.06 189.368C223.06 189.368 226.069 187.715 229.435 191.92C229.435 191.92 231.892 193.315 232.614 193.656C233.336 193.998 234.151 202.943 234.151 202.943C234.151 202.943 235.738 206.801 235.308 209.006C234.878 211.21 236.559 218.827 236.559 218.827C236.559 218.827 239.352 232.501 239.253 232.882C239.154 233.262 236.415 228.599 236.459 226.268C236.503 223.936 234.151 216.733 233.815 216.303C233.479 215.873 231.17 203.494 231.17 203.494C231.17 203.494 229.292 198.292 228.091 196.544C226.89 194.797 225.391 191.535 224.785 190.956C224.25 190.538 223.648 190.214 223.005 189.997L223.06 189.368Z" fill="#15BAC0"/>
<path d="M236.272 219.456C236.272 219.456 241.996 215.702 244.762 217.554C247.528 219.406 252.056 222.035 247.605 223.936C243.153 225.838 236.994 225.474 236.994 225.474L236.272 219.456Z" fill="#A1616A"/>
<path opacity="0.1" d="M232.289 255.683C231.435 257.518 230.73 266.705 230.25 269.638C229.567 268.464 228.741 267.064 228.46 266.623C227.814 265.228 227.253 263.796 226.779 262.335C227.33 261.012 228.823 257.22 228.823 255.831C228.823 254.134 231.578 252.001 231.578 252.001C232.07 252.46 232.405 253.064 232.532 253.726C232.66 254.388 232.575 255.073 232.289 255.683V255.683Z" fill="black"/>
<path opacity="0.1" d="M232.344 175.039C232.206 175.11 232.062 175.169 231.914 175.215C231.236 175.397 230.575 174.939 229.975 174.576C229.374 174.212 228.542 173.942 228.019 174.416C227.341 175.033 227.832 176.35 227.132 176.946C226.691 177.326 225.992 177.194 225.479 177.497C224.967 177.8 224.84 178.489 224.713 179.073C224.587 179.657 224.344 180.33 223.766 180.501C223.187 180.671 222.664 180.297 222.113 180.313C221.997 180.313 221.859 180.313 221.782 180.247C221.731 180.171 221.711 180.078 221.727 179.988C221.796 179.286 221.732 178.578 221.54 177.899C221.439 177.56 221.25 177.255 220.993 177.013C220.735 176.77 220.419 176.601 220.074 176.521C219.061 176.367 218.207 177.254 217.612 178.092C216.987 178.974 216.418 179.894 215.909 180.848C215.882 180.897 215.854 180.964 215.821 181.041C215.324 179.922 215.069 178.71 215.072 177.486C215.083 175.369 215.855 173.326 217.247 171.732C218.639 170.137 220.558 169.096 222.653 168.8C224.749 168.504 226.881 168.972 228.66 170.118C230.439 171.265 231.747 173.013 232.344 175.044V175.039Z" fill="black"/>
<path d="M217.623 177.954C218.218 177.116 219.072 176.229 220.085 176.383C220.429 176.463 220.745 176.632 221.002 176.873C221.259 177.114 221.449 177.418 221.551 177.756C221.743 178.434 221.805 179.143 221.733 179.845C221.72 179.937 221.742 180.031 221.793 180.109C221.87 180.197 222.008 180.181 222.124 180.175C222.675 180.175 223.253 180.523 223.777 180.363C224.3 180.203 224.603 179.519 224.724 178.935C224.845 178.351 224.983 177.679 225.49 177.359C225.997 177.039 226.686 177.177 227.143 176.808C227.843 176.213 227.352 174.89 228.03 174.278C228.553 173.804 229.385 174.074 229.986 174.438C230.586 174.802 231.247 175.259 231.925 175.077C232.149 174.997 232.368 174.903 232.581 174.796C233.655 174.388 235.043 175.083 235.919 174.35C236.239 174.029 236.469 173.63 236.586 173.192C236.829 172.605 236.992 171.988 237.071 171.357C237.15 170.718 236.976 170.073 236.586 169.56C236.035 168.888 235.043 168.717 234.311 168.221C233.717 167.754 233.224 167.17 232.862 166.507C232.5 165.843 232.022 165.25 231.451 164.754C231.162 164.511 230.811 164.351 230.437 164.293C230.063 164.234 229.68 164.28 229.33 164.424C229.119 164.572 228.884 164.682 228.636 164.749C228.366 164.755 228.1 164.682 227.87 164.539C225.369 163.36 222.454 163.569 219.711 163.922C218.604 164.009 217.518 164.272 216.493 164.699C215.982 164.915 215.523 165.24 215.148 165.65C214.774 166.06 214.492 166.546 214.322 167.075C214.102 167.923 214.273 168.844 214.003 169.681C213.821 170.233 213.452 170.734 213.232 171.291C212.648 172.812 213.347 174.487 213.645 176.091C213.97 177.844 213.804 179.74 214.548 181.399C214.697 181.724 214.857 182.292 215.226 182.077C215.496 181.917 215.777 180.974 215.915 180.704C216.427 179.754 216.998 178.835 217.623 177.954V177.954Z" fill="#3F3D56"/>
<path opacity="0.1" d="M201.767 206.173L200.466 209.866C200.466 209.866 203.546 221.324 204.99 223.733C206.433 226.141 208.549 229.244 208.549 229.244C210.966 230.329 213.653 230.664 216.262 230.203C220.399 229.387 232.476 227.221 232.476 227.221C232.762 227.273 233.056 227.246 233.327 227.144C233.599 227.043 233.838 226.869 234.019 226.643C234.57 225.871 237.291 225.485 237.291 225.485C237.291 225.485 240.465 220.867 236.57 218.938C236.57 218.938 236.09 220.001 234.019 219.274C231.947 218.546 231.325 219.852 231.325 219.852C231.325 219.852 227.953 220.53 226.08 220.288C224.206 220.045 219.534 219.952 219.05 219.566C218.99 219.512 218.92 219.471 218.844 219.444C218.768 219.418 218.687 219.406 218.607 219.411C218.526 219.416 218.448 219.436 218.375 219.471C218.303 219.506 218.238 219.555 218.185 219.615C217.627 219.414 217.107 219.12 216.648 218.745C216.262 218.315 215.733 219.23 215.733 219.23C215.733 219.23 215.055 218.844 215.248 218.364C215.441 217.885 214.626 216.05 214.626 216.05C214.408 215.349 214.359 214.607 214.482 213.884C214.719 212.919 213.276 209.474 213.276 209.474C213.258 208.889 213.323 208.305 213.469 207.738C213.711 206.873 211.639 205.137 211.639 205.137C211.639 205.137 209.617 195.321 205.337 198.523C201.056 201.725 201.767 206.173 201.767 206.173Z" fill="black"/>
<path d="M201.475 206.173L200.174 209.866C200.174 209.866 203.254 221.324 204.698 223.733C206.141 226.141 208.262 229.244 208.262 229.244C210.679 230.331 213.366 230.666 215.975 230.203C220.118 229.387 232.195 227.221 232.195 227.221C232.481 227.273 232.775 227.246 233.046 227.144C233.318 227.043 233.557 226.869 233.738 226.643C234.289 225.871 237.01 225.485 237.01 225.485C237.01 225.485 240.184 220.867 236.289 218.938C236.289 218.938 235.804 220.001 233.738 219.274C231.672 218.546 231.038 219.852 231.038 219.852C231.038 219.852 227.672 220.53 225.793 220.288C223.914 220.045 219.248 219.952 218.769 219.566C218.709 219.512 218.639 219.471 218.563 219.444C218.487 219.418 218.406 219.406 218.326 219.411C218.246 219.416 218.167 219.436 218.094 219.471C218.022 219.506 217.957 219.555 217.904 219.615C217.344 219.415 216.822 219.12 216.361 218.745C215.975 218.315 215.446 219.23 215.446 219.23C215.446 219.23 214.774 218.844 214.967 218.364C215.16 217.885 214.339 216.05 214.339 216.05C214.125 215.348 214.076 214.607 214.196 213.884C214.438 212.919 212.995 209.474 212.995 209.474C212.974 208.889 213.039 208.304 213.188 207.738C213.425 206.873 211.358 205.137 211.358 205.137C211.358 205.137 209.337 195.321 205.056 198.523C200.775 201.725 201.475 206.173 201.475 206.173Z" fill="#15BAC0"/>
<path opacity="0.1" d="M213.364 217.339C213.364 217.339 208.648 218.304 210.234 219.119C211.821 219.935 213.364 217.339 213.364 217.339Z" fill="black"/>
<g opacity="0.1">
<path d="M221.54 176.94C221.44 176.602 221.251 176.296 220.994 176.055C220.736 175.814 220.419 175.645 220.074 175.568C219.061 175.413 218.207 176.301 217.612 177.133C216.987 178.016 216.417 178.936 215.904 179.889C215.75 180.175 215.485 181.101 215.215 181.261C214.846 181.476 214.664 180.903 214.537 180.578C213.794 178.924 213.987 177.023 213.634 175.27C213.374 174.251 213.166 173.219 213.011 172.178C212.901 173.435 213.397 174.758 213.634 176.036C213.959 177.789 213.794 179.685 214.537 181.344C214.686 181.669 214.846 182.237 215.215 182.022C215.485 181.862 215.766 180.919 215.904 180.655C216.415 179.702 216.986 178.781 217.612 177.899C218.207 177.061 219.061 176.174 220.074 176.334C220.419 176.412 220.736 176.58 220.994 176.821C221.251 177.062 221.44 177.368 221.54 177.706C221.659 178.062 221.724 178.434 221.733 178.809C221.788 178.179 221.723 177.545 221.54 176.94V176.94Z" fill="black"/>
<path d="M236.575 172.388C236.459 172.824 236.229 173.221 235.909 173.54C235.033 174.273 233.644 173.584 232.57 173.991C232.349 174.074 232.146 174.206 231.914 174.273C231.237 174.449 230.575 173.997 229.975 173.633C229.374 173.269 228.542 172.994 228.019 173.468C227.341 174.085 227.832 175.402 227.132 175.998C226.691 176.378 225.992 176.246 225.479 176.549C224.967 176.852 224.84 177.535 224.713 178.12C224.587 178.704 224.344 179.376 223.766 179.547C223.187 179.718 222.664 179.343 222.113 179.365C221.997 179.365 221.859 179.365 221.782 179.299C221.763 179.279 221.75 179.254 221.744 179.227C221.744 179.42 221.744 179.613 221.744 179.806C221.732 179.897 221.754 179.989 221.804 180.065C221.882 180.153 222.019 180.137 222.135 180.137C222.686 180.137 223.264 180.478 223.788 180.319C224.311 180.159 224.614 179.481 224.735 178.891C224.857 178.301 224.994 177.64 225.501 177.32C226.008 177.001 226.697 177.139 227.154 176.769C227.854 176.174 227.363 174.857 228.041 174.239C228.564 173.766 229.396 174.036 229.997 174.399C230.597 174.763 231.259 175.221 231.936 175.039C232.159 174.958 232.378 174.866 232.592 174.763C233.666 174.355 235.055 175.044 235.931 174.311C236.25 173.992 236.48 173.595 236.597 173.159C236.839 172.57 237.003 171.951 237.082 171.318C237.107 171.104 237.107 170.888 237.082 170.674C236.976 171.262 236.806 171.837 236.575 172.388V172.388Z" fill="black"/>
</g>
<path d="M140.491 316.05C152.942 316.05 163.035 314.108 163.035 311.712C163.035 309.316 152.942 307.375 140.491 307.375C128.04 307.375 117.946 309.316 117.946 311.712C117.946 314.108 128.04 316.05 140.491 316.05Z" fill="#15BAC0"/>
<path d="M140.116 313.31C141.564 313.31 142.738 311.771 142.738 309.871C142.738 307.972 141.564 306.432 140.116 306.432C138.668 306.432 137.493 307.972 137.493 309.871C137.493 311.771 138.668 313.31 140.116 313.31Z" fill="#3F3D56"/>
<path d="M140.116 309.111C141.564 309.111 142.738 307.571 142.738 305.671C142.738 303.772 141.564 302.232 140.116 302.232C138.668 302.232 137.493 303.772 137.493 305.671C137.493 307.571 138.668 309.111 140.116 309.111Z" fill="#3F3D56"/>
<path d="M140.116 304.911C141.564 304.911 142.738 303.371 142.738 301.472C142.738 299.572 141.564 298.033 140.116 298.033C138.668 298.033 137.493 299.572 137.493 301.472C137.493 303.371 138.668 304.911 140.116 304.911Z" fill="#3F3D56"/>
<path d="M140.116 300.706C141.564 300.706 142.738 299.166 142.738 297.266C142.738 295.367 141.564 293.827 140.116 293.827C138.668 293.827 137.493 295.367 137.493 297.266C137.493 299.166 138.668 300.706 140.116 300.706Z" fill="#3F3D56"/>
<path d="M140.116 296.506C141.564 296.506 142.738 294.966 142.738 293.067C142.738 291.167 141.564 289.628 140.116 289.628C138.668 289.628 137.493 291.167 137.493 293.067C137.493 294.966 138.668 296.506 140.116 296.506Z" fill="#3F3D56"/>
<path d="M140.116 292.306C141.564 292.306 142.738 290.766 142.738 288.867C142.738 286.968 141.564 285.428 140.116 285.428C138.668 285.428 137.493 286.968 137.493 288.867C137.493 290.766 138.668 292.306 140.116 292.306Z" fill="#3F3D56"/>
<path d="M140.116 288.106C141.564 288.106 142.738 286.567 142.738 284.667C142.738 282.768 141.564 281.228 140.116 281.228C138.668 281.228 137.493 282.768 137.493 284.667C137.493 286.567 138.668 288.106 140.116 288.106Z" fill="#3F3D56"/>
<path d="M149.939 255.919C150.298 255.462 150.624 254.979 150.914 254.475L144.022 253.346L151.476 253.401C152.192 251.843 152.582 250.157 152.624 248.443C152.666 246.73 152.358 245.026 151.719 243.436L141.714 248.628L150.958 241.832C150.093 240.339 148.93 239.041 147.541 238.017C146.152 236.993 144.567 236.266 142.886 235.882C141.204 235.497 139.461 235.463 137.766 235.781C136.07 236.099 134.458 236.762 133.03 237.731C131.602 238.699 130.388 239.95 129.465 241.408C128.541 242.865 127.927 244.497 127.661 246.202C127.395 247.908 127.482 249.649 127.918 251.319C128.354 252.989 129.128 254.551 130.193 255.908C129.634 256.618 129.154 257.387 128.761 258.201L137.708 262.853L128.166 259.645C127.493 261.627 127.326 263.746 127.68 265.808C128.034 267.871 128.898 269.813 130.193 271.456C128.734 273.311 127.827 275.54 127.574 277.887C127.322 280.233 127.734 282.604 128.765 284.727C129.796 286.851 131.403 288.641 133.403 289.893C135.403 291.146 137.715 291.81 140.075 291.81C142.434 291.81 144.746 291.146 146.746 289.893C148.746 288.641 150.353 286.851 151.384 284.727C152.415 282.604 152.827 280.233 152.575 277.887C152.322 275.54 151.415 273.311 149.956 271.456C151.698 269.24 152.645 266.502 152.645 263.682C152.645 260.863 151.698 258.125 149.956 255.908L149.939 255.919Z" fill="#15BAC0"/>
<path opacity="0.1" d="M127.483 263.691C127.479 266.513 128.428 269.253 130.177 271.467C128.718 273.322 127.81 275.551 127.558 277.898C127.305 280.244 127.718 282.615 128.749 284.738C129.779 286.862 131.387 288.652 133.387 289.904C135.387 291.157 137.698 291.821 140.058 291.821C142.417 291.821 144.729 291.157 146.729 289.904C148.729 288.652 150.337 286.862 151.367 284.738C152.398 282.615 152.811 280.244 152.558 277.898C152.306 275.551 151.398 273.322 149.939 271.467C151.625 269.329 127.483 262.28 127.483 263.691Z" fill="black"/>
<path d="M517.887 356.283C530.338 356.283 540.431 354.341 540.431 351.946C540.431 349.55 530.338 347.608 517.887 347.608C505.436 347.608 495.342 349.55 495.342 351.946C495.342 354.341 505.436 356.283 517.887 356.283Z" fill="#15BAC0"/>
<path d="M517.512 353.544C518.961 353.544 520.135 352.004 520.135 350.105C520.135 348.206 518.961 346.666 517.512 346.666C516.064 346.666 514.89 348.206 514.89 350.105C514.89 352.004 516.064 353.544 517.512 353.544Z" fill="#3F3D56"/>
<path d="M517.512 349.344C518.961 349.344 520.135 347.805 520.135 345.905C520.135 344.006 518.961 342.466 517.512 342.466C516.064 342.466 514.89 344.006 514.89 345.905C514.89 347.805 516.064 349.344 517.512 349.344Z" fill="#3F3D56"/>
<path d="M517.512 345.145C518.961 345.145 520.135 343.605 520.135 341.705C520.135 339.806 518.961 338.266 517.512 338.266C516.064 338.266 514.89 339.806 514.89 341.705C514.89 343.605 516.064 345.145 517.512 345.145Z" fill="#3F3D56"/>
<path d="M517.512 340.939C518.961 340.939 520.135 339.4 520.135 337.5C520.135 335.601 518.961 334.061 517.512 334.061C516.064 334.061 514.89 335.601 514.89 337.5C514.89 339.4 516.064 340.939 517.512 340.939Z" fill="#3F3D56"/>
<path d="M517.512 336.74C518.961 336.74 520.135 335.2 520.135 333.3C520.135 331.401 518.961 329.861 517.512 329.861C516.064 329.861 514.89 331.401 514.89 333.3C514.89 335.2 516.064 336.74 517.512 336.74Z" fill="#3F3D56"/>
<path d="M517.512 332.54C518.961 332.54 520.135 331 520.135 329.101C520.135 327.201 518.961 325.662 517.512 325.662C516.064 325.662 514.89 327.201 514.89 329.101C514.89 331 516.064 332.54 517.512 332.54Z" fill="#3F3D56"/>
<path d="M517.512 328.34C518.961 328.34 520.135 326.8 520.135 324.901C520.135 323.002 518.961 321.462 517.512 321.462C516.064 321.462 514.89 323.002 514.89 324.901C514.89 326.8 516.064 328.34 517.512 328.34Z" fill="#3F3D56"/>
<path d="M527.335 296.153C527.694 295.695 528.02 295.213 528.311 294.709L521.418 293.579L528.873 293.634C529.588 292.077 529.979 290.39 530.02 288.677C530.062 286.964 529.754 285.26 529.115 283.67L519.11 288.861L528.355 282.066C527.489 280.573 526.326 279.274 524.937 278.251C523.548 277.227 521.964 276.5 520.282 276.115C518.6 275.731 516.857 275.696 515.162 276.014C513.466 276.332 511.854 276.996 510.426 277.964C508.998 278.932 507.785 280.184 506.861 281.641C505.937 283.099 505.323 284.731 505.057 286.436C504.791 288.141 504.878 289.883 505.314 291.553C505.75 293.222 506.524 294.785 507.59 296.142C507.03 296.852 506.55 297.621 506.157 298.435L515.105 303.087L505.562 299.879C504.889 301.861 504.722 303.979 505.076 306.042C505.43 308.105 506.294 310.046 507.59 311.69C506.131 313.545 505.223 315.773 504.971 318.12C504.718 320.467 505.131 322.838 506.161 324.961C507.192 327.084 508.8 328.874 510.799 330.127C512.799 331.379 515.111 332.044 517.471 332.044C519.83 332.044 522.142 331.379 524.142 330.127C526.142 328.874 527.749 327.084 528.78 324.961C529.811 322.838 530.224 320.467 529.971 318.12C529.719 315.773 528.811 313.545 527.352 311.69C529.094 309.473 530.041 306.736 530.041 303.916C530.041 301.096 529.094 298.359 527.352 296.142L527.335 296.153Z" fill="#15BAC0"/>
<path opacity="0.1" d="M504.879 303.924C504.875 306.746 505.824 309.487 507.573 311.701C506.114 313.556 505.206 315.785 504.954 318.131C504.701 320.478 505.114 322.849 506.145 324.972C507.176 327.095 508.783 328.886 510.783 330.138C512.783 331.391 515.095 332.055 517.454 332.055C519.814 332.055 522.126 331.391 524.126 330.138C526.126 328.886 527.733 327.095 528.764 324.972C529.794 322.849 530.207 320.478 529.955 318.131C529.702 315.785 528.794 313.556 527.335 311.701C529.021 309.563 504.879 302.513 504.879 303.924Z" fill="black"/>
<path opacity="0.1" d="M222.818 60.053C227.464 60.053 231.231 56.285 231.231 51.637C231.231 46.9889 227.464 43.2209 222.818 43.2209C218.172 43.2209 214.405 46.9889 214.405 51.637C214.405 56.285 218.172 60.053 222.818 60.053Z" fill="#15BAC0"/>
<path opacity="0.1" d="M252.916 28.2187C260.706 28.2187 267.02 21.9017 267.02 14.1094C267.02 6.31697 260.706 0 252.916 0C245.127 0 238.812 6.31697 238.812 14.1094C238.812 21.9017 245.127 28.2187 252.916 28.2187Z" fill="#15BAC0"/>
<path opacity="0.1" d="M234.25 96.6822C242.04 96.6822 248.354 90.3652 248.354 82.5728C248.354 74.7804 242.04 68.4634 234.25 68.4634C226.461 68.4634 220.146 74.7804 220.146 82.5728C220.146 90.3652 226.461 96.6822 234.25 96.6822Z" fill="#15BAC0"/>
<path opacity="0.1" d="M531.071 161.464C535.717 161.464 539.484 157.696 539.484 153.048C539.484 148.4 535.717 144.632 531.071 144.632C526.425 144.632 522.658 148.4 522.658 153.048C522.658 157.696 526.425 161.464 531.071 161.464Z" fill="#15BAC0"/>
<path opacity="0.1" d="M500.967 129.63C508.757 129.63 515.072 123.313 515.072 115.52C515.072 107.728 508.757 101.411 500.967 101.411C493.178 101.411 486.863 107.728 486.863 115.52C486.863 123.313 493.178 129.63 500.967 129.63Z" fill="#15BAC0"/>
<path opacity="0.1" d="M519.639 198.093C527.428 198.093 533.743 191.776 533.743 183.984C533.743 176.191 527.428 169.874 519.639 169.874C511.849 169.874 505.535 176.191 505.535 183.984C505.535 191.776 511.849 198.093 519.639 198.093Z" fill="#15BAC0"/>
<path opacity="0.1" d="M55.5186 173.06C58.1506 173.06 60.2842 170.926 60.2842 168.293C60.2842 165.66 58.1506 163.525 55.5186 163.525C52.8866 163.525 50.7529 165.66 50.7529 168.293C50.7529 170.926 52.8866 173.06 55.5186 173.06Z" fill="#15BAC0"/>
<path opacity="0.1" d="M75.9477 158.24C80.3597 158.24 83.9363 154.662 83.9363 150.248C83.9363 145.834 80.3597 142.256 75.9477 142.256C71.5356 142.256 67.959 145.834 67.959 150.248C67.959 154.662 71.5356 158.24 75.9477 158.24Z" fill="#15BAC0"/>
<path opacity="0.1" d="M37.7121 170.635C42.1241 170.635 45.7007 167.057 45.7007 162.643C45.7007 158.23 42.1241 154.652 37.7121 154.652C33.3 154.652 29.7234 158.23 29.7234 162.643C29.7234 167.057 33.3 170.635 37.7121 170.635Z" fill="#15BAC0"/>
<path opacity="0.1" d="M408.673 144.4C411.305 144.4 413.439 142.266 413.439 139.633C413.439 137 411.305 134.866 408.673 134.866C406.041 134.866 403.908 137 403.908 139.633C403.908 142.266 406.041 144.4 408.673 144.4Z" fill="#15BAC0"/>
<path opacity="0.1" d="M429.102 129.58C433.514 129.58 437.091 126.002 437.091 121.588C437.091 117.175 433.514 113.597 429.102 113.597C424.69 113.597 421.114 117.175 421.114 121.588C421.114 126.002 424.69 129.58 429.102 129.58Z" fill="#15BAC0"/>
<path opacity="0.1" d="M390.867 141.975C395.279 141.975 398.856 138.397 398.856 133.984C398.856 129.57 395.279 125.992 390.867 125.992C386.455 125.992 382.878 129.57 382.878 133.984C382.878 138.397 386.455 141.975 390.867 141.975Z" fill="#15BAC0"/>
<path opacity="0.1" d="M119.323 98.4183C130.353 98.4183 139.295 89.4734 139.295 78.4392C139.295 67.4051 130.353 58.4601 119.323 58.4601C108.293 58.4601 99.3516 67.4051 99.3516 78.4392C99.3516 89.4734 108.293 98.4183 119.323 98.4183Z" fill="#15BAC0"/>
<path opacity="0.1" d="M233.368 156.107C239.734 156.107 244.894 150.945 244.894 144.577C244.894 138.209 239.734 133.047 233.368 133.047C227.003 133.047 221.843 138.209 221.843 144.577C221.843 150.945 227.003 156.107 233.368 156.107Z" fill="#15BAC0"/>
<path opacity="0.1" d="M347.414 231.063C353.779 231.063 358.94 225.901 358.94 219.533C358.94 213.165 353.779 208.003 347.414 208.003C341.048 208.003 335.888 213.165 335.888 219.533C335.888 225.901 341.048 231.063 347.414 231.063Z" fill="#15BAC0"/>
<path d="M140.491 326.593C176.852 326.593 206.328 320.671 206.328 313.365C206.328 306.06 176.852 300.138 140.491 300.138C104.129 300.138 74.6528 306.06 74.6528 313.365C74.6528 320.671 104.129 326.593 140.491 326.593Z" stroke="#444053" stroke-miterlimit="10"/>
<path d="M517.887 365.724C554.248 365.724 583.725 359.802 583.725 352.497C583.725 345.192 554.248 339.269 517.887 339.269C481.526 339.269 452.049 345.192 452.049 352.497C452.049 359.802 481.526 365.724 517.887 365.724Z" stroke="#444053" stroke-miterlimit="10"/>
<path d="M66.1131 365.724C102.474 365.724 131.951 359.802 131.951 352.497C131.951 345.192 102.474 339.269 66.1131 339.269C29.752 339.269 0.275391 345.192 0.275391 352.497C0.275391 359.802 29.752 365.724 66.1131 365.724Z" stroke="#444053" stroke-miterlimit="10"/>
</g>
<defs>
<linearGradient id="paint0_linear_50_236" x1="225.138" y1="328.302" x2="225.138" y2="162.732" gradientUnits="userSpaceOnUse">
<stop stop-color="#808080" stop-opacity="0.25"/>
<stop offset="0.54" stop-color="#808080" stop-opacity="0.12"/>
<stop offset="1" stop-color="#808080" stop-opacity="0.1"/>
</linearGradient>
<linearGradient id="paint1_linear_50_236" x1="345.298" y1="294.908" x2="297.107" y2="294.908" gradientUnits="userSpaceOnUse">
<stop stop-color="#808080" stop-opacity="0.25"/>
<stop offset="0.54" stop-color="#808080" stop-opacity="0.12"/>
<stop offset="1" stop-color="#808080" stop-opacity="0.1"/>
</linearGradient>
<clipPath id="clip0_50_236">
<rect width="584" height="366" fill="white"/>
</clipPath>
</defs>
</svg>
