<svg width="439" height="318" viewBox="0 0 439 318" fill="none" xmlns="http://www.w3.org/2000/svg">
<path d="M279.753 238.395V315.052H87.5732C65.6769 315.052 47.8618 297.857 47.8618 276.723C47.8618 255.589 65.6768 238.395 87.5732 238.395H279.753Z" fill="#F2F2F2"/>
<path d="M284.473 314.462C284.473 315.244 284.162 315.994 283.609 316.546C283.056 317.099 282.306 317.41 281.523 317.41H84.1501C73.4304 317.41 63.1498 313.155 55.5698 305.58C47.9898 298.005 43.7314 287.731 43.7314 277.018C43.7314 266.305 47.9898 256.031 55.5698 248.456C63.1498 240.881 73.4304 236.626 84.1501 236.626H281.523C282.306 236.626 283.056 236.936 283.609 237.489C284.163 238.042 284.473 238.792 284.473 239.574C284.473 240.356 284.163 241.106 283.609 241.659C283.056 242.212 282.306 242.522 281.523 242.522H84.1501C74.9953 242.522 66.2155 246.157 59.7421 252.626C53.2687 259.095 49.632 267.869 49.632 277.018C49.632 286.167 53.2687 294.941 59.7421 301.41C66.2155 307.879 74.9953 311.514 84.1501 311.514H281.523C282.306 311.514 283.056 311.825 283.609 312.378C284.162 312.93 284.473 313.68 284.473 314.462Z" fill="#15BAC0"/>
<path d="M279.753 256.085H73.2341C73.0776 256.085 72.9275 256.023 72.8169 255.912C72.7062 255.801 72.644 255.652 72.644 255.495C72.644 255.339 72.7062 255.189 72.8169 255.078C72.9275 254.968 73.0776 254.905 73.2341 254.905H279.753C279.909 254.905 280.059 254.968 280.17 255.078C280.281 255.189 280.343 255.339 280.343 255.495C280.343 255.652 280.281 255.801 280.17 255.912C280.059 256.023 279.909 256.085 279.753 256.085Z" fill="#CCCCCC"/>
<path d="M279.753 270.237H73.2341C73.0776 270.237 72.9275 270.175 72.8169 270.064C72.7062 269.954 72.644 269.804 72.644 269.647C72.644 269.491 72.7062 269.341 72.8169 269.23C72.9275 269.12 73.0776 269.057 73.2341 269.057H279.753C279.909 269.057 280.059 269.12 280.17 269.23C280.281 269.341 280.343 269.491 280.343 269.647C280.343 269.804 280.281 269.954 280.17 270.064C280.059 270.175 279.909 270.237 279.753 270.237Z" fill="#CCCCCC"/>
<path d="M279.753 284.389H73.2341C73.0776 284.389 72.9275 284.327 72.8169 284.216C72.7062 284.106 72.644 283.956 72.644 283.799C72.644 283.643 72.7062 283.493 72.8169 283.382C72.9275 283.272 73.0776 283.21 73.2341 283.21H279.753C279.909 283.21 280.059 283.272 280.17 283.382C280.281 283.493 280.343 283.643 280.343 283.799C280.343 283.956 280.281 284.106 280.17 284.216C280.059 284.327 279.909 284.389 279.753 284.389Z" fill="#CCCCCC"/>
<path d="M279.753 298.541H73.2341C73.0776 298.541 72.9275 298.479 72.8169 298.368C72.7062 298.258 72.644 298.108 72.644 297.951C72.644 297.795 72.7062 297.645 72.8169 297.534C72.9275 297.424 73.0776 297.362 73.2341 297.362H279.753C279.909 297.362 280.059 297.424 280.17 297.534C280.281 297.645 280.343 297.795 280.343 297.951C280.343 298.108 280.281 298.258 280.17 298.368C280.059 298.479 279.909 298.541 279.753 298.541Z" fill="#CCCCCC"/>
<path d="M428.28 252.824L380.152 312.516L230.506 192.017C213.455 178.288 210.379 153.728 223.647 137.272C236.915 120.815 261.583 118.596 278.633 132.326L428.28 252.824Z" fill="#F2F2F2"/>
<path d="M384.198 315.016C383.707 315.625 382.994 316.014 382.216 316.097C381.438 316.181 380.659 315.953 380.05 315.462L226.359 191.707C218.012 184.986 212.678 175.226 211.532 164.575C210.385 153.923 213.52 143.253 220.245 134.911C226.971 126.57 236.737 121.24 247.396 120.094C258.054 118.948 268.731 122.08 277.078 128.802L430.769 252.557C431.071 252.8 431.322 253.1 431.508 253.439C431.693 253.779 431.811 254.152 431.852 254.538C431.894 254.923 431.859 255.312 431.75 255.684C431.641 256.056 431.459 256.402 431.216 256.704C430.973 257.005 430.673 257.256 430.333 257.442C429.992 257.627 429.619 257.744 429.234 257.785C428.848 257.827 428.458 257.792 428.087 257.682C427.715 257.573 427.368 257.392 427.067 257.149L273.376 133.393C269.847 130.549 265.791 128.427 261.441 127.15C257.091 125.872 252.531 125.464 248.023 125.947C243.515 126.431 239.146 127.798 235.166 129.969C231.187 132.141 227.674 135.074 224.829 138.603C221.985 142.131 219.863 146.185 218.587 150.533C217.31 154.881 216.903 159.437 217.389 163.942C217.874 168.447 219.244 172.813 221.418 176.789C223.593 180.765 226.529 184.274 230.061 187.116L383.752 310.871C384.361 311.361 384.75 312.074 384.833 312.851C384.917 313.628 384.689 314.407 384.198 315.016Z" fill="#CCCCCC"/>
<path d="M417.173 266.599L256.361 137.11C256.301 137.061 256.25 137.001 256.213 136.933C256.176 136.865 256.153 136.791 256.144 136.714C256.136 136.637 256.143 136.559 256.165 136.484C256.187 136.41 256.223 136.341 256.272 136.281C256.32 136.22 256.38 136.17 256.448 136.133C256.516 136.096 256.591 136.073 256.668 136.064C256.745 136.056 256.823 136.063 256.897 136.085C256.972 136.107 257.041 136.143 257.101 136.191L417.914 265.681C417.974 265.73 418.024 265.79 418.061 265.858C418.099 265.926 418.122 266 418.131 266.077C418.139 266.154 418.132 266.232 418.11 266.307C418.088 266.381 418.052 266.45 418.003 266.511C417.955 266.571 417.895 266.621 417.827 266.658C417.758 266.695 417.684 266.719 417.607 266.727C417.53 266.735 417.452 266.728 417.377 266.706C417.303 266.684 417.233 266.648 417.173 266.599V266.599Z" fill="#CCCCCC"/>
<path d="M408.288 277.619L247.476 148.13C247.354 148.031 247.277 147.889 247.26 147.734C247.244 147.578 247.289 147.423 247.387 147.301C247.486 147.179 247.628 147.102 247.783 147.085C247.939 147.068 248.095 147.113 248.217 147.211L409.029 276.701C409.089 276.75 409.139 276.81 409.177 276.877C409.214 276.945 409.237 277.02 409.246 277.097C409.254 277.174 409.247 277.252 409.225 277.327C409.203 277.401 409.167 277.47 409.118 277.531C409.07 277.591 409.01 277.641 408.942 277.678C408.874 277.715 408.799 277.739 408.722 277.747C408.645 277.755 408.567 277.748 408.492 277.726C408.418 277.704 408.349 277.668 408.288 277.619Z" fill="#CCCCCC"/>
<path d="M399.403 288.639L238.591 159.15C238.469 159.051 238.391 158.909 238.374 158.753C238.358 158.598 238.403 158.442 238.502 158.32C238.6 158.199 238.742 158.121 238.898 158.104C239.054 158.087 239.21 158.133 239.331 158.231L400.144 287.721C400.204 287.769 400.254 287.829 400.291 287.897C400.328 287.965 400.352 288.04 400.36 288.117C400.368 288.194 400.361 288.272 400.339 288.346C400.318 288.42 400.281 288.49 400.233 288.55C400.184 288.61 400.124 288.66 400.056 288.698C399.988 288.735 399.913 288.758 399.836 288.766C399.759 288.775 399.681 288.768 399.607 288.746C399.533 288.724 399.463 288.688 399.403 288.639V288.639Z" fill="#CCCCCC"/>
<path d="M390.518 299.659L229.706 170.169C229.645 170.121 229.595 170.061 229.558 169.993C229.521 169.925 229.498 169.85 229.489 169.773C229.481 169.696 229.488 169.619 229.51 169.544C229.532 169.47 229.568 169.401 229.616 169.34C229.665 169.28 229.725 169.23 229.793 169.193C229.861 169.156 229.936 169.132 230.013 169.124C230.09 169.116 230.168 169.123 230.242 169.145C230.316 169.166 230.386 169.203 230.446 169.251L391.258 298.741C391.319 298.789 391.369 298.849 391.406 298.917C391.443 298.985 391.467 299.06 391.475 299.137C391.484 299.214 391.477 299.292 391.455 299.366C391.433 299.441 391.397 299.51 391.348 299.57C391.299 299.631 391.239 299.681 391.171 299.718C391.103 299.755 391.028 299.779 390.951 299.787C390.874 299.795 390.796 299.788 390.722 299.766C390.648 299.744 390.578 299.708 390.518 299.659Z" fill="#CCCCCC"/>
<path d="M199.486 230.338L192.74 230.337L189.532 204.335L199.488 204.336L199.486 230.338Z" fill="#FFB8B8"/>
<path d="M187.922 228.411H200.931V236.597H179.73C179.73 235.522 179.942 234.457 180.354 233.464C180.766 232.471 181.369 231.568 182.13 230.808C182.89 230.048 183.793 229.445 184.787 229.034C185.781 228.623 186.846 228.411 187.922 228.411Z" fill="#2F2E41"/>
<path d="M130.571 230.338L123.825 230.337L120.617 204.335L130.573 204.336L130.571 230.338Z" fill="#FFB8B8"/>
<path d="M119.007 228.411H132.016V236.597H110.815C110.815 235.522 111.027 234.457 111.439 233.464C111.851 232.471 112.454 231.568 113.215 230.808C113.975 230.048 114.878 229.445 115.872 229.034C116.866 228.623 117.931 228.411 119.007 228.411Z" fill="#2F2E41"/>
<path d="M153.102 37.4635V34.5151C153.102 29.4715 155.106 24.6345 158.675 21.0682C162.244 17.5018 167.084 15.4983 172.131 15.4983H172.131C177.178 15.4983 182.018 17.5018 185.587 21.0682C189.155 24.6345 191.16 29.4715 191.16 34.5151V37.4635C191.16 41.0995 189.715 44.5867 187.142 47.1578C184.569 49.7289 181.08 51.1733 177.441 51.1733H166.82C165.019 51.1733 163.235 50.8187 161.57 50.1297C159.906 49.4407 158.394 48.4309 157.12 47.1578C155.846 45.8847 154.835 44.3734 154.146 42.71C153.456 41.0466 153.102 39.2639 153.102 37.4635Z" fill="#2F2E41"/>
<path d="M172.131 52.1877C180.135 52.1877 186.623 45.7035 186.623 37.7049C186.623 29.7062 180.135 23.222 172.131 23.222C164.127 23.222 157.639 29.7062 157.639 37.7049C157.639 45.7035 164.127 52.1877 172.131 52.1877Z" fill="#FFB8B8"/>
<path d="M93.3021 87.4806C93.8903 86.9257 94.593 86.5063 95.3608 86.2521C96.1287 85.9979 96.9429 85.915 97.7463 86.0093C98.5496 86.1036 99.3225 86.3728 100.011 86.7979C100.698 87.223 101.285 87.7937 101.728 88.4698L114.152 86.1213L117.421 93.3179L99.8303 96.3882C98.6444 97.0573 97.2541 97.2685 95.9229 96.9817C94.5916 96.6949 93.4118 95.93 92.6072 94.8321C91.8025 93.7341 91.4288 92.3793 91.5569 91.0244C91.685 89.6695 92.3059 88.4086 93.3021 87.4806V87.4806Z" fill="#FFB8B8"/>
<path d="M160.832 61.3086L160.995 61.5546L140.623 74.9662L106.247 85.936C105.791 86.0823 105.401 86.382 105.141 86.7839C104.882 87.1858 104.77 87.6651 104.824 88.1404L105.574 94.5952C105.607 94.8809 105.7 95.1565 105.846 95.4043C105.992 95.6521 106.188 95.8667 106.422 96.0343C106.656 96.2019 106.922 96.3187 107.204 96.3774C107.486 96.4361 107.777 96.4354 108.058 96.3751L140.411 89.4449C141.976 89.1114 143.457 88.46 144.76 87.5311L167.647 71.2581C168.477 70.665 169.139 69.8674 169.569 68.9428C169.999 68.0183 170.182 66.9983 170.101 65.9821C170.017 64.9644 169.669 63.9861 169.092 63.1435C168.515 62.3008 167.729 61.6227 166.81 61.176C165.891 60.7293 164.872 60.5293 163.852 60.5956C162.833 60.662 161.848 60.9925 160.995 61.5546L160.832 61.3086Z" fill="#CCCCCC"/>
<path d="M192.861 222.959C192.343 222.959 191.836 222.808 191.403 222.525C190.969 222.243 190.628 221.84 190.419 221.366L159.495 145.003C159.422 144.838 159.301 144.698 159.147 144.603C158.993 144.509 158.814 144.463 158.634 144.474C158.453 144.484 158.28 144.549 158.138 144.66C157.995 144.772 157.891 144.924 157.837 145.097L132.608 219.438C132.501 219.784 132.325 220.105 132.09 220.38C131.855 220.656 131.566 220.88 131.241 221.04C130.916 221.199 130.562 221.291 130.2 221.309C129.838 221.327 129.476 221.27 129.137 221.143L120.677 217.973C120.218 217.802 119.815 217.508 119.513 217.122C119.211 216.736 119.022 216.275 118.968 215.788C115.161 182.653 148.352 99.0161 148.688 98.1754L148.781 97.9424L179.037 104.631L179.1 104.699C191.171 117.86 201.093 200.864 202.96 217.37C203.03 217.966 202.894 218.568 202.575 219.077C202.256 219.585 201.774 219.971 201.207 220.169L193.739 222.808C193.457 222.908 193.16 222.959 192.861 222.959Z" fill="#2F2E41"/>
<path d="M166.792 107.323C159.461 107.323 151.289 105.862 148.773 99.8338L148.715 99.6954L148.793 99.5669C150.779 96.3111 153.403 90.757 151.993 89.7145C149.214 87.6613 147.866 84.2836 147.985 79.6751C148.245 69.6709 155.066 60.7887 164.959 57.5729H164.959C167.72 56.6898 170.53 55.9668 173.375 55.4074C175.449 54.9892 177.589 55.0352 179.643 55.5421C181.697 56.049 183.613 57.0042 185.254 58.3391C186.915 59.6827 188.258 61.3774 189.186 63.3013C190.114 65.2253 190.604 67.3308 190.621 69.4665C190.725 80.1577 189.078 95.0483 180.642 105.271C180.247 105.746 179.697 106.065 179.089 106.174C175.03 106.908 170.916 107.292 166.792 107.323Z" fill="#CCCCCC"/>
<path d="M164.065 106.923C164.464 105.493 165.412 104.278 166.702 103.542C167.992 102.806 169.521 102.609 170.956 102.993C171.249 103.075 171.535 103.181 171.81 103.309L181.243 94.7303L187.803 99.1471L174.314 111.077C173.705 112.174 172.746 113.037 171.589 113.527C170.433 114.017 169.146 114.106 167.933 113.781C167.227 113.588 166.566 113.257 165.988 112.806C165.41 112.356 164.928 111.796 164.568 111.158C164.208 110.52 163.978 109.818 163.892 109.091C163.806 108.364 163.865 107.627 164.065 106.923Z" fill="#FFB8B8"/>
<path d="M179.749 107.032C179.137 107.032 178.544 106.821 178.07 106.433L174.35 103.395C174.04 103.142 173.791 102.822 173.622 102.459C173.454 102.096 173.369 101.7 173.375 101.299C173.382 100.899 173.478 100.506 173.658 100.148C173.838 99.7907 174.097 99.4785 174.414 99.235L190.016 87.2766C190.201 87.1342 190.323 86.9246 190.354 86.6933C190.385 86.4621 190.324 86.2278 190.184 86.0414L180.554 73.3186C179.435 71.8454 178.874 70.0241 178.97 68.1771C179.065 66.3301 179.812 64.5766 181.077 63.2269C182.41 61.7886 184.235 60.9035 186.19 60.7472C188.145 60.591 190.088 61.1749 191.632 62.3832L191.693 62.4475L201.749 76.8368C202.836 77.6888 203.712 78.7804 204.307 80.0265C204.902 81.2726 205.202 82.6394 205.181 84.0201C205.16 85.4009 204.821 86.7581 204.188 87.9859C203.556 89.2138 202.649 90.2789 201.536 91.0982L181.33 106.511C180.872 106.849 180.318 107.032 179.749 107.032Z" fill="#CCCCCC"/>
<path d="M159.294 33.6306V26.4448L172.131 20.843L184.371 26.4448V33.6306C184.371 33.9434 184.247 34.2433 184.026 34.4645C183.804 34.6857 183.504 34.8099 183.191 34.8099H160.474C160.161 34.8099 159.861 34.6857 159.64 34.4645C159.418 34.2433 159.294 33.9434 159.294 33.6306Z" fill="#2F2E41"/>
<path d="M171.542 16.4515C169.654 10.4142 173.618 3.49513 179.478 1.1054C185.339 -1.28433 192.349 0.386163 197.294 4.33436C202.239 8.28256 205.307 14.1962 206.933 20.3092C208.558 26.4221 208.867 32.7965 209.167 39.1145C216.367 40.4362 221.265 48.9704 218.77 55.8483C216.276 62.7262 207.044 66.1432 200.669 62.5483C194.293 58.9534 192.447 49.2898 197.048 43.6001C199.225 40.9078 200.442 37.5666 200.504 34.1056C200.567 30.6445 199.472 27.2616 197.393 24.4925C195.315 21.7234 192.371 19.7265 189.029 18.818C185.686 17.9095 182.136 18.1414 178.941 19.4769C175.392 20.9599 170.94 17.1068 171.542 16.4515Z" fill="#2F2E41"/>
<path d="M90.6408 59.6053C82.0205 59.5488 73.508 57.6856 65.6531 54.1362C65.1856 53.928 64.7887 53.5883 64.5109 53.1586C64.233 52.7289 64.0863 52.2278 64.0884 51.7162V30.2417C64.0892 29.5382 64.3692 28.8637 64.867 28.3662C65.3648 27.8688 66.0397 27.589 66.7436 27.5882H114.538C115.242 27.589 115.917 27.8688 116.415 28.3663C116.912 28.8637 117.192 29.5382 117.193 30.2417V51.7163C117.195 52.2278 117.049 52.729 116.771 53.1586C116.493 53.5883 116.096 53.928 115.629 54.1363C107.774 57.6856 99.2611 59.5488 90.6408 59.6053Z" fill="#15BAC0"/>
<path d="M90.6343 42.2084C90.28 42.2087 89.9291 42.1382 89.6025 42.0011L51.7022 26.0213C51.2134 25.8153 50.7976 25.4676 50.5084 25.0232C50.2192 24.5788 50.0698 24.0581 50.0795 23.528C50.0893 22.998 50.2577 22.483 50.563 22.0495C50.8683 21.616 51.2965 21.2838 51.7925 21.0958L89.6933 6.72693C90.3037 6.49443 90.9787 6.49586 91.5881 6.73096L128.981 21.0998C129.474 21.2893 129.9 21.6216 130.203 22.0541C130.506 22.4866 130.673 22.9996 130.683 23.5275C130.693 24.0555 130.545 24.5743 130.258 25.0177C129.971 25.4611 129.558 25.8088 129.072 26.0164L91.6786 41.9959C91.3484 42.1365 90.9932 42.2087 90.6343 42.2084Z" fill="#15BAC0"/>
<path d="M68.5135 55.5974C70.4687 55.5974 72.0538 54.0134 72.0538 52.0594C72.0538 50.1054 70.4687 48.5214 68.5135 48.5214C66.5582 48.5214 64.9731 50.1054 64.9731 52.0594C64.9731 54.0134 66.5582 55.5974 68.5135 55.5974Z" fill="#3F3D56"/>
<path opacity="0.2" d="M129.201 23.7482L91.8073 39.7277C91.5157 39.8523 91.2021 39.9169 90.885 39.9177C90.568 39.9184 90.254 39.8553 89.9619 39.7322L52.0616 23.7529C51.5856 23.557 51.1885 23.2082 50.9331 22.7616C50.7659 23.0512 50.6624 23.373 50.6293 23.7056C50.5961 24.0383 50.6342 24.3742 50.7409 24.691C50.8477 25.0079 51.0206 25.2984 51.2483 25.5433C51.476 25.7882 51.7532 25.9819 52.0616 26.1115L89.9619 42.0909C90.254 42.214 90.568 42.2771 90.885 42.2763C91.2021 42.2756 91.5157 42.211 91.8073 42.0864L129.201 26.1069C129.508 25.9761 129.783 25.7818 130.009 25.5368C130.235 25.2917 130.407 25.0016 130.512 24.6854C130.618 24.3693 130.655 24.0343 130.622 23.7027C130.589 23.3711 130.485 23.0503 130.319 22.7615C130.065 23.2046 129.672 23.5514 129.201 23.7482Z" fill="black"/>
<path d="M68.8113 52.0456C68.9677 52.0456 69.1178 51.9835 69.2285 51.8729C69.3391 51.7623 69.4013 51.6123 69.4013 51.4559V31.7248L88.862 24.6398C89.0185 24.6422 89.1695 24.5823 89.2818 24.4733C89.3941 24.3644 89.4585 24.2154 89.4608 24.059C89.4632 23.9026 89.4032 23.7517 89.2942 23.6394C89.1852 23.5272 89.0361 23.4628 88.8796 23.4605L69.4189 30.5455C69.2623 30.5419 69.1066 30.5701 68.9612 30.6284C68.8158 30.6867 68.6838 30.7739 68.5731 30.8846C68.4613 30.9941 68.3725 31.1248 68.3121 31.2691C68.2516 31.4134 68.2207 31.5684 68.2212 31.7248V51.4559C68.2212 51.6123 68.2834 51.7623 68.394 51.8729C68.5047 51.9835 68.6548 52.0456 68.8113 52.0456Z" fill="#3F3D56"/>
</svg>
