<svg width="541" height="423" viewBox="0 0 541 423" fill="none" xmlns="http://www.w3.org/2000/svg">
<g clip-path="url(#clip0_10_217)">
<path d="M328.045 123.55C328.718 123.581 329.384 123.405 329.953 123.046C330.523 122.687 330.967 122.163 331.227 121.544C331.487 120.925 331.55 120.242 331.406 119.587C331.263 118.931 330.921 118.336 330.426 117.88C330.343 117.552 330.284 117.317 330.201 116.989C330.231 116.918 330.26 116.846 330.29 116.775C333.316 109.594 343.569 109.644 346.569 116.835C349.231 123.218 352.621 129.612 353.456 136.361C353.823 139.345 353.668 142.369 352.997 145.299C359.251 131.721 362.498 116.963 362.519 102.025C362.52 98.2771 362.311 94.5316 361.892 90.8066C361.546 87.7528 361.066 84.7208 360.452 81.7105C357.1 65.377 349.904 50.0678 339.454 37.0402C334.397 34.2933 330.307 30.0692 327.735 24.937C326.803 23.0922 326.145 21.1228 325.78 19.0902C326.351 19.1647 327.932 10.5154 327.501 9.98477C328.296 8.7838 329.719 8.1868 330.588 7.01488C334.906 1.18648 340.856 2.20416 343.963 10.1245C350.598 13.4581 350.662 18.9867 346.591 24.3039C344 27.6867 343.645 32.2641 341.372 35.8857C341.606 36.1836 341.849 36.4723 342.083 36.7702C346.357 42.2413 350.082 48.1163 353.205 54.3108C352.322 47.4405 353.626 39.1636 355.85 33.8282C358.382 27.7491 363.127 22.6293 367.305 17.374C372.324 11.0615 382.616 13.8164 383.501 21.8184C383.509 21.8959 383.518 21.9734 383.526 22.0508C382.905 22.3993 382.298 22.7693 381.703 23.1606C380.956 23.6573 380.378 24.3669 380.043 25.1965C379.708 26.0261 379.633 26.937 379.827 27.8098C380.022 28.6826 380.476 29.4767 381.132 30.0879C381.787 30.6992 382.613 31.0991 383.5 31.2353L383.591 31.2492C383.37 33.4759 382.979 35.6826 382.422 37.8502C387.783 58.4858 376.21 66.0018 359.685 66.3394C359.32 66.5256 358.965 66.7118 358.6 66.8887C361.738 75.74 363.706 84.9599 364.455 94.3165C364.879 99.8366 364.854 105.382 364.38 110.898L364.408 110.702C365.605 104.569 368.893 99.034 373.714 95.0333C380.876 89.1772 390.994 87.0207 398.72 82.3136C402.44 80.0476 407.205 82.9758 406.556 87.268C406.546 87.3365 406.535 87.405 406.525 87.4735C405.373 87.9405 404.252 88.4784 403.167 89.0841C402.546 89.4327 401.939 89.8027 401.344 90.1939C400.598 90.6906 400.019 91.4002 399.684 92.2298C399.35 93.0594 399.274 93.9703 399.469 94.8431C399.663 95.716 400.118 96.51 400.773 97.1213C401.428 97.7325 402.254 98.1325 403.142 98.2687L403.233 98.2826C403.298 98.2919 403.354 98.3012 403.42 98.3106C401.452 102.988 398.69 107.293 395.254 111.038C391.903 129.052 377.507 130.761 362.107 125.515H362.098C360.408 132.823 357.96 139.937 354.793 146.742H328.698C328.605 146.454 328.521 146.156 328.436 145.867C330.852 146.018 333.277 145.874 335.657 145.439C333.721 143.074 331.785 140.69 329.849 138.326C329.806 138.282 329.765 138.235 329.727 138.186C328.745 136.976 327.754 135.775 326.772 134.564L326.771 134.563C326.719 130.853 327.147 127.151 328.045 123.55Z" fill="#15BAC0" fill-opacity="0.2"/>
<path d="M411.827 57.0733C406.975 39.4642 446.109 24.3641 456.386 38.5447C457.815 36.5286 463.095 35.3041 465.519 35.9225C467.942 36.541 469.979 38.0871 471.967 39.5837C474.701 41.6741 477.534 43.8386 479.212 46.8442C480.902 49.8375 481.162 53.9193 478.889 56.5167C477.087 58.5823 471.769 59.9181 469.06 60.4624C467.171 60.8458 465.581 61.155 464.214 61.3776C462.972 59.5971 462.4 57.4382 462.598 55.2798C461.678 55.8976 460.907 56.7103 460.34 57.6598C459.773 58.6093 459.424 59.672 459.318 60.7716C459.281 61.2292 474.589 117.297 474.589 117.297C472.75 118.339 470.815 119.205 468.811 119.882C464.847 113.851 461.811 107.264 459.803 100.34C459.341 104.97 459.4 109.637 459.977 114.255C460.284 116.844 460.723 119.416 461.294 121.96C443.102 125.869 415.741 124.583 403.837 107.959C403.835 107.89 403.833 107.821 403.831 107.752C403.822 107.096 403.584 106.464 403.157 105.963C402.731 105.462 402.143 105.125 401.494 105.008C400.846 104.892 400.176 105.003 399.601 105.324C399.026 105.645 398.581 106.154 398.341 106.766C398.053 107.499 397.787 108.134 397.55 108.639C394.083 96.2949 398.569 82.0089 411.827 57.0733Z" fill="#2F2E41"/>
<path d="M380.871 352.295V352.872C380.848 352.681 380.848 352.487 380.871 352.295Z" fill="#2F2E41"/>
<path d="M398.686 252.64C399.148 252.515 399.619 252.424 400.095 252.367C399.549 252.456 399.079 252.547 398.686 252.64Z" fill="#2F2E41"/>
<path d="M398.273 252.744C398.398 252.71 398.538 252.675 398.686 252.64C398.548 252.676 398.415 252.702 398.273 252.744Z" fill="#2F2E41"/>
<path d="M532.458 423.256L463.21 409.998C462.259 409.242 461.598 408.183 461.338 407C461.078 405.816 461.235 404.579 461.782 403.497C463.604 399.339 460.034 395.539 460.034 395.539C458.823 394.126 457.98 392.437 457.581 390.622C457.183 388.807 457.24 386.922 457.749 385.134C459.516 378.992 452.592 361.656 452.592 361.656C452.592 361.656 448.86 384.041 444.287 409.998H380.871C379.809 408.196 379.249 406.145 379.249 404.057C379.249 401.968 379.809 399.917 380.871 398.116C384.567 391.878 380.871 390.682 380.871 390.682C380.871 390.682 377.175 383.702 380.871 378.634C384.567 373.566 380.871 352.872 380.871 352.872C381.01 353.787 382.063 352.124 383.684 348.636C386.152 343.329 389.923 333.786 393.734 322.707C396.458 314.8 399.204 306.099 401.499 297.593H401.504C402.106 295.359 402.676 293.144 403.215 290.95C404.267 286.647 405.17 282.466 405.855 278.54C407.342 270.084 407.833 262.82 406.691 258.096C405.744 254.164 403.671 251.996 400.095 252.367C402.011 252.051 404.819 251.752 408.278 251.469C408.902 251.419 409.548 251.369 410.217 251.314C436.02 249.373 491.38 248.259 491.38 248.259L508.337 278.485L529.812 316.774C529.812 316.774 531.795 381.397 532.458 423.256Z" fill="#2F2E41"/>
<path d="M458.718 117.615L419.651 109.366L411.894 124.908L385.773 139.962C385.773 139.962 402.611 208.493 402.515 218.131C402.271 242.602 362.936 297.458 392.647 293.238C422.357 289.018 428.392 271.341 437.93 274.136C446.532 276.657 457.035 287.871 464.067 279.851C471.099 271.831 473.576 281.092 478.022 281.412C480.135 281.564 478.862 271.285 484.179 281.731C489.495 292.178 517.688 278.116 508.132 268.604C492.219 252.763 488.984 135.99 488.984 135.99L471.269 130.564L458.718 117.615Z" fill="#15BAC0"/>
<path d="M385.034 366.49C386.604 364.627 387.381 362.227 387.201 359.802C387.02 357.377 385.896 355.118 384.068 353.505C383.691 353.183 383.288 352.893 382.864 352.637L389.396 320.727L374.295 311.73L370.095 356.407C369.166 358.243 368.873 360.334 369.263 362.353C369.653 364.371 370.703 366.205 372.25 367.567C373.138 368.334 374.169 368.919 375.284 369.289C376.399 369.66 377.576 369.808 378.748 369.725C379.921 369.642 381.065 369.33 382.116 368.808C383.168 368.285 384.105 367.561 384.875 366.677C384.929 366.615 384.982 366.553 385.034 366.49Z" fill="#A0616A"/>
<path d="M431.92 198.286C431.825 197.26 430.511 196.794 428.689 196.151C426.859 195.59 425.12 194.77 423.525 193.717C419.492 190.817 421.08 187.784 423.274 183.592C423.703 182.776 424.149 181.928 424.567 181.046C425.809 178.435 423.831 167.661 418.679 149.018C417.091 143.279 417.097 139.225 415.999 136.536C414.907 133.847 412.718 132.521 406.752 132.244C399.541 131.882 392.479 134.38 387.116 139.192C386.971 139.32 386.82 139.458 386.676 139.591C386.403 139.846 386.135 140.107 385.873 140.373C380.913 145.34 378.075 152.024 377.952 159.027L377.924 160.219L376.693 217.178L373.234 267.162L368.465 336.015L371.997 336.187L386.091 336.885L387.801 336.969L391.856 320.034L396.736 299.656L398.53 292.17L404.095 268.947L406.691 258.095L408.278 251.469L408.925 248.763L412.077 235.61C412.15 235.333 419.403 206.848 427.764 202.084C430.884 200.31 432.009 199.279 431.92 198.286Z" fill="#15BAC0"/>
<path d="M525.735 366.151C523.973 364.466 522.942 362.164 522.859 359.733C522.777 357.303 523.651 354.937 525.294 353.138C525.634 352.778 526.003 352.446 526.398 352.146L516.461 321.118L530.504 310.56L539.5 354.529C540.622 356.255 541.138 358.302 540.968 360.351C540.798 362.4 539.952 364.335 538.561 365.855C537.761 366.712 536.799 367.404 535.731 367.892C534.662 368.379 533.508 368.652 532.334 368.695C531.159 368.738 529.988 368.55 528.886 368.143C527.784 367.735 526.774 367.116 525.913 366.32C525.853 366.264 525.794 366.208 525.735 366.151Z" fill="#A0616A"/>
<path d="M532.604 298.824C532.604 298.824 521.652 260.467 524.992 256.314C528.333 252.162 518.468 251.351 522.719 243.618C526.97 235.884 521.103 234.591 521.103 234.591L517.919 216.81L512.227 173.136L512.054 171.837L510.398 159.131C509.936 155.502 508.743 152.003 506.891 148.843C505.039 145.683 502.566 142.928 499.62 140.741C499.469 140.626 499.316 140.516 499.162 140.406C498.461 139.904 497.745 139.439 497.014 139.01C491.55 135.802 485.134 134.589 478.869 135.579C467.064 137.41 470.738 141.792 468.823 153.531C465.712 172.62 464.905 183.54 466.422 186.007C466.933 186.838 467.47 187.633 467.982 188.396C470.618 192.335 472.523 195.176 468.824 198.497C467.35 199.711 465.71 200.71 463.954 201.464C462.215 202.302 460.956 202.903 460.973 203.933C460.993 204.931 462.222 205.832 465.513 207.261C469.5 208.998 473.783 215.566 477.292 222.275C480.075 227.683 482.557 233.24 484.728 238.919L514.879 323.332L519.797 337.098L521.494 336.831L535.425 334.633L538.919 334.082L532.604 298.824Z" fill="#15BAC0"/>
<path d="M442.236 108.783C459.839 108.783 474.108 94.5785 474.108 77.0563C474.108 59.5341 459.839 45.3296 442.236 45.3296C424.633 45.3296 410.363 59.5341 410.363 77.0563C410.363 94.5785 424.633 108.783 442.236 108.783Z" fill="#A0616A"/>
<path d="M394.431 59.5469C389.579 41.9378 428.713 26.8377 438.99 41.0183C440.419 39.0023 445.699 37.7777 448.122 38.3961C450.546 39.0146 452.583 40.5607 454.571 42.0574C457.305 44.1477 460.138 46.3122 461.816 49.3179C463.506 52.3111 463.766 56.3929 461.493 58.9903C459.691 61.0559 454.373 62.3918 451.664 62.936C449.775 63.3194 448.185 63.6286 446.818 63.8513C445.576 62.0708 445.004 59.9119 445.202 57.7534C444.282 58.3712 443.511 59.184 442.944 60.1335C442.377 61.0829 442.028 62.1456 441.922 63.2452C441.885 63.7029 457.193 119.771 457.193 119.771C455.354 120.813 453.419 121.679 451.415 122.356C447.451 116.325 444.415 109.738 442.407 102.813C441.945 107.444 442.003 112.111 442.581 116.728C442.888 119.317 443.327 121.889 443.898 124.434C425.706 128.343 398.345 127.056 386.441 110.432C386.439 110.364 386.437 110.295 386.435 110.226C386.426 109.57 386.188 108.937 385.761 108.437C385.335 107.936 384.747 107.599 384.098 107.482C383.45 107.365 382.78 107.477 382.205 107.798C381.63 108.118 381.185 108.628 380.945 109.24C380.657 109.973 380.391 110.608 380.154 111.113C376.687 98.7686 381.173 84.4825 394.431 59.5469Z" fill="#2F2E41"/>
<path d="M236.362 169.176C235.689 169.207 235.023 169.031 234.453 168.673C233.884 168.314 233.439 167.79 233.179 167.171C232.919 166.552 232.857 165.869 233 165.213C233.143 164.558 233.486 163.962 233.98 163.507C234.063 163.179 234.123 162.943 234.206 162.616C234.176 162.544 234.146 162.473 234.116 162.402C231.091 155.221 220.837 155.27 217.838 162.462C215.175 168.845 211.785 175.239 210.951 181.988C210.583 184.971 210.738 187.995 211.409 190.926C205.156 177.347 201.909 162.589 201.888 147.652C201.886 143.904 202.096 140.158 202.514 136.433C202.86 133.379 203.341 130.347 203.955 127.337C207.306 111.004 214.503 95.6944 224.952 82.6668C230.01 79.9199 234.1 75.6957 236.671 70.5636C237.603 68.7188 238.262 66.7494 238.626 64.7168C238.056 64.7913 236.475 56.142 236.905 55.6114C236.11 54.4104 234.687 53.8134 233.819 52.6415C229.5 46.8131 223.55 47.8307 220.444 55.7511C213.809 59.0847 213.744 64.6132 217.816 69.9305C220.406 73.3133 220.762 77.8907 223.035 81.5123C222.801 81.8102 222.558 82.0989 222.324 82.3968C218.05 87.8679 214.324 93.7428 211.201 99.9373C212.085 93.0671 210.78 84.7902 208.556 79.4548C206.025 73.3757 201.28 68.2559 197.101 63.0005C192.082 56.688 181.79 59.4429 180.906 67.445C180.897 67.5225 180.889 67.6 180.881 67.6774C181.502 68.0259 182.109 68.3958 182.704 68.7872C183.45 69.2839 184.029 69.9935 184.364 70.8231C184.698 71.6527 184.773 72.5635 184.579 73.4364C184.385 74.3092 183.93 75.1032 183.275 75.7145C182.62 76.3257 181.794 76.7257 180.906 76.8619L180.815 76.8758C181.037 79.1025 181.427 81.3091 181.985 83.4768C176.624 104.112 188.197 111.628 204.722 111.966C205.086 112.152 205.442 112.338 205.807 112.515C202.669 121.367 200.701 130.586 199.952 139.943C199.528 145.463 199.553 151.008 200.027 156.524L199.998 156.329C198.801 150.195 195.514 144.661 190.692 140.66C183.53 134.804 173.412 132.647 165.686 127.94C161.967 125.674 157.201 128.602 157.85 132.895C157.861 132.963 157.871 133.032 157.882 133.1C159.034 133.567 160.155 134.105 161.24 134.711C161.86 135.059 162.468 135.429 163.062 135.821C163.809 136.317 164.388 137.027 164.722 137.856C165.057 138.686 165.132 139.597 164.938 140.47C164.744 141.343 164.289 142.137 163.634 142.748C162.978 143.359 162.153 143.759 161.265 143.895L161.174 143.909C161.109 143.918 161.052 143.928 160.987 143.937C162.955 148.614 165.717 152.92 169.152 156.664C172.504 174.678 186.9 176.387 202.299 171.141H202.309C203.998 178.45 206.446 185.564 209.613 192.369H235.708C235.802 192.08 235.886 191.782 235.97 191.493C233.555 191.645 231.13 191.501 228.749 191.065C230.686 188.701 232.622 186.317 234.558 183.952C234.601 183.908 234.641 183.861 234.679 183.813C235.661 182.602 236.653 181.401 237.635 180.191L237.635 180.19C237.688 176.48 237.26 172.778 236.363 169.177L236.362 169.176Z" fill="#15BAC0" fill-opacity="0.2"/>
<path d="M114.602 38.5454C114.009 39.9193 95.7479 39.7721 94.9115 40.9954C88.463 50.4402 111.709 90.6254 105.26 100.082L104.362 101.148C106.466 100.183 108.486 99.0482 110.404 97.7549C110.576 93.8839 110.749 90.0006 110.933 86.1297C112.865 88.5892 114.424 91.3173 115.561 94.2269C117.062 93.1734 118.294 91.2205 124.729 87.3792C127.334 84.5303 130.337 82.0694 133.647 80.0718L114.602 38.5454Z" fill="#2F2E41"/>
<path d="M127.862 115.951C125.847 114.644 123.548 113.834 121.156 113.589C118.763 113.344 116.346 113.67 114.106 114.541C111.866 115.412 109.866 116.802 108.274 118.596C106.681 120.39 105.541 122.536 104.949 124.856L77.1976 196.833L29.4968 169.876C29.2873 166.777 28.0975 163.824 26.0978 161.441C24.0982 159.057 21.3915 157.365 18.3661 156.607C15.3406 155.849 12.1517 156.064 9.25675 157.222C6.36183 158.38 3.90962 160.42 2.25181 163.051C0.593994 165.682 -0.184241 168.768 0.0287184 171.866C0.241678 174.964 1.4349 177.916 3.43723 180.298C5.43956 182.679 8.14813 184.368 11.1745 185.123C14.2008 185.877 17.3895 185.658 20.2831 184.497C30.3285 195.169 73.8788 238.926 91.9084 221.829C107.063 207.458 128.933 151.764 134.198 132.531C135.041 129.456 134.882 126.193 133.743 123.214C132.605 120.234 130.546 117.691 127.862 115.951Z" fill="#FFB6B6"/>
<path d="M75.7535 224.845L84.5109 264.246L148.548 270.012L154.433 235.704L75.7535 224.845Z" fill="#FFB6B6"/>
<path d="M173.571 325.884C173.542 326.449 173.507 327.008 173.466 327.572C172.851 335.736 172.149 345.152 171.389 355.471C170.19 371.845 168.85 390.49 167.499 409.998H33.1811L59.2306 332.058C59.2306 332.058 69.7488 326.294 64.3939 316.61C59.0389 306.927 69.5755 314.643 69.6735 300.814C69.7715 286.984 79.2133 272.271 79.2133 272.271L80.7636 251.331L81.6469 251.349L151.546 252.508L152.822 252.531L154.969 270.507C168.004 285.947 174.654 305.744 173.571 325.884Z" fill="#2F2E41"/>
<path d="M115.721 96.8556L147.595 95.2212L162.4 118.507C162.4 118.507 190.255 123.143 188.325 155.817C186.394 188.491 154.433 217.162 154.433 217.162L155.799 212.5L153.426 219.249L153.731 223.038L156.967 227.052L157.301 231.202L154.433 237.769C154.806 238.364 155.004 239.051 155.004 239.752C155.005 240.454 154.808 241.141 154.435 241.737C154.063 242.332 153.959 242.926 153.326 243.235C152.694 243.545 152.091 252.623 151.39 252.553L108.458 251.911C114.591 251.911 106.844 251.911 102.325 251.911H96.5149H81.6665L76.3362 236.148L75.2747 232.299C74.6715 230.112 74.5775 227.817 74.9998 225.588C75.4222 223.359 76.3497 221.255 77.7118 219.437C76.1453 214.554 76.5556 209.255 78.8554 204.669L78.9416 204.497L80.8569 202.908C80.8569 202.908 59.9033 171.572 83.9574 147.971L93.6115 131.634L104.414 118.515L115.721 96.8556Z" fill="#15BAC0"/>
<path d="M123.654 83.1099C140.347 83.1099 153.88 69.6394 153.88 53.0227C153.88 36.406 140.347 22.9355 123.654 22.9355C106.961 22.9355 93.4285 36.406 93.4285 53.0227C93.4285 69.6394 106.961 83.1099 123.654 83.1099Z" fill="#FFB6B6"/>
<path d="M146.611 96.3655C144.149 94.3183 142.436 91.5191 141.737 88.403C141.178 92.1865 141.324 96.0401 142.168 99.771C140.531 100.996 138.944 102.16 137.442 103.213C136.306 100.304 134.747 97.5755 132.815 95.116C132.63 98.9869 132.458 102.87 132.286 106.741C130.368 108.035 128.347 109.169 126.243 110.134L127.142 109.069C133.59 99.6117 116.903 82.2045 123.351 72.7597C125.161 70.1136 116.989 49.2029 110.762 48.2597C105.224 47.4267 105.458 49.0192 100.093 50.1829C99.5353 47.8697 98.6703 45.6409 97.5205 43.5556C97.8265 45.8793 97.7559 48.2368 97.3113 50.5381C95.4038 50.6116 93.9031 49.4018 91.8719 49.0927C78.9133 47.1204 80.2301 33.1677 83.8358 28.7454C87.4539 24.3354 99.4649 23.0124 105.003 21.5791C105.507 21.0891 106.652 21.3954 107.156 20.9299C117.769 11.2615 131.964 9.66036 144.737 13.9456C158.359 18.5155 166.852 27.3602 171.211 40.9954L172.461 51.9071C173.583 55.4155 172.172 71.74 171.211 75.2955C167.476 89.116 159.521 82.2167 146.611 96.3655Z" fill="#2F2E41"/>
<path d="M190.682 238.911L189.492 146.659C189.43 142.751 187.827 139.024 185.028 136.282C182.23 133.54 178.461 132.003 174.534 132.003H174.534C172.503 132.003 170.493 132.415 168.626 133.214C166.76 134.012 165.077 135.181 163.679 136.648C162.281 138.115 161.198 139.85 160.496 141.748C159.794 143.645 159.487 145.665 159.595 147.684L163.782 243.473L163.862 301.785C161.394 302.826 159.308 304.599 157.888 306.862C156.467 309.125 155.781 311.769 155.922 314.433C156.063 317.098 157.025 319.655 158.677 321.756C160.329 323.858 162.591 325.402 165.155 326.18C167.72 326.957 170.462 326.93 173.01 326.101C175.559 325.273 177.789 323.684 179.399 321.55C181.008 319.416 181.918 316.841 182.006 314.174C182.094 311.507 181.355 308.878 179.889 306.644L190.682 238.911Z" fill="#FFB6B6"/>
<path d="M346.679 358.262C346.679 358.262 344.839 391.209 343.993 410H280.636C279.332 392.9 278.893 380.336 278.893 380.336L275.426 410H211.384L207.413 355.062L226.6 307.719C226.6 307.719 330.578 300.541 340.223 309.647C349.862 318.747 346.679 358.262 346.679 358.262Z" fill="#2F2E41"/>
<path d="M290.652 81.1036C309.766 81.1036 325.26 65.6801 325.26 46.6542C325.26 27.6283 309.766 12.2048 290.652 12.2048C271.539 12.2048 256.045 27.6283 256.045 46.6542C256.045 65.6801 271.539 81.1036 290.652 81.1036Z" fill="#FFB6B6"/>
<path d="M330.991 35.4602C327.437 37.0736 325.134 48.759 322.34 46.0424C319.546 43.3258 319.732 39.7905 315.965 38.788C312.923 37.9749 309.65 38.9041 306.875 40.3697C306.38 40.6283 305.899 40.9095 305.431 41.1891C305.122 40.9836 304.815 40.7902 304.485 40.6118C302.003 39.2897 299.106 38.9654 296.391 39.7056C298.537 40.4208 300.402 41.7893 301.723 43.6174C300.794 44.2368 299.854 44.8579 298.892 45.4082C290.854 50.0253 279.417 39.9855 270.956 36.2138C276.256 46.1129 273.646 50.2126 269.045 60.4503L268.886 61.0333C269.147 58.4674 261.171 56.5552 261.634 60.1672C261.962 62.7317 264.192 68.4319 265.44 70.6962C256.545 60.458 250.466 47.9292 251.749 35.0048C252.028 32.2898 251.944 29.4251 253.351 27.0686C254.759 24.7243 257.695 23.0792 260.293 23.9732C260.073 19.8514 260.979 15.7473 262.915 12.0972C264.851 8.44716 267.744 5.3875 271.287 3.24354C274.831 1.09959 278.891 -0.0485239 283.038 -0.0787338C287.184 -0.108944 291.261 0.979882 294.836 3.07198C298.157 5.01199 300.93 7.75578 303.974 10.1225C307.018 12.4892 310.528 14.5522 314.388 14.7476C316.837 14.8652 319.501 14.2701 321.605 15.5326C324.042 16.9975 324.46 20.0646 324.825 23.0159C322.652 23.2292 320.591 24.0828 318.907 25.4676C321.156 25.2392 323.42 25.7226 325.378 26.849C325.415 26.8657 325.45 26.8858 325.484 26.909C326.772 31.7865 326.64 32.8678 330.991 35.4602Z" fill="#2F2E41"/>
<path d="M211.537 324.386C241.009 290.047 231.054 246.37 219.357 202.281L221.583 137.149C221.692 133.954 222.572 130.832 224.148 128.046C225.725 125.261 227.951 122.894 230.64 121.146L260.727 101.58L272.437 84.7268L304.716 87.94L322.616 106.783L342.429 121.84C347.404 125.62 351.189 130.738 353.339 136.589C355.488 142.44 355.912 148.781 354.561 154.865L335.6 240.219C335.6 240.219 343.531 284.467 338.692 289.354C333.853 294.241 321.385 289.357 331.272 294.843C343.138 301.426 353.927 300.211 347.922 306.188C341.917 312.166 349.517 320.475 349.517 320.475L211.537 324.386Z" fill="#15BAC0"/>
<path d="M224.138 374.292L229.051 339.448L209.446 333.877L205.569 370.9C203.946 372.381 202.771 374.283 202.175 376.392C201.579 378.502 201.586 380.735 202.195 382.84C202.804 384.946 203.991 386.841 205.622 388.312C207.254 389.783 209.265 390.771 211.43 391.167C213.595 391.562 215.828 391.349 217.878 390.55C219.928 389.752 221.713 388.4 223.034 386.647C224.354 384.893 225.157 382.808 225.352 380.626C225.547 378.443 225.126 376.25 224.138 374.292Z" fill="#FFB6B6"/>
<path d="M261.462 107.861C261.462 107.861 205.659 125.94 204.328 139.169C202.997 152.397 203.439 160.495 197.549 213.428L197.859 356.017C197.859 356.017 235.272 363.99 231.435 355.465C227.598 346.94 228.937 342.929 228.937 342.929C228.937 342.929 236.958 339.778 234.95 329.768C232.943 319.758 243.012 270.153 243.012 270.153L249.367 181.188L261.462 107.861Z" fill="#15BAC0"/>
<path d="M330.269 372.447L327.654 337.358L347.583 333.074L349.021 370.27C350.543 371.854 351.591 373.828 352.047 375.972C352.503 378.115 352.35 380.343 351.604 382.404C350.858 384.466 349.549 386.279 347.824 387.641C346.1 389.003 344.028 389.859 341.841 390.112C339.655 390.366 337.441 390.008 335.448 389.078C333.455 388.147 331.762 386.682 330.559 384.847C329.357 383.011 328.693 380.878 328.641 378.688C328.59 376.497 329.154 374.336 330.269 372.447H330.269Z" fill="#FFB6B6"/>
<path d="M310.52 104.157C310.52 104.157 365.017 125.828 365.476 139.115C365.935 152.401 364.963 160.453 367.364 213.657L357.691 355.92C357.691 355.92 319.835 361.442 324.223 353.185C328.612 344.928 327.539 340.838 327.539 340.838C327.539 340.838 319.742 337.172 322.403 327.315C325.064 317.457 318.273 267.302 318.273 267.302L317.773 178.114L310.52 104.157Z" fill="#15BAC0"/>
</g>
<defs>
<clipPath id="clip0_10_217">
<rect width="541" height="423" fill="white"/>
</clipPath>
</defs>
</svg>
