<svg width="665" height="503" viewBox="0 0 665 503" fill="none" xmlns="http://www.w3.org/2000/svg">
<path d="M306.611 107.191H142.594C141.789 107.19 141.017 106.869 140.447 106.299C139.878 105.729 139.558 104.956 139.557 104.15V63.427C139.558 62.621 139.878 61.8483 140.447 61.2784C141.017 60.7084 141.789 60.3878 142.594 60.3869H306.611C307.417 60.3878 308.189 60.7084 308.758 61.2784C309.328 61.8483 309.648 62.621 309.649 63.427V104.15C309.648 104.956 309.328 105.729 308.758 106.299C308.189 106.869 307.417 107.19 306.611 107.191ZM142.594 61.6029C142.111 61.6035 141.648 61.7958 141.306 62.1378C140.964 62.4798 140.772 62.9434 140.772 63.427V104.15C140.772 104.634 140.964 105.098 141.306 105.44C141.648 105.782 142.111 105.974 142.594 105.974H306.611C307.095 105.974 307.558 105.782 307.9 105.44C308.241 105.098 308.433 104.634 308.434 104.15V63.427C308.433 62.9434 308.241 62.4798 307.9 62.1378C307.558 61.7958 307.095 61.6035 306.611 61.6029L142.594 61.6029Z" fill="#3F3D56"/>
<path d="M168.079 94.6101C174.912 94.6101 180.451 89.0656 180.451 82.2261C180.451 75.3866 174.912 69.8421 168.079 69.8421C161.246 69.8421 155.706 75.3866 155.706 82.2261C155.706 89.0656 161.246 94.6101 168.079 94.6101Z" fill="#15BAC0"/>
<path d="M196.654 73.9701C196.107 73.9701 195.582 74.1876 195.196 74.5747C194.809 74.9617 194.592 75.4867 194.592 76.0341C194.592 76.5815 194.809 77.1065 195.196 77.4936C195.582 77.8807 196.107 78.0981 196.654 78.0981H293.867C294.414 78.0981 294.938 77.8807 295.325 77.4936C295.712 77.1065 295.929 76.5815 295.929 76.0341C295.929 75.4867 295.712 74.9617 295.325 74.5747C294.938 74.1876 294.414 73.9701 293.867 73.9701H196.654Z" fill="#E6E6E6"/>
<path d="M196.654 86.3541C196.107 86.3541 195.582 86.5716 195.196 86.9587C194.809 87.3457 194.592 87.8707 194.592 88.4181C194.592 88.9655 194.809 89.4905 195.196 89.8776C195.582 90.2647 196.107 90.4821 196.654 90.4821H238.485C238.756 90.4826 239.024 90.4296 239.275 90.3261C239.526 90.2226 239.754 90.0706 239.945 89.8789C240.137 89.6872 240.29 89.4595 240.393 89.2089C240.497 88.9582 240.551 88.6895 240.551 88.4181C240.551 88.1468 240.497 87.8781 240.393 87.6274C240.29 87.3767 240.137 87.149 239.945 86.9573C239.754 86.7656 239.526 86.6137 239.275 86.5102C239.024 86.4067 238.756 86.3536 238.485 86.3541H196.654Z" fill="#E6E6E6"/>
<path d="M235.405 252.35H162.508C161.703 252.349 160.931 252.029 160.361 251.459C159.792 250.889 159.472 250.116 159.471 249.31V173.321C159.472 172.515 159.792 171.742 160.361 171.172C160.931 170.602 161.703 170.282 162.508 170.281H235.405C236.21 170.282 236.982 170.602 237.552 171.172C238.121 171.742 238.441 172.515 238.442 173.321V249.31C238.441 250.116 238.121 250.889 237.552 251.459C236.982 252.029 236.21 252.349 235.405 252.35ZM162.508 171.497C162.025 171.498 161.562 171.69 161.22 172.032C160.878 172.374 160.686 172.837 160.686 173.321V249.31C160.686 249.794 160.878 250.257 161.22 250.599C161.562 250.941 162.025 251.134 162.508 251.134H235.405C235.888 251.134 236.351 250.941 236.693 250.599C237.035 250.257 237.227 249.794 237.227 249.31V173.321C237.227 172.837 237.035 172.374 236.693 172.032C236.351 171.69 235.888 171.498 235.405 171.497H162.508Z" fill="#3F3D56"/>
<path d="M178.041 185.951C177.494 185.951 176.97 186.169 176.583 186.556C176.196 186.943 175.979 187.468 175.979 188.015C175.979 188.563 176.196 189.088 176.583 189.475C176.97 189.862 177.494 190.079 178.041 190.079H219.872C220.419 190.079 220.944 189.862 221.33 189.475C221.717 189.088 221.934 188.563 221.934 188.015C221.934 187.468 221.717 186.943 221.33 186.556C220.944 186.169 220.419 185.951 219.872 185.951H178.041Z" fill="#E6E6E6"/>
<path d="M178.041 198.112C177.77 198.111 177.501 198.164 177.251 198.268C177 198.371 176.772 198.523 176.58 198.715C176.389 198.907 176.236 199.134 176.132 199.385C176.029 199.636 175.975 199.905 175.975 200.176C175.975 200.447 176.029 200.716 176.132 200.967C176.236 201.217 176.389 201.445 176.58 201.637C176.772 201.828 177 201.98 177.251 202.084C177.501 202.187 177.77 202.24 178.041 202.24H219.872C220.419 202.24 220.944 202.022 221.33 201.635C221.717 201.248 221.934 200.723 221.934 200.176C221.934 199.628 221.717 199.103 221.33 198.716C220.944 198.329 220.419 198.112 219.872 198.112H178.041Z" fill="#E6E6E6"/>
<path d="M198.957 236.68C196.389 236.68 193.88 235.918 191.745 234.49C189.611 233.063 187.947 231.034 186.965 228.66C185.982 226.286 185.725 223.674 186.226 221.153C186.727 218.633 187.963 216.318 189.779 214.501C191.594 212.684 193.907 211.447 196.424 210.946C198.942 210.445 201.552 210.702 203.924 211.685C206.296 212.668 208.323 214.334 209.749 216.47C211.175 218.607 211.937 221.119 211.937 223.688C211.933 227.133 210.564 230.435 208.131 232.87C205.697 235.306 202.398 236.676 198.957 236.68Z" fill="#15BAC0"/>
<path d="M354.822 0H427.719C428.524 0.000946436 429.296 0.321551 429.866 0.891487C430.435 1.46142 430.755 2.23415 430.756 3.04016V79.0293C430.755 79.8353 430.435 80.608 429.866 81.178C429.296 81.7479 428.524 82.0685 427.719 82.0695H354.822C354.017 82.0685 353.245 81.7479 352.675 81.178C352.106 80.608 351.786 79.8353 351.785 79.0293V3.04016C351.786 2.23415 352.106 1.46142 352.675 0.891487C353.245 0.321551 354.017 0.000946436 354.822 0ZM427.719 80.8534C428.202 80.8529 428.665 80.6605 429.007 80.3186C429.349 79.9766 429.541 79.5129 429.541 79.0293V3.04016C429.541 2.55654 429.349 2.09288 429.007 1.75091C428.665 1.40894 428.202 1.21659 427.719 1.21606H354.822C354.339 1.21659 353.876 1.40894 353.534 1.75091C353.192 2.09288 353 2.55654 353 3.04016V79.0293C353 79.5129 353.192 79.9766 353.534 80.3186C353.876 80.6605 354.339 80.8529 354.822 80.8534H427.719Z" fill="#3F3D56"/>
<path d="M412.186 66.3991C412.733 66.3991 413.258 66.1817 413.644 65.7946C414.031 65.4075 414.248 64.8825 414.248 64.3351C414.248 63.7877 414.031 63.2627 413.644 62.8757C413.258 62.4886 412.733 62.2711 412.186 62.2711H370.355C369.808 62.2711 369.284 62.4886 368.897 62.8757C368.51 63.2627 368.293 63.7877 368.293 64.3351C368.293 64.8825 368.51 65.4075 368.897 65.7946C369.284 66.1817 369.808 66.3991 370.355 66.3991H412.186Z" fill="#E6E6E6"/>
<path d="M412.186 54.2385C412.733 54.2385 413.258 54.021 413.644 53.634C414.031 53.2469 414.248 52.7219 414.248 52.1745C414.248 51.6271 414.031 51.1021 413.644 50.715C413.258 50.328 412.733 50.1105 412.186 50.1105H370.355C369.808 50.1105 369.284 50.328 368.897 50.715C368.51 51.1021 368.293 51.6271 368.293 52.1745C368.293 52.7219 368.51 53.2469 368.897 53.634C369.284 54.021 369.808 54.2385 370.355 54.2385H412.186Z" fill="#E6E6E6"/>
<path d="M391.27 15.6703C393.838 15.6703 396.347 16.4323 398.482 17.8599C400.616 19.2875 402.28 21.3165 403.262 23.6905C404.245 26.0645 404.502 28.6767 404.001 31.1969C403.5 33.7171 402.264 36.032 400.449 37.849C398.633 39.6659 396.321 40.9033 393.803 41.4046C391.285 41.9059 388.675 41.6486 386.303 40.6653C383.931 39.6819 381.904 38.0167 380.478 35.8802C379.052 33.7437 378.29 31.2318 378.29 28.6623C378.294 25.2178 379.663 21.9155 382.096 19.4799C384.53 17.0443 387.829 15.6742 391.27 15.6703Z" fill="#15BAC0"/>
<path d="M140.493 157.21C153.393 147.21 168.464 140.391 184.486 137.304C200.635 134.224 217.288 135.081 233.037 139.801C240.954 142.161 248.561 145.46 255.695 149.628C262.963 153.881 269.531 159.117 275.851 164.66C282.253 170.276 288.444 176.142 295.127 181.428C314.206 196.693 337.893 205.033 362.318 205.087C364.336 205.09 366.353 205.034 368.368 204.92C369.46 204.86 369.467 203.151 368.368 203.211C343.47 204.584 318.883 197.147 298.91 182.204C291.984 177.02 285.659 171.092 279.203 165.348C272.943 159.779 266.516 154.362 259.414 149.888C242.043 138.934 221.834 133.342 201.308 133.811C180.782 134.279 160.849 140.786 143.994 152.521C142.392 153.636 140.827 154.802 139.286 156.002C138.42 156.676 139.636 157.878 140.493 157.21V157.21Z" fill="#3F3D56"/>
<path d="M139.587 165.468C144.486 165.468 148.458 161.493 148.458 156.589C148.458 151.686 144.486 147.71 139.587 147.71C134.688 147.71 130.716 151.686 130.716 156.589C130.716 161.493 134.688 165.468 139.587 165.468Z" fill="#3F3D56"/>
<path d="M469.593 283.355C474.492 283.355 478.464 279.38 478.464 274.476C478.464 269.572 474.492 265.597 469.593 265.597C464.694 265.597 460.723 269.572 460.723 274.476C460.723 279.38 464.694 283.355 469.593 283.355Z" fill="#3F3D56"/>
<path d="M516.065 223.898H371.323C370.517 223.897 369.745 223.576 369.176 223.006C368.606 222.436 368.286 221.664 368.285 220.858V145.477C368.286 144.671 368.606 143.898 369.176 143.328C369.745 142.758 370.517 142.437 371.323 142.436H516.065C516.87 142.437 517.642 142.758 518.211 143.328C518.781 143.898 519.101 144.671 519.102 145.477V220.858C519.101 221.664 518.781 222.436 518.211 223.006C517.642 223.576 516.87 223.897 516.065 223.898ZM371.323 143.653C370.839 143.653 370.376 143.845 370.034 144.187C369.693 144.529 369.501 144.993 369.5 145.477V220.858C369.501 221.341 369.693 221.805 370.034 222.147C370.376 222.489 370.839 222.681 371.323 222.682H516.065C516.548 222.681 517.011 222.489 517.353 222.147C517.694 221.805 517.887 221.341 517.887 220.858V145.477C517.887 144.993 517.694 144.529 517.353 144.187C517.011 143.845 516.548 143.653 516.065 143.653H371.323Z" fill="#3F3D56"/>
<path d="M395.593 181.524C402.426 181.524 407.965 175.979 407.965 169.14C407.965 162.3 402.426 156.756 395.593 156.756C388.759 156.756 383.22 162.3 383.22 169.14C383.22 175.979 388.759 181.524 395.593 181.524Z" fill="#15BAC0"/>
<path d="M424.167 160.884C423.896 160.883 423.628 160.936 423.377 161.04C423.126 161.143 422.899 161.295 422.707 161.487C422.515 161.679 422.363 161.907 422.259 162.157C422.155 162.408 422.101 162.677 422.101 162.948C422.101 163.219 422.155 163.488 422.259 163.739C422.363 163.989 422.515 164.217 422.707 164.409C422.899 164.6 423.126 164.752 423.377 164.856C423.628 164.959 423.896 165.012 424.167 165.012H502.105C502.652 165.012 503.177 164.794 503.563 164.407C503.95 164.02 504.167 163.495 504.167 162.948C504.167 162.4 503.95 161.876 503.563 161.488C503.177 161.101 502.652 160.884 502.105 160.884H424.167Z" fill="#E6E6E6"/>
<path d="M424.167 173.268C423.896 173.267 423.628 173.32 423.377 173.424C423.126 173.527 422.899 173.679 422.707 173.871C422.515 174.063 422.363 174.291 422.259 174.541C422.155 174.792 422.101 175.061 422.101 175.332C422.101 175.603 422.155 175.872 422.259 176.123C422.363 176.373 422.515 176.601 422.707 176.793C422.899 176.984 423.126 177.136 423.377 177.24C423.628 177.343 423.896 177.396 424.167 177.396H465.998C466.545 177.396 467.07 177.178 467.457 176.791C467.843 176.404 468.061 175.879 468.061 175.332C468.061 174.785 467.843 174.26 467.457 173.872C467.07 173.485 466.545 173.268 465.998 173.268H424.167Z" fill="#E6E6E6"/>
<path d="M386.102 193.066C384.534 193.066 383.257 193.992 383.257 195.13C383.257 196.268 384.534 197.194 386.102 197.194H500.951C502.52 197.194 503.796 196.268 503.796 195.13C503.796 193.992 502.52 193.066 500.951 193.066H386.102Z" fill="#E6E6E6"/>
<path d="M386.102 205.45C384.534 205.45 383.257 206.376 383.257 207.514C383.257 208.652 384.534 209.578 386.102 209.578H500.951C502.52 209.578 503.796 208.652 503.796 207.514C503.796 206.376 502.52 205.45 500.951 205.45H386.102Z" fill="#E6E6E6"/>
<path d="M359.687 282.742C367.853 279.196 376.97 282.288 384.667 285.555C388.631 287.238 392.552 289.035 396.654 290.364C400.106 291.479 403.64 292.317 407.224 292.871C414.416 293.974 421.731 294.018 428.936 293.004C436.177 291.993 443.235 289.939 449.889 286.906C456.506 283.904 462.622 279.901 468.023 275.039C468.71 274.417 469.384 273.782 470.045 273.132C470.831 272.361 469.623 271.154 468.838 271.924C463.637 276.999 457.666 281.217 451.147 284.424C444.655 287.619 437.73 289.846 430.593 291.033C423.433 292.241 416.133 292.367 408.935 291.407C405.344 290.921 401.798 290.149 398.33 289.099C394.347 287.803 390.439 286.284 386.626 284.55C378.857 281.21 370.226 277.94 361.69 280.243C360.711 280.514 359.754 280.856 358.826 281.267C357.821 281.703 358.689 283.176 359.687 282.742V282.742Z" fill="#3F3D56"/>
<path d="M356.532 303.697H288.149L304.242 275.797C304.53 275.297 304.945 274.881 305.445 274.593C305.944 274.304 306.511 274.152 307.088 274.152C307.665 274.152 308.231 274.304 308.731 274.593C309.231 274.881 309.645 275.297 309.934 275.797L316.809 287.715L328.498 267.45C328.859 266.824 329.378 266.304 330.004 265.942C330.629 265.581 331.339 265.391 332.061 265.391C332.783 265.391 333.493 265.581 334.118 265.942C334.744 266.304 335.263 266.824 335.625 267.45L356.532 303.697Z" fill="#15BAC0"/>
<path d="M356.597 303.689H283.7C282.895 303.688 282.123 303.368 281.553 302.798C280.984 302.228 280.664 301.455 280.663 300.649V259.926C280.664 259.12 280.984 258.347 281.553 257.777C282.123 257.207 282.895 256.886 283.7 256.885H356.597C357.402 256.886 358.174 257.207 358.744 257.777C359.313 258.347 359.633 259.12 359.634 259.926V300.649C359.633 301.455 359.313 302.228 358.744 302.798C358.174 303.368 357.402 303.688 356.597 303.689ZM283.7 258.102C283.217 258.102 282.754 258.294 282.412 258.636C282.07 258.978 281.878 259.442 281.878 259.926V300.649C281.878 301.133 282.07 301.596 282.412 301.938C282.754 302.28 283.217 302.473 283.7 302.473H356.597C357.08 302.473 357.543 302.28 357.885 301.938C358.227 301.596 358.419 301.133 358.419 300.649V259.926C358.419 259.442 358.227 258.978 357.885 258.636C357.543 258.294 357.08 258.102 356.597 258.102H283.7Z" fill="#3F3D56"/>
<path d="M499.575 267.848L486.581 274.453C481.943 276.81 477.467 276.407 475.753 271.492C475.345 270.322 475.195 269.078 475.312 267.844C475.429 266.611 475.811 265.418 476.431 264.346C477.052 263.274 477.897 262.349 478.908 261.634C479.919 260.919 481.072 260.431 482.289 260.204L494.638 257.896L547.528 240.333L579.566 217.594L591.311 236.322L554.291 256.317L499.575 267.848Z" fill="#FFB8B8"/>
<path d="M560.23 487.064L550.288 485.405L551.393 466.61H561.887L560.23 487.064Z" fill="#FFB8B8"/>
<path d="M656.717 468.706L647.096 471.71L639.619 454.434L648.986 449.7L656.717 468.706Z" fill="#FFB8B8"/>
<path d="M651.359 452.237L639.209 457.212L581.217 380.924L562.991 470.479L550.841 468.268C543.046 391.06 536.691 312.308 544.489 275.061L589.502 273.126L609.937 338.358L619.878 382.583L651.359 452.237Z" fill="#2F2E41"/>
<path d="M559.683 502.264C557.865 502.654 555.971 502.453 554.275 501.689L548.37 499.029C543.418 498.775 540.046 499.762 537.289 496.161C536.511 495.131 536.023 493.912 535.874 492.63C535.726 491.348 535.923 490.05 536.445 488.87C536.963 487.685 537.786 486.66 538.83 485.9C539.875 485.139 541.102 484.671 542.387 484.542L550.499 479.426L550.924 483.262C554.632 485.364 559.033 484.456 563.697 482.409L566.243 491.328C566.571 492.478 566.66 493.683 566.504 494.869C566.347 496.055 565.949 497.196 565.334 498.221C564.719 499.247 563.9 500.135 562.928 500.83C561.956 501.526 560.851 502.014 559.683 502.264Z" fill="#2F2E41"/>
<path d="M660.654 483.969C659.061 484.929 657.204 485.354 655.353 485.183L648.904 484.587C644.138 485.955 641.269 487.985 637.493 485.475C636.424 484.754 635.566 483.76 635.01 482.596C634.454 481.431 634.219 480.139 634.33 478.853C634.435 477.565 634.881 476.328 635.622 475.269C636.363 474.211 637.372 473.369 638.546 472.829L644.558 465.354L646.205 468.843C650.393 469.627 654.262 467.337 658.009 463.886L663.31 471.494C663.994 472.475 664.469 473.586 664.706 474.758C664.942 475.93 664.936 477.139 664.687 478.309C664.438 479.478 663.951 480.584 663.258 481.558C662.564 482.532 661.678 483.353 660.654 483.969Z" fill="#2F2E41"/>
<path d="M572.933 194.627C583.914 194.627 592.816 185.717 592.816 174.726C592.816 163.735 583.914 154.825 572.933 154.825C561.952 154.825 553.05 163.735 553.05 174.726C553.05 185.717 561.952 194.627 572.933 194.627Z" fill="#FFB8B8"/>
<path d="M597.234 216.74L571.276 211.212L567.962 189.652L586.188 185.783L597.234 216.74Z" fill="#FFB8B8"/>
<path d="M590.054 275.89H543.661L554.118 249.612C553.358 240.57 557.187 233.919 562.667 228.129L569.619 210.659C580.852 203.259 589.321 203.812 598.339 213.423C609.031 228.575 601.63 251.353 590.054 275.89Z" fill="#15BAC0"/>
<path d="M569.067 331.724L567.747 346.251C567.276 351.436 564.556 355.016 559.485 353.856C558.279 353.58 557.146 353.046 556.165 352.291C555.183 351.536 554.376 350.578 553.799 349.482C553.222 348.386 552.888 347.178 552.821 345.941C552.753 344.704 552.954 343.467 553.408 342.315L558.021 330.619L571.276 276.443L569.067 237.194H591.159L588.397 279.207L569.067 331.724Z" fill="#FFB8B8"/>
<path d="M592.816 238.299H567.41L569.191 221.711C569.308 218.842 570.492 216.12 572.511 214.08C574.531 212.041 577.239 210.83 580.104 210.687C581.622 210.611 583.141 210.837 584.571 211.352C586.002 211.868 587.316 212.662 588.437 213.689C589.559 214.715 590.466 215.955 591.106 217.335C591.747 218.715 592.107 220.209 592.166 221.729L592.816 238.299Z" fill="#15BAC0"/>
<path d="M597.541 154.263C601.668 154.263 605.014 150.914 605.014 146.783C605.014 142.652 601.668 139.303 597.541 139.303C593.413 139.303 590.067 142.652 590.067 146.783C590.067 150.914 593.413 154.263 597.541 154.263Z" fill="#2F2E41"/>
<path d="M589.84 144.952C589.963 143.054 590.804 141.274 592.191 139.975C593.579 138.676 595.41 137.956 597.31 137.96C597.155 137.941 597.003 137.917 596.845 137.907C594.868 137.781 592.921 138.446 591.434 139.756C589.946 141.066 589.039 142.913 588.912 144.892C588.785 146.871 589.448 148.82 590.756 150.31C592.064 151.799 593.909 152.708 595.886 152.837C596.044 152.847 596.198 152.843 596.354 152.843C594.469 152.604 592.746 151.655 591.535 150.189C590.325 148.723 589.719 146.85 589.84 144.952Z" fill="#2F2E41"/>
<path d="M589.798 148.146C583.133 142.612 564.016 149.646 562.782 153.366C553.769 154.596 546.945 159.859 546.945 169.218V169.218C552.303 171.415 558.398 171.144 564.986 169.218C575.487 177.784 576.207 188.553 569.821 200.921L577.678 201.079L587.417 186.831L587.883 201.283L605.894 200.921V180.211C605.952 173.325 604.369 166.524 601.275 160.373C598.468 154.916 594.113 151.729 589.798 148.146Z" fill="#2F2E41"/>
<path d="M573.026 184.737C575 184.737 576.6 182.495 576.6 179.729C576.6 176.963 575 174.721 573.026 174.721C571.052 174.721 569.452 176.963 569.452 179.729C569.452 182.495 571.052 184.737 573.026 184.737Z" fill="#FFB8B8"/>
<path d="M123.359 186.084C123.359 186.084 125.51 148.814 136.678 157.282C147.847 165.751 131.801 189.54 131.801 189.54L123.359 186.084Z" fill="#A0616A"/>
<path d="M81.8075 296.637C81.8075 296.637 106.616 324.514 92.7361 326.43C78.8561 328.346 73.3961 300.168 73.3961 300.168L81.8075 296.637Z" fill="#A0616A"/>
<path d="M49.4343 164.682C52.548 165.502 55.3502 167.225 57.489 169.634C59.6278 172.043 61.0079 175.031 61.4558 178.222L69.3472 234.442L80.4099 279.287C80.4099 279.287 85.9413 284.27 83.7287 287.038C81.5162 289.807 86.4944 301.433 86.4944 301.433L72.666 305.862C72.666 305.862 71.0066 294.236 68.2409 293.682C65.8104 293.196 38.6019 220.445 32.0435 202.82C31.1393 200.39 30.6276 199.008 30.6276 199.008C30.6276 199.008 31.7339 161.914 49.4343 164.682Z" fill="#575A89"/>
<path d="M51.9601 457.862L60.4539 472.928C67.0315 486.984 61.1863 489.537 45.0589 482.57L41.3826 464.78L51.9601 457.862Z" fill="#A0616A"/>
<path d="M56.2457 477.886C56.2457 477.886 60.2779 471.315 61.7362 472.415C63.1946 473.515 69.2099 478.28 69.2099 478.28L77.045 485.792C77.045 485.792 103.517 488.593 86.6959 497.877C69.8753 507.16 60.5797 499.463 60.5797 499.463C60.5797 499.463 37.0208 500.689 37.4008 494.11C37.7809 487.531 45.3788 477.123 45.3788 477.123C45.3788 477.123 54.9547 483.549 56.2457 477.886Z" fill="#2F2E41"/>
<path d="M14.2689 287.563L22.2319 384.004C22.2319 384.004 22.4973 441.656 30.9911 452.814C39.4849 463.973 39.7503 469.552 39.7503 469.552L57.2688 460.519C57.2688 460.519 48.2441 445.467 50.1022 443.163C51.2475 441.702 52.0625 440.009 52.491 438.202L47.7133 378.69L56.7379 275.077L14.2689 287.563Z" fill="#2F2E41"/>
<path d="M36.0339 457.862L28.6019 477.522L11.7469 470.469L20.6391 455.737L36.0339 457.862Z" fill="#A0616A"/>
<path d="M23.6353 470.9C23.6353 470.9 29.9568 466.946 30.7469 468.527C31.5371 470.109 34.6979 476.832 34.6979 476.832L38.2537 486.718C38.2537 486.718 59.9837 500.559 41.4144 501.35C22.8451 502.141 18.104 491.464 18.104 491.464C18.104 491.464 -2.83582 482.368 0.32493 476.832C3.48568 471.296 14.5482 465.554 14.5482 465.554C14.5482 465.554 20.0795 475.25 23.6353 470.9Z" fill="#2F2E41"/>
<path d="M81.6884 287.829L85.9353 376.565C85.9353 376.565 47.1824 456.799 42.9355 458.925C41.67 459.579 40.5482 460.48 39.6364 461.575C38.7247 462.67 38.0413 463.937 37.6268 465.301L14.2689 459.456L24.8861 442.453L48.2441 385.598C48.2441 385.598 51.9601 384.004 53.0219 378.69C54.0836 373.377 56.2071 373.377 50.8984 372.314C45.5898 371.252 45.5898 365.938 45.5898 365.938L28.0713 285.172L81.6884 287.829Z" fill="#2F2E41"/>
<path d="M83.5377 130.765C85.4163 119.178 77.5549 108.261 65.9788 106.381C54.4027 104.501 43.4956 112.369 41.6171 123.956C39.7386 135.543 47.5999 146.46 59.176 148.34C70.7521 150.221 81.6592 142.352 83.5377 130.765Z" fill="#A0616A"/>
<path d="M43.7318 128.689C43.7318 128.689 42.1392 155.788 40.0158 158.445C37.8923 161.102 62.312 160.57 62.312 160.57C62.312 160.57 60.7194 137.722 62.312 135.597C63.9046 133.471 43.7318 128.689 43.7318 128.689Z" fill="#A0616A"/>
<path d="M83.2791 293.675C83.2791 293.675 23.2915 288.362 12.1462 293.675C12.1462 293.675 16.2491 278.44 15.1889 276.848C14.4179 275.684 16.5451 232.288 15.8773 207.255C15.4987 193.13 12.2426 179.335 21.7081 168.848C24.9299 165.286 28.5234 162.295 32.3165 160.835C32.3165 160.835 31.2563 150.74 36.5639 150.21C36.5639 150.21 56.7411 148.08 64.169 154.461C66.544 156.487 68.0378 162.66 68.1962 167.98C64.5201 186.074 65.8212 206.153 69.1944 226.982C69.4009 228.305 69.6281 229.635 69.8552 230.965C73.4349 251.623 78.8458 272.921 83.2791 293.675Z" fill="#575A89"/>
<path d="M51.4841 133.624C53.2799 133.516 55.0334 134.124 56.8168 134.361C63.1971 135.209 69.8346 130.574 71.2433 124.288C71.3563 123.451 71.6055 122.638 71.9812 121.882C72.9632 120.277 75.1995 119.971 77.0431 120.34C78.8866 120.709 80.6341 121.573 82.5116 121.672C85.4105 121.824 88.1935 120.038 89.7384 117.578C91.1983 115.04 91.8192 112.105 91.5121 109.193L90.1225 110.653C89.5578 109.457 89.3397 108.127 89.4932 106.813C88.7568 106.617 87.9823 106.613 87.244 106.802C86.5057 106.991 85.8283 107.367 85.2766 107.893C84.0512 108.024 84.976 105.618 84.0657 104.787C83.6229 104.514 83.0952 104.416 82.584 104.509C79.9772 104.534 77.8684 102.539 75.8141 100.932C72.2549 98.1547 68.0927 96.2544 63.6639 95.3848C60.7203 94.8101 57.5901 94.7178 54.7985 95.8149C52.545 96.8275 50.5111 98.2715 48.8115 100.066C44.441 104.272 40.5708 109.215 38.7525 115.004C37.2744 119.746 37.2325 124.821 38.6322 129.586C39.3649 132.062 41.5729 140.538 44.8054 140.735C48.8671 140.984 46.4285 133.925 51.4841 133.624Z" fill="#2F2E41"/>
<path d="M60.2735 167.291L67.8812 168.107C67.8812 168.107 75.3492 182.609 74.8068 185.633C74.2645 188.658 73.0834 186.822 76.4447 191.661C79.8059 196.501 89.3437 209.01 90.5248 210.846C91.7059 212.683 123.905 188.093 121.903 180.726C121.903 180.726 132.072 188.028 136.429 189C136.429 189 103.246 232.56 98.6213 238.134C93.9971 243.709 90.2754 242.564 83.9205 239.259C77.5656 235.953 45.4162 202.985 45.4162 202.985L60.2735 167.291Z" fill="#575A89"/>
<path opacity="0.1" d="M69.8552 230.965L43.4135 204.499L50.1048 202.315L69.1943 226.982C69.4008 228.305 69.628 229.635 69.8552 230.965Z" fill="black"/>
</svg>
