<svg width="611" height="376" viewBox="0 0 611 376" fill="none" xmlns="http://www.w3.org/2000/svg">
<g clip-path="url(#clip0_44_463)">
<path opacity="0.1" d="M0.000244141 241.496C-0.0103149 251.683 1.22137 261.834 3.66785 271.722C4.49097 275.054 5.44714 278.317 6.5365 281.511C7.86938 285.453 9.41412 289.32 11.1638 293.095C12.0457 295.005 12.9778 296.877 13.96 298.71C13.9438 309.157 16.0936 319.494 20.2732 329.067C27.8286 346.243 41.3013 360.131 58.2357 368.199C68.8237 373.254 80.3948 375.912 92.126 375.984H495.012C512.937 376.023 530.553 371.311 546.068 362.33L546.306 362.195C548.516 360.901 550.671 359.53 552.77 358.084C557.493 354.82 561.931 351.16 566.035 347.144C571.589 341.713 576.484 335.645 580.617 329.067C590.324 313.646 595.466 295.79 595.448 277.566C605.278 260.31 611.011 239.638 611.011 217.425C611.011 189.399 601.901 163.833 586.935 144.479C583.815 140.436 580.397 136.631 576.711 133.098C573.073 129.601 569.163 126.399 565.018 123.522C561.702 121.218 558.235 119.137 554.643 117.294C553.144 116.531 551.639 115.81 550.109 115.14C548.765 114.543 547.406 113.988 546.031 113.464C544.382 112.838 542.711 112.261 541.02 111.736C539.329 111.21 537.66 110.749 536.014 110.355C533.593 109.763 531.131 109.282 528.627 108.912C526.552 108.606 524.477 108.393 522.402 108.232C520.753 108.108 519.087 108.04 517.412 108.019H516.504C514.657 108.019 512.821 108.092 511 108.217C510.808 107.833 510.601 107.443 510.409 107.065C509.682 105.679 508.93 104.298 508.173 102.949C508.174 102.937 508.174 102.925 508.173 102.913C508.043 102.674 507.913 102.44 507.778 102.212C507.166 101.106 506.528 100.011 505.875 98.9266C505.574 98.4076 505.278 97.9197 504.972 97.4319C504.907 97.3106 504.836 97.1928 504.759 97.079C504.448 96.56 504.132 96.041 503.81 95.522C502.209 92.9616 500.544 90.4461 498.814 87.9757L498.373 87.3425C498.104 86.9585 497.855 86.5848 497.554 86.2007C496.838 85.1991 496.101 84.1922 495.359 83.2061C494.841 82.5002 494.322 81.7996 493.762 81.1301C492.413 79.4001 491.03 77.6701 489.612 75.9401C488.194 74.2101 486.72 72.5026 485.192 70.8176C484.984 70.584 484.777 70.3556 484.559 70.1273L482.344 67.7087C482.235 67.5946 482.142 67.4908 482.038 67.387C481.773 67.1015 481.519 66.8161 481.234 66.541C480.046 65.2798 478.827 64.0446 477.603 62.8146C471.372 56.606 464.734 50.8202 457.734 45.4955C457.459 45.2776 457.179 45.07 456.904 44.8624C455.587 43.8711 454.248 42.8902 452.91 41.9248C445.548 36.6411 437.853 31.839 429.872 27.5485C429.322 27.2319 428.762 26.9361 428.196 26.6455C421.041 22.8584 413.683 19.4693 406.154 16.4938C402.051 14.8693 397.854 13.3435 393.632 11.9474C390.82 11.0236 387.998 10.1464 385.14 9.32124C380.671 8.03412 376.172 6.88021 371.642 5.85951C358.294 2.86324 344.716 1.01234 331.054 0.326966C326.904 0.115906 322.707 0.00691787 318.464 -2.12854e-06C297.989 -0.0271219 277.593 2.55403 257.77 7.6812C257.565 7.99109 257.284 8.24372 256.955 8.41532C256.625 8.58692 256.258 8.67184 255.887 8.66211H254.144C253.386 8.86971 252.634 9.07731 251.877 9.29529C247.647 10.5132 243.478 11.8436 239.369 13.2864L238.332 13.6601C228.191 17.2676 218.325 21.6039 208.81 26.6351C200.232 31.1595 191.973 36.2645 184.091 41.9144C182.877 42.7864 181.68 43.6652 180.501 44.551C179.069 43.6341 177.613 42.7552 176.133 41.9144C170.417 38.6574 164.346 36.0679 158.039 34.1969C144.853 30.2931 130.902 29.7472 117.452 32.6088C100.203 36.2677 84.5884 45.3502 71.9775 58.2681C66.8427 63.5536 62.272 69.3596 58.3395 75.5924C58.0541 76.0387 57.7688 76.4902 57.4939 76.9469C54.114 82.4634 51.2089 88.2572 48.8099 94.266C48.7217 94.4892 48.6335 94.6968 48.5557 94.9147C46.341 100.541 44.5549 106.327 43.2125 112.223C43.1503 112.524 43.0776 112.82 43.0154 113.121C41.7599 118.827 40.907 124.615 40.4631 130.44C40.4631 130.648 40.4631 130.861 40.4216 131.079C40.2037 134.092 40.0931 137.137 40.0896 140.213C40.0896 142.964 40.183 145.694 40.3542 148.403C40.3542 148.699 40.3957 149.005 40.4216 149.311C40.4683 150.095 40.5358 150.868 40.6032 151.657C36.6413 154.854 32.9332 158.354 29.5122 162.125C28.0009 163.776 26.538 165.488 25.1235 167.263C20.8151 172.666 17.0286 178.465 13.8146 184.582C5.04254 201.149 0.000244141 220.637 0.000244141 241.496Z" fill="#15BAC0"/>
<path opacity="0.1" d="M58.6194 366.279C58.6194 369.824 70.8257 373.146 92.1258 376H495.012C512.937 376.038 530.552 371.327 546.068 362.345L546.306 362.21C540.185 359.978 529.135 357.897 514.097 356.018L513.422 355.935C506.678 355.11 499.141 354.327 490.903 353.584C490.696 353.584 490.483 353.553 490.275 353.527C483.739 352.946 476.786 352.401 469.416 351.892C469.183 351.892 468.955 351.851 468.721 351.841C465.878 351.636 462.977 351.443 460.016 351.259L458.875 351.187C437.321 349.848 412.82 348.778 386.249 348.073H386.218C382.497 347.969 378.736 347.877 374.935 347.798C370.709 347.697 366.431 347.609 362.101 347.533C358.797 347.46 355.451 347.408 352.095 347.356H352.017C336.874 347.128 321.229 347.014 305.23 347.014C265.67 347.014 228.278 347.735 195.145 349.033H195.052C189.958 349.23 184.957 349.448 180.081 349.671L175.931 349.868C170.428 350.131 165.068 350.413 159.849 350.714C98.4805 354.207 58.6194 359.88 58.6194 366.279Z" fill="#15BAC0"/>
<g opacity="0.2">
<path d="M258.102 344.632C258.118 345.191 258.182 345.749 258.294 346.298C261.904 345.723 265.535 345.204 269.188 344.741C269.188 344.595 269.188 344.445 269.188 344.294C269.154 342.738 268.706 341.219 267.891 339.893C266.822 338.201 265.198 337.142 263.409 337.2C261.619 337.257 260.068 338.414 259.108 340.163C258.382 341.537 258.035 343.079 258.102 344.632Z" fill="#3F3D56"/>
<path d="M257.804 335.763C257.677 331.749 260.058 328.417 263.122 328.32C266.186 328.223 268.773 331.398 268.899 335.412C269.026 339.426 266.645 342.758 263.581 342.855C260.517 342.952 257.93 339.777 257.804 335.763Z" fill="#3F3D56"/>
<path d="M257.52 326.877C257.394 322.864 259.775 319.531 262.839 319.434C265.903 319.338 268.489 322.513 268.616 326.527C268.743 330.54 266.362 333.873 263.298 333.97C260.234 334.066 257.647 330.891 257.52 326.877Z" fill="#3F3D56"/>
<path d="M257.243 317.992C257.116 313.978 259.497 310.646 262.561 310.549C265.625 310.452 268.212 313.627 268.338 317.641C268.465 321.655 266.084 324.987 263.02 325.084C259.956 325.181 257.369 322.006 257.243 317.992Z" fill="#3F3D56"/>
<path d="M256.965 309.106C256.838 305.093 259.219 301.76 262.283 301.663C265.347 301.566 267.934 304.742 268.06 308.756C268.187 312.769 265.806 316.102 262.742 316.198C259.678 316.295 257.091 313.12 256.965 309.106Z" fill="#3F3D56"/>
<path d="M281.394 247.454C282.124 246.464 282.783 245.424 283.365 244.34L268.705 242.404L284.485 242.025C285.894 238.683 286.606 235.089 286.578 231.463C286.55 227.836 285.784 224.253 284.325 220.933L263.512 232.585L282.576 217.617C280.653 214.505 278.109 211.823 275.104 209.739C272.098 207.654 268.695 206.213 265.107 205.503C261.52 204.794 257.824 204.832 254.252 205.616C250.68 206.4 247.308 207.912 244.346 210.058C241.384 212.204 238.896 214.939 237.038 218.09C235.18 221.241 233.991 224.742 233.546 228.374C233.101 232.005 233.409 235.69 234.451 239.197C235.493 242.704 237.247 245.958 239.603 248.757C238.466 250.296 237.501 251.955 236.724 253.703L255.964 262.941L235.562 256.801C234.277 261.043 234.07 265.538 234.959 269.88C235.849 274.222 237.807 278.273 240.656 281.667C237.694 285.687 235.922 290.461 235.544 295.442C235.166 300.422 236.197 305.409 238.518 309.831C240.839 314.254 244.358 317.933 248.671 320.449C252.984 322.965 257.918 324.215 262.908 324.058C267.898 323.901 272.743 322.341 276.889 319.559C281.036 316.776 284.315 312.882 286.354 308.322C288.392 303.763 289.106 298.721 288.415 293.774C287.725 288.827 285.656 284.174 282.447 280.348C285.986 275.543 287.807 269.687 287.619 263.722C287.431 257.756 285.244 252.026 281.409 247.454H281.394Z" fill="#15BAC0"/>
<path opacity="0.1" d="M234.431 265.401C234.612 271.37 236.806 277.103 240.656 281.667C237.694 285.687 235.922 290.461 235.544 295.442C235.166 300.422 236.197 305.409 238.518 309.831C240.839 314.254 244.358 317.933 248.671 320.449C252.984 322.965 257.918 324.215 262.908 324.058C267.898 323.901 272.743 322.341 276.889 319.559C281.036 316.776 284.315 312.882 286.354 308.322C288.392 303.763 289.106 298.721 288.415 293.774C287.725 288.827 285.656 284.175 282.447 280.348C285.855 275.714 234.337 262.417 234.431 265.401Z" fill="black"/>
</g>
<g opacity="0.2">
<path d="M336.952 344.632C336.969 345.191 337.033 345.749 337.144 346.298C340.755 345.723 344.386 345.204 348.038 344.741C348.038 344.595 348.038 344.445 348.038 344.294C348.004 342.738 347.557 341.219 346.741 339.893C345.673 338.201 344.049 337.142 342.259 337.2C340.469 337.257 338.918 338.414 337.959 340.163C337.233 341.537 336.885 343.079 336.952 344.632Z" fill="#3F3D56"/>
<path d="M336.66 335.765C336.533 331.751 338.914 328.419 341.978 328.322C345.042 328.225 347.629 331.4 347.756 335.414C347.883 339.428 345.501 342.76 342.437 342.857C339.373 342.954 336.787 339.779 336.66 335.765Z" fill="#3F3D56"/>
<path d="M336.377 326.879C336.25 322.866 338.631 319.533 341.695 319.437C344.759 319.34 347.346 322.515 347.473 326.529C347.599 330.542 345.218 333.875 342.154 333.972C339.09 334.069 336.504 330.893 336.377 326.879Z" fill="#3F3D56"/>
<path d="M336.099 317.994C335.972 313.98 338.353 310.648 341.417 310.551C344.481 310.454 347.068 313.629 347.195 317.643C347.322 321.657 344.94 324.989 341.876 325.086C338.812 325.183 336.226 322.008 336.099 317.994Z" fill="#3F3D56"/>
<path d="M335.821 309.108C335.694 305.095 338.075 301.762 341.139 301.665C344.204 301.569 346.79 304.744 346.917 308.758C347.044 312.771 344.663 316.104 341.599 316.201C338.535 316.297 335.948 313.122 335.821 309.108Z" fill="#3F3D56"/>
<path d="M360.244 247.454C360.975 246.464 361.633 245.424 362.215 244.34L347.555 242.404L363.336 242.025C364.744 238.683 365.456 235.089 365.429 231.463C365.401 227.836 364.634 224.253 363.175 220.933L342.363 232.585L361.427 217.617C359.504 214.505 356.96 211.823 353.954 209.739C350.948 207.654 347.545 206.213 343.958 205.503C340.37 204.794 336.675 204.832 333.103 205.616C329.53 206.4 326.158 207.912 323.196 210.058C320.235 212.204 317.747 214.939 315.889 218.09C314.031 221.241 312.842 224.742 312.397 228.374C311.952 232.005 312.26 235.69 313.302 239.197C314.344 242.704 316.098 245.958 318.453 248.757C317.317 250.296 316.352 251.955 315.574 253.703L334.815 262.941L314.412 256.801C313.127 261.043 312.92 265.538 313.81 269.88C314.699 274.222 316.657 278.273 319.506 281.667C316.544 285.687 314.773 290.461 314.395 295.442C314.017 300.422 315.047 305.409 317.369 309.831C319.69 314.254 323.208 317.933 327.522 320.449C331.835 322.965 336.768 324.215 341.759 324.058C346.749 323.901 351.594 322.341 355.74 319.559C359.886 316.776 363.166 312.882 365.204 308.322C367.242 303.763 367.957 298.721 367.266 293.774C366.575 288.827 364.507 284.174 361.297 280.348C364.836 275.543 366.658 269.687 366.47 263.722C366.282 257.756 364.094 252.026 360.26 247.454H360.244Z" fill="#15BAC0"/>
<path opacity="0.1" d="M313.281 265.401C313.463 271.37 315.657 277.103 319.506 281.667C316.544 285.687 314.773 290.461 314.395 295.442C314.017 300.422 315.047 305.409 317.369 309.831C319.69 314.254 323.208 317.933 327.522 320.449C331.835 322.965 336.768 324.215 341.759 324.058C346.749 323.901 351.594 322.341 355.74 319.559C359.886 316.776 363.166 312.882 365.204 308.322C367.242 303.763 367.957 298.721 367.266 293.774C366.575 288.827 364.507 284.175 361.297 280.348C364.705 275.714 313.188 262.417 313.281 265.401Z" fill="black"/>
</g>
<g opacity="0.2">
<path d="M121.565 350.309C121.605 351.37 121.731 352.425 121.944 353.465C128.895 352.354 135.897 351.361 142.948 350.486C142.948 350.206 142.948 349.92 142.948 349.63C142.882 346.632 142.019 343.707 140.448 341.154C138.373 337.9 135.26 335.861 131.821 335.964C128.382 336.068 125.388 338.305 123.521 341.673C122.113 344.327 121.437 347.308 121.565 350.309Z" fill="#3F3D56"/>
<path d="M121 333.222C120.756 325.493 125.343 319.075 131.245 318.889C137.146 318.702 142.129 324.817 142.373 332.546C142.617 340.276 138.031 346.693 132.129 346.88C126.227 347.067 121.245 340.952 121 333.222Z" fill="#3F3D56"/>
<path d="M120.461 316.116C120.217 308.386 124.804 301.969 130.706 301.782C136.607 301.596 141.59 307.71 141.834 315.44C142.078 323.17 137.491 329.587 131.59 329.773C125.688 329.96 120.706 323.845 120.461 316.116Z" fill="#3F3D56"/>
<path d="M119.917 299.009C119.673 291.28 124.259 284.863 130.161 284.676C136.063 284.489 141.045 290.604 141.289 298.334C141.534 306.063 136.947 312.481 131.045 312.667C125.143 312.854 120.161 306.739 119.917 299.009Z" fill="#3F3D56"/>
<path d="M119.986 281.124C119.754 273.391 124.353 266.978 130.258 266.801C136.163 266.624 141.137 272.749 141.369 280.483C141.601 288.216 137.002 294.629 131.098 294.806C125.193 294.983 120.218 288.858 119.986 281.124Z" fill="#3F3D56"/>
<path d="M166.411 163.231C167.811 161.325 169.078 159.326 170.204 157.247L141.983 153.52L172.356 152.788C175.069 146.355 176.442 139.436 176.39 132.454C176.339 125.472 174.864 118.574 172.055 112.182L131.982 134.608L168.678 105.793C164.968 99.8162 160.067 94.668 154.28 90.6693C148.494 86.6706 141.947 83.907 135.046 82.5509C128.145 81.1948 121.04 81.2751 114.171 82.7869C107.303 84.2987 100.82 87.2095 95.1252 91.338C89.4306 95.4665 84.647 100.724 81.0725 106.783C77.4979 112.842 75.209 119.573 74.3485 126.556C73.4879 133.539 74.0742 140.625 76.0706 147.371C78.067 154.117 81.4309 160.38 85.9525 165.769C83.7671 168.734 81.9078 171.927 80.407 175.292L117.451 193.089L78.1764 181.256C75.7012 189.411 75.2981 198.056 77.0037 206.407C78.7094 214.758 82.4697 222.551 87.9445 229.081C82.2431 236.822 78.834 246.012 78.107 255.6C77.38 265.188 79.3645 274.787 83.8335 283.3C88.3026 291.813 95.0759 298.895 103.379 303.738C111.682 308.581 121.179 310.989 130.786 310.686C140.392 310.383 149.719 307.381 157.7 302.025C165.682 296.668 171.996 289.173 175.92 280.395C179.844 271.618 181.22 261.913 179.891 252.39C178.562 242.866 174.581 233.91 168.403 226.544C175.213 217.293 178.718 206.022 178.357 194.54C177.995 183.057 173.789 172.029 166.411 163.226V163.231Z" fill="#15BAC0"/>
<path opacity="0.1" d="M75.9926 197.775C76.333 209.26 80.5369 220.294 87.924 229.092C82.2226 236.833 78.8135 246.023 78.0865 255.61C77.3595 265.198 79.344 274.798 83.8131 283.31C88.2822 291.823 95.0554 298.906 103.358 303.749C111.661 308.592 121.159 310.999 130.765 310.696C140.371 310.393 149.698 307.392 157.68 302.035C165.661 296.679 171.975 289.183 175.9 280.406C179.824 271.628 181.2 261.923 179.871 252.4C178.541 242.877 174.56 233.92 168.383 226.554C174.992 217.622 75.8111 192.03 75.9926 197.775Z" fill="black"/>
</g>
<path d="M529.13 351.223L523.688 351.207H516.016L506.315 193.546L410.247 33.1589L414.423 28.6748V17.319L518.319 189.829L529.13 351.223Z" fill="#F1C0C0"/>
<path opacity="0.1" d="M523.107 351.207H516.016L506.315 193.546L410.247 33.1589L414.423 28.6748L513.516 191.143L523.107 351.207Z" fill="black"/>
<path d="M545.165 352.536L296.24 371.594L296.028 371.609L55.1231 356.787L54.9416 356.776V346.599L320.388 341.725L541.85 341.512H543.469L543.645 342.654L545.165 352.536Z" fill="#F1C0C0"/>
<path opacity="0.1" d="M545.165 352.536L296.24 371.594L296.028 371.609L55.1231 356.787L54.9416 356.589V346.811H55.1543L296.24 354.866L541.85 341.512H541.887L542.322 341.798L543.645 342.654L545.165 352.536Z" fill="black"/>
<path opacity="0.1" d="M545.165 352.536L296.24 371.594V354.866L542.322 341.798L543.645 342.654L545.165 352.536Z" fill="black"/>
<path d="M414.454 28.462L304.711 146.306L308.104 353.595L298.782 354.721L298.626 354.742H289.304L288.189 155.207L82.6947 223.881L79.2294 346.157L71.7282 346.998L69.1863 347.284L75.069 215.401L289.885 139.948L407.674 17.4384H414.454V28.462Z" fill="#F1C0C0"/>
<path opacity="0.1" d="M289.035 151.392L288.189 155.207L82.6947 223.881L79.2294 346.157L71.7282 346.998L77.6109 221.338L289.035 151.392Z" fill="black"/>
<path opacity="0.1" d="M414.454 28.462L304.711 146.306L308.104 353.595L298.782 354.721L296.24 139.523L414.454 17.4384V28.462Z" fill="black"/>
<path d="M288.635 234.583L213.265 249.431L213.239 249.437L81.2318 275.454L75.1883 273.03L75.2091 272.605L75.6033 264.171L288.557 221.12L288.635 234.583Z" fill="#F1C0C0"/>
<path opacity="0.1" d="M213.239 249.437L81.2317 275.454L75.1882 273.03L75.209 272.605L213.239 249.437Z" fill="black"/>
<path d="M208.192 181.941L206.153 294.221L205.1 351.825L195.82 351.514L189.978 351.316L191.794 183.565L195.82 182.226L196.701 181.941H208.192Z" fill="#F1C0C0"/>
<path opacity="0.1" d="M208.109 181.915V181.941L206.153 294.221L205.1 351.825L195.82 351.514V181.915H208.109Z" fill="black"/>
<path d="M353.562 210.615C353.018 210.911 352.498 211.25 352.006 211.627C351.425 212.136 350.903 212.709 350.45 213.335C348.224 216.215 346.17 219.563 346.388 223.196C346.383 223.725 346.483 224.249 346.682 224.739C346.88 225.229 347.174 225.674 347.545 226.051C348.463 226.834 349.781 226.871 350.984 226.871C352.291 226.871 353.666 226.871 354.797 226.196C355.928 225.521 356.872 224.208 358.21 224.239C358.399 224.27 358.592 224.27 358.781 224.239C359.243 224.089 359.336 223.481 359.637 223.097C360.156 222.407 361.25 222.578 362.065 222.879C362.879 223.18 363.782 223.632 364.586 223.284C365.053 223.038 365.434 222.656 365.681 222.189C367.605 219.075 368.015 215.333 368.378 211.716C368.601 209.515 370.303 202.01 365.608 203.718C363.533 204.465 361.593 205.96 359.704 207.055L353.562 210.615Z" fill="#3F3D56"/>
<path d="M358.201 211.358C357.781 211.659 357.273 211.812 356.757 211.791C356.241 211.771 355.746 211.578 355.353 211.243C354.58 210.545 354.088 209.59 353.967 208.555C353.449 208.394 353.184 209.074 352.852 209.489C352.271 210.195 351.088 210.185 350.559 210.937C350.191 211.456 350.274 212.178 350.015 212.764C349.677 213.522 348.842 213.916 348.272 214.529C347.733 215.198 347.344 215.975 347.13 216.807L346.28 219.361C345.872 220.422 345.611 221.535 345.501 222.667C345.448 223.233 345.507 223.803 345.676 224.346C345.846 224.889 346.121 225.392 346.487 225.827C347.628 227.057 349.501 227.187 351.156 227.151C351.708 227.163 352.26 227.098 352.795 226.959C354.263 226.502 355.202 225.023 355.591 223.533C355.98 222.044 355.939 220.482 356.167 218.956C356.414 217.457 356.849 215.996 357.464 214.607C357.92 213.527 359.176 211.918 359.155 210.771C358.782 210.771 358.512 211.114 358.201 211.358Z" fill="#3F3D56"/>
<path d="M356.338 206.1C356.58 205.363 356.722 204.597 356.758 203.822C356.758 202.265 356.047 200.801 355.331 199.41L361.261 200.215C361.977 200.313 362.776 200.459 363.18 201.055C363.334 201.351 363.414 201.68 363.414 202.013C363.414 202.346 363.334 202.675 363.18 202.971C362.883 203.563 362.647 204.183 362.475 204.823C362.461 205.383 362.397 205.941 362.283 206.489C362.098 206.892 361.839 207.257 361.52 207.564C359.824 209.442 358.553 211.659 357.287 213.854C357.323 213.792 353.713 210.994 353.858 210.081C353.941 209.562 354.984 208.939 355.316 208.441C355.774 207.718 356.119 206.928 356.338 206.1Z" fill="#BE6F72"/>
<path d="M305.5 185.823V190.935L392.998 208.01L397.538 210.761H413.199V207.88L327.231 187.1L305.5 185.823Z" fill="#F1C0C0"/>
<path opacity="0.1" d="M305.5 190.935L392.998 208.01L397.538 210.761H413.199L326.593 192.217L305.5 190.935Z" fill="black"/>
<path d="M375.75 330.946C376.725 329.764 378.07 328.948 379.568 328.63C381.066 328.311 382.627 328.509 383.998 329.191C384.291 329.33 384.55 329.532 384.755 329.783C385.274 330.51 384.942 331.511 384.895 332.409C384.776 334.599 386.519 336.38 388.086 337.911C388.926 338.731 389.782 339.608 390.161 340.724C390.54 341.839 390.259 343.256 389.243 343.838C388.799 344.06 388.316 344.194 387.821 344.232C386.163 344.556 384.463 344.603 382.789 344.372C381.134 344.056 379.511 343.116 378.795 341.59C378.657 341.177 378.428 340.799 378.126 340.485C377.213 339.763 375.812 340.609 374.775 340.096C373.919 339.67 373.882 339.001 373.872 338.118C373.841 335.679 374.204 332.918 375.75 330.946Z" fill="#15BAC0"/>
<path d="M363.3 330.852C362.662 332.534 362.574 334.366 362.491 336.162C362.444 337.2 362.413 338.31 362.973 339.187C363.533 340.064 364.628 340.526 365.676 340.744C367.839 341.191 370.345 340.77 371.74 339.052C372.809 337.739 373.032 335.938 372.835 334.236C372.669 332.84 372.316 331.205 373.317 330.214C373.576 329.949 373.914 329.762 374.152 329.477C374.671 328.844 374.588 327.889 374.308 327.11C373.943 326.366 373.67 325.58 373.493 324.77C373.452 324.385 366.469 325.039 365.826 325.356C364.95 325.787 365.084 326.508 364.82 327.38C364.452 328.595 363.746 329.69 363.3 330.852Z" fill="#15BAC0"/>
<path d="M362.018 256.293C360.649 257.18 360.12 258.924 359.907 260.543C359.321 264.981 360.348 269.465 360.426 273.944C360.499 280.219 358.683 286.607 360.234 292.685C361.163 296.318 360.374 300.47 361.246 304.139C361.505 305.229 361.982 306.257 362.231 307.347C362.75 309.708 362.205 312.179 361.474 314.488C361.24 315.111 361.092 315.762 361.033 316.424C361.068 317.443 361.327 318.443 361.79 319.351L364.903 326.716C365.25 327.541 366.62 327.676 367.497 327.785C369.146 327.982 370.988 328.122 372.3 327.1C373.613 326.077 373.929 324.365 374.131 322.766C374.519 319.697 374.693 316.605 374.65 313.512C374.593 312.705 374.665 311.894 374.863 311.109C375.148 310.222 375.776 309.454 375.947 308.514C376.165 307.3 375.548 306.106 375.319 304.881C375.163 303.763 375.18 302.626 375.371 301.513C375.574 299.852 375.807 298.192 376.072 296.541C376.445 294.232 375.911 291.953 375.553 289.638C375.216 287.464 375.646 285.248 376.072 283.089C376.035 284.841 376.253 286.589 376.72 288.279C376.995 289.104 377.389 289.893 377.628 290.733C378.691 294.507 376.424 298.467 376.746 302.375C376.896 304.202 377.612 306.008 377.41 307.809C377.27 309.127 376.658 310.336 376.238 311.592C375.817 312.848 375.599 314.286 376.238 315.459C377.923 318.645 376.663 322.979 375.153 326.249C374.847 326.829 374.58 327.429 374.354 328.044C373.908 329.518 374.282 331.101 374.163 332.638C374.597 332.709 375.042 332.68 375.464 332.553C375.885 332.426 376.272 332.205 376.595 331.906C376.824 331.667 377.01 331.387 377.234 331.138C377.857 330.543 378.595 330.082 379.402 329.783C379.876 329.518 380.416 329.393 380.958 329.425C381.528 329.584 382.041 329.903 382.437 330.344C382.95 330.795 383.494 331.209 384.066 331.584C384.309 331.771 384.594 331.897 384.896 331.952C385.047 331.976 385.203 331.951 385.34 331.881C385.477 331.811 385.588 331.7 385.658 331.563C385.691 331.477 385.71 331.386 385.715 331.293C385.908 329.726 386.01 328.149 386.021 326.57C386.021 323.856 389.269 321.988 389.678 319.304C390.005 317.14 389.398 314.934 389.601 312.755C389.699 311.634 390.01 310.533 389.99 309.412C389.99 308.686 389.824 307.975 389.767 307.253C389.719 306.452 389.731 305.649 389.803 304.85L389.964 302.344C390.119 299.868 390.291 297.34 391.266 295.078C392.422 292.435 393.107 289.611 393.289 286.732C393.393 284.915 393.325 283.099 393.533 281.277C393.72 279.632 394.135 277.997 394.015 276.347C393.917 275.07 393.497 273.835 393.398 272.558C393.196 270.103 394.129 267.716 394.861 265.365C395.592 263.014 396.132 260.408 395.172 258.14C395.035 257.768 394.807 257.436 394.508 257.175C394.14 256.931 393.721 256.775 393.284 256.718C384.383 254.848 375.26 254.266 366.194 254.99C364.717 255.074 363.282 255.521 362.018 256.293Z" fill="#3F3D56"/>
<path d="M391.468 201.17C386.878 201.17 383.157 197.447 383.157 192.855C383.157 188.263 386.878 184.541 391.468 184.541C396.058 184.541 399.778 188.263 399.778 192.855C399.778 197.447 396.058 201.17 391.468 201.17Z" fill="#BE6F72"/>
<path d="M393.076 203.24C392.957 203.716 392.957 204.213 393.076 204.688C393.207 205.021 393.391 205.329 393.621 205.602C394.425 206.64 395.316 207.609 396.282 208.498C395.79 209.598 394.903 210.474 393.797 210.953C392.699 211.42 391.548 211.75 390.368 211.934C389.78 212.088 389.167 212.131 388.563 212.058C388.006 211.918 387.479 211.679 387.007 211.352L382.39 208.586C381.693 208.209 381.048 207.743 380.471 207.2C379.624 206.33 379.145 205.166 379.132 203.951C379.111 203.734 379.17 203.516 379.298 203.339C379.475 203.185 379.697 203.092 379.931 203.074C381.555 202.716 382.836 201.398 383.562 199.903C384.219 198.371 384.644 196.75 384.823 195.092L389.746 197.687C390.477 198.076 391.204 198.466 391.961 198.803C392.443 199.021 393.419 199.203 393.761 199.644C394.415 200.459 393.248 202.26 393.076 203.24Z" fill="#BE6F72"/>
<path d="M396.251 206.988C396.952 207.563 397.499 208.303 397.844 209.141C398.165 210.179 397.844 211.275 397.553 212.302C396.192 216.682 395.151 221.156 394.44 225.687C394.005 228.801 393.844 231.962 393.631 235.112C393.195 241.537 392.563 251.783 391.717 258.166C388.604 258.306 385.57 257.398 382.483 257.066C376.715 256.454 370.775 257.855 365.126 256.547C366.495 251.134 367.865 241.89 369.234 236.482C369.84 234.352 370.26 232.172 370.49 229.969C370.609 228.386 370.536 226.798 370.515 225.205C370.469 222.091 370.64 218.977 370.811 215.863C371.008 212.23 371.205 208.597 372.067 205.041C372.127 204.588 372.339 204.169 372.668 203.853C373.187 203.474 373.861 203.609 374.479 203.692C376.369 203.932 378.282 203.479 379.863 202.415C380.548 201.948 381.466 201.377 382.104 201.896C382.377 202.209 382.556 202.592 382.623 203.002C382.906 203.736 383.341 204.401 383.901 204.954C384.461 205.506 385.133 205.932 385.871 206.204C387.349 206.74 388.897 207.058 390.467 207.149C390.947 207.252 391.448 207.195 391.893 206.988C392.63 206.536 392.682 204.912 393.61 204.803C394.425 204.709 395.701 206.463 396.251 206.988Z" fill="#3F3D56"/>
<path d="M383.977 219.662C385.891 217.83 386.732 215.172 388.127 212.915C389.077 211.396 390.291 210.061 391.712 208.97C392.426 208.498 393.081 207.943 393.662 207.315C394.155 206.707 394.529 205.898 395.276 205.664C395.584 205.597 395.905 205.606 396.209 205.69C396.514 205.774 396.793 205.931 397.024 206.147C397.481 206.583 397.914 207.044 398.321 207.527C400.52 209.806 404.385 210.122 406.128 212.759C406.598 213.318 406.918 213.988 407.057 214.705C407.558 218.543 406.567 222.426 404.286 225.552C403.845 226.277 403.167 226.827 402.367 227.109C402.476 228.077 402.347 229.057 401.994 229.964C401.033 233.249 399.853 236.465 398.461 239.591C398.794 240.814 399.026 242.062 399.156 243.323C399.519 246.494 399.182 249.712 399.524 252.888C399.804 255.483 400.562 258.011 400.588 260.611C400.588 261.026 400.551 261.519 400.194 261.732C400.003 261.83 399.79 261.874 399.576 261.862L393.195 262.054C389.492 262.163 385.751 262.272 382.105 261.586C381.619 261.515 381.148 261.366 380.709 261.145C379.474 260.455 379.065 258.898 378.867 257.512C378.61 255.715 378.508 253.899 378.561 252.084C377.788 254.528 376.87 257.056 374.536 258.114C373.301 258.675 371.89 258.633 370.536 258.597C367.618 258.467 364.71 258.167 361.826 257.699C361.649 257.721 361.468 257.701 361.3 257.641C361.131 257.581 360.979 257.482 360.855 257.352C360.732 257.223 360.64 257.066 360.588 256.894C360.536 256.723 360.525 256.542 360.555 256.365L360.524 253.532C360.462 247.776 361.889 242.274 362.444 236.545C362.62 234.739 362.605 232.912 363.045 231.142C363.227 230.4 363.492 229.673 363.652 228.926C363.791 228.194 363.877 227.454 363.912 226.71L364.316 221.001C364.508 218.359 364.783 215.811 364.986 213.174C365.097 210.607 365.469 208.058 366.096 205.566C366.547 204.009 367.486 202.244 369.11 202.052C369.976 201.953 370.816 202.332 371.641 202.597C373.669 203.235 375.844 203.226 377.866 202.571C378.491 202.324 379.142 202.15 379.806 202.052C380.141 202.006 380.481 202.051 380.793 202.18C381.105 202.31 381.377 202.52 381.581 202.789C381.782 203.194 381.877 203.645 381.856 204.097C382.099 209.282 382.551 214.622 383.977 219.662Z" fill="#15BAC0"/>
<path d="M392.324 219.817C394.715 217.295 397.169 214.726 400.251 213.122C401.464 212.489 402.844 212.012 404.188 212.25C405.531 212.489 406.782 213.657 406.719 215.022C406.678 215.868 406.164 216.615 406.004 217.445C405.817 218.38 406.087 219.376 405.796 220.279C405.56 220.874 405.207 221.416 404.759 221.873L401.086 226.227C399.53 228.043 397.973 229.886 395.971 231.142C393.968 232.398 391.375 232.984 389.175 232.092C387.61 231.364 386.309 230.169 385.45 228.671C384.537 227.218 383.894 225.63 383.038 224.13C381.706 221.734 379.948 219.6 377.851 217.835C378.93 217.554 380.284 217.16 380.963 216.278C381.157 215.997 381.322 215.698 381.456 215.385L382.296 213.569C382.582 213.554 382.868 213.598 383.136 213.699C383.404 213.8 383.648 213.955 383.853 214.155C384.213 214.572 384.599 214.965 385.01 215.333C385.741 215.883 386.732 216.034 387.396 216.662C387.653 216.931 387.885 217.223 388.091 217.534C388.593 218.194 389.231 218.739 389.961 219.133C390.691 219.527 391.497 219.76 392.324 219.817Z" fill="#3F3D56"/>
<path d="M377.659 208.965C375.859 205.68 375.942 201.741 375.428 198.03C375.373 197.047 375.028 196.103 374.437 195.315C373.4 194.142 371.569 194.127 370.002 194.277C369.54 194.329 368.964 194.547 368.99 195.009C369.027 195.175 369.107 195.327 369.224 195.45C370.742 197.411 371.635 199.784 371.786 202.26C370.972 202.825 369.711 201.663 368.928 202.26C368.409 202.695 368.648 203.557 368.959 204.18C369.682 205.623 370.427 207.055 371.195 208.477C371.808 209.731 372.607 210.884 373.566 211.897C374.225 212.531 374.998 213.029 375.667 213.652C377.223 215.11 378.162 217.17 379.77 218.592C379.906 218.74 380.09 218.834 380.289 218.857C380.493 218.843 380.686 218.756 380.834 218.613C381.637 217.959 382.303 217.153 382.794 216.241C383.407 215.11 383.313 214.778 382.348 213.979C380.543 212.551 378.784 211.02 377.659 208.965Z" fill="#BE6F72"/>
<path d="M395.333 217.586C395.022 217.778 394.638 217.996 394.295 217.835C394.156 217.75 394.037 217.635 393.948 217.497C393.355 216.706 392.86 215.845 392.475 214.934C392.408 214.805 392.371 214.663 392.366 214.518C392.366 214.186 392.661 213.942 392.936 213.75C394.41 212.811 395.993 212.058 397.652 211.508C399.021 210.989 400.453 210.538 401.906 210.667C402.451 210.704 402.984 210.851 403.472 211.099C403.959 211.347 404.392 211.691 404.743 212.11C405.781 213.444 404.043 213.849 402.953 214.331C400.432 215.478 397.704 216.143 395.333 217.586Z" fill="#15BAC0"/>
<path opacity="0.1" d="M396.967 226.409C396.984 226.527 396.974 226.648 396.936 226.762C396.898 226.875 396.834 226.978 396.749 227.063C396.599 226.326 396.796 225.547 396.64 224.805C396.412 223.689 395.328 222.848 395.234 221.727C397.221 221.338 396.951 225.205 396.967 226.409Z" fill="black"/>
<path opacity="0.2" d="M305.5 185.823V190.935L326.592 192.217L327.23 187.1L305.5 185.823Z" fill="black"/>
<path d="M398.949 194.09C397.631 193.016 398.394 190.764 397.501 189.321C396.983 188.532 396.106 188.117 395.245 187.764C394.206 187.277 393.092 186.969 391.951 186.85C391.379 186.795 390.802 186.87 390.264 187.069C389.725 187.267 389.238 187.585 388.838 187.997C388.501 188.381 388.273 188.849 387.956 189.248C387.564 189.714 387.054 190.066 386.478 190.265C385.903 190.464 385.284 190.504 384.688 190.38C383.998 190.224 383.282 189.7 383.329 188.994C383.407 188.565 383.626 188.174 383.952 187.883L385.435 186.238C387.121 184.37 388.994 182.387 391.468 181.92C393.191 181.593 394.954 182.055 396.614 182.61C397.284 182.833 398.036 183.166 398.222 183.845C398.347 184.312 398.16 184.821 398.269 185.293C398.482 186.233 399.685 186.549 400.246 187.338C400.806 188.127 400.635 189.061 400.795 189.933C400.956 190.805 401.423 191.656 401.48 192.559C401.517 193.104 401.242 194.116 400.629 194.314C400.017 194.511 399.327 193.442 398.949 194.09Z" fill="#3F3D56"/>
<path d="M383.832 188.246C384.27 185.963 385.213 183.807 386.592 181.935C387.818 180.187 389.525 178.832 391.505 178.033C392.494 177.646 393.559 177.488 394.618 177.572C395.677 177.655 396.704 177.978 397.621 178.515C398.982 179.487 400.041 180.824 400.676 182.371C402.02 185.267 402.518 188.807 400.956 191.589C400.334 190.831 399.265 191.174 398.321 190.899C397.138 190.561 396.137 189.772 395.011 189.279C391.614 187.779 387.463 188.994 383.832 188.246Z" fill="#FED253"/>
<path opacity="0.1" d="M400.162 188.086C400.282 187.151 400.359 186.067 399.695 185.402C399.662 185.362 399.62 185.329 399.573 185.308C399.525 185.286 399.473 185.276 399.421 185.278C399.374 185.293 399.332 185.317 399.295 185.349C399.258 185.381 399.229 185.421 399.208 185.465C398.825 186.07 398.498 186.709 398.233 187.375C398.619 187.285 399.024 187.314 399.394 187.458C399.764 187.601 400.082 187.853 400.308 188.179" fill="black"/>
<path opacity="0.1" d="M388.039 185.449L388.226 183.596C388.256 183.444 388.243 183.286 388.189 183.14C388.111 183.017 387.99 182.928 387.851 182.89C387.711 182.852 387.562 182.867 387.432 182.932C387.177 183.073 386.966 183.284 386.825 183.539C386.393 184.202 386.035 184.911 385.756 185.652C386.592 185.49 387.451 185.501 388.283 185.683" fill="black"/>
<path opacity="0.1" d="M383.396 260.647V264.882L386.97 265.121H405.77V260.647H383.396Z" fill="black"/>
<path d="M383.396 260.647V265.121H405.77L465.209 190.629V187.11H452.748L383.396 260.647Z" fill="#F1C0C0"/>
<path opacity="0.1" d="M383.396 260.647V265.121H405.77L465.209 190.629V187.11H452.748L383.396 260.647Z" fill="black"/>
<path opacity="0.1" d="M383.396 260.647V265.121H405.77L465.209 190.629V187.11L405.448 260.647H383.396Z" fill="black"/>
<path d="M457.417 335.31C457.378 335.521 457.383 335.737 457.431 335.946C457.479 336.154 457.57 336.351 457.698 336.523C457.825 336.695 457.987 336.839 458.172 336.945C458.358 337.052 458.564 337.119 458.776 337.142C460.218 337.63 461.749 338.113 462.771 339.218C463.793 340.324 463.995 342.374 462.771 343.272C462.145 343.649 461.426 343.845 460.696 343.838C458.346 343.998 455.897 343.967 453.765 342.971C452.24 342.265 450.803 341.061 449.127 341.17C448.261 341.222 447.338 341.627 446.565 341.232C445.792 340.838 445.574 339.737 445.569 338.819C445.549 336.901 445.838 334.993 446.425 333.167C446.503 332.918 449.802 332.726 450.196 332.648L454.196 332.129C454.953 332.03 456.587 331.459 457.184 332.093C457.78 332.726 457.417 334.558 457.417 335.31Z" fill="#15BAC0"/>
<path d="M433.549 322.356C433.38 323.291 433.105 324.203 432.73 325.076C432.175 326.487 431.464 327.987 430.105 328.672C428.87 329.29 427.355 329.067 426.1 328.48C425.576 328.263 425.117 327.915 424.767 327.468C424.362 326.762 424.181 325.949 424.248 325.138C424.248 323.129 424.367 321.053 425.286 319.268C426.074 317.711 427.449 316.372 427.469 314.649L432.195 315.562C432.448 315.587 432.689 315.682 432.89 315.838C433.04 315.995 433.144 316.191 433.191 316.403C433.696 318.345 433.818 320.367 433.549 322.356Z" fill="#15BAC0"/>
<path d="M489.985 273.051C490.182 274.722 490.099 276.513 489.227 277.956C488.356 279.399 486.519 280.353 484.932 279.777C484.851 279.757 484.774 279.72 484.708 279.669C484.641 279.618 484.585 279.554 484.543 279.482C484.501 279.306 484.525 279.121 484.61 278.963C485.311 277.091 485.253 275.02 484.45 273.191C484.346 272.953 484.123 272.672 483.879 272.766C483.777 272.817 483.695 272.901 483.646 273.004C483.394 273.439 483.269 273.935 483.282 274.437C483.356 274.892 483.37 275.354 483.324 275.812C483.225 276.259 482.748 276.679 482.333 276.487C482.213 276.413 482.109 276.316 482.028 276.201C481.947 276.086 481.89 275.955 481.861 275.817C480.704 272.47 481.228 268.811 481.757 265.308C481.753 265.227 481.766 265.147 481.796 265.072C481.826 264.997 481.872 264.93 481.931 264.875C481.99 264.82 482.06 264.779 482.137 264.754C482.214 264.729 482.295 264.722 482.375 264.732C484.823 264.488 486.161 263.901 487.562 266.18C488.766 268.1 489.985 270.742 489.985 273.051Z" fill="#15BAC0"/>
<path d="M461.36 264.534C462.086 267.555 462.818 270.612 462.864 273.715C462.851 275.649 462.706 277.579 462.429 279.492L461.884 283.986C461.697 285.502 461.515 287.012 461.251 288.512C461.082 289.285 460.99 290.072 460.976 290.863C461.027 291.643 461.15 292.416 461.344 293.173C461.671 294.762 461.853 296.377 461.889 297.999C461.946 300.594 461.624 303.189 461.422 305.784C461.018 310.956 461.079 316.153 461.604 321.313C461.813 322.706 461.511 324.127 460.753 325.314C460.445 325.689 460.192 326.105 460.001 326.55C459.612 327.738 460.519 328.927 460.753 330.146C460.902 331.097 460.668 332.069 460.102 332.847C459.536 333.626 458.684 334.148 457.734 334.298C453.584 334.791 449.32 334.568 445.579 336.468C445.185 335.316 446.046 334.008 445.652 332.835C445.403 332.108 444.718 331.636 444.251 331.023C443.624 330.09 443.311 328.981 443.359 327.858C443.341 326.391 443.601 324.935 444.127 323.565C444.568 322.424 445.201 321.297 445.164 320.073C445.164 319.47 444.952 318.837 445.195 318.282C445.363 317.963 445.59 317.679 445.865 317.446C447.415 315.747 448.368 313.587 448.578 311.296C448.78 309.023 448.707 306.733 448.36 304.477C448.106 302.328 447.763 300.06 446.399 298.384C447.032 293.3 446.66 288.142 445.304 283.203C445.17 282.746 444.957 282.217 444.49 282.108C444.304 282.089 444.117 282.115 443.944 282.183C443.77 282.252 443.616 282.361 443.494 282.502C442.68 283.265 442.29 284.371 441.938 285.429C441.549 286.576 441.154 287.801 441.45 288.974C441.575 289.493 441.824 289.95 441.969 290.448C442.284 291.449 442.229 292.531 441.813 293.495C441.61 293.847 441.483 294.237 441.44 294.642C441.488 294.989 441.593 295.325 441.751 295.638C441.943 296.252 442.004 296.9 441.93 297.539C441.856 298.179 441.648 298.795 441.32 299.349C440.659 300.451 439.843 301.452 438.898 302.323C439.35 304.315 439.233 306.394 438.561 308.322C438.512 308.409 438.481 308.505 438.47 308.604C438.458 308.703 438.466 308.803 438.493 308.898C438.587 309.096 438.825 309.168 439.012 309.308C439.531 309.734 439.209 310.538 438.861 311.094C437.909 312.618 436.857 314.078 435.713 315.464C434.675 316.704 434.768 319.097 433.223 319.543C432.573 319.684 431.901 319.684 431.251 319.543C429.726 319.31 428.025 318.868 427.278 317.519C426.972 316.964 426.847 316.289 426.37 315.874C425.893 315.459 425.275 315.386 425.011 314.888C424.746 314.389 425.042 313.736 424.954 313.159C424.865 312.583 424.362 312.121 424.201 311.514C423.818 310.113 425.452 308.961 425.675 307.528C425.996 305.452 423.382 303.895 423.491 301.819C423.719 297.309 423.864 292.778 424.098 288.268C424.391 284.228 424.432 280.174 424.222 276.129C424.041 273.612 423.703 270.975 424.627 268.634C425.955 265.334 429.617 263.481 433.16 263.128C436.703 262.775 440.236 263.616 443.748 264.166C449.577 265.065 455.499 265.188 461.36 264.534Z" fill="#3F3D56"/>
<path d="M450.829 214.928C446.239 214.928 442.519 211.206 442.519 206.614C442.519 202.022 446.239 198.3 450.829 198.3C455.419 198.3 459.14 202.022 459.14 206.614C459.14 211.206 455.419 214.928 450.829 214.928Z" fill="#FBBEBE"/>
<path d="M454.211 216.48C454.494 217.138 454.968 217.695 455.573 218.077C456.178 218.46 456.884 218.65 457.599 218.624C457.9 219.869 457.179 221.125 456.354 222.106C454.641 224.1 452.428 225.601 449.942 226.454C447.456 227.307 444.788 227.481 442.212 226.959C441.21 226.779 440.259 226.382 439.427 225.796C438.304 224.858 437.551 223.553 437.3 222.111C437.061 220.68 436.993 219.225 437.098 217.778C437.068 217.492 437.15 217.206 437.326 216.978C437.533 216.818 437.79 216.733 438.052 216.74C439.805 216.584 441.637 216.516 443.177 215.655C444.718 214.793 445.813 212.847 445.071 211.249C445.19 211.498 448.22 211.617 448.619 211.669C449.869 211.845 451.119 212.043 452.365 212.271C452.963 212.304 453.554 212.416 454.123 212.603C454.875 212.992 454.595 212.8 454.419 213.506C454.154 214.586 453.765 215.359 454.211 216.48Z" fill="#FBBEBE"/>
<path d="M447.888 221.535C449.007 221.548 450.124 221.424 451.213 221.167C452.313 220.91 453.282 220.262 453.942 219.345C454.326 218.764 454.575 218.032 455.187 217.705C456.188 217.186 457.329 218.063 458.128 218.868C458.855 219.661 459.698 220.34 460.628 220.881C461.739 221.468 463.035 221.675 464.083 222.366C464.902 222.984 465.605 223.744 466.158 224.608L473.509 234.624C476.461 238.652 479.029 242.975 481.659 247.226C483.936 250.905 485.129 255.14 486.846 259.111C486.982 259.354 487.039 259.633 487.007 259.91C486.945 260.18 486.618 260.398 486.39 260.242C487.163 261.01 486.483 262.318 486.665 263.398C486.871 264.153 487.302 264.828 487.899 265.334C486.758 265.185 485.598 265.239 484.476 265.495C483.315 265.824 482.22 266.35 481.239 267.052C480.611 266.953 480.668 265.837 480.201 265.422C479.921 265.178 479.506 265.209 479.138 265.136C477.753 264.867 477.203 263.201 476.139 262.261C475.252 261.477 473.997 261.223 473.058 260.486C471.533 259.287 471.206 257.154 470.407 255.384C469.727 253.884 468.659 252.577 468.062 251.04C467.673 250.044 467.486 248.964 466.931 248.046C466.044 246.561 464.374 245.773 462.781 245.061C461.775 244.61 460.706 244.143 459.622 244.216C459.679 246.629 459.985 249.006 459.461 251.362C459.28 252.193 459.026 253.002 458.808 253.827C457.817 257.543 457.583 261.415 457.537 265.245C455.153 264.7 452.719 264.408 450.274 264.373C448.35 264.316 446.43 264.566 444.506 264.529C442.223 264.488 439.966 264.046 437.684 263.891C435.401 263.735 433.015 263.891 430.997 264.929C431.161 261.64 431.069 258.343 430.722 255.068L430.172 249.909C430.048 248.41 429.818 246.922 429.482 245.456C429.182 244.273 428.746 243.131 428.414 241.953C427.247 237.801 427.459 233.368 427.682 229.045C427.796 226.824 428.652 224.639 429.659 222.661C430.023 221.927 430.439 221.219 430.904 220.544C432.12 218.868 433.741 217.527 435.615 216.646C437.489 215.766 439.555 215.375 441.621 215.51C441.885 215.518 442.145 215.574 442.389 215.676C442.827 215.956 443.169 216.364 443.369 216.843C444.443 218.773 446 220.39 447.888 221.535Z" fill="#3F3D56"/>
<path d="M458.138 209.37C457.905 208.851 457.277 208.659 456.893 208.244C456.157 207.455 456.489 206.194 456.375 205.13C456.188 203.573 454.896 202.27 453.418 201.715C451.91 201.231 450.306 201.129 448.749 201.419C447.999 201.474 447.276 201.714 446.643 202.119C446.373 202.317 446.124 202.571 445.87 202.753C445.406 203.033 444.852 203.121 444.325 202.998C443.797 202.874 443.339 202.55 443.048 202.093C444.884 199.883 446.918 197.547 449.709 196.867C450.666 196.672 451.642 196.579 452.619 196.592C453.91 196.566 455.244 196.545 456.437 197.038C458.06 197.708 459.202 199.249 459.788 200.91C460.301 202.594 460.575 204.341 460.602 206.1C460.709 207.274 460.709 208.455 460.602 209.629C460.402 211.233 459.806 212.761 458.87 214.077C458.743 214.282 458.564 214.448 458.351 214.56C455.985 215.598 458.33 209.801 458.138 209.37Z" fill="#3F3D56"/>
<path d="M443.318 200.812C443.603 198.367 445.346 196.348 447.198 194.724C448.691 193.315 450.469 192.244 452.412 191.584C454.367 191.008 456.619 191.132 458.294 192.3C459.643 193.239 460.499 194.734 461.158 196.239C462.023 198.015 462.452 199.973 462.408 201.948C462.278 203.91 461.324 205.898 459.622 206.889C459.01 205.986 457.947 205.519 456.925 205.15C452.471 203.46 447.928 202.011 443.318 200.812Z" fill="#FED253"/>
<path opacity="0.1" d="M459.052 199.794C458.886 199.794 458.777 199.966 458.694 200.106C458.271 200.764 457.908 201.459 457.609 202.182C458.216 202.311 459.259 202.457 459.56 201.922C459.721 201.652 459.529 199.768 459.052 199.794Z" fill="black"/>
<path opacity="0.1" d="M447.229 198.621C447.354 198.741 447.499 198.497 447.499 198.32V196.307C447.502 196.251 447.49 196.195 447.463 196.146C447.441 196.121 447.415 196.101 447.385 196.087C447.356 196.073 447.324 196.064 447.291 196.063C446.871 196.016 446.524 196.374 446.254 196.717C445.845 197.272 445.489 197.864 445.191 198.486L447.385 198.419" fill="black"/>
<path d="M419.844 231.967C419.367 231.514 418.857 231.096 418.319 230.716C416.882 229.756 415.144 229.377 413.531 228.765C411.918 228.152 410.278 227.161 409.651 225.552C409.336 224.546 409.234 223.486 409.35 222.438C409.335 222 409.412 221.563 409.578 221.156C409.775 220.797 410.057 220.491 410.398 220.264C412.587 218.644 415.523 218.515 418.241 218.681C424.234 219.053 430.108 220.52 435.573 223.009C435.862 223.105 436.115 223.286 436.299 223.528C436.405 223.753 436.454 224.001 436.439 224.25C436.536 225.78 436.337 227.315 435.853 228.77C435.137 230.618 433.664 232.107 433.046 233.991C432.766 234.837 432.673 235.735 432.429 236.586C432.229 237.465 431.71 238.238 430.971 238.756C428.922 239.98 426.987 238.335 425.566 237.059L419.844 231.967Z" fill="#3F3D56"/>
<path d="M446.679 239.155L449.309 233.415C449.695 232.62 450.028 231.8 450.305 230.96C450.606 229.959 450.751 228.921 451.031 227.914C451.955 224.561 454.284 221.769 455.42 218.483C455.492 218.187 455.638 217.913 455.846 217.689C456.011 217.572 456.201 217.493 456.401 217.457C456.601 217.421 456.806 217.429 457.002 217.482C458.59 217.757 459.83 218.966 461.282 219.651C461.956 219.963 462.683 220.17 463.357 220.528C463.694 220.688 463.993 220.919 464.233 221.204C464.473 221.49 464.648 221.824 464.747 222.184C464.908 222.978 464.514 223.741 464.182 224.514C462.771 227.701 462.449 231.261 462.387 234.749C462.34 237.095 462.46 239.612 463.845 241.496C466.506 245.129 464.804 250.464 463.808 254.86C463.689 255.379 463.549 255.94 463.466 256.49C463.378 257.178 463.338 257.872 463.347 258.566C463.347 260.896 463.476 263.299 464.452 265.411C463.489 265.924 462.428 266.225 461.339 266.294C458.327 266.678 455.303 266.948 452.266 267.103C451.315 267.193 450.355 267.144 449.418 266.958C448.305 266.657 447.324 265.994 446.63 265.073C445.935 264.152 445.568 263.025 445.585 261.872C445.419 263.31 445.112 264.872 444.07 265.868C443.027 266.865 441.507 267.015 440.091 267.093C436.094 267.305 432.086 267.192 428.108 266.756C427.854 266.744 427.604 266.686 427.371 266.584C426.603 266.2 426.562 265.142 426.624 264.29C426.738 262.697 426.857 261.104 427.049 259.521C427.212 258.512 427.295 257.491 427.298 256.469C427.219 255.418 427.046 254.375 426.78 253.355C426.085 250.117 425.535 246.81 425.768 243.494C425.86 242.686 425.893 241.873 425.867 241.06C425.732 239.228 424.767 237.484 424.948 235.662C425.467 230.306 425.887 224.81 427.381 219.641C427.651 218.717 427.994 217.726 428.798 217.196C429.835 216.501 431.293 216.864 432.481 216.423C433.038 216.164 433.568 215.849 434.063 215.484C435.138 214.811 436.37 214.432 437.637 214.383C438.592 214.347 439.655 214.56 440.231 215.328C440.498 215.76 440.674 216.242 440.75 216.745C441.502 219.911 442.384 223.04 443.266 226.17L444.111 229.17L446.378 237.225C446.601 238.081 446.451 238.346 446.679 239.155Z" fill="#15BAC0"/>
<path d="M433.415 207.73L383.236 260.486V264.96H405.61L443.318 215.722" fill="#F1C0C0"/>
<path opacity="0.1" d="M433.415 207.73L383.236 260.486V264.96H405.61L443.318 215.722" fill="black"/>
<path opacity="0.1" d="M442.519 215.027L442.358 215.084L405.288 260.486H383.236V264.96H405.61L443.318 215.722L442.519 215.027Z" fill="black"/>
<path d="M436.745 216.138C438.561 216.932 440.579 217.949 441.123 219.859C441.231 220.194 441.254 220.551 441.191 220.897C441.058 221.304 440.805 221.661 440.465 221.922C440.125 222.182 439.714 222.333 439.287 222.355C438.433 222.376 437.583 222.22 436.792 221.899L426.079 218.359C425.789 218.266 425.457 218.125 425.384 217.84C425.366 217.66 425.402 217.479 425.488 217.321C425.82 216.511 426.147 214.856 426.842 214.29C427.413 213.833 428.543 213.994 429.233 214.005C431.889 214.025 434.385 215.1 436.745 216.138Z" fill="#15BAC0"/>
<path d="M427.195 218.779C425.39 218.774 423.596 219.053 421.877 219.605C420.152 220.165 418.623 221.21 417.473 222.615C417.138 223.007 416.9 223.473 416.778 223.974C416.674 224.493 414.983 224.805 415.357 225.158C414.221 224.976 414.49 225.511 413.339 225.5C412.187 225.49 410.942 225.194 410.252 224.276C409.773 223.521 409.559 222.628 409.645 221.738C409.63 221.121 409.747 220.509 409.988 219.942C410.506 218.852 411.699 218.265 412.799 217.762L422.064 213.522C422.602 213.236 423.179 213.031 423.776 212.915C424.279 212.867 424.786 212.879 425.286 212.951L429.482 213.434C428.565 214.028 427.817 214.851 427.314 215.822C426.811 216.793 426.57 217.879 426.614 218.971" fill="#3F3D56"/>
</g>
<defs>
<clipPath id="clip0_44_463">
<rect width="611" height="376" fill="white" transform="matrix(-1 0 0 1 611 0)"/>
</clipPath>
</defs>
</svg>
