<svg width="100" height="100" viewBox="0 0 100 100" fill="none" xmlns="http://www.w3.org/2000/svg">
<mask id="path-1-inside-1_7_56" fill="white">
<path d="M0 54.6827H14.8581L14.8581 100H85.1356V54.6827H100L49.9953 0L0 54.6827ZM78.9015 48.4329V93.7502H21.0861L21.0861 48.4329H14.1665L49.9953 9.24653L85.8242 48.4329H78.9015Z"/>
</mask>
<path d="M0 54.6827H14.8581L14.8581 100H85.1356V54.6827H100L49.9953 0L0 54.6827ZM78.9015 48.4329V93.7502H21.0861L21.0861 48.4329H14.1665L49.9953 9.24653L85.8242 48.4329H78.9015Z" fill="white"/>
<path d="M0 54.6827L-13.2845 42.5368L-40.8463 72.6827H0L0 54.6827ZM14.8581 54.6827H32.8581V36.6827H14.8581V54.6827ZM14.8581 100H-3.14192L-3.14192 118H14.8581V100ZM85.1356 100V118H103.136V100H85.1356ZM85.1356 54.6827V36.6827H67.1356V54.6827H85.1356ZM100 54.6827V72.6827H140.851L113.283 42.5356L100 54.6827ZM49.9953 0L63.2787 -12.1471L49.9941 -26.6745L36.7108 -12.1458L49.9953 0ZM78.9015 48.4329V30.4329L60.9015 30.4329V48.4329H78.9015ZM78.9015 93.7502V111.75H96.9015V93.7502H78.9015ZM21.0861 93.7502H3.08613L3.08613 111.75H21.0861V93.7502ZM21.0861 48.4329H39.0861V30.4329H21.0861V48.4329ZM14.1665 48.4329L0.882188 36.2868L-26.681 66.4329H14.1665V48.4329ZM49.9953 9.24653L63.2796 -2.89956L49.9953 -17.4287L36.711 -2.89956L49.9953 9.24653ZM85.8242 48.4329V66.4329H126.672L99.1085 36.2868L85.8242 48.4329ZM0 72.6827H14.8581V36.6827H0L0 72.6827ZM-3.14192 54.6827L-3.14192 100H32.8581V54.6827H-3.14192ZM14.8581 118H85.1356V82H14.8581L14.8581 118ZM103.136 100V54.6827H67.1356V100H103.136ZM85.1356 72.6827H100V36.6827H85.1356V72.6827ZM113.283 42.5356L63.2787 -12.1471L36.7119 12.1471L86.7166 66.8297L113.283 42.5356ZM36.7108 -12.1458L-13.2845 42.5368L13.2845 66.8285L63.2799 12.1458L36.7108 -12.1458ZM60.9015 48.4329V93.7502H96.9015V48.4329H60.9015ZM78.9015 75.7502H21.0861V111.75H78.9015V75.7502ZM39.0861 93.7502V48.4329H3.08613L3.08613 93.7502H39.0861ZM21.0861 30.4329H14.1665L14.1665 66.4329H21.0861L21.0861 30.4329ZM27.4508 60.5789L63.2796 21.3926L36.711 -2.89956L0.882188 36.2868L27.4508 60.5789ZM36.711 21.3926L72.5399 60.5789L99.1085 36.2868L63.2796 -2.89956L36.711 21.3926ZM85.8242 30.4329H78.9015V66.4329H85.8242V30.4329Z" fill="white" mask="url(#path-1-inside-1_7_56)"/>
</svg>
