<svg width="100" height="100" viewBox="0 0 100 100" fill="none" xmlns="http://www.w3.org/2000/svg">
<path d="M98.2202 100C98.2195 100 98.2181 100 98.2167 100L51.6313 99.929H1.78049C0.796946 99.929 0 99.2932 0 98.5085V34.6045C0 33.8199 0.796946 33.1841 1.78049 33.1841H26.6439V1.42045C26.6439 0.635795 27.4409 0 28.4244 0H98.2195C99.2031 0 100 0.635795 100 1.42045V98.5795C100 98.9568 99.812 99.3182 99.4772 99.5852C99.1439 99.8506 98.6917 100 98.2202 100ZM53.4146 97.0909L96.439 97.1562V2.84091H30.2049V33.1841H51.6341C52.6177 33.1841 53.4146 33.8199 53.4146 34.6045V97.0909ZM3.56097 97.0881H49.8536V36.025H3.56097V97.0881ZM44.3569 87.8602H30.2704C29.2869 87.8602 28.4899 87.2244 28.4899 86.4398V79.8631C28.4899 79.0784 29.2869 78.4426 30.2704 78.4426H44.3569C45.3405 78.4426 46.1374 79.0784 46.1374 79.8631V86.4398C46.1374 87.2244 45.3405 87.8602 44.3569 87.8602ZM32.0509 85.0193H42.5764V81.2835H32.0509V85.0193ZM23.1449 87.8602H9.05841C8.07487 87.8602 7.27792 87.2244 7.27792 86.4398V79.8631C7.27792 79.0784 8.07487 78.4426 9.05841 78.4426H23.1449C24.1285 78.4426 24.9254 79.0784 24.9254 79.8631V86.4398C24.9254 87.2244 24.1285 87.8602 23.1449 87.8602ZM10.8389 85.0193H21.3644V81.2835H10.8389V85.0193ZM86.1186 87.1307H79.3079C78.3244 87.1307 77.5274 86.4949 77.5274 85.7102V79.8057C77.5274 79.021 78.3244 78.3852 79.3079 78.3852H86.1186C87.1022 78.3852 87.8991 79.021 87.8991 79.8057V85.7102C87.8991 86.4949 87.1022 87.1307 86.1186 87.1307ZM81.0891 84.2898H84.3388V81.2261H81.0891V84.2898ZM66.477 87.1307H59.6663C58.6827 87.1307 57.8858 86.4949 57.8858 85.7102V79.8057C57.8858 79.021 58.6827 78.3852 59.6663 78.3852H66.477C67.4605 78.3852 68.2575 79.021 68.2575 79.8057V85.7102C68.2575 86.4949 67.4605 87.1307 66.477 87.1307ZM61.4468 84.2898H64.6965V81.2261H61.4468V84.2898ZM44.3569 75.0097H30.2704C29.2869 75.0097 28.4899 74.3739 28.4899 73.5892V67.0125C28.4899 66.2278 29.2869 65.592 30.2704 65.592H44.3569C45.3405 65.592 46.1374 66.2278 46.1374 67.0125V73.5892C46.1374 74.3733 45.3405 75.0097 44.3569 75.0097ZM32.0509 72.1687H42.5764V68.433H32.0509V72.1687ZM23.1449 75.0097H9.05841C8.07487 75.0097 7.27792 74.3739 7.27792 73.5892V67.0125C7.27792 66.2278 8.07487 65.592 9.05841 65.592H23.1449C24.1285 65.592 24.9254 66.2278 24.9254 67.0125V73.5892C24.9254 74.3733 24.1285 75.0097 23.1449 75.0097ZM10.8389 72.1687H21.3644V68.433H10.8389V72.1687ZM86.1186 72.9767H79.3079C78.3244 72.9767 77.5274 72.3409 77.5274 71.5563V65.6523C77.5274 64.8676 78.3244 64.2318 79.3079 64.2318H86.1186C87.1022 64.2318 87.8991 64.8676 87.8991 65.6523V71.5563C87.8991 72.3409 87.1022 72.9767 86.1186 72.9767ZM81.0891 70.1358H84.3388V67.0727H81.0891V70.1358ZM66.477 72.9767H59.6663C58.6827 72.9767 57.8858 72.3409 57.8858 71.5563V65.6523C57.8858 64.8676 58.6827 64.2318 59.6663 64.2318H66.477C67.4605 64.2318 68.2575 64.8676 68.2575 65.6523V71.5563C68.2575 72.3409 67.4605 72.9767 66.477 72.9767ZM61.4468 70.1358H64.6965V67.0727H61.4468V70.1358ZM44.3569 62.1585H30.2704C29.2869 62.1585 28.4899 61.5227 28.4899 60.7381V54.1614C28.4899 53.3767 29.2869 52.7409 30.2704 52.7409H44.3569C45.3405 52.7409 46.1374 53.3767 46.1374 54.1614V60.7381C46.1374 61.5227 45.3405 62.1585 44.3569 62.1585ZM32.0509 59.3176H42.5764V55.5818H32.0509V59.3176ZM23.1449 62.1585H9.05841C8.07487 62.1585 7.27792 61.5227 7.27792 60.7381V54.1614C7.27792 53.3767 8.07487 52.7409 9.05841 52.7409H23.1449C24.1285 52.7409 24.9254 53.3767 24.9254 54.1614V60.7381C24.9254 61.5227 24.1285 62.1585 23.1449 62.1585ZM10.8389 59.3176H21.3644V55.5818H10.8389V59.3176ZM86.1186 58.8227H79.3079C78.3244 58.8227 77.5274 58.1869 77.5274 57.4023V51.4983C77.5274 50.7136 78.3244 50.0778 79.3079 50.0778H86.1186C87.1022 50.0778 87.8991 50.7136 87.8991 51.4983V57.4028C87.8991 58.1869 87.1022 58.8227 86.1186 58.8227ZM81.0891 55.9818H84.3388V52.9182H81.0891V55.9818ZM66.477 58.8227H59.6663C58.6827 58.8227 57.8858 58.1869 57.8858 57.4023V51.4983C57.8858 50.7136 58.6827 50.0778 59.6663 50.0778H66.477C67.4605 50.0778 68.2575 50.7136 68.2575 51.4983V57.4028C68.2575 58.1869 67.4605 58.8227 66.477 58.8227ZM61.4468 55.9818H64.6965V52.9182H61.4468V55.9818ZM44.3569 49.3074H30.2704C29.2869 49.3074 28.4899 48.6716 28.4899 47.8869V41.3102C28.4899 40.5256 29.2869 39.8898 30.2704 39.8898H44.3569C45.3405 39.8898 46.1374 40.5256 46.1374 41.3102V47.8875C46.1374 48.6716 45.3405 49.3074 44.3569 49.3074ZM32.0509 46.4665H42.5764V42.7301H32.0509V46.4665ZM23.1449 49.3074H9.05841C8.07487 49.3074 7.27792 48.6716 7.27792 47.8869V41.3102C7.27792 40.5256 8.07487 39.8898 9.05841 39.8898H23.1449C24.1285 39.8898 24.9254 40.5256 24.9254 41.3102V47.8875C24.9254 48.6716 24.1285 49.3074 23.1449 49.3074ZM10.8389 46.4665H21.3644V42.7301H10.8389V46.4665ZM86.1186 44.6687H79.3079C78.3244 44.6687 77.5274 44.033 77.5274 43.2483V37.3443C77.5274 36.5597 78.3244 35.9239 79.3079 35.9239H86.1186C87.1022 35.9239 87.8991 36.5597 87.8991 37.3443V43.2483C87.8991 44.033 87.1022 44.6687 86.1186 44.6687ZM81.0891 41.8278H84.3388V38.7648H81.0891V41.8278ZM66.477 44.6687H59.6663C58.6827 44.6687 57.8858 44.033 57.8858 43.2483V37.3443C57.8858 36.5597 58.6827 35.9239 59.6663 35.9239H66.477C67.4605 35.9239 68.2575 36.5597 68.2575 37.3443V43.2483C68.2575 44.033 67.4605 44.6687 66.477 44.6687ZM61.4468 41.8278H64.6965V38.7648H61.4468V41.8278ZM86.1186 30.5153H79.3079C78.3244 30.5153 77.5274 29.8795 77.5274 29.0949V23.1903C77.5274 22.4057 78.3244 21.7699 79.3079 21.7699H86.1186C87.1022 21.7699 87.8991 22.4057 87.8991 23.1903V29.0949C87.8991 29.879 87.1022 30.5153 86.1186 30.5153ZM81.0891 27.6744H84.3388V24.6108H81.0891V27.6744ZM66.477 30.5153H59.6663C58.6827 30.5153 57.8858 29.8795 57.8858 29.0949V23.1903C57.8858 22.4057 58.6827 21.7699 59.6663 21.7699H66.477C67.4605 21.7699 68.2575 22.4057 68.2575 23.1903V29.0949C68.2575 29.879 67.4605 30.5153 66.477 30.5153ZM61.4468 27.6744H64.6965V24.6108H61.4468V27.6744ZM46.8347 30.5153H40.0239C39.0404 30.5153 38.2434 29.8795 38.2434 29.0949V23.1903C38.2434 22.4057 39.0404 21.7699 40.0239 21.7699H46.8347C47.8182 21.7699 48.6151 22.4057 48.6151 23.1903V29.0949C48.6151 29.879 47.8182 30.5153 46.8347 30.5153ZM41.8051 27.6744H45.0549V24.6108H41.8051V27.6744ZM86.1186 16.3608H79.3079C78.3244 16.3608 77.5274 15.725 77.5274 14.9403V9.03636C77.5274 8.2517 78.3244 7.61591 79.3079 7.61591H86.1186C87.1022 7.61591 87.8991 8.2517 87.8991 9.03636V14.9409C87.8991 15.725 87.1022 16.3608 86.1186 16.3608ZM81.0891 13.5199H84.3388V10.4563H81.0891V13.5199ZM66.477 16.3608H59.6663C58.6827 16.3608 57.8858 15.725 57.8858 14.9403V9.03636C57.8858 8.2517 58.6827 7.61591 59.6663 7.61591H66.477C67.4605 7.61591 68.2575 8.2517 68.2575 9.03636V14.9409C68.2575 15.725 67.4605 16.3608 66.477 16.3608ZM61.4468 13.5199H64.6965V10.4563H61.4468V13.5199ZM46.8347 16.3608H40.0239C39.0404 16.3608 38.2434 15.725 38.2434 14.9403V9.03636C38.2434 8.2517 39.0404 7.61591 40.0239 7.61591H46.8347C47.8182 7.61591 48.6151 8.2517 48.6151 9.03636V14.9409C48.6151 15.725 47.8182 16.3608 46.8347 16.3608ZM41.8051 13.5199H45.0549V10.4563H41.8051V13.5199Z" fill="white"/>
</svg>
